<?xml version="1.0" encoding="UTF-8"?>
<svg id="Layer_2" data-name="Layer 2" xmlns="http://www.w3.org/2000/svg" viewBox="0 0 480.98 375.27">
  <defs>
    <style>
      .cls-1 {
        fill: #fff;
      }

      .cls-2, .cls-3 {
        fill: none;
        stroke-linecap: round;
        stroke-linejoin: round;
      }

      .cls-2, .cls-4 {
        stroke: #000;
      }

      .cls-5 {
        fill: #fcbd12;
      }

      .cls-3 {
        stroke: #fff;
      }

      .cls-4 {
        stroke-miterlimit: 10;
      }

      .cls-4, .cls-6 {
        fill: #311514;
      }
    </style>
  </defs>
  <g id="Layer_3" data-name="Layer 3">
    <g>
      <ellipse class="cls-6" cx="46.1" cy="125.48" rx="30.4" ry="33"/>
      <path class="cls-5" d="M84.55,271.5c0,57.3-8.55,103.77-39.4,103.77S0,328.8,0,271.5C0,234.1-.31,201.33,12.23,183.06c6.66-9.72,16.99-15.34,32.92-15.34s25.1,5.53,30.87,15.14c10.98,18.22,8.53,51.12,8.53,88.65Z"/>
      <path class="cls-5" d="M189.09,271.49c0,57.31-8.54,103.77-39.4,103.77s-45.13-46.46-45.13-103.77-.72-103.77,45.13-103.77,39.4,46.46,39.4,103.77Z"/>
      <path class="cls-5" d="M441.04,254.12c0,57.31-8.54,103.77-39.4,103.77s-45.13-46.46-45.13-103.77-.72-103.77,45.13-103.77,39.4,46.46,39.4,103.77Z"/>
      <path class="cls-5" d="M303.76,268.52c0,57.31-8.54,103.77-39.4,103.77s-45.13-46.46-45.13-103.77-.72-103.77,45.13-103.77,39.4,46.46,39.4,103.77Z"/>
      <ellipse class="cls-6" cx="74.71" cy="125.48" rx="5.73" ry="11.46"/>
      <ellipse class="cls-6" cx="17.96" cy="125.48" rx="5.73" ry="11.46"/>
      <ellipse class="cls-1" cx="34.56" cy="123.52" rx="5.57" ry="9.5"/>
      <ellipse class="cls-1" cx="56.77" cy="123.52" rx="5.57" ry="9.5"/>
      <path class="cls-1" d="M38.67,141.06h18.11s-5.16,9.31-10.68,9.31-9.58-5.79-7.43-9.31Z"/>
      <ellipse class="cls-6" cx="146.7" cy="125.48" rx="30.4" ry="33"/>
      <ellipse class="cls-6" cx="175.31" cy="125.48" rx="5.73" ry="11.46"/>
      <ellipse class="cls-6" cx="118.57" cy="125.48" rx="5.73" ry="11.46"/>
      <path class="cls-1" d="M140.74,120.73c0,5.25-2.49,9.5-5.57,9.5s-5.57-4.25-5.57-9.5"/>
      <path class="cls-1" d="M162.95,120.73c0,5.25-2.49,9.5-5.57,9.5s-5.57-4.25-5.57-9.5"/>
      <ellipse class="cls-6" cx="261.37" cy="125.48" rx="30.4" ry="33"/>
      <ellipse class="cls-6" cx="289.98" cy="125.48" rx="5.73" ry="11.46"/>
      <ellipse class="cls-6" cx="233.23" cy="125.48" rx="5.73" ry="11.46"/>
      <ellipse class="cls-6" cx="398.66" cy="111.08" rx="30.4" ry="33"/>
      <ellipse class="cls-6" cx="427.27" cy="111.08" rx="5.73" ry="11.46"/>
      <ellipse class="cls-6" cx="370.52" cy="111.08" rx="5.73" ry="11.46"/>
      <ellipse class="cls-1" cx="398.66" cy="128.62" rx="5.57" ry="7.35"/>
      <path class="cls-1" d="M393.12,105.69c0,5.25-2.49,9.5-5.57,9.5s-5.57-4.25-5.57-9.5"/>
      <path class="cls-1" d="M415.33,105.69c0,5.25-2.49,9.5-5.57,9.5s-5.57-4.25-5.57-9.5"/>
      <path class="cls-1" d="M137.03,145.64h19.34s-4.12-7.95-9.67-7.95-7.52,3.98-9.67,7.95Z"/>
      <path class="cls-1" d="M248.5,135.67h26.22s-5.58,10.78-13.11,10.78-10.2-5.39-13.11-10.78Z"/>
      <path class="cls-1" d="M255.5,124.75c0,2.57-3.06-2.46-6.84-2.46s-6.84,5.03-6.84,2.46,3.06-4.66,6.84-4.66,6.84,2.08,6.84,4.66Z"/>
      <path class="cls-1" d="M281.53,124.75c0,2.57-3.06-2.46-6.84-2.46s-6.84,5.03-6.84,2.46,3.06-4.66,6.84-4.66,6.84,2.08,6.84,4.66Z"/>
      <ellipse class="cls-1" cx="376.25" cy="234.79" rx="12.18" ry="23.16"/>
      <ellipse class="cls-1" cx="421.53" cy="234.79" rx="12.18" ry="23.16"/>
      <path class="cls-5" d="M245.06,16.77c-20.03.89-27.79,4.38-29.84,25.77-.48,7.92-1.53,17.06,5.67,21.23,5.13,3.19,11.26,4.54,17.34,5.01,13.04,1.26,24.65-4.17,36.81-5.99,5.75-.71,11.27.36,16.94,1.39,9.49,1.86,24.95,2.51,26.15-9.36.16-4.62-1.86-8.71-3.98-13.15-3.69-6.98-6.6-14.83-7.58-22.33-1.08-10.58-6.29-18.89-17.61-19.26-16.31-1.29-28.19,14.68-43.27,16.61l-.61.09Z"/>
      <g>
        <path class="cls-2" d="M303.99,87.39v16.12-32.24,16.12Z"/>
        <path class="cls-2" d="M227.5,89.54v16.12-32.24,16.12Z"/>
        <path class="cls-3" d="M281.53,99.57v16.12-32.24,16.12Z"/>
        <path class="cls-3" d="M247.68,114.02v16.12-32.24,16.12Z"/>
      </g>
      <g>
        <path class="cls-2" d="M303.99,162.57v16.12-32.24,16.12Z"/>
        <path class="cls-2" d="M227.5,164.72v16.12-32.24,16.12Z"/>
        <path class="cls-3" d="M281.53,174.75v16.12-32.24,16.12Z"/>
        <path class="cls-3" d="M247.68,189.2v16.12-32.24,16.12Z"/>
      </g>
      <g>
        <path class="cls-3" d="M303.99,250.62v16.12-32.24,16.12Z"/>
        <path class="cls-3" d="M227.5,252.77v16.12-32.24,16.12Z"/>
        <path class="cls-3" d="M281.53,262.79v16.12-32.24,16.12Z"/>
        <path class="cls-3" d="M247.68,277.24v16.12-32.24,16.12Z"/>
      </g>
      <g>
        <path class="cls-2" d="M303.99,320.82v16.12-32.24,16.12Z"/>
        <path class="cls-3" d="M227.5,322.97v16.12-32.24,16.12Z"/>
        <path class="cls-3" d="M281.53,333v16.12-32.24,16.12Z"/>
        <path class="cls-3" d="M247.68,347.45v16.12-32.24,16.12Z"/>
      </g>
      <path class="cls-6" d="M325.54,342.41c-.24-2.97.56-5.92,2.26-8.37,7.92-11.41,31.71-43.77,42.12-36.26,12.58,9.07,19.26,22.45,30.73,16.72,11.46-5.73,19.09-19.91,26.02-17.83,6.93,2.07,5.97,11.21,16.72,15.48s15.05,2.04,16.96,13.66c1.91,11.62-5.25,42.58-3.82,41.66,1.3-.83-43.22,3.05-51.26,3.76-.83.07-1.66.06-2.49-.02l-64.95-6.96c-.46-.05-.92-.12-1.37-.22h0c-5.55-1.21-9.66-5.91-10.11-11.58l-.8-10.03Z"/>
      <circle class="cls-5" cx="148.63" cy="51.74" r="19.19"/>
      <line class="cls-4" x1="169.62" y1="60.28" x2="183.42" y2="68.25"/>
      <line class="cls-4" x1="155.96" y1="73.18" x2="159" y2="88.84"/>
      <line class="cls-4" x1="137.26" y1="71.34" x2="127.44" y2="83.91"/>
      <line class="cls-4" x1="126.38" y1="56.02" x2="110.45" y2="56.85"/>
      <line class="cls-4" x1="130.8" y1="37.76" x2="119.73" y2="26.29"/>
      <line class="cls-4" x1="147.49" y1="29.12" x2="148.88" y2="13.23"/>
      <line class="cls-4" x1="164.96" y1="36.04" x2="177.86" y2="26.67"/>
      <circle class="cls-6" cx="446.41" cy="100.06" r="7.14"/>
      <circle class="cls-6" cx="465.19" cy="119.81" r="5.68"/>
      <circle class="cls-6" cx="446.41" cy="136.94" r="5.68"/>
      <circle class="cls-6" cx="456.53" cy="191.94" r="7.14"/>
      <circle class="cls-6" cx="475.3" cy="211.68" r="5.68"/>
      <circle class="cls-6" cx="456.53" cy="228.82" r="5.68"/>
      <circle class="cls-6" cx="370.71" cy="182.45" r="7.14"/>
      <circle class="cls-6" cx="351.94" cy="162.71" r="5.68"/>
      <circle class="cls-6" cx="370.71" cy="145.57" r="5.68"/>
      <circle class="cls-6" cx="345.86" cy="240.24" r="7.14"/>
      <circle class="cls-6" cx="364.64" cy="259.99" r="5.68"/>
      <circle class="cls-6" cx="345.86" cy="277.13" r="5.68"/>
      <circle class="cls-6" cx="437.76" cy="272.8" r="7.14"/>
      <circle class="cls-6" cx="456.53" cy="292.55" r="5.68"/>
      <circle class="cls-6" cx="437.76" cy="309.68" r="5.68"/>
    </g>
  </g>
</svg>