<?xml version="1.0" encoding="UTF-8"?>
<svg id="Layer_2" data-name="Layer 2" xmlns="http://www.w3.org/2000/svg" viewBox="0 0 313.74 238.97">
  <defs>
    <style>
      .cls-1 {
        fill: #fff;
      }

      .cls-2 {
        fill: #fcbd12;
      }

      .cls-3 {
        fill: none;
        stroke: #231f20;
        stroke-miterlimit: 10;
      }

      .cls-4 {
        fill: #311514;
      }
    </style>
  </defs>
  <g id="Layer_3" data-name="Layer 3">
    <g>
      <path class="cls-4" d="M213.5,123.99l-.19.5h-15.69c-2.39,0-4.34,1.95-4.34,4.34v49.51l-.5,1.34v-37.4c-.17.13-.33.26-.5.38-5.11,3.82-11.55,5.89-18.21,5.74-6.04,13.89-22.75,20.29-37.71,14.3-15.25-6.09-16.06-19.96-10.3-34.38,5.32-13.35,14.42-22.47,27.82-18.93,5.89-13.04,15.72-21.14,30.1-15.4,12.61,5.03,20.05,17.27,18.98,29.5-.01.17-.02.33-.04.5h10.58Z"/>
      <path class="cls-2" d="M313.74,128.83v104.78c0,2.96-2.4,5.36-5.36,5.36h-110.76c-2.94,0-5.34-2.4-5.34-5.36v-104.78c0-2.94,2.4-5.34,5.34-5.34h110.76c2.96,0,5.36,2.4,5.36,5.34Z"/>
      <path class="cls-3" d="M202.92,123.99c1.31-12.4-6.16-24.9-18.94-30-14.38-5.74-24.21,2.36-30.1,15.4,1.09.28,2.2.65,3.34,1.11,15.25,6.09,22.94,22.71,17.18,37.13-.1.26-.21.51-.33.77,6.88.15,13.52-2.06,18.71-6.12"/>
      <path class="cls-2" d="M112.43,163.13c0,52.13-25.17,70.86-56.21,70.86S0,215.26,0,163.13s25.17-94.39,56.21-94.39,56.21,42.26,56.21,94.39Z"/>
      <path class="cls-4" d="M90.53,0c24.52-.26,34.16,18.73,34.32,33.33s-7.8,35.15-32.32,35.41c-24.52.26-36.16-20.45-36.31-35.06C56.06,19.09,66.01.26,90.53,0Z"/>
      <path class="cls-2" d="M308.38,123.49h-110.76c-2.94,0-5.34,2.4-5.34,5.34v104.78c0,2.96,2.4,5.36,5.34,5.36h110.76c2.96,0,5.36-2.4,5.36-5.36v-104.78c0-2.94-2.4-5.34-5.36-5.34ZM312.74,233.61c0,2.4-1.96,4.36-4.36,4.36h-110.76c-2.39,0-4.34-1.96-4.34-4.36v-104.78c0-2.39,1.95-4.34,4.34-4.34h110.76c2.4,0,4.36,1.95,4.36,4.34v104.78Z"/>
      <path class="cls-3" d="M153.88,109.39c-13.4-3.54-22.5,5.58-27.82,18.93-5.76,14.42-4.95,28.29,10.3,34.38,14.96,5.99,31.67-.41,37.71-14.3"/>
      <g>
        <path class="cls-4" d="M205.45,183.42l.17.37.17.27.17.2.24.27.24.47.27.2.27.07.3.24.3.13.34.17h.34l.34.24.67-.03.34-.24.3.1.34-.24h.3l.27-.4.27-.07.24-.13.24-.34.17-.4.13-.2.1-.3.03-.27v-.77l-.03-.24-.1-.4-.1-.2-.13-.3-.17-.44-.17-.2-.17-.27-.2-.3-.24-.17-.2-.3-.24-.3-.24-.13-.2-.4-.24-.13-.24-.17-.24-.44-.24-.24-.2-.13-.24-.34-.2-.07-.24-.3-.2-.2-.2-.4-.17-.3-.2-.27-.17-.13-.13-.47-.17-.37-.1-.1-.13-.44-.1-.27-.07-.2-.07-.5-.07-.34-.03-.34v-.2l.03-.71v-.5l.07-.1.03-.34.07-.5.1-.2.07-.27.13-.34.1-.44.13-.4.17-.13.13-.47.2-.13.17-.44.2-.24.2-.27.23-.17.24-.27.23-.1.27-.44.27-.2h.27l.27-.3.3-.07.27-.37.3-.1.34-.03.3-.17.3-.07.34-.17.34.1.3-.13.34-.03.34-.2.34.2.67-.17.34.07.34.1.34-.13.3.1.34.13.3.1.34.2.3-.03.6.4.3.03.54.34.27.4.47.27.24.44.2.03.17.3.17.37.13.3.1.24.1.37.07.4.07.24.03.44v.64l-.03.27-.03.34-.07.24-.07.34-.13.3-.27.67-.17.2-.2.24-.2.47h-.27l-.23.44-.3-.03-.3.2-.3.07-.3.1-.67.1-.3-.3-.3-.07-.27-.3-.2-.17-.17-.24-.13-.24-.03-.54v-.47l.13-.27.13-.34.17-.4.1-.3.07-.3-.03-.61-.1-.37-.17-.24-.24-.07-.27-.27-.3-.07-.3-.34-.34.03-.34-.13-.3.03-.34.2-.34.03-.91.4-.27.17-.24.17-.2.5-.2.2-.14.34-.14.17-.1.34-.07.5-.03.37v.54l.14.74.14.2.27.74.2.27.17.17.24.3.2.2.24.4.2.07.24.4.24.3.47.34.24.27.24.13.24.27.47.61.2.3.2.27.2.17.2.4.17.27.17.4.17.1.14.44.14.2.13.3.1.3.07.57.07.34.07.2.03.24.03.4v.74l-.03.37-.03.27-.07.37-.1.44-.07.24-.13.27-.13.34-.13.37-.17.2-.17.27-.2.37-.2.27-.24.3-.2.1-.27.4-.24.27-.27.03-.27.3-.27.27-.27.13-.3.24-.61.13-.3.13-.3.2-.34.2-.34.07-.3.17-.34-.07-.34.17-.34.1-.34-.03-.34.1-.34-.2-.67.07-.34.1h-.34l-.34-.2-.3.1-.34-.1-.34-.2-.3-.13h-.34l-.3-.13-.3-.07-.3-.37-.27-.2-.27-.1-.27-.13-.27-.3-.24-.2-.24-.13-.24-.2-.2-.44-.4-.47-.17-.37-.17-.17-.13-.27-.24-.67-.1-.27-.07-.34-.07-.47-.03-.37.03-.67.07-.34.07-.13.13-.47.13-.13.17-.37.24-.37.24-.07.27-.3.3-.13.3-.07.64-.03.3.17.27.17.27.24.4.34.13.24.13.37.2.61.13.37Z"/>
        <path class="cls-4" d="M239.78,166.17v.61l-.1.54-.13.24-.17.37-.24.17-.24.3-.3.03-.3.2-.34.27-.34-.13-.34.13-.71.17-.67-.13-.34.07-.81-.03c-.31,0-.52.12-.61.37l-.24.54-.13.3-.37.74-.13.34-.1.4-.13.3-.13.34-.13.2-.1.34-.4,1.01-.13.37-.1.3-.13.27-.13.4-.13.2-.74,1.88-.13.24-.24.54-.13.57-.13.1-.13.34-.24.71-.13.2-.13.44-.87,2.19-.27.5-.13.27-.1.5-.27.44-.13.34-.1.3-.13.44-.13.3-.13.37-.24.44-.13.4-.13.27-.1.47-.4.81-.17.3-.17.13-.2.47-.2.03-.27.37-.27.07-.27.13-.3.07-.34.07-.98.1-.34-.1-.27-.24-.27-.27-.2-.17-.13-.34-.07-.4-.03-.81.07-.2.07-.24.24-.67.13-.37.1-.24.14-.34.13-.37.13-.34.1-.1.13-.27.13-.47.13-.27.1-.3.13-.34.64-1.68.13-.1.13-.4.1-.4.13-.13.13-.47.13-.34.1-.17.13-.24.13-.34.87-2.39.13-.24.13-.3.13-.4.1-.17.13-.44.13-.27.14-.13.87-2.19.13-.37.13-.27.1-.5.13-.3.13-.37.13-.27.37-.98c.16-.4.03-.6-.37-.6l-1.01-.03-.34.2h-.34l-1.01-.3h-.3l-.27-.1-.2-.3-.17-.5-.07-.07v-.77l.07-.34.1-.34.13-.34.2-.17.2-.34.24-.1.27-.1.3-.17.3-.2.3.03.67-.17h.34l.34-.07.34.24.34-.24.34.07.34-.07.34.24.34-.03h.34l.34.03.34-.24.34.2.34-.13h.34l.27.07.34-.1.27.1.13-.07.34.07h.34l.34-.07.34.13.34-.2.34.13h.34l.67-.13.34.03.34.07.67-.07.34.2.34.03.3.1.3.3.24.27.17.1.1.4Z"/>
        <path class="cls-4" d="M255.35,170.2v.2l-.03.34-.03.47-.03.1-.07.44-.1.24-.07.3-.1.44-.13.4-.13.17-.13.4-.17.2-.17.24-.17.3-.2.24-.2.47-.2.1-.24.44-.24.03-.24.27-.24.2-.27.2-.27.3-.3.24-.27.2-.3.07-.3.24-.3-.03-.3.14-.34.07-.54.13c-.34.11-.44.33-.3.64l.13.27.13.14.13.54.13.2.13.37.13.34.27.47.13.37.27.61.13.44.17.1.13.5.13.37.14.2.13.44.13.2.4.81.13.54.27.44.13.44.13.27.27.5.07.34.07.3-.03.64-.07.54-.1.13-.17.3-.2.17-.24.47-.27.03-.3.1-.3.07-.3.24-.67-.07-.3-.13-.3-.03-.27-.07-.27-.27-.27-.17-.4-.67-.17-.1-.27-.67-.13-.27-.1-.3-.13-.27-.13-.47-.13-.34-.13-.3-.1-.2-.13-.34-.13-.13-.13-.54-.13-.13-.1-.34-.13-.24-.13-.47-.13-.17-.13-.34-.1-.3-.13-.37-.27-.54-.13-.47-.13-.17-.1-.3-.13-.3-.13-.4-.13-.34-.13-.37-.1-.1-.13-.37-.13-.47-.13-.17-.13-.3c-.09-.2-.2-.3-.32-.3s-.23.11-.32.34l-.14.34-.13.1-.13.34-.24.71-.13.2-.13.44-.13.3-.1.3-.13.27-.13.24-.77,1.85-.1.5-.13.17-.13.27-.13.34-.1.3-.13.44-.13.3-.13.37-.24.44-.13.4-.13.27-.1.47-.4.81-.17.3-.17.13-.2.47-.2.03-.27.37-.27.07-.27.13-.3.07-.34.07-.98.1-.34-.1-.27-.24-.27-.27-.2-.17-.13-.34-.07-.4-.03-.81.07-.2.07-.24.24-.67.13-.37.1-.24.13-.34.13-.37.13-.34.1-.1.13-.27.13-.47.13-.27.1-.3.4-.98.1-.24.27-.81.13-.1.13-.4.1-.4.13-.13.13-.47.13-.34.1-.17.13-.24.13-.34.87-2.39.13-.24.13-.3.13-.4.1-.17.13-.44.13-.27.13-.13.1-.57.13-.3.13-.13,1.28-3.26.1-.3.13-.27.13-.2.13-.47.1-.34.13-.1.27-.81.1-.17.13-.37.27-.5.17-.34.17-.47.2-.1.24-.3.24-.4.27-.17.6-.34.34.1.64-.17.03-.03.71.2.34.03.34-.07h.34l.34-.03.34.03.37-.1.34.03.34.1.67-.13h.34l.34.24.34-.2.34.07.34.17.3.07.34.27.3.13.3.2.27.1.27.17.24.34.24.17.24.13.2.44.17.17.17.4.13.2.13.24.1.3.07.44.07.2.07.44v.34l.03.4ZM250.87,170.47l-.03-.27-.1-.4-.17-.3-.2-.13-.24-.27-.27-.17h-.34l-.67-.13h-.67l-.3-.07-.34-.03h-.44l-.2.57-.13.27-.13.34-1.01,2.42-.13.2-.1.34-.13.3-.13.5-.24.5c-.13.34-.02.54.34.61l.4.07.4.03.34-.24.67.03.34-.07h.67l.34-.2.61-.2.27-.4.27-.24.27-.13.2-.2.4-.61.27-.67.1-.4.07-.17.03-.3v-.57Z"/>
        <path class="cls-4" d="M277.1,166.26v.47l-.1.33-.13.5-.17.23-.24.27-.24.2-.3.27-.3-.03-.34.17-.34.1h-1.04l-.34.17-.34-.07-.34.1-.34-.2-.34.03-.34-.03-.37.24-.34-.03h-.34l-.34-.07-.34-.03h-.34l-.34.07-.34-.1-.34.17-.34-.24-.34.17-.34-.07-.34.13-.34-.13h-.34l-.34-.03c-.29-.02-.49.1-.61.37l-.1.3-.13.17-.13.44-.1.24-.13.4-.77,1.92-.13.3-.1.2-.13.37-.13.2-.1.27c-.07.18-.06.31.02.4.08.09.21.15.39.17l.27.03.34-.2.34.13.34-.03h.34l.34-.07h.34l.34.03.34-.07.34.2.34-.1.34-.03.67.03.34.1.34-.07.3.14.3.24.24.27.17.24.1.34v.88l-.1.14-.13.34-.17.44-.24.1-.24.44-.3.14-.3.03-.34.27-.34-.07-.34.07h-.71l-.34.07-.67-.07h-.64l-.34.03-.34.13-.34-.03-.34-.07-.34.1-.34-.13-.34.03h-.3l-.34.1-.47.03c-.29,0-.48.13-.57.4l-.27.74-.13.17-.1.44-.91,2.08-.13.4-.1.17-.13.47-.13.3-.37.81-.2.47c-.16.38-.02.57.4.57l1.08.03.34.17.34-.13.34-.03.67.13.34-.2.34.2.34-.13.34.13.34-.1.34-.03.34.03h.34l.34-.1.34.1.34-.03.34.1.67-.03.34-.07.34.3h.3l.3.13.24.34.17.34.1.24v.84l-.1.17-.13.24-.17.3-.24.47-.24.27-.3.03-.3.24h-.34l-.34.24-.34.03-.71-.07h-.34l-.34.17-.34-.17-.34-.07-.34.03-.34.2-.34-.24-.67.2-.34-.13-.34.13-.34-.17-.34.2-.34-.13-.37.1-.34-.03-.67-.14h-.34l-.34.17-.67-.2-.34.17-.34-.14-.34.17-.34-.07-.34.1-.34-.03-.34-.1-.07.03h-.64l-.34-.03-.34-.34-.27.07-.27-.34-.2-.4-.13-.13-.07-.4-.03-.67.07-.37.07-.27.24-.61.13-.34.1-.34.13-.17.13-.34.13-.2.24-.71.13-.24.13-.44.13-.17.1-.47.13-.2.5-1.41.13-.34.13-.2.13-.3.1-.3.13-.44.13-.1.13-.57.1-.3.13-.17.13-.34.13-.37.87-2.08.13-.27.13-.54.24-.4.13-.44.13-.27.13-.2.1-.34,1.14-2.93.13-.44.13-.2.13-.3.13-.27.37-1.04.13-.2.1-.44.13-.13.27-.64.17-.3.17-.5.2-.2.24-.1.24-.34.27-.13.3-.17.3-.24.34.03.47.03.17-.1h.4l.61.07.34-.17.34-.03.34.17.34-.13.34.03.34.13.34-.24.34.07.34.17.34-.17.34.07.34-.03h.67l.34-.1h.34l.34.07.34.17.34-.13.34.1.34-.2.34.07.34.1.34.07.34-.17.34.13.67-.2.34.24.34-.03.3.23.3.03.24.47.17.23.1.37Z"/>
        <path class="cls-4" d="M276.96,183.42l.17.37.17.27.17.2.24.27.24.47.27.2.27.07.3.24.3.13.34.17h.34l.34.24.67-.03.34-.24.3.1.34-.24h.3l.27-.4.27-.07.24-.13.24-.34.17-.4.13-.2.1-.3.03-.27v-.77l-.03-.24-.1-.4-.1-.2-.13-.3-.17-.44-.17-.2-.17-.27-.2-.3-.24-.17-.2-.3-.24-.3-.24-.13-.2-.4-.24-.13-.24-.17-.24-.44-.24-.24-.2-.13-.24-.34-.2-.07-.24-.3-.2-.2-.2-.4-.17-.3-.2-.27-.17-.13-.13-.47-.17-.37-.1-.1-.13-.44-.1-.27-.07-.2-.07-.5-.07-.34-.03-.34v-.2l.03-.71v-.5l.07-.1.03-.34.07-.5.1-.2.07-.27.13-.34.1-.44.13-.4.17-.13.13-.47.2-.13.17-.44.2-.24.2-.27.23-.17.24-.27.23-.1.27-.44.27-.2h.27l.27-.3.3-.07.27-.37.3-.1.34-.03.3-.17.3-.07.34-.17.34.1.3-.13.34-.03.34-.2.34.2.67-.17.34.07.34.1.34-.13.3.1.34.13.3.1.34.2.3-.03.6.4.3.03.54.34.27.4.47.27.24.44.2.03.17.3.17.37.13.3.1.24.1.37.07.4.07.24.03.44v.64l-.03.27-.03.34-.07.24-.07.34-.13.3-.27.67-.17.2-.2.24-.2.47h-.27l-.23.44-.3-.03-.3.2-.3.07-.3.1-.67.1-.3-.3-.3-.07-.27-.3-.2-.17-.17-.24-.13-.24-.03-.54v-.47l.13-.27.13-.34.17-.4.1-.3.07-.3-.03-.61-.1-.37-.17-.24-.24-.07-.27-.27-.3-.07-.3-.34-.34.03-.34-.13-.3.03-.34.2-.34.03-.91.4-.27.17-.24.17-.2.5-.2.2-.14.34-.14.17-.1.34-.07.5-.03.37v.54l.14.74.14.2.27.74.2.27.17.17.24.3.2.2.24.4.2.07.24.4.24.3.47.34.24.27.24.13.24.27.47.61.2.3.2.27.2.17.2.4.17.27.17.4.17.1.14.44.14.2.13.3.1.3.07.57.07.34.07.2.03.24.03.4v.74l-.03.37-.03.27-.07.37-.1.44-.07.24-.13.27-.13.34-.13.37-.17.2-.17.27-.2.37-.2.27-.24.3-.2.1-.27.4-.24.27-.27.03-.27.3-.27.27-.27.13-.3.24-.61.13-.3.13-.3.2-.34.2-.34.07-.3.17-.34-.07-.34.17-.34.1-.34-.03-.34.1-.34-.2-.67.07-.34.1h-.34l-.34-.2-.3.1-.34-.1-.34-.2-.3-.13h-.34l-.3-.13-.3-.07-.3-.37-.27-.2-.27-.1-.27-.13-.27-.3-.24-.2-.24-.13-.24-.2-.2-.44-.4-.47-.17-.37-.17-.17-.13-.27-.24-.67-.1-.27-.07-.34-.07-.47-.03-.37.03-.67.07-.34.07-.13.13-.47.13-.13.17-.37.24-.37.24-.07.27-.3.3-.13.3-.07.64-.03.3.17.27.17.27.24.4.34.13.24.13.37.2.61.13.37Z"/>
        <path class="cls-4" d="M294.65,183.42l.17.37.17.27.17.2.24.27.24.47.27.2.27.07.3.24.3.13.34.17h.34l.34.24.67-.03.34-.24.3.1.34-.24h.3l.27-.4.27-.07.24-.13.24-.34.17-.4.13-.2.1-.3.03-.27v-.77l-.03-.24-.1-.4-.1-.2-.13-.3-.17-.44-.17-.2-.17-.27-.2-.3-.24-.17-.2-.3-.24-.3-.24-.13-.2-.4-.24-.13-.24-.17-.24-.44-.24-.24-.2-.13-.24-.34-.2-.07-.24-.3-.2-.2-.2-.4-.17-.3-.2-.27-.17-.13-.13-.47-.17-.37-.1-.1-.13-.44-.1-.27-.07-.2-.07-.5-.07-.34-.03-.34v-.2l.03-.71v-.5l.07-.1.03-.34.07-.5.1-.2.07-.27.13-.34.1-.44.13-.4.17-.13.13-.47.2-.13.17-.44.2-.24.2-.27.23-.17.24-.27.23-.1.27-.44.27-.2h.27l.27-.3.3-.07.27-.37.3-.1.34-.03.3-.17.3-.07.34-.17.34.1.3-.13.34-.03.34-.2.34.2.67-.17.34.07.34.1.34-.13.3.1.34.13.3.1.34.2.3-.03.6.4.3.03.54.34.27.4.47.27.24.44.2.03.17.3.17.37.13.3.1.24.1.37.07.4.07.24.03.44v.64l-.03.27-.03.34-.07.24-.07.34-.13.3-.27.67-.17.2-.2.24-.2.47h-.27l-.23.44-.3-.03-.3.2-.3.07-.3.1-.67.1-.3-.3-.3-.07-.27-.3-.2-.17-.17-.24-.13-.24-.03-.54v-.47l.13-.27.13-.34.17-.4.1-.3.07-.3-.03-.61-.1-.37-.17-.24-.24-.07-.27-.27-.3-.07-.3-.34-.34.03-.34-.13-.3.03-.34.2-.34.03-.91.4-.27.17-.24.17-.2.5-.2.2-.14.34-.14.17-.1.34-.07.5-.03.37v.54l.14.74.14.2.27.74.2.27.17.17.24.3.2.2.24.4.2.07.24.4.24.3.47.34.24.27.24.13.24.27.47.61.2.3.2.27.2.17.2.4.17.27.17.4.17.1.14.44.14.2.13.3.1.3.07.57.07.34.07.2.03.24.03.4v.74l-.03.37-.03.27-.07.37-.1.44-.07.24-.13.27-.13.34-.13.37-.17.2-.17.27-.2.37-.2.27-.24.3-.2.1-.27.4-.24.27-.27.03-.27.3-.27.27-.27.13-.3.24-.61.13-.3.13-.3.2-.34.2-.34.07-.3.17-.34-.07-.34.17-.34.1-.34-.03-.34.1-.34-.2-.67.07-.34.1h-.34l-.34-.2-.3.1-.34-.1-.34-.2-.3-.13h-.34l-.3-.13-.3-.07-.3-.37-.27-.2-.27-.1-.27-.13-.27-.3-.24-.2-.24-.13-.24-.2-.2-.44-.4-.47-.17-.37-.17-.17-.13-.27-.24-.67-.1-.27-.07-.34-.07-.47-.03-.37.03-.67.07-.34.07-.13.13-.47.13-.13.17-.37.24-.37.24-.07.27-.3.3-.13.3-.07.64-.03.3.17.27.17.27.24.4.34.13.24.13.37.2.61.13.37Z"/>
      </g>
      <path class="cls-1" d="M115.95,58.9s-15.9-3.39-21.41-8.44,0,18.29,0,18.29c.27.04,10.51,1.6,21.41-9.85Z"/>
    </g>
  </g>
</svg>