<?xml version="1.0" encoding="UTF-8"?>
<svg id="Layer_2" data-name="Layer 2" xmlns="http://www.w3.org/2000/svg" viewBox="0 0 277.47 285.62">
  <defs>
    <style>
      .cls-1 {
        stroke: #000;
      }

      .cls-1, .cls-2 {
        stroke-miterlimit: 10;
      }

      .cls-1, .cls-3 {
        fill: none;
      }

      .cls-2, .cls-3 {
        stroke: #fcbd12;
      }

      .cls-2, .cls-4 {
        fill: #fff;
      }

      .cls-5 {
        fill: #fcbd12;
      }

      .cls-4 {
        stroke: #311514;
      }

      .cls-6 {
        fill: #311514;
      }
    </style>
  </defs>
  <g id="Layer_3" data-name="Layer 3">
    <g>
      <polygon class="cls-6" points="167.97 29.06 22.9 73.21 22.68 72.48 14.24 44.78 159.33 .62 167.75 28.32 167.75 28.34 167.97 29.06"/>
      <polygon class="cls-6" points="232.62 241.47 87.55 285.62 87.33 284.89 78.89 257.19 223.98 213.03 232.4 240.73 232.4 240.75 232.62 241.47"/>
      <rect class="cls-5" x="47.8" y="46.85" width="151.63" height="193.76" transform="translate(-36.49 42.22) rotate(-16.93)"/>
      <path class="cls-1" d="M121.83,65.12c1.47-2.22,3.46-4.28,6.03-6.21,5.69-4.26,14.44-4.65,24.15-2.96M163.67,125.59c6.26,3.37,12.98,6.45,19.97,9.1,5.9,2.25,12.01,4.19,18.24,5.79l22.66,74.47,3.08,10.11,4.61,15.16-15.07,4.58-41.92,12.76-88.08,26.8-19.02-62.5-12.45-40.92h-.02l-.37-1.23-17.1-56.19-.24-.82h-.02l-13.45-44.21-1.59-5.28-.22-.73-8.44-27.7L159.33.62l8.42,27.7v.02l.22.72,10.66,34.98h-.02c-5.92-2.38-12.2-4.61-18.37-6.26-2.78-.75-5.54-1.37-8.23-1.83-9.71-1.69-18.46-1.3-24.15,2.96-2.57,1.93-4.56,3.99-6.03,6.21-2.74,4.08-3.7,8.6-3.13,13.37.94,7.94,6.1,16.55,14.26,24.84M145.67,114.28c-.75-.55-1.48-1.1-2.2-1.65"/>
      <path class="cls-1" d="M145.67,114.28c-.75-.55-1.48-1.1-2.2-1.65M132.97,103.33c-8.17-8.29-13.33-16.9-14.26-24.84-.57-4.76.38-9.28,3.13-13.37,1.46-2.22,3.46-4.28,6.02-6.21,5.69-4.27,14.45-4.65,24.15-2.97,2.69.46,5.46,1.08,8.24,1.83,6.17,1.65,12.45,3.88,18.36,6.26h.02l-10.88-35.7v-.02L22.68,72.48l1.83,6.01,13.46,44.21.24.82h.02l17.08,56.19h.02l.37,1.21v.02l12.45,40.92,19.02,62.5,88.08-26.8,41.93-12.76,15.07-4.58-4.61-15.16-3.08-10.11-22.67-74.48c-6.22-1.59-12.34-3.53-18.23-5.79-6.99-2.65-13.71-5.73-19.97-9.1M121.83,65.12c1.46-2.22,3.46-4.28,6.02-6.21,5.69-4.27,14.45-4.65,24.15-2.97"/>
      <path class="cls-1" d="M145.67,114.28c-.75-.55-1.48-1.1-2.2-1.65M132.97,103.33c-8.17-8.29-13.33-16.9-14.26-24.84-.57-4.76.38-9.28,3.13-13.37,1.46-2.22,3.46-4.28,6.02-6.21,5.69-4.27,14.45-4.65,24.15-2.97,2.69.46,5.46,1.08,8.24,1.83,6.17,1.65,12.45,3.88,18.36,6.26l-10.86-35.7L22.68,72.48l1.83,6.01,13.46,44.21.26.82,17.1,56.19.37,1.21v.02l12.47,40.92,11.33,37.24,15.07-4.58,62.06-18.89,52.86-16.09,15.07-4.58-22.67-74.48c-6.22-1.59-12.34-3.53-18.23-5.79-6.99-2.65-13.71-5.73-19.97-9.1M121.83,65.12c1.46-2.22,3.46-4.28,6.02-6.21,5.69-4.27,14.45-4.65,24.15-2.97"/>
      <g>
        <path class="cls-1" d="M95.07,201.06c-6.06,1.83-12.45-1.57-14.3-7.62-1.83-6.06,1.57-12.45,7.63-14.3,6.04-1.85,12.45,1.57,14.28,7.62,1.85,6.06-1.57,12.45-7.62,14.3Z"/>
        <line class="cls-1" x1="106.99" y1="179.5" x2="185.23" y2="155.69"/>
        <line class="cls-1" x1="109.97" y1="189.28" x2="169.73" y2="171.09"/>
      </g>
      <polyline class="cls-1" points="209.48 219.54 199.37 186.32 84.45 221.29 90.09 239.86 94.55 254.52"/>
      <line class="cls-1" x1="217.16" y1="244.81" x2="102.24" y2="279.78"/>
      <g>
        <circle class="cls-2" cx="133.04" cy="23.62" r="10.41"/>
        <line class="cls-2" x1="119.18" y1="27.83" x2="100.44" y2="33.54"/>
        <line class="cls-2" x1="87.54" y1="37.47" x2="68.79" y2="43.17"/>
        <line class="cls-2" x1="57.65" y1="46.56" x2="38.91" y2="52.26"/>
      </g>
      <g>
        <path class="cls-4" d="M52.63,118.23c.81,0,1.57.05,2.34.16,2.8.42,5.27,1.43,7.41,3,2.18,1.57,4.03,3.66,5.58,6.26s2.84,5.57,3.86,8.9c.62,2.05.92,4.28.86,6.65-.04,2.38-.48,4.65-1.28,6.81-.79,2.16-2,4.08-3.59,5.77-.88.93-1.89,1.74-3.04,2.4M56.55,131.1c.46.49.93,1.06,1.37,1.68.68,1.01,1.28,2.07,1.81,3.19.55,1.14.93,2.09,1.17,2.86.18.6.31,1.34.37,2.22.07.86.07,1.72-.04,2.58-.07.57-.2,1.08-.4,1.57"/>
        <path class="cls-4" d="M98.62,139.9c-.16-.53-.46-1.01-.86-1.37-.38-.37-.82-.64-1.34-.82-.51-.16-1.03-.27-1.56-.29-.53-.05-1.04.02-1.48.15-.66.2-1.34.46-2,.73-.68.26-1.35.49-2.07.71-.29.09-.64.16-1.08.26-.4.07-.84.11-1.26.09-.42-.02-.81-.09-1.14-.24-.35-.18-.6-.44-.73-.86-.16-.53-.07-1.08.22-1.61.33-.53.73-.88,1.24-1.04.64-.18,1.28-.27,1.9-.26.62.02,1.26-.07,1.9-.26.71-.22,1.24-.51,1.59-.9.35-.37.6-.81.71-1.28.11-.49.15-1.01.07-1.54-.05-.55-.16-1.08-.33-1.57-.2-.71-.53-1.15-.93-1.39-.42-.22-.88-.31-1.35-.27-.51.05-1.03.16-1.57.38-.55.18-1.06.37-1.56.51-.55.18-1.15.29-1.74.33-.6.04-1.15-.02-1.68-.16-.51-.16-.97-.44-1.37-.84s-.71-.93-.92-1.61c-.13-.4-.15-.84-.09-1.24.07-.42.2-.82.42-1.23.22-.35.49-.7.82-.97.33-.26.71-.48,1.14-.6.44-.13.9-.2,1.39-.2.48-.02.97-.02,1.43-.02.49.02.97.04,1.43.04.48-.02.93-.09,1.39-.22.95-.29,1.57-.86,1.87-1.68.31-.86.42-1.79.33-2.84s-.27-2.09-.57-3.15c-.29-1.08-.53-1.96-.75-2.65-.46-1.52-1.01-2.64-1.61-3.37-.59-.7-1.24-1.12-2-1.24-.75-.16-1.57-.09-2.49.13-.92.27-1.96.57-3.11.92-1.37.42-2.76.7-4.16.9-1.43.18-2.82.49-4.19.92-.97.29-1.89.68-2.67,1.17-.81.48-1.43,1.04-1.9,1.72-.48.66-.79,1.45-.92,2.33-.09.86,0,1.87.35,2.98.33,1.08.79,2.09,1.37,3,.57.93,1.17,1.85,1.81,2.75.66.92,1.26,1.83,1.83,2.76.59.95,1.06,1.96,1.39,3.04.57,1.85.93,3.62,1.15,5.31s.37,3.22.42,4.65c.07,1.43.13,2.69.16,3.77.04,1.1.16,2,.38,2.75.44,1.45,1.23,2.53,2.33,3.26,1.12.75,2.36,1.23,3.75,1.5,1.37.24,2.8.27,4.27.13,1.45-.15,2.76-.4,3.9-.75,1.12-.35,2.25-.84,3.42-1.5,1.15-.68,2.16-1.45,3.04-2.38.88-.9,1.52-1.94,1.94-3.09.42-1.15.42-2.38.04-3.7Z"/>
        <path class="cls-4" d="M120.67,129.98c-.42-1.39-1.1-2.54-2-3.46s-1.94-1.68-3.06-2.33c-1.15-.62-2.31-1.15-3.53-1.57-1.21-.44-2.36-.88-3.42-1.34-1.06-.42-2.01-.92-2.82-1.46-.77-.53-1.3-1.23-1.57-2.11-.24-.77-.24-1.5,0-2.23.24-.71.64-1.15,1.17-1.32.55-.16,1.06,0,1.57.46.51.48,1.06,1.03,1.65,1.59.57.6,1.17,1.12,1.79,1.56.62.44,1.32.55,2.09.31.6-.18,1.15-.49,1.67-.88.53-.4.92-.88,1.24-1.48.29-.57.48-1.24.55-2.01.05-.77-.05-1.65-.35-2.6-.42-1.39-1.08-2.8-1.94-4.14-.86-1.35-1.92-2.51-3.19-3.46-1.26-.95-2.71-1.57-4.36-1.92-1.63-.35-3.44-.2-5.38.38-1.94.6-3.59,1.48-4.94,2.71-1.34,1.21-2.36,2.56-3.08,4.1-.75,1.52-1.15,3.15-1.26,4.83-.13,1.68.05,3.35.55,4.94.62,2.07,1.45,3.66,2.43,4.74,1.01,1.12,2.09,1.92,3.24,2.45,1.15.53,2.36.9,3.59,1.12,1.23.2,2.38.42,3.46.66,1.06.26,2.01.64,2.82,1.15.82.53,1.43,1.37,1.79,2.56.22.77.16,1.37-.18,1.81-.37.46-.92.81-1.68,1.04-.44.13-.86.04-1.24-.29-.38-.35-.79-.7-1.24-1.08-.44-.4-.99-.73-1.59-1.01-.64-.26-1.41-.26-2.34.04-.6.18-1.12.53-1.5,1.03-.42.49-.73,1.06-.95,1.78-.18.7-.27,1.45-.26,2.27.04.84.16,1.68.44,2.58.33,1.06.88,1.92,1.7,2.58.81.66,1.81,1.14,2.98,1.39,1.19.27,2.53.35,4.03.22,1.48-.13,3.08-.46,4.72-.95,1.7-.51,3.15-1.21,4.38-2.12,1.23-.93,2.22-1.96,2.95-3.11.73-1.14,1.19-2.36,1.37-3.62.18-1.28.09-2.54-.29-3.81Z"/>
        <path class="cls-4" d="M135.53,127.36c-.37-1.17-.82-2.34-1.41-3.52s-1.19-2.33-1.83-3.46c-.62-1.14-1.21-2.23-1.78-3.35-.55-1.08-.99-2.12-1.3-3.15-.37-1.21-.57-2.4-.59-3.53-.04-1.14-.04-2.27.02-3.44.05-1.15.05-2.27.04-3.39-.02-1.12-.2-2.2-.53-3.28-.38-1.32-.9-2.33-1.5-3-.57-.71-1.26-1.19-2.03-1.46-.77-.26-1.59-.35-2.51-.26-.92.09-1.87.29-2.89.6-.48.15-1.06.42-1.74.77-.68.33-1.32.77-1.92,1.28-.59.49-1.04,1.1-1.39,1.74-.35.68-.4,1.41-.16,2.16.2.68.62,1.46,1.23,2.34.64.9,1.34,1.87,2.07,2.97.73,1.08,1.48,2.23,2.23,3.5.71,1.23,1.28,2.51,1.7,3.86.37,1.21.59,2.47.68,3.72.13,1.26.2,2.54.26,3.88.04,1.32.16,2.69.29,4.1.15,1.39.46,2.86.93,4.39,1.63,5.38,4.39,7.47,8.29,6.28,2.01-.6,3.33-1.76,4.01-3.46.64-1.7.59-3.81-.16-6.3Z"/>
        <path class="cls-4" d="M131.69,100.59v.02c-.24,1.37-.33,2.8-.26,4.3.09,1.5.33,3.06.7,4.67.38,1.65.84,3.37,1.39,5.18.48,1.59,1.04,3.11,1.68,4.65.62,1.54,1.39,2.97,2.25,4.3.84,1.32,1.85,2.51,2.97,3.53,1.1,1.04,2.4,1.87,3.84,2.45,1.46.57,3.08.9,4.89.93,1.81.05,3.83-.27,6.02-.93.88-.27,1.79-.62,2.75-1.06.95-.46,1.81-.99,2.56-1.63.71-.62,1.26-1.34,1.65-2.18.27-.6.37-1.26.26-1.98M144.39,111.54c-.05.38-.04.79.11,1.24.24.77.57,1.34.97,1.7.42.35.9.59,1.41.7.53.11,1.08.09,1.68,0,.26-.04.53-.09.79-.15M142.2,109.89c-.04,1.15.18,2.49.64,4.03.27.9.62,1.76,1.03,2.56.4.84.88,1.5,1.43,2.07.55.53,1.19.92,1.92,1.15.73.2,1.57.15,2.53-.15.37-.11.71-.27,1.08-.55.38-.27.7-.59.95-.95.24-.33.44-.7.53-1.08"/>
      </g>
      <g>
        <rect class="cls-3" x="102.47" y="256.84" width="20.77" height="11.07" transform="translate(-71.5 44.22) rotate(-16.93)"/>
        <rect class="cls-3" x="131.15" y="248.12" width="20.77" height="11.07" transform="translate(-67.72 52.2) rotate(-16.93)"/>
        <rect class="cls-3" x="159.59" y="239.46" width="20.77" height="11.07" transform="translate(-63.97 60.1) rotate(-16.93)"/>
        <rect class="cls-3" x="188.27" y="230.73" width="20.77" height="11.07" transform="translate(-60.18 68.08) rotate(-16.93)"/>
      </g>
      <polyline class="cls-1" points="183.64 134.7 185.89 142.09 70.97 177.06 66.07 160.91 62.11 147.93 57.83 133.83 53.91 120.96 44.12 88.78 77.93 78.49 121.83 65.12"/>
      <line class="cls-1" x1="207.46" y1="229.48" x2="207.44" y2="229.48"/>
      <line class="cls-1" x1="196.84" y1="231.03" x2="196.82" y2="231.03"/>
      <path class="cls-6" d="M68.15,221.86h-.02c-9.48-.73-25.39-4.49-27.26-20.14-2.8-23.36,7.47-18.73,14.79-20.78h.02v-.02"/>
      <path class="cls-6" d="M24.51,78.49h-.29S-2.64,69.54.21,94.25c2.53,21.7,30.87,27.39,37.73,28.45h.02"/>
      <path class="cls-6" d="M38.22,123.53h-.02c-13.27,6.81-17.67,24.4-13.09,35.65,6.86,16.86,20.82,20.45,30.19,20.54h.02"/>
      <g>
        <path class="cls-6" d="M208.51,78.49l19.11,146.58c13.75-1.59,39.18-1.92,48.72-47.24,11.46-54.45-67.83-99.34-67.83-99.34Z"/>
        <path class="cls-6" d="M178.63,64.04h-.02c-5.91-2.38-12.19-4.61-18.36-6.26-2.78-.75-5.55-1.37-8.24-1.83-9.7-1.68-18.45-1.3-24.15,2.97-2.56,1.92-4.56,3.99-6.02,6.21-2.75,4.08-3.7,8.6-3.13,13.36.93,7.95,6.1,16.55,14.26,24.84v.02c3.09,3.15,6.63,6.26,10.51,9.28.71.55,1.45,1.1,2.2,1.65,1.59,1.19,3.26,2.36,4.96,3.5.97.66,1.94,1.3,2.95,1.94,3.2,2.03,6.57,4.01,10.09,5.88,6.26,3.37,12.98,6.44,19.97,9.1,5.9,2.25,24.11,7.21,27.08,7.8l-2.22-63.99s-13.49-7.84-29.88-14.46Z"/>
      </g>
      <polyline class="cls-6" points="201.88 140.48 227.62 225.06 221.71 108.05 208.51 78.49 189.43 88.88 202.14 139.55"/>
    </g>
  </g>
</svg>