<?xml version="1.0" encoding="UTF-8"?>
<svg id="Layer_2" data-name="Layer 2" xmlns="http://www.w3.org/2000/svg" viewBox="0 0 223.33 134.25">
  <defs>
    <style>
      .cls-1 {
        fill: #fff;
      }

      .cls-2 {
        fill: none;
      }

      .cls-3 {
        fill: #311514;
      }
    </style>
  </defs>
  <g id="Layer_3" data-name="Layer 3">
    <g>
      <path class="cls-2" d="M71.67,95.02c.03.09.07.16.1.25-.04-.08-.06-.17-.1-.25,0,0,0,0,0,0Z"/>
      <path class="cls-2" d="M75.87,77.14c-.26.26-.53.49-.77.77,0,0,0,0,0,0,.26-.27.52-.54.8-.79,0,0-.02.02-.03.03Z"/>
      <path class="cls-2" d="M77.34,75.94s0,0-.01,0c.05-.04.1-.07.15-.1-.05.03-.1.06-.14.09Z"/>
      <path class="cls-2" d="M64.5,107.17c-.55.3-1.26.45-2.15.45-.4,0-.8-.03-1.18-.09.38.06.78.1,1.18.1.89,0,1.6-.15,2.15-.46.34-.19.61-.44.86-.71-.25.27-.52.52-.86.71Z"/>
      <path class="cls-2" d="M77.18,101.21c-.37-.23-.74-.47-1.1-.73.36.26.72.5,1.1.73Z"/>
      <path class="cls-2" d="M86.07,110.98c-.03.09-.07.17-.12.26v.02s-.02.04-.03.05c.07-.13.13-.28.18-.44-.01.04-.02.08-.03.12Z"/>
      <path class="cls-2" d="M86.19,110.58s.01-.05.02-.08c0,.03,0,.05-.02.08Z"/>
      <path class="cls-2" d="M98.72,94.07s.02-.02.02-.03c0,0-.02.02-.03.03,0,0,0,0,0,0Z"/>
      <path class="cls-2" d="M97.97,106.58c-.59-.93-1.24-1.83-2.03-2.65-.42-.43-.87-.84-1.31-1.24.44.41.89.81,1.31,1.25.78.81,1.44,1.71,2.03,2.65Z"/>
      <path class="cls-2" d="M72.75,109.85s0,0,0,0c.16-.23.33-.43.51-.63-.18.2-.35.39-.51.62Z"/>
      <path class="cls-2" d="M88.01,97.32c-.68-.63-1.32-1.26-1.82-1.89-.15-.2-.31-.41-.43-.63-.05-.08-.09-.17-.14-.25.16.3.34.6.56.89.51.63,1.14,1.26,1.82,1.89Z"/>
      <path class="cls-2" d="M85.28,93.67c.04.13.07.26.11.39-.05-.13-.08-.26-.11-.39Z"/>
      <path class="cls-2" d="M85.1,92.47c0,.27.03.54.07.79-.05-.26-.07-.52-.07-.79Z"/>
      <path class="cls-2" d="M85.16,91.69s0,.03,0,.05c0-.02,0-.03,0-.05Z"/>
      <path class="cls-2" d="M42.32,76.71c.45-.97,1.06-1.76,1.85-2.36,0,0,0,0,0,0-.77.6-1.4,1.38-1.84,2.35-.44.96-.67,2.15-.67,3.57,0,.31.02.61.03.92.02.29.03.6.09.89v.03s0,.03,0,.04c-.07-.62-.12-1.24-.12-1.88,0-1.41.22-2.6.66-3.57Z"/>
      <path class="cls-2" d="M55.88,97.82s-.02-.02-.03-.03c0,.01.02.02.03.03Z"/>
      <path class="cls-2" d="M54.8,94.88s0-.05,0-.08c0-.26.03-.52.08-.76-.05.25-.08.5-.08.76,0,.03,0,.05,0,.08Z"/>
      <polygon class="cls-2" points="56.02 92.09 56.04 92.07 56.03 92.08 56.02 92.09"/>
      <path class="cls-2" d="M65.09,99.73c-.19-.08-.37-.17-.59-.22-.2-.05-.43-.07-.65-.09-.03,0-.07,0-.1,0,.25.02.51.05.74.09.21.04.4.13.59.21Z"/>
      <path class="cls-2" d="M57.33,91.23c-.44.19-.84.45-1.2.77.35-.32.75-.58,1.21-.77.48-.2.99-.31,1.5-.31.35,0,.7.04,1.05.1-.35-.06-.69-.1-1.04-.1-.52,0-1.03.1-1.51.31Z"/>
      <path class="cls-2" d="M63.01,99.4c-.09,0-.17-.01-.26,0h-.19c-.13,0-.24.01-.37.02.13,0,.24,0,.37-.01.15,0,.29,0,.44,0Z"/>
      <path class="cls-2" d="M54.24,125.32c.85.1,1.67.16,2.43.16.92,0,1.89-.11,2.89-.27-1,.16-1.97.27-2.9.27-.77,0-1.58-.06-2.43-.15Z"/>
      <path class="cls-2" d="M43.21,120.27c-.23-.28-.43-.59-.62-.9.02.04.05.08.07.13.15.27.34.55.55.78,1.02,1.25,2.3,2.25,3.81,3.02.38.19.78.33,1.17.49-.39-.16-.79-.3-1.17-.49-1.51-.77-2.78-1.78-3.81-3.03Z"/>
      <path class="cls-2" d="M44.48,91.89c-.27-1.01-.58-2-.9-3,.32.99.63,1.99.89,3,.34,1.28.51,2.63.51,3.99,0,.15,0,.28-.01.43,0-.15.02-.28.02-.43,0-1.37-.17-2.7-.51-3.99Z"/>
      <path class="cls-2" d="M67.54,121.75c.06-.06.13-.1.19-.16,0,0,0-.02-.02-.03-.06.06-.11.13-.18.19Z"/>
      <path class="cls-2" d="M64.68,73.5c.7.02,1.31.14,1.88.31-.57-.17-1.19-.29-1.89-.31-1.14-.05-2.44-.07-3.89-.07-1.11,0-2.21-.08-3.31-.19,1.09.12,2.19.19,3.3.19,1.45,0,2.75.02,3.9.06Z"/>
      <path class="cls-2" d="M63.84,92.2c-.27-.08-.53-.17-.79-.25.27.08.53.17.8.26.55.15,1.09.24,1.66.24h.09c.07,0,.14,0,.2-.02,0,0,0,0,0-.01-.1,0-.18.03-.28.03-.57,0-1.12-.08-1.66-.24Z"/>
      <path class="cls-2" d="M85.1,92.44c0-.14.02-.28.03-.42-.01.14-.03.27-.03.42,0,0,0,0,0,0Z"/>
      <path class="cls-2" d="M77.06,76.13c-.19.14-.36.27-.53.43-.05.03-.09.07-.12.1-.02.02-.04.03-.06.06.27-.23.55-.46.84-.68-.04.03-.09.06-.13.09Z"/>
      <path class="cls-2" d="M107.47,123.93h.02c.24.12.49.2.77.27.1.03.2.07.32.09h.03s.09.02.13.03c-.49-.1-.94-.24-1.36-.43.03.01.06.04.09.05Z"/>
      <path class="cls-2" d="M118,118.45c.05-.17.1-.34.14-.53v-.03c.02-.09.03-.19.05-.27.04-.19.05-.39.08-.58-.07.54-.17,1.06-.3,1.54.02-.04.03-.08.03-.12Z"/>
      <path class="cls-2" d="M116.42,121.9c.1-.15.2-.29.31-.44.1-.15.2-.29.29-.46.05-.08.08-.18.13-.27-.22.42-.45.82-.73,1.18,0,0,0,0,0,0Z"/>
      <path class="cls-2" d="M117.49,120s.02-.02.02-.03c.15-.35.28-.7.38-1.09-.13.45-.3.87-.48,1.27.02-.05.05-.1.07-.15Z"/>
      <path class="cls-2" d="M85.59,124.08c-1.31,0-2.53-.1-3.71-.25,1.18.15,2.41.25,3.72.25,2.13,0,4.06-.31,5.8-.94.27-.1.5-.24.76-.35-.26.11-.49.25-.76.35-1.73.63-3.67.94-5.8.94Z"/>
      <path class="cls-2" d="M96.96,119.53c.08-.09.16-.19.24-.28-.08.09-.16.19-.24.28Z"/>
      <path class="cls-2" d="M106.31,123.25c.12.1.24.19.38.27t.03.02c.17.11.36.2.55.29-.4-.19-.77-.42-1.1-.69.05.04.09.08.15.12Z"/>
      <path class="cls-2" d="M103.6,118.55v.02s.02,0,.02.02c0,0,0,.02,0,.02,0-.03,0-.06-.01-.08,0,0,0,.02,0,.03Z"/>
      <path class="cls-2" d="M106.18,97.47c.02-.14.03-.27.04-.41-.01.14-.03.27-.04.41Z"/>
      <path class="cls-2" d="M75.13,121.79s.05.04.08.05c.43.24.92.44,1.41.64-.48-.2-.98-.4-1.4-.64-.03-.02-.05-.04-.08-.05Z"/>
      <path class="cls-2" d="M103.86,119.51c.02.09.05.15.07.24.07.2.15.43.24.61,0,.02.02.02.02.03,0,0,0,.02.01.03-.18-.43-.33-.91-.47-1.41.04.17.08.34.13.5Z"/>
      <path class="cls-2" d="M104.61,121.28c.02.05.05.09.09.14.07.13.17.25.25.38-.22-.32-.42-.68-.6-1.06.09.19.17.38.27.55Z"/>
      <path class="cls-2" d="M105.17,122.14c.03.05.09.12.15.17.1.15.24.29.39.43.07.1.19.19.29.27,0,0,.02.01.02.02-.34-.29-.65-.62-.93-1,.03.04.05.08.07.11Z"/>
      <path class="cls-2" d="M82.29,112.28c-.13-.09-.26-.21-.37-.35.11.14.23.26.37.35Z"/>
      <path class="cls-2" d="M99.97,92.14c.04-.08.08-.14.11-.23.19-.46.32-.96.41-1.52v-.05c0-.05.02-.14.02-.19v-.03s-.01-.04-.02-.06c-.08.68-.2,1.31-.42,1.86-.03.08-.08.14-.11.22Z"/>
      <path class="cls-2" d="M95.87,95.61c.31-.07.61-.15.91-.26.13-.05.23-.13.36-.18-.12.06-.23.13-.35.18-.3.12-.61.2-.92.27Z"/>
      <path class="cls-2" d="M80.53,74.18c-.19.08-.38.14-.56.22-.49.23-.96.48-1.41.74.45-.26.92-.51,1.4-.74.18-.09.38-.15.56-.23Z"/>
      <path class="cls-2" d="M97.32,78.22s.03.05.05.07h0s-.03-.05-.05-.08c-.85-1.15-1.9-2.16-3.13-2.99,1.23.84,2.27,1.84,3.13,3Z"/>
      <path class="cls-2" d="M90.78,92.4c.44.83.92,1.59,1.45,2.28.11.14.24.25.36.36-.12-.11-.25-.23-.36-.37-.53-.68-1.02-1.45-1.46-2.28Z"/>
      <path class="cls-2" d="M93.78,95.68c.24.06.49.1.76.1.31,0,.62-.04.92-.09-.3.05-.61.09-.92.09-.27,0-.52-.04-.76-.09Z"/>
      <path class="cls-2" d="M75.31,107.77c-.32.11-.63.24-.92.42-.31.21-.61.46-.88.74.28-.28.57-.53.89-.73.29-.19.6-.32.91-.43Z"/>
      <path class="cls-2" d="M81.6,111.46c-.28-.45-.57-.91-.88-1.42-.13-.2-.29-.39-.45-.59.16.19.32.39.45.59.32.5.61.97.88,1.42Z"/>
      <path class="cls-2" d="M78.94,108.18c-.6-.4-1.41-.61-2.42-.61-.2,0-.39.06-.58.08.19-.03.37-.08.57-.08,1.02,0,1.82.21,2.43.61Z"/>
      <path class="cls-2" d="M83.53,104.86c.58.45,1.12.92,1.57,1.45.2.23.37.48.51.74-.15-.27-.32-.52-.52-.75-.45-.52-.99-.99-1.57-1.44Z"/>
      <path class="cls-2" d="M88.8,89.17c.21.17.4.39.57.67.12.21.25.44.38.66-.12-.22-.25-.45-.37-.66-.17-.28-.36-.5-.57-.67Z"/>
      <path class="cls-2" d="M85.78,111.55s0,.01-.01.02c0,0,0-.01.01-.02Z"/>
      <path class="cls-2" d="M85.69,111.65c-.09.1-.17.2-.28.27-.09.07-.22.09-.32.15.1-.05.23-.08.32-.15.11-.08.2-.17.28-.27Z"/>
      <path class="cls-2" d="M25.83,96.88c-.21-1.14-.47-2.25-.81-3.33-.35-1.11-.79-2.06-1.27-2.91.48.86.91,1.8,1.27,2.91.34,1.08.6,2.19.82,3.33Z"/>
      <path class="cls-2" d="M6.21,76.92c.48-.55,1.07-1,1.7-1.39-.64.4-1.22.85-1.7,1.39-.73.84-1.09,1.89-1.09,3.17,0,.29.02.56.07.84-.02.05,0,.1.02.15,0,.02,0,.04.01.06-.05-.34-.1-.68-.1-1.05,0-1.29.36-2.35,1.09-3.18Z"/>
      <path class="cls-2" d="M10.58,92.77s.01.06.02.1c0,0,0,0,0,0,0-.03-.01-.06-.02-.1Z"/>
      <path class="cls-2" d="M23.62,74.76c-2.4-.71-5.09-1.09-8.09-1.09-.64,0-1.35.06-2.09.14.74-.08,1.45-.14,2.08-.14,3.01,0,5.7.38,8.1,1.08Z"/>
      <path class="cls-2" d="M7.26,85.29c.29.41.58.83.88,1.22.01.02.02.03.03.05-.01-.02-.02-.03-.03-.05-.3-.4-.59-.81-.88-1.22Z"/>
      <path class="cls-2" d="M39.37,96.08v-.02c-.02-.07-.02-.12-.03-.19-.03-.26-.08-.52-.12-.78.06.43.14.85.19,1.29-.01-.1-.02-.2-.03-.3Z"/>
      <path class="cls-2" d="M39.69,99.54v-.07c-.03-.58-.07-1.16-.14-1.71-.02-.18-.04-.37-.06-.55.08.77.15,1.54.2,2.33,0,0,0,0,0,0Z"/>
      <path class="cls-2" d="M34.12,81.86c-1.92-2.52-4.39-4.52-7.43-5.97-.49-.23-1.03-.42-1.55-.61.52.2,1.06.38,1.55.61,3.04,1.45,5.51,3.44,7.44,5.97Z"/>
      <path class="cls-2" d="M20.12,89.54h0s0,0,0-.01c0,0,0,0,0,.01Z"/>
      <path class="cls-2" d="M23.42,109.62s0,0,0,0c-.05.05-.11.09-.16.13.05-.04.1-.08.15-.13Z"/>
      <path class="cls-2" d="M26.28,102.73c0,.05,0,.11-.02.16,0-.05.01-.11.02-.16Z"/>
      <path class="cls-2" d="M38.86,92.99c-.08-.41-.18-.81-.27-1.21.14.59.27,1.19.38,1.79-.03-.2-.07-.39-.11-.58Z"/>
      <path class="cls-2" d="M15.89,125.17c-.84-.19-1.65-.45-2.44-.76.79.31,1.6.57,2.44.76,1.57.36,2.99.55,4.23.55,1.89,0,3.64-.29,5.28-.81-1.64.52-3.38.81-5.28.81-1.25,0-2.66-.18-4.23-.55Z"/>
      <path class="cls-2" d="M10.63,93.23c.19,1.53.29,2.91.29,4.11,0,.03,0,.06,0,.09,0-.03,0-.06,0-.09,0-1.19-.1-2.57-.29-4.11Z"/>
      <path class="cls-2" d="M8.66,107.02c.03-.07.04-.14.07-.21-.03.07-.05.14-.07.21-.58,1.57-1.11,3.16-1.57,4.76-.08.28-.11.57-.18.85.07-.28.1-.57.19-.86.46-1.6.99-3.18,1.57-4.75Z"/>
      <path class="cls-2" d="M9.83,122.43c-.32-.24-.62-.5-.91-.77.29.27.59.53.91.77Z"/>
      <path class="cls-2" d="M7.01,119.37s.02.05.03.07c.03.06.06.11.09.17-.14-.24-.26-.49-.36-.75.06.17.14.35.23.52Z"/>
      <path class="cls-2" d="M7.39,120.04c.12.17.25.34.39.51-.19-.23-.36-.46-.51-.71.04.07.07.14.12.2Z"/>
      <path class="cls-2" d="M6.54,117.97c.04.17.09.35.14.53-.05-.18-.1-.36-.14-.54v.02Z"/>
      <path class="cls-2" d="M57.04,111.41s-.09-.02-.13-.04c-.19-.05-.36-.14-.53-.24h-.02c-.09-.03-.17-.09-.26-.15h-.02c-.07-.03-.13-.08-.19-.13.29.22.62.4,1,.53.04.01.09.02.13.03Z"/>
      <path class="cls-2" d="M71.6,103.91c.1-.05.17-.12.27-.17-.09-.07-.15-.14-.24-.2,0,.14,0,.26-.03.38Z"/>
      <path class="cls-2" d="M38.09,89.85c-.05-.17-.1-.34-.15-.51-.04-.14-.1-.27-.14-.4.22.64.41,1.3.59,1.98-.09-.37-.18-.72-.29-1.07Z"/>
      <path class="cls-2" d="M6.43,117.33c0,.05.02.1.03.15-.02-.19-.04-.39-.05-.59,0,.15.01.29.02.43Z"/>
      <path class="cls-2" d="M36.69,86.11l-.02-.02s.04.07.05.1c-.01-.03-.02-.06-.04-.08Z"/>
      <path class="cls-2" d="M37.24,87.38c-.03-.07-.07-.15-.1-.22-.12-.31-.25-.61-.38-.9.28.61.53,1.25.76,1.9-.09-.26-.18-.53-.28-.78Z"/>
      <path class="cls-2" d="M36.67,86.08c-.65-1.41-1.43-2.71-2.33-3.92.89,1.21,1.67,2.52,2.33,3.94v-.02Z"/>
      <path class="cls-2" d="M10.48,74.37s.05-.02.07-.03c-.02,0-.05.02-.07.03Z"/>
      <path class="cls-2" d="M5.32,81.71c.02.05.02.09.03.14.06.18.12.36.2.54-.12-.29-.2-.6-.27-.91.02.08.02.16.04.23Z"/>
      <path class="cls-2" d="M10.75,99.75c-.01.09-.03.18-.05.28.02-.13.04-.26.06-.38,0,.04,0,.07-.01.11Z"/>
      <path class="cls-2" d="M26.04,98c.09.58.15,1.1.2,1.6-.05-.5-.12-1.03-.2-1.6Z"/>
      <path class="cls-2" d="M54.93,96.03c-.02-.07-.02-.16-.04-.24.02.09.03.18.05.26,0,0,0-.01,0-.02Z"/>
      <path class="cls-2" d="M66.59,102.28c0,.59-.06,1.19-.17,1.79.12-.6.17-1.19.17-1.79Z"/>
      <path class="cls-2" d="M65.99,100.31s0,0,0,0c.11.11.17.29.25.44-.08-.15-.14-.33-.25-.43Z"/>
      <path class="cls-2" d="M59.34,99.37c.2.03.4.04.61.05-.2-.01-.4-.03-.61-.05Z"/>
      <path class="cls-2" d="M55.57,92.6s-.04.04-.05.06c.02-.02.04-.04.05-.06Z"/>
      <path class="cls-2" d="M44.36,74.24c.46-.33.98-.6,1.54-.83-.56.22-1.07.49-1.54.83Z"/>
      <path class="cls-2" d="M69.57,76.59c-.02-.05-.04-.09-.05-.13.02.04.03.09.05.14,0,0,0,0,0,0Z"/>
      <path class="cls-2" d="M66.48,111.81c-.21-.06-.42-.12-.63-.16.2.04.41.11.62.17,0,0,0,0,0-.01Z"/>
      <path class="cls-2" d="M55.61,108.05s-.05.09-.08.13c.03-.04.05-.09.08-.13Z"/>
      <path class="cls-2" d="M66.36,104.34s0-.02,0-.03c0,.04-.02.07-.03.11,0-.03.02-.05.02-.08Z"/>
      <path class="cls-2" d="M62.38,111.68c.87-.08,1.72-.12,2.57-.12.28,0,.56.03.84.08-.03,0-.07-.01-.1-.01-.26-.05-.49-.07-.75-.07-.84,0-1.71.03-2.56.12-.87.09-1.74.12-2.65.12-.14,0-.31,0-.48-.01.17,0,.34.02.48.02.89,0,1.77-.04,2.63-.12Z"/>
      <path class="cls-2" d="M66.13,105.18s0,0,0,0c-.02.05-.04.09-.06.14.02-.04.05-.09.06-.13Z"/>
      <path class="cls-2" d="M151.59,93.35c.19.1.39.2.56.32-.09-.2-.17-.43-.27-.65-.09.1-.19.22-.29.32Z"/>
      <path class="cls-2" d="M36.55,115.18h0c-.58,1.05-1.23,2.07-1.97,3.04-.42.55-.86,1.07-1.32,1.57.46-.5.91-1.02,1.33-1.57.32-.43.65-.87.94-1.33.09-.12.17-.26.26-.38.27-.43.53-.87.77-1.31v-.02Z"/>
      <path class="cls-2" d="M20.36,110.31s0,0,0,0c.2.18.46.27.79.27.39,0,.75-.08,1.1-.21-.35.13-.71.21-1.1.21-.32,0-.59-.09-.8-.27Z"/>
      <path class="cls-2" d="M19.8,109.06c.03.19.05.38.12.56,0,.02.02.02.03.04,0-.02-.02-.03-.02-.05-.06-.17-.09-.37-.12-.55Z"/>
      <path class="cls-2" d="M105.68,89.71s.03.09.04.14c-.01-.05-.03-.1-.04-.15,0,0,0,0,0,0Z"/>
      <path class="cls-2" d="M19.95,91.16c0-.06,0-.14,0-.22,0,.07,0,.16,0,.22,0,2.82-.04,5.62-.12,8.41-.04,1.25-.04,2.5-.06,3.75.02-1.25.02-2.5.06-3.75.07-2.78.12-5.58.12-8.41Z"/>
      <path class="cls-2" d="M26.29,100.19c.03.38.05.73.06,1.06,0-.33-.03-.68-.06-1.06Z"/>
      <path class="cls-2" d="M42.13,84.02c-.12-.49-.22-.98-.3-1.48.07.5.17,1,.3,1.48Z"/>
      <path class="cls-2" d="M41.69,116.4v.03c.01.12.04.24.05.36-.02-.14-.02-.29-.03-.44,0,.02-.01.03-.02.05Z"/>
      <path class="cls-2" d="M66.33,122.75c.1-.07.19-.14.27-.2.14-.1.26-.23.4-.34-.46.37-.94.73-1.47,1.03.28-.16.55-.32.8-.49Z"/>
      <path class="cls-2" d="M43.29,87.96c-.37-1.1-.69-2.2-.99-3.3.29,1.1.63,2.2.99,3.3Z"/>
      <path class="cls-2" d="M44.86,99.15s-.02.05-.02.09c0,.1-.02.22-.03.32v.02s.02.02,0,.03v.03s0,.01,0,.02c.02-.18.04-.36.05-.54,0,.01,0,.02,0,.03Z"/>
      <path class="cls-2" d="M41.83,117.34v.02c.02.1.07.19.09.29-.04-.17-.09-.33-.12-.51.01.07.02.14.03.2Z"/>
      <path class="cls-2" d="M42.24,118.64c.07.17.14.34.22.49.01.02.03.05.04.07-.12-.21-.2-.44-.3-.67.01.03.02.07.03.11Z"/>
      <path class="cls-2" d="M56.83,107.09s-.05.03-.07.05c.02-.01.05-.04.07-.05Z"/>
      <path class="cls-2" d="M157.77,104.1c-.02.07-.03.15-.04.22-.32,1.39-.68,2.75-1.07,4.1.39-1.36.75-2.72,1.08-4.1.02-.07.02-.15.04-.22Z"/>
      <path class="cls-2" d="M158.24,99.57c0,.08,0,.16,0,.24,0,.13-.01.26-.01.39,0-.13.02-.25.02-.38,0-.08-.01-.17-.01-.25Z"/>
      <path class="cls-2" d="M161.74,124.53c.54.07,1.09.1,1.65.1.29,0,.56-.02.82-.05.04,0,.09-.01.13-.01-.31.03-.62.06-.95.06-.57,0-1.12-.03-1.65-.1Z"/>
      <path class="cls-2" d="M157.49,122.99c-.36-.26-.67-.56-.96-.88.1.11.19.23.29.33l.02.02c.2.19.41.36.65.53.78.56,1.69.99,2.7,1.25.48.12.98.21,1.5.28-.51-.07-1.01-.16-1.5-.28-1-.26-1.91-.67-2.69-1.24Z"/>
      <path class="cls-2" d="M170.65,92.07c-.15-.42-.3-.85-.45-1.3-.03-.08-.05-.16-.07-.23.03.08.04.16.07.24.15.45.3.88.45,1.3Z"/>
      <path class="cls-2" d="M169.04,86.4c-.11-.52-.21-1.01-.28-1.46-.07-.36-.11-.66-.15-.93.03.27.08.57.14.93.08.45.18.94.29,1.46Z"/>
      <path class="cls-2" d="M162.35,74.2c-.29-.01-.58-.03-.9-.03-.63,0-1.29.06-1.98.15.69-.09,1.36-.15,1.98-.15.31,0,.6.01.89.03Z"/>
      <path class="cls-2" d="M172.89,116.82c-.16-.61-.3-1.64-.39-3.12,0-.12-.03-.24-.04-.36,0,.12.02.24.03.36.1,1.47.24,2.51.39,3.12.17.6.44,1.3.82,2.12.22.44.46.87.72,1.29-.26-.42-.5-.85-.72-1.3-.38-.81-.65-1.51-.82-2.12Z"/>
      <path class="cls-2" d="M168.33,118.15c-.03-.32-.07-.64-.12-.96-.12-.64-.24-1.27-.37-1.89.13.63.25,1.25.36,1.89.06.32.09.65.13.97Z"/>
      <path class="cls-2" d="M174.04,96.73c.81,0,1.34-.27,1.61-.82,0,0,0,0,0,0-.27.56-.8.82-1.6.82-.49,0-.96-.27-1.42-.84-.19-.22-.36-.49-.53-.76.17.27.34.53.52.75.46.57.94.85,1.42.85Z"/>
      <path class="cls-2" d="M176.94,123.09c-.32-.24-.62-.5-.91-.79.29.29.59.55.91.8.68.49,1.4.75,2.12.75,1.22,0,2.25-.15,3.14-.43-.89.27-1.92.42-3.14.42-.72,0-1.43-.25-2.12-.75Z"/>
      <path class="cls-2" d="M171.79,107.98c.08.39.16.76.22,1.18,0,.05.01.09.02.14,0-.05,0-.09-.01-.14-.06-.42-.15-.79-.22-1.18Z"/>
      <path class="cls-2" d="M167.76,104.09c.06-.09.11-.19.18-.28.04-.06.11-.08.16-.13-.05.05-.12.07-.17.13-.07.09-.11.18-.17.28Z"/>
      <path class="cls-2" d="M167.08,107.93c0-.35.02-.79.03-1.31.01-.36.08-.69.14-1.02-.06.34-.13.66-.14,1.02-.02.52-.03.95-.03,1.31Z"/>
      <path class="cls-2" d="M173.09,80.25l.03.26c.02.22.05.43.1.65.05.32.12.67.2.99.09.39.21.77.31,1.15-.1-.38-.21-.76-.31-1.15-.15-.64-.26-1.27-.34-1.9Z"/>
      <path class="cls-2" d="M154.81,86.97c.07.16.15.33.22.5-.07-.17-.15-.34-.22-.51h0Z"/>
      <path class="cls-2" d="M158.12,101.97c-.02.16-.04.32-.06.48.03-.21.05-.42.08-.63,0,.05,0,.11-.01.16Z"/>
      <path class="cls-2" d="M155.85,75.38c-.13.07-.24.17-.36.25.13-.08.23-.18.36-.25,0,0,0,0,0,0Z"/>
      <path class="cls-2" d="M156.18,121.71c.06.08.13.15.2.22-.07-.08-.12-.18-.18-.27,0,.01,0,.03-.02.05Z"/>
      <path class="cls-2" d="M155.51,112.79v.02s0,0,0,0c.3-1.29.64-2.57,1-3.84-.36,1.26-.7,2.54-1.01,3.82Z"/>
      <path class="cls-2" d="M175.91,95.12s.02-.09.03-.14c-.01.05-.02.09-.03.14Z"/>
      <path class="cls-2" d="M185.2,121.33c-.08.1-.15.21-.23.31.08-.09.18-.15.26-.25v-.02s-.01-.03-.02-.04Z"/>
      <path class="cls-2" d="M186.16,77.19c-.12-.2-.25-.39-.41-.58-.3-.35-.64-.69-1-1.01.36.32.7.66,1,1.02.16.19.29.38.41.57Z"/>
      <path class="cls-2" d="M176.82,72.8c-1.17.17-2.06.6-2.66,1.3-.08.09-.14.21-.21.31.07-.1.13-.21.21-.31.6-.69,1.49-1.13,2.66-1.3Z"/>
      <path class="cls-2" d="M185.59,101.91c-.11-.62-.22-1.24-.32-1.85-.02-.14-.04-.28-.06-.41.02.14.03.28.05.42.1.61.22,1.23.33,1.85Z"/>
      <path class="cls-2" d="M181.45,73.56c.33.14.66.29.97.46-.32-.17-.64-.32-.97-.46Z"/>
      <path class="cls-2" d="M186.43,77.72c-.07-.18-.17-.35-.27-.52.11.18.19.35.27.53,0,0,0,0,0,0Z"/>
      <path class="cls-2" d="M186.42,106.59s0-.01.01-.02c-.14-.75-.27-1.5-.41-2.25-.06-.32-.12-.64-.17-.96.06.32.11.64.17.96.15.76.27,1.51.4,2.26Z"/>
      <path class="cls-2" d="M198.33,110.04c.16.26.3.48.45.72-.15-.24-.28-.47-.45-.73-.22-.35-.51-.69-.82-1.02.31.33.59.67.82,1.03Z"/>
      <path class="cls-2" d="M213.38,95.64c.34-.07.69-.16,1.02-.29.27-.11.52-.26.78-.41-.25.15-.51.3-.78.4-.33.13-.67.22-1.01.29Z"/>
      <path class="cls-2" d="M203.76,110.74c-.02.08-.04.17-.07.24-.03.09-.07.17-.12.26v.02c-.05.12-.12.22-.19.32-.1.14-.22.26-.36.34-.13.09-.31.14-.46.21.15-.07.33-.12.46-.21.37-.26.61-.67.74-1.18Z"/>
      <path class="cls-2" d="M164.96,124.48c.1-.02.19-.03.29-.07.02,0,.03,0,.05-.02.03,0,.06-.02.09-.03-.24.07-.48.13-.74.17.11-.01.21-.03.31-.05Z"/>
      <path class="cls-2" d="M217.42,83.33c.53,1.88.79,3.7.79,5.48,0,1.21-.17,2.25-.51,3.11,0,0,0,0,0,0,.12-.29.2-.6.27-.92,0-.02.02-.05.02-.07.05-.14.09-.27.1-.43,0-.02.02-.05.02-.09v-.07c.03-.22.05-.44.07-.67.02-.27.03-.56.03-.87,0-1.77-.26-3.6-.78-5.48-.53-1.88-1.35-3.58-2.49-5.12-.22-.29-.46-.57-.7-.84.24.27.48.55.7.85,1.13,1.53,1.96,3.23,2.48,5.11Z"/>
      <path class="cls-2" d="M102.58,76.9s0,0,0,0c0-.02,0-.03.01-.05,0,.02-.01.03-.02.04Z"/>
      <path class="cls-2" d="M196.43,108.1c-.59-.35-1.36-.53-2.31-.53-.23,0-.44.06-.66.1.22-.04.43-.09.66-.09.96,0,1.72.18,2.31.53Z"/>
      <path class="cls-2" d="M200.84,104.65c.7.51,1.35,1.05,1.88,1.66.3.34.52.74.7,1.17-.18-.43-.4-.83-.7-1.18-.52-.61-1.17-1.15-1.88-1.65Z"/>
      <path class="cls-2" d="M192.75,107.85c-.25.1-.5.19-.73.34-.03.03-.09.05-.12.09,0,0,0,0,0,.01.04-.03.07-.07.11-.09.24-.15.49-.25.74-.35Z"/>
      <path class="cls-2" d="M214.84,119.22c.61-.72,1.13-1.5,1.52-2.34.12-.27.24-.53.32-.8.01-.03.02-.05.03-.08-.11.3-.22.59-.36.88-.4.84-.91,1.62-1.52,2.34Z"/>
      <path class="cls-2" d="M217.13,114.57c.01-.05.02-.11.04-.17,0-.03.02-.09.02-.12s.02-.09.02-.12.02-.09.02-.12h0c-.03.17-.05.35-.09.52Z"/>
      <path class="cls-2" d="M199.38,123.81c1.22.16,2.48.27,3.83.27,2.08,0,3.97-.3,5.67-.9-1.7.6-3.59.9-5.68.9-1.35,0-2.61-.11-3.83-.27Z"/>
      <path class="cls-2" d="M192.3,121.51c.17.11.33.23.52.34.52.29,1.12.54,1.72.78-.6-.24-1.19-.49-1.71-.79-.18-.11-.35-.22-.52-.33Z"/>
      <path class="cls-2" d="M202.75,92.89c.01.12.01.24.03.36-.02-.12-.02-.24-.03-.36Z"/>
      <path class="cls-2" d="M203.79,110.61s.02-.08.03-.13c0,.04-.01.08-.03.13Z"/>
      <path class="cls-2" d="M198.34,103.13c-.38-.21-.78-.41-1.19-.62.4.21.8.41,1.19.62Z"/>
      <path class="cls-2" d="M195.55,101.65c-.98-.53-1.9-1.15-2.76-1.88.86.73,1.79,1.35,2.76,1.88Z"/>
      <path class="cls-2" d="M209.01,123.14s.06-.03.1-.04c-.04.01-.06.03-.1.05,0,0,0,0,0,0Z"/>
      <path class="cls-2" d="M191.31,98.37s.04.04.05.05c-.13-.15-.25-.31-.37-.46.1.14.21.28.32.41Z"/>
      <path class="cls-2" d="M191.26,120.76c.15.12.31.24.48.37-.16-.12-.32-.25-.48-.38h0Z"/>
      <path class="cls-2" d="M202.92,93.75c.03.1.05.2.09.29-.04-.1-.06-.19-.09-.29Z"/>
      <path class="cls-2" d="M205.79,97.47c-.75-.68-1.43-1.36-1.99-2.04-.15-.2-.31-.41-.43-.63-.05-.07-.09-.15-.13-.23.15.3.33.59.55.87.55.68,1.23,1.36,1.99,2.04Z"/>
      <path class="cls-2" d="M215.24,106.03c-.51-.73-1.06-1.44-1.69-2.1-.3-.31-.62-.59-.93-.88.31.29.63.58.93.89.63.66,1.18,1.36,1.69,2.1Z"/>
      <path class="cls-2" d="M208.31,92.26c-.46-.89-.91-1.69-1.33-2.42-.21-.36-.46-.63-.73-.82.27.18.52.46.73.81.43.73.87,1.54,1.33,2.42s.97,1.69,1.54,2.42c.14.17.28.31.44.44-.15-.13-.3-.28-.43-.45-.57-.72-1.08-1.53-1.54-2.42Z"/>
      <path class="cls-2" d="M211.23,95.62c.29.09.59.15.92.15.31,0,.61-.04.91-.09-.3.05-.6.09-.9.09-.34,0-.64-.06-.93-.15Z"/>
      <path class="cls-2" d="M216.89,115.5c.06-.18.1-.36.14-.54-.06.24-.12.47-.2.71.02-.05.04-.11.06-.16Z"/>
      <path class="cls-2" d="M191.89,78.86s-.01.02-.02.03c.05-.06.1-.11.14-.17-.04.05-.09.09-.12.15Z"/>
      <path class="cls-2" d="M198.1,74.2c-.17.07-.35.13-.52.21-.97.45-1.87.98-2.69,1.58.82-.6,1.72-1.12,2.69-1.58.17-.08.35-.14.52-.21Z"/>
      <path class="cls-2" d="M149.01,87.97s.03-.09.05-.12t.02-.03c.07-.24.15-.51.22-.79v-.03s0,0,0-.01c-.09.4-.2.77-.34,1.12.02-.05.04-.09.06-.13Z"/>
      <path class="cls-2" d="M148.12,77.53v-.02c-.05-.03-.07-.09-.1-.12-.09-.12-.19-.25-.3-.36.14.17.26.37.39.55,0-.02,0-.04,0-.06Z"/>
      <path class="cls-2" d="M132.34,103.57s0-.07-.02-.1c.04.47.1.93.17,1.39-.06-.43-.13-.85-.16-1.29Z"/>
      <path class="cls-2" d="M140.42,105.26c-.6,0-1.21-.05-1.81-.13.6.09,1.21.12,1.81.13Z"/>
      <path class="cls-2" d="M124.68,81.2c-.05.07-.09.12-.12.19v.02s0,.05,0,.07c.24-.4.47-.81.75-1.2-.23.31-.44.61-.63.92Z"/>
      <path class="cls-2" d="M121.3,94.25s0,.03-.02.05v.14c-.03.49-.05,1.02-.07,1.55-.02.39-.02.79-.02,1.19-.02.36-.02.72-.02,1.09t0,.03s-.02.02,0,.03c-.02.19-.02.38-.02.58v.15c.01-1.71.06-3.33.15-4.88,0,.02,0,.03,0,.05Z"/>
      <path class="cls-2" d="M138.8,97.32c.54-.1,1.08-.18,1.65-.22-.56.04-1.11.12-1.65.22Z"/>
      <path class="cls-2" d="M151.02,101.85c.03-.14.05-.26.05-.39.02-.18.03-.35.03-.53,0,.31-.04.64-.09.97,0-.02,0-.03,0-.05Z"/>
      <path class="cls-2" d="M150.8,102.82c.05-.19.1-.38.15-.56,0-.02.02-.05.02-.07,0-.04.01-.07.02-.11-.07.34-.16.68-.28,1.03.04-.1.07-.19.1-.29Z"/>
      <path class="cls-2" d="M148.46,110.41c0,.29.02.56.05.81-.03-.25-.04-.52-.05-.81Z"/>
      <path class="cls-2" d="M148.65,112.04c-.05-.14-.08-.32-.1-.49.03.18.06.34.1.5h0Z"/>
      <path class="cls-2" d="M134.67,102.24c.03.15.09.31.14.43.03.07.05.12.09.17v.02c.04.12.1.21.16.31-.17-.27-.3-.58-.38-.93h0Z"/>
      <path class="cls-2" d="M137.03,123.95c.12.02.24.02.36.04-.53-.07-1.04-.15-1.53-.25.39.08.77.16,1.17.22Z"/>
      <path class="cls-2" d="M134.57,101.59v.05c.02.19.05.34.09.49,0,0,0,0,0,0-.07-.33-.11-.7-.11-1.09,0,.19.01.38.03.54Z"/>
      <path class="cls-2" d="M143.25,124.07c-.57.06-1.11.09-1.63.11.52-.02,1.07-.05,1.63-.11Z"/>
      <path class="cls-2" d="M114.14,73.08c1.09.2,2.03.59,2.82,1.18.79.59,1.4,1.38,1.85,2.39.21.47.36,1.02.47,1.63,0-.02,0-.05-.01-.07-.05-.26-.1-.51-.17-.75-.09-.29-.17-.56-.29-.82-.44-1.01-1.06-1.79-1.84-2.39-.79-.58-1.72-.97-2.82-1.18s-2.29-.31-3.57-.31c-.41,0-.9.05-1.43.13.53-.07,1.03-.12,1.42-.12,1.29,0,2.48.1,3.57.31Z"/>
      <path class="cls-2" d="M115.91,96.94s0-.1,0-.14,0-.1,0-.14c0,.05,0,.09,0,.14s0,.1,0,.15Z"/>
      <path class="cls-2" d="M116.04,99.03c-.03-.15-.05-.29-.05-.44v-.02s-.02-.03,0-.05v-.02c0-.07,0-.14-.02-.21.02.27.04.53.07.81v-.07Z"/>
      <path class="cls-2" d="M119.38,79.1c0-.09,0-.15-.02-.22-.01-.09-.03-.17-.04-.25.02.15.04.32.06.48,0,0,0,0,0,0Z"/>
      <path class="cls-2" d="M119.45,80v-.15c0-.08-.01-.14-.02-.22,0,.12,0,.26.01.38,0,0,0,0,0-.01Z"/>
      <path class="cls-2" d="M116.04,94.58s.01-.08.02-.12c-.01.09-.02.18-.03.28,0-.05,0-.11.01-.16Z"/>
      <path class="cls-2" d="M118.43,114.76c0,.66-.04,1.3-.11,1.9.02-.14.05-.26.06-.41v-.09c.02-.15.02-.29.03-.44.02-.29.03-.58.03-.87v-.05s-.01-.03-.02-.04Z"/>
      <path class="cls-2" d="M110.57,124.5c-.58,0-1.12-.06-1.64-.15.03,0,.06.02.09.02.14.03.29.05.43.07.15.02.29.03.44.03.22.03.44.03.68.03,2.37,0,4.19-.79,5.52-2.29-1.33,1.5-3.16,2.29-5.53,2.29Z"/>
      <path class="cls-2" d="M148.53,122.7c.14-.07.27-.14.39-.24.06-.03.12-.09.18-.13-.32.21-.65.41-1.01.57.15-.07.3-.14.44-.21Z"/>
      <path class="cls-2" d="M106.08,91.87c.15,1.04.25,2.07.25,3.12,0,.26-.02.53-.04.79,0-.27.04-.53.04-.8,0-1.04-.1-2.07-.25-3.11Z"/>
      <path class="cls-2" d="M105.64,73.83c.37-.17.76-.3,1.14-.43-.38.12-.76.26-1.13.42-.87.39-1.62.9-2.25,1.55-.05.05-.08.11-.12.16.05-.05.08-.11.13-.17.63-.64,1.37-1.16,2.24-1.54Z"/>
      <path class="cls-2" d="M105.86,99.52c.02-.07.02-.15.04-.22-.01.07-.02.15-.04.22-.32,1.5-.68,3.02-1.09,4.57-.26,1.02-.51,2.08-.73,3.17t0,.02s0,.03.01.05c.23-1.09.46-2.19.73-3.23.4-1.55.76-3.07,1.09-4.57Z"/>
      <path class="cls-2" d="M132.41,74.53c2.02-.89,4.1-1.33,6.23-1.33.88,0,1.76.12,2.65.3-.88-.18-1.76-.3-2.64-.3-2.13,0-4.21.44-6.25,1.33-2.01.89-3.77,2.08-5.26,3.57-.27.27-.53.55-.75.82-.17.17-.32.36-.46.55-.15.18-.28.35-.42.53.49-.65,1.03-1.28,1.63-1.89,1.49-1.49,3.25-2.68,5.26-3.57Z"/>
      <path class="cls-2" d="M128.33,120.36c-.64-.52-1.23-1.09-1.77-1.69.54.6,1.12,1.16,1.76,1.69,1.48,1.19,3.24,2.13,5.32,2.82.49.16,1.01.31,1.55.42-.53-.12-1.05-.27-1.55-.43-2.08-.68-3.85-1.62-5.32-2.81Z"/>
      <path class="cls-2" d="M149.69,121.93s.09-.05.13-.09c.19-.14.36-.29.53-.48,0,0,0-.02,0-.02-.21.21-.42.41-.65.59Z"/>
      <path class="cls-2" d="M167.1,110.47c0,.28.02.56.04.83-.02-.27-.04-.55-.04-.83Z"/>
      <path class="cls-2" d="M184.03,122.51c.05-.03.09-.07.14-.1.09-.07.16-.17.26-.25-.31.27-.63.53-1.01.74.22-.11.42-.24.61-.39Z"/>
      <path class="cls-2" d="M123.55,113.82s0,.02,0,.02c.03.09.07.15.1.24.32.72.68,1.42,1.08,2.1.27.45.56.89.87,1.31-.31-.42-.6-.85-.86-1.3-.44-.76-.83-1.55-1.19-2.37Z"/>
      <path class="cls-2" d="M166.04,124.13c.07-.03.12-.08.18-.11-.13.07-.27.13-.42.19.08-.03.16-.05.24-.08Z"/>
      <path class="cls-2" d="M168.38,120.35c.01-.19.02-.38.03-.58,0,.26-.02.51-.05.75,0-.06.02-.11.02-.17Z"/>
      <path class="cls-2" d="M167.27,123.25c.07-.09.15-.17.22-.27.09-.1.15-.2.22-.31h0c-.15.24-.32.46-.51.66.02-.02.05-.05.07-.08Z"/>
      <path class="cls-2" d="M147.5,76.78s-.06-.07-.1-.11c-.02-.03-.05-.07-.09-.1-.05-.05-.1-.1-.15-.15-.02-.02-.03-.03-.05-.05-.12-.12-.24-.22-.36-.32-.17-.17-.36-.31-.55-.46-.78-.58-1.66-1.02-2.59-1.39.93.37,1.81.81,2.59,1.39.48.36.9.76,1.29,1.2Z"/>
      <path class="cls-2" d="M166.71,123.74c.09-.05.17-.12.26-.19.03-.02.05-.05.09-.07.03-.03.06-.06.09-.09-.15.15-.33.28-.52.4.03-.02.06-.03.09-.05Z"/>
      <path class="cls-2" d="M168.26,121.16s.02-.02.02-.03v-.02s.01-.1.02-.15c-.03.17-.07.34-.12.5.03-.1.06-.2.08-.3Z"/>
      <path class="cls-2" d="M167.99,122.07s.02-.06.04-.09c-.05.14-.12.28-.19.41.05-.1.11-.2.15-.32Z"/>
      <path class="cls-2" d="M132.3,103.33v-.05c-.05-.53-.07-1.11-.07-1.66,0-1.65.17-3.06.49-4.27-.32,1.21-.49,2.63-.49,4.28,0,.57.02,1.14.07,1.7Z"/>
      <path class="cls-2" d="M135.54,98.64s-.04.02-.05.03c-.05.04-.09.1-.14.15.05-.05.09-.1.15-.15.01-.01.03-.02.04-.03Z"/>
      <path class="cls-2" d="M139.68,110.32c.21-.07.41-.17.6-.26-.19.09-.39.19-.6.25-.53.19-1.01.27-1.45.27-.03,0-.05,0-.08,0,.03,0,.05,0,.08,0,.44,0,.93-.09,1.45-.27Z"/>
      <path class="cls-2" d="M142.16,108.41c.28-.44.42-.93.42-1.45,0-.68-.22-1.14-.66-1.36-.22-.11-.43-.18-.64-.24.21.06.43.14.64.24.44.22.67.68.67,1.37,0,.51-.14,1.01-.43,1.45-.12.19-.26.38-.41.53-.05.05-.1.12-.15.17-.15.17-.32.31-.49.44-.13.1-.28.19-.42.28.15-.09.3-.17.43-.28.42-.32.77-.7,1.06-1.15Z"/>
      <path class="cls-2" d="M135.99,104.16c.16.12.3.25.48.35.33.18.71.32,1.1.42-.39-.11-.76-.24-1.1-.42-.18-.09-.33-.23-.49-.35Z"/>
      <path class="cls-2" d="M148.78,97.71c-.12-.05-.21-.12-.34-.16-.69-.23-1.45-.38-2.28-.45.82.07,1.59.21,2.28.45.12.04.22.11.33.16Z"/>
      <path class="cls-2" d="M148.74,112.36s0-.02,0-.03c.04.13.1.23.15.34-.05-.1-.1-.2-.14-.31Z"/>
      <path class="cls-2" d="M149.49,113.64c.14.18.29.34.44.49-.15-.16-.3-.32-.44-.49Z"/>
      <path class="cls-2" d="M134.73,109.38c-.51-.44-.96-.94-1.29-1.55-.38-.71-.65-1.55-.84-2.46.19.91.45,1.75.84,2.46.33.62.78,1.11,1.29,1.55Z"/>
      <path class="cls-2" d="M133.59,95.2c.27-.45.57-.85.91-1.19.25-.25.55-.46.83-.67-.29.21-.58.41-.84.66-.34.34-.65.74-.91,1.19Z"/>
      <path class="cls-2" d="M145.33,91.26c-1.19.34-2.75.52-4.69.52-.97,0-1.85.14-2.67.35.82-.21,1.7-.35,2.68-.35,1.93,0,3.5-.17,4.69-.51,1.18-.34,2.1-.9,2.75-1.67.14-.17.27-.34.39-.53.07-.12.14-.26.2-.38,0,0,0-.02.02-.02.02-.03.03-.07.05-.1.03-.05.04-.11.07-.16-.21.43-.44.83-.73,1.18-.65.77-1.57,1.32-2.75,1.66Z"/>
      <path class="cls-3" d="M5.51,93.54c-.17-1.43-.48-2.29-.67-2.66-.24-.46-.49-.89-.79-1.28-.53-.7-1.04-1.42-1.54-2.13-.68-.97-1.25-2-1.67-3.02-.36-.84-.6-1.72-.72-2.65-.09.55-.14,1.13-.14,1.71,0,1.55.29,3,.85,4.35.43,1.02.99,2.05,1.67,3.02.49.72,1.01,1.43,1.54,2.13.29.39.55.82.79,1.28.19.38.49,1.23.67,2.66.09.63.15,1.25.2,1.81.07-.48.09-.94.09-1.42,0-1.08-.09-2.35-.29-3.81Z"/>
      <path class="cls-3" d="M99.15,99.9c.15.15.32.32.48.48.22.22.44.46.63.7.15-.68.31-1.37.46-2.06-.49.34-1.02.65-1.57.89Z"/>
      <path class="cls-3" d="M222.46,97.22c.58-1.48.87-3.16.87-5,0-.6-.02-1.19-.09-1.81-.12,1.23-.38,2.35-.79,3.4-.61,1.54-1.47,2.85-2.51,3.87-.94.94-2.01,1.69-3.19,2.22.17.15.32.32.48.48.55.56,1.04,1.14,1.5,1.76.43-.31.84-.67,1.21-1.04,1.04-1.02,1.89-2.34,2.51-3.87Z"/>
      <path class="cls-3" d="M216.81,124.49c-1.71,1.47-3.75,2.63-6.06,3.46-2.29.82-4.83,1.25-7.54,1.25-2.44,0-4.76-.24-6.89-.68-2.24-.49-4.25-1.23-5.97-2.2-.02-.02-.05-.02-.07-.03-.56-.32-1.11-.68-1.6-1.06-.58.61-1.23,1.18-1.95,1.66-.29.2-.61.39-.94.58-1.86,1.01-4.04,1.5-6.72,1.5-1.81,0-3.58-.61-5.17-1.76-.68-.51-1.31-1.09-1.91-1.72-1.71,2.7-4.71,4.27-8.58,4.27-1.55,0-3.07-.19-4.51-.56-1.47-.39-2.82-.99-4.01-1.77-.14-.09-.26-.17-.38-.26-.55-.39-1.06-.84-1.48-1.31-.53.44-1.09.84-1.69,1.18-.43.24-.85.46-1.3.65-1.5.63-3.11,1.09-4.85,1.33-1.52.22-2.94.32-4.23.32-3.31,0-6.31-.43-8.91-1.28-2.65-.87-4.97-2.12-6.93-3.7-.72-.56-1.38-1.18-2-1.83-.27-.27-.53-.56-.77-.85-.29.75-.63,1.45-1.02,2.1-.27.46-.56.89-.89,1.3-1.62,2.08-4.64,4.57-9.86,4.57-1.81,0-6.11-.43-9.16-4.03-.48-.56-.92-1.19-1.33-1.93-.29.29-.58.56-.89.82-.05.03-.1.09-.15.12-1.67,1.42-3.67,2.53-5.9,3.34-2.29.82-4.83,1.25-7.54,1.25-2.46,0-4.76-.24-6.89-.68-2.06-.44-3.92-1.11-5.56-2-.15-.07-.32-.15-.48-.24-.51-.29-.99-.6-1.45-.94-.61.61-1.3,1.16-2.01,1.62-.39.29-.78.53-1.19.77-1.76.99-3.69,1.72-5.7,2.18-1.95.44-3.84.68-5.63.68s-3.74-.22-5.77-.61c-2.18-.43-4.27-1.14-6.21-2.13-2.06-1.04-3.84-2.44-5.29-4.16-.05-.05-.1-.12-.15-.17-.41-.49-.77-1.02-1.09-1.57-.32.39-.65.78-.99,1.14-1.79,1.98-3.87,3.63-6.19,4.97-3.19,1.84-6.84,2.78-10.85,2.78-1.64,0-3.45-.24-5.38-.68-2.01-.46-3.96-1.19-5.77-2.18-1.96-1.06-3.65-2.41-5.02-3.99-1.45-1.69-2.34-3.72-2.58-5.94-.07.67-.1,1.35-.1,2.01,0,2.75.92,5.29,2.68,7.34,1.37,1.59,3.05,2.94,5.02,3.99,1.81.99,3.75,1.72,5.77,2.18,1.93.44,3.74.68,5.38.68,4.01,0,7.66-.94,10.85-2.78,2.75-1.57,5.17-3.63,7.18-6.11.32.55.68,1.08,1.09,1.57,1.48,1.79,3.31,3.26,5.44,4.33,1.95.99,4.03,1.71,6.21,2.13,2.03.39,3.98.61,5.77.61s3.69-.24,5.63-.68c2.01-.46,3.94-1.19,5.7-2.18,1.18-.67,2.25-1.45,3.21-2.39.46.34.94.65,1.45.94,1.74.99,3.77,1.74,6.04,2.24,2.13.44,4.44.68,6.89.68,2.71,0,5.26-.43,7.54-1.25,2.3-.84,4.35-2,6.06-3.46.31-.26.6-.53.89-.82,2.99,5.39,8.41,5.96,10.49,5.96,5.22,0,8.24-2.49,9.86-4.57.79-1.01,1.42-2.13,1.91-3.4.82.97,1.74,1.86,2.76,2.68,1.96,1.59,4.28,2.83,6.93,3.7,2.59.85,5.6,1.28,8.91,1.28,1.3,0,2.71-.1,4.23-.32,1.74-.24,3.34-.7,4.85-1.33,1.09-.48,2.1-1.09,2.99-1.83.43.48.94.92,1.48,1.31,1.28.92,2.76,1.6,4.39,2.03,1.43.38,2.95.56,4.51.56,3.87,0,6.88-1.57,8.58-4.27.6.63,1.23,1.21,1.91,1.72,1.59,1.14,3.36,1.76,5.17,1.76,2.68,0,4.86-.49,6.72-1.5,1.09-.61,2.06-1.35,2.88-2.24.49.38,1.04.73,1.6,1.06,1.74.99,3.77,1.74,6.04,2.24,2.13.44,4.45.68,6.89.68,2.71,0,5.26-.43,7.54-1.25,2.3-.84,4.35-2,6.06-3.46,1.81-1.54,3.21-3.38,4.18-5.43.99-2.1,1.48-4.33,1.48-6.66,0-.58-.03-1.14-.09-1.69-.19,1.71-.65,3.36-1.4,4.93-.97,2.05-2.37,3.89-4.18,5.43Z"/>
      <path class="cls-3" d="M36.55,115.16v-.02c.05-1.25.27-2.58.68-4.08.32-1.26.72-2.71,1.13-4.35.39-1.54.75-3.28,1.06-5.14.03-.22.07-.44.1-.67v-.02s.02-.02,0-.03c.07-.43.14-.87.17-1.31-.05-.79-.12-1.57-.2-2.33-.03-.28-.06-.56-.09-.83-.05-.44-.12-.86-.19-1.29-.06-.4-.11-.82-.19-1.2v-.02c-.02-.11-.04-.2-.06-.31-.11-.61-.25-1.2-.38-1.79-.05-.2-.09-.41-.14-.61-.02-.09-.05-.16-.07-.25-.18-.68-.37-1.34-.59-1.98-.09-.26-.18-.52-.28-.78-.24-.65-.48-1.29-.76-1.9,0-.02-.02-.04-.02-.06-.02-.03-.04-.07-.05-.1h0c-.66-1.42-1.44-2.73-2.33-3.94-.05-.06-.08-.13-.13-.19-.03-.04-.06-.07-.09-.11-1.92-2.52-4.4-4.52-7.44-5.97-.49-.23-1.02-.42-1.55-.61-.49-.19-1-.36-1.52-.52-2.4-.7-5.09-1.08-8.1-1.08-.64,0-1.35.06-2.08.14-.38.04-.75.08-1.15.15-.6.09-1.18.21-1.74.38-.02,0-.05.02-.07.03-.54.16-1.06.36-1.57.58-.36.16-.67.37-1,.57-.63.4-1.22.84-1.7,1.39-.73.83-1.09,1.89-1.09,3.18,0,.36.04.71.1,1.05.01.12.04.23.06.34.07.31.15.62.27.91,0,.02.02.05.03.07.29.72.68,1.42,1.14,2.08.17.25.36.49.54.74.29.41.58.82.88,1.22.01.01.02.03.03.05.48.63.88,1.3,1.25,2.02.55,1.14.94,2.54,1.16,4.2,0,.03.01.06.02.1,0,0,0,0,0,0,0,0,0,0,0,0,.02.13.02.23.04.36.19,1.53.29,2.92.29,4.11,0,.03,0,.06,0,.09,0,.28,0,.54-.02.82,0,.05,0,.09-.02.14,0,.17-.02.34-.03.49v.05c-.03.24-.05.47-.09.71-.02.13-.04.26-.06.38-.03.19-.05.38-.09.56-.03.27-.1.55-.17.84-.05.27-.14.55-.2.82-.46,1.55-.95,3.07-1.51,4.57-.03.07-.04.14-.07.21-.58,1.58-1.11,3.16-1.57,4.75-.08.28-.12.57-.19.86-.31,1.32-.5,2.65-.5,4.01,0,.08,0,.16.01.25,0,.2.02.39.05.59.02.15.04.29.08.45v.04c.04.18.09.36.14.54.01.04.02.07.03.11.02.05.03.12.05.19,0,.02.02.04.03.06.1.26.22.51.36.75.03.05.05.09.08.14.02.03.04.06.05.09.15.24.32.48.51.71.03.03.04.06.07.09.32.37.7.7,1.07,1.03.29.26.59.53.91.77.5.37,1.01.73,1.59,1.04.65.36,1.34.67,2.03.94.79.31,1.6.57,2.44.76,1.57.36,2.98.55,4.23.55,1.89,0,3.64-.29,5.28-.81,1.05-.33,2.07-.74,3.01-1.29,1.83-1.04,3.44-2.33,4.85-3.84.46-.5.9-1.02,1.32-1.57.74-.96,1.38-1.99,1.97-3.05ZM26.33,102.27c-.01.15-.03.3-.05.46,0,.05-.01.11-.02.16,0,.04,0,.09-.01.13v.02c-.03.2-.07.39-.1.6s-.07.43-.12.63c-.22,1.02-.55,2.01-.97,2.97-.43.94-.96,1.74-1.62,2.37,0,0,0,0,0,0,0,0,0,0,0,0-.05.05-.1.08-.15.13-.32.28-.66.5-1.01.63-.35.13-.72.21-1.1.21-.32,0-.59-.09-.79-.27,0,0,0,0,0,0,0,0,0,0,0,0-.18-.16-.32-.39-.42-.65,0-.02-.02-.02-.03-.04-.07-.18-.09-.37-.12-.56-.02-.11-.06-.21-.07-.32,0-.05,0-.1-.02-.14v-.29c-.02-.14-.02-.26-.02-.39,0-1.53.05-3.06.08-4.59.02-1.25.02-2.5.06-3.75.08-2.79.12-5.59.12-8.41,0-.06,0-.16,0-.22,0-.16,0-.34.02-.53.02-.31.07-.6.15-.87,0,0,0,0,0,0h0s0,0,0-.01c.09-.28.22-.52.38-.71.19-.2.43-.31.7-.31.8,0,1.54.49,2.18,1.48.13.2.23.44.35.66.48.85.92,1.8,1.27,2.91.34,1.08.6,2.19.81,3.33.06.33.14.66.19,1,0,.04,0,.07.01.11.08.58.15,1.11.2,1.6.02.2.04.4.05.59.03.38.05.74.06,1.06,0,.1.02.22.02.32,0,.22-.02.46-.03.7Z"/>
      <path class="cls-1" d="M26.29,100.19c-.02-.19-.03-.38-.05-.59-.05-.5-.11-1.02-.2-1.6,0-.04,0-.07-.01-.11-.05-.34-.13-.67-.19-1-.21-1.14-.47-2.25-.82-3.33-.35-1.1-.79-2.05-1.27-2.91-.12-.22-.23-.46-.35-.66-.65-.99-1.38-1.48-2.18-1.48-.27,0-.51.1-.7.31-.17.2-.3.43-.38.71,0,0,0,0,0,.01,0,0,0,0,0,0-.09.27-.14.56-.15.87-.01.2-.01.37-.02.53,0,.08,0,.16,0,.22,0,2.83-.05,5.63-.12,8.41-.04,1.25-.04,2.5-.06,3.75-.03,1.53-.08,3.06-.08,4.59,0,.14,0,.26.02.39v.29s.02.09.02.14c0,.11.05.21.07.32.03.19.05.38.12.55,0,.02.02.03.02.05.1.27.24.49.42.65,0,0,0,0,0,0,.2.19.48.27.8.27.38,0,.75-.07,1.1-.21.36-.14.7-.35,1.01-.63.05-.05.11-.08.16-.13,0,0,0,0,0,0,.67-.63,1.19-1.43,1.62-2.37.43-.96.75-1.95.97-2.97.05-.2.09-.43.12-.63s.07-.39.1-.6v-.02s0-.09.01-.13c0-.05.01-.11.02-.16.02-.15.04-.31.05-.46.02-.24.03-.48.03-.7,0-.09-.01-.22-.02-.32,0-.33-.03-.68-.06-1.06Z"/>
      <path class="cls-3" d="M66.18,117.15v-.02c-.07-.49-.1-1.01-.1-1.52,0-.17,0-.34.02-.49.02-1.14.15-2.24.39-3.3-.21-.07-.42-.13-.62-.17-.01,0-.03,0-.04-.01,0,0-.01,0-.02,0-.29-.05-.57-.08-.84-.08-.85,0-1.7.04-2.57.12-.87.08-1.74.12-2.63.12-.14,0-.31,0-.48-.02-.26-.01-.54-.03-.85-.07-.47-.06-.93-.16-1.37-.3-.04-.01-.09-.01-.13-.03-.38-.13-.71-.31-1-.53-.08-.06-.16-.1-.24-.16-.34-.31-.51-.72-.51-1.25,0-.46.13-.88.38-1.26.03-.04.05-.09.08-.13.1-.14.22-.27.36-.4.25-.23.51-.39.78-.51.02-.01.05-.04.07-.05.3-.13.61-.19.92-.19.82,0,1.59.12,2.3.36.37.12.74.21,1.13.28.38.06.78.09,1.18.09.89,0,1.6-.15,2.15-.45.34-.19.62-.44.86-.71.15-.17.3-.33.4-.53.11-.2.21-.41.3-.62.02-.05.05-.09.06-.14.09-.23.16-.49.22-.75,0-.04.02-.07.03-.11,0-.04.01-.08.03-.12,0-.04.01-.08.02-.12.11-.59.17-1.19.17-1.79,0-.01,0-.02,0-.04,0-.64-.14-1.11-.35-1.49-.08-.15-.14-.32-.25-.44-.26-.26-.57-.44-.9-.58-.19-.08-.38-.17-.59-.21-.24-.05-.49-.07-.74-.09-.24-.03-.49-.03-.75-.02-.15,0-.29,0-.44,0-.13,0-.24,0-.37.01-.56.03-1.1.05-1.59.05-.21,0-.43-.02-.65-.04-.2-.01-.41-.03-.61-.05-.3-.04-.6-.08-.9-.15-.7-.17-1.33-.43-1.88-.79-.24-.18-.48-.39-.69-.61-.01-.01-.02-.02-.03-.03,0,0,0,0,0,0-.2-.24-.41-.51-.56-.8-.05-.09-.1-.19-.12-.29v-.02c-.03-.05-.05-.1-.09-.17,0-.02-.02-.05-.03-.09-.05-.11-.08-.24-.1-.37-.02-.08-.03-.17-.05-.26-.02-.12-.05-.24-.06-.38-.01-.16-.03-.35-.03-.54,0-.03,0-.05,0-.08,0-.26.03-.52.08-.76.05-.25.13-.49.25-.72.1-.24.24-.44.39-.65,0,0,0,0,0,0,.02-.02.04-.04.05-.06.11-.14.22-.28.36-.42l.1-.1s0,0,.01-.01c0,0,0,0,0,0h0s.06-.05.09-.07c.36-.32.76-.58,1.2-.77.48-.2.99-.31,1.51-.31.35,0,.7.04,1.04.1.22.04.44.08.66.14.56.17,1.11.34,1.66.51.28.1.56.18.84.27.26.08.53.17.79.25.54.16,1.1.24,1.66.24.1,0,.19-.02.28-.03-.07-.47-.12-.98-.14-1.49-.02-.02-.02-.03,0-.05-.05-.56-.07-1.14-.07-1.76,0-2.65.48-5.24,1.42-7.71.41-1.09.9-2.13,1.48-3.12.34-.58.7-1.14,1.09-1.68-.02-.04-.03-.09-.05-.14-.01-.03-.02-.06-.03-.09-.44-1.02-1.06-1.74-1.88-2.17-.31-.17-.68-.28-1.04-.39-.57-.17-1.19-.29-1.88-.31-1.15-.04-2.45-.06-3.9-.06-1.11,0-2.21-.08-3.3-.19-.62-.06-1.23-.12-1.84-.22-1.69-.29-3.41-.43-5.14-.43-1.25,0-2.42.14-3.52.43-.39.1-.73.24-1.08.38-.56.23-1.08.5-1.54.83-.06.04-.13.07-.19.12-.78.6-1.4,1.39-1.85,2.36-.44.97-.66,2.16-.66,3.57,0,.64.05,1.26.12,1.88.01.13.04.25.06.38.07.5.17,1,.3,1.48.02.07.03.15.05.22.04.14.08.28.12.42.3,1.1.63,2.2.99,3.3.01.03.02.07.03.1.09.28.16.56.25.84.32.99.63,1.99.9,3,.34,1.29.51,2.62.51,3.99,0,.15-.01.28-.02.43,0,.54-.01,1.08-.04,1.6v.26c-.02.31-.03.64-.07.94-.01.19-.04.36-.05.54,0,.03,0,.05,0,.08-.02.39-.06.77-.11,1.15v.05c-.06.44-.12.88-.2,1.32,0,.05-.01.11-.02.16-.13.75-.27,1.45-.4,2.15-.23,1.19-.48,2.34-.74,3.39-.13.5-.24.95-.36,1.41-.12.46-.24.92-.35,1.34-.15.58-.3,1.15-.43,1.67-.11.39-.17.75-.25,1.11-.16.8-.27,1.55-.27,2.18,0,.24.03.46.05.69.01.15.01.3.03.44.01.12.03.23.05.35.03.17.08.34.12.51.07.31.16.61.28.89.09.23.18.46.3.67.03.05.06.11.09.16.18.31.38.62.62.9,1.03,1.25,2.3,2.26,3.81,3.03.38.19.78.33,1.17.49,1.18.49,2.4.91,3.71,1.16.81.16,1.59.28,2.34.37.85.1,1.66.15,2.43.15.92,0,1.9-.11,2.9-.27.52-.08,1.04-.16,1.58-.29,1.57-.36,3.02-.9,4.35-1.66.01,0,.03-.02.04-.03.53-.3,1.01-.66,1.47-1.03.18-.15.37-.29.54-.45.06-.06.11-.13.18-.19-.83-1.36-1.35-2.83-1.54-4.41Z"/>
      <path class="cls-3" d="M98.07,118.08c.1-.12.17-.2.2-.32v-.02c-.07-.58-.14-1.18-.15-1.81,0,0-.02-.02,0-.03-.03-.49-.05-1.02-.05-1.55,0-1.33.07-2.63.22-3.87.09-.87.2-1.71.36-2.51.02-.07.02-.12.03-.19v-.02s-.02-.03-.03-.07c-.2-.38-.45-.74-.68-1.1-.6-.94-1.25-1.83-2.03-2.65-.42-.44-.86-.84-1.31-1.25-.71-.64-1.44-1.26-2.2-1.83-1.25-.94-2.42-1.84-3.52-2.73-.32-.27-.6-.54-.9-.81-.68-.63-1.31-1.25-1.82-1.89-.23-.29-.41-.58-.56-.89-.03-.06-.07-.11-.1-.17-.02-.05-.05-.1-.07-.15-.02-.02-.02-.05-.03-.07-.01-.03-.02-.06-.03-.09-.05-.13-.08-.26-.11-.39-.04-.14-.08-.27-.11-.41-.05-.26-.07-.52-.07-.79,0,0,0-.02,0-.02,0,0,0,0,0,0,0,0,0,0,0,0,0-.14.02-.28.03-.42,0-.1,0-.2.02-.29,0-.02,0-.03,0-.05.1-.67.34-1.27.73-1.82.53-.75,1.13-1.13,1.83-1.13.41,0,.77.15,1.09.42.21.17.4.39.57.67.12.21.25.44.37.66.31.55.63,1.13.96,1.76.03.05.06.09.08.14.44.83.92,1.59,1.46,2.28.11.14.23.25.36.37.34.31.74.52,1.19.63.24.06.49.09.76.09.31,0,.62-.04.92-.09.14-.02.27-.05.4-.08.31-.07.61-.15.92-.27.12-.05.23-.12.35-.18.58-.28,1.12-.63,1.59-1.09,0,0,.02-.02.03-.03.5-.51.89-1.15,1.23-1.89.03-.08.08-.14.11-.22.21-.54.34-1.18.42-1.86-.02-.08-.04-.17-.07-.25v-.07c-.02-.05-.03-.1-.03-.15-.29-1.02-.56-2.01-.87-2.95-.32-1.02-.65-2-.92-2.9v-.03s-.03-.05-.03-.07c-.12-.39-.24-.77-.36-1.13-.34-1.04-.58-2-.7-2.9v-.02c-.09-.44-.12-.87-.14-1.28v-.02h0s-.03-.05-.05-.08c-.86-1.16-1.9-2.16-3.13-3-.39-.27-.8-.52-1.23-.75-1.77-.97-3.89-1.45-6.35-1.45-2.23,0-4.27.4-6.09,1.16-.19.08-.38.14-.56.23-.49.23-.95.47-1.4.74-.38.22-.73.46-1.08.7-.05.03-.1.07-.15.1-.05.03-.09.06-.13.09-.29.21-.56.45-.84.68,0,0,0,0,0,0-.14.13-.3.26-.45.38-.28.25-.54.52-.8.79-.05.06-.11.11-.16.16-.2.23-.39.46-.58.7-.15.19-.31.38-.46.58-.87,1.18-1.58,2.47-2.11,3.87-.73,1.92-1.09,3.88-1.09,5.9,0,1.18.09,2.24.24,3.21.02.19.06.38.09.55h0c.15.79.37,1.5.64,2.14.03.08.06.17.1.25.03.07.05.14.08.2.15.31.31.6.48.89.12.24.26.48.43.7.14.22.27.46.43.67.2.29.41.55.65.8.05.05.09.1.14.15.24.27.48.53.75.75.43.39.89.73,1.36,1.06.36.26.72.5,1.1.73.43.26.85.53,1.3.75,1.35.67,2.59,1.33,3.75,2,.47.27.89.58,1.29.89.58.45,1.12.92,1.57,1.44.2.23.37.48.52.75.43.77.65,1.71.65,2.82,0,.22-.02.41-.05.6,0,.01,0,.03,0,.04,0,.03-.01.05-.02.08,0,.02,0,.04-.01.05-.01.08-.04.15-.07.22-.05.16-.11.31-.18.44-.02.07-.05.13-.11.2-.01.02-.02.03-.04.05,0,0,0,.01-.01.02,0,0,0,0,0,0-.02.03-.05.05-.08.07-.09.1-.18.19-.28.27-.09.06-.22.09-.32.15-.53.29-1.16.46-1.98.46-.31,0-.58-.09-.82-.25-.13-.09-.26-.21-.37-.35-.05-.06-.1-.12-.15-.19-.05-.09-.12-.2-.18-.29-.28-.45-.56-.91-.88-1.42-.13-.2-.29-.4-.45-.59-.31-.38-.65-.75-1.07-1.1-.08-.07-.17-.11-.26-.17-.61-.4-1.41-.61-2.43-.61-.2,0-.38.05-.57.08-.21.03-.43.06-.63.12-.32.1-.62.24-.91.43-.32.21-.61.45-.89.73-.09.09-.16.2-.24.29-.17.2-.35.4-.51.63-.02.02-.04.04-.05.07-.23.35-.43.73-.62,1.13-.17.38-.31.77-.43,1.2-.03.07-.05.14-.07.2-.27.97-.39,2.03-.39,3.16,0,.47.05.92.15,1.36.03.13.05.25.08.38.02.06.03.13.05.19.06.2.14.4.23.59.04.09.07.18.11.27.07.14.15.27.23.4.07.12.13.25.21.37.14.2.29.41.46.6.08.11.18.21.27.31.1.11.21.22.32.33.05.04.09.08.14.13.07.07.14.14.2.19.19.17.38.32.58.46.27.2.55.39.85.56.01.01.03.02.04.03.03.02.05.04.08.05.43.24.92.44,1.4.64.96.41,1.99.77,3.17,1.01.67.15,1.38.24,2.1.33,1.18.15,2.4.25,3.71.25,2.14,0,4.07-.31,5.8-.94.27-.1.5-.24.76-.35,1.39-.59,2.66-1.29,3.71-2.2.4-.34.76-.7,1.09-1.07.08-.09.16-.19.24-.28.31-.37.61-.76.87-1.17Z"/>
      <path class="cls-3" d="M118.16,114.12v-.02c-.19-.55-.38-1.09-.53-1.66-.6-2.12-1.02-4.35-1.26-6.64-.07-.68-.12-1.38-.17-2.06v-.05c-.07-.9-.1-1.83-.14-2.73v-.02c-.02-.55-.02-1.08-.02-1.6v-.22h0c-.03-.29-.05-.55-.07-.82-.02-.22-.04-.44-.05-.65-.01-.24-.01-.48-.01-.71,0-.05,0-.1,0-.15s0-.09,0-.14c0-.33.01-.67.03-.98.01-.32.05-.63.09-.93.01-.09.02-.18.03-.28.03-.28.07-.57.12-.84,0-.05.02-.09.03-.14v-.07c.02-.31.03-.61.05-.9.15-2.27.49-4.47.99-6.5.43-1.81,1.04-3.55,1.83-5.19v-.02c.12-.27.24-.54.37-.79,0-.13,0-.26-.01-.38-.01-.18-.02-.36-.05-.53-.02-.16-.03-.33-.06-.48-.02-.12-.03-.23-.05-.34-.11-.61-.26-1.16-.47-1.63-.45-1.01-1.06-1.81-1.85-2.39-.79-.59-1.72-.97-2.82-1.18-1.09-.2-2.27-.31-3.57-.31-.4,0-.89.05-1.42.12-.27.04-.53.07-.84.13-.52.09-1.03.22-1.53.38-.38.12-.76.26-1.14.43-.87.38-1.61.9-2.24,1.54-.05.05-.09.11-.13.17-.08.09-.16.18-.22.28-.05.05-.09.12-.12.19-.16.26-.27.54-.34.84,0,.02,0,.03-.01.05,0,.03-.01.05-.02.07v.02c-.02.05-.03.12-.03.19-.03.19-.05.39-.05.61,0,.05.01.11.01.16,0,.32.05.67.11,1.05.03.15.06.31.09.47.1.46.21.93.38,1.46.06.2.14.42.2.63,0,.02.02.02.02.03s0,.03.02.05c.07.2.14.43.2.65.1.32.22.67.32,1.01.17.5.33,1.04.5,1.59.02.06.04.12.06.18.36,1.13.69,2.32,1.01,3.55.02.09.05.17.07.26,0,0,0,0,0,.01.07.27.14.53.21.8.01.05.03.1.04.15,0,.02,0,.03.01.05.16.66.26,1.31.35,1.97.15,1.04.25,2.07.25,3.11,0,.27-.03.53-.04.8-.01.25,0,.5-.03.75v.24c0,.05,0,.1-.02.14,0,.06-.01.11-.02.17-.01.14-.03.27-.04.41,0,.07-.01.14-.02.21-.02.22-.05.44-.1.67-.04.32-.1.63-.17.94-.01.07-.02.15-.04.22-.32,1.5-.68,3.02-1.09,4.57-.27,1.04-.49,2.14-.73,3.23-.09.41-.19.79-.27,1.21-.03.14-.06.27-.08.4-.01.06-.02.13-.03.2-.13.69-.23,1.4-.3,2.13-.01.16-.03.31-.05.47-.07.84-.11,1.71-.11,2.61,0,.69.04,1.33.09,1.95.02.25.04.5.07.73.06.53.15,1.03.25,1.51,0,.03,0,.06.01.08.03.14.07.27.1.4.13.5.28.98.47,1.41.05.11.1.2.15.31.18.38.38.74.6,1.06.05.08.1.16.15.23.28.38.59.71.93,1,.04.04.09.07.14.11.34.27.71.5,1.1.69.04.02.07.04.11.06.42.19.88.33,1.36.43.06.01.12.03.19.04.51.09,1.06.15,1.64.15,2.37,0,4.2-.78,5.53-2.29.1-.11.22-.2.31-.32.28-.36.51-.76.73-1.18.1-.18.19-.37.27-.57.18-.4.34-.82.48-1.27,0,0,0-.01,0-.02.03-.09.05-.19.07-.27,0,0,0,0,0-.01.13-.49.22-1,.3-1.54.02-.12.04-.25.05-.37.07-.6.1-1.23.11-1.9-.1-.22-.19-.42-.27-.64Z"/>
      <path class="cls-3" d="M149.88,119.13v-.05c-.05-.48-.09-.97-.09-1.48v-.19c.02-1.06.09-2.12.24-3.16-.04-.04-.07-.08-.11-.12-.15-.16-.3-.31-.44-.49-.19-.24-.36-.49-.53-.78-.03-.06-.05-.12-.08-.18-.05-.11-.11-.22-.15-.34-.03-.08-.05-.15-.08-.25v-.04c-.04-.16-.08-.32-.1-.5,0-.06-.02-.1-.03-.16,0-.05,0-.11,0-.16-.03-.25-.04-.52-.05-.81,0-.07-.01-.12-.01-.18,0-.72.14-1.48.43-2.27.27-.79.58-1.59.9-2.39.32-.8.63-1.6.9-2.39,0-.02.01-.04.02-.07.12-.35.22-.7.28-1.03,0-.06.02-.12.03-.18.05-.33.09-.65.09-.97,0,0,0-.01,0-.02,0-.92-.26-1.66-.75-2.17-.43-.44-.96-.77-1.57-1.03-.12-.05-.21-.12-.33-.16-.69-.24-1.46-.38-2.28-.45-.09,0-.17-.03-.26-.03-.92-.07-1.81-.09-2.66-.09-.72,0-1.59.02-2.56.09-.08,0-.16.02-.23.02-.56.04-1.11.12-1.65.22-.33.06-.65.12-.97.21-.88.23-1.65.6-2.29,1.11-.01.01-.03.02-.04.03-.06.05-.09.1-.15.15-.53.52-.82,1.2-.82,2.09,0,.05,0,.09,0,.14,0,.4.04.77.11,1.09,0,.01.01.03.01.04v.04c.09.36.22.66.38.93,0,.02.02.04.03.05.25.39.56.69.9.95.16.12.31.25.49.35.33.18.71.31,1.1.42.27.07.55.14.84.18.06.01.13.01.19.02.6.08,1.21.12,1.81.13.05,0,.11,0,.16,0,.23,0,.46.04.69.1.21.05.43.13.64.24.44.22.66.68.66,1.36,0,.52-.14,1.01-.42,1.45-.29.44-.64.83-1.06,1.15-.14.1-.29.19-.43.28-.13.08-.25.15-.39.22-.19.1-.39.19-.6.26-.53.18-1.01.27-1.45.27-.03,0-.05,0-.08,0-1.17-.01-2.14-.25-2.89-.75-.2-.13-.35-.3-.52-.45-.51-.44-.96-.93-1.29-1.55-.38-.72-.65-1.55-.84-2.46-.03-.14-.07-.26-.1-.41,0-.03,0-.07-.01-.1-.07-.46-.13-.92-.17-1.39,0-.04-.02-.07-.02-.11v-.04c-.05-.56-.07-1.13-.07-1.7,0-1.65.17-3.07.49-4.28.22-.82.5-1.54.87-2.15.27-.45.57-.85.91-1.19.26-.25.55-.45.84-.66.77-.56,1.65-.97,2.64-1.22.82-.21,1.7-.35,2.67-.35,1.94,0,3.5-.17,4.69-.52,1.19-.34,2.11-.9,2.75-1.66.29-.35.53-.75.73-1.18.05-.1.09-.2.13-.31.14-.35.25-.73.34-1.12-.15-.39-.3-.81-.46-1.22-.44-1.28-.73-2.63-.87-4.03v-.02c-.05-.34-.07-.7-.07-1.06-.03-.27-.03-.55-.03-.82,0-.78.08-1.55.25-2.26-.13-.18-.24-.38-.39-.55,0-.01-.02-.02-.03-.03-.06-.08-.13-.15-.19-.22-.39-.43-.81-.84-1.29-1.2-.78-.58-1.66-1.02-2.59-1.39-.32-.13-.63-.28-.98-.38-.45-.14-.9-.22-1.35-.31-.88-.18-1.76-.3-2.65-.3-2.14,0-4.21.44-6.23,1.33-2.01.89-3.77,2.08-5.26,3.57-.6.6-1.14,1.24-1.63,1.89-.04.05-.07.09-.11.14-.04.05-.07.1-.1.15-.28.39-.51.8-.75,1.2-.17.28-.37.54-.52.83-.24.46-.43.95-.63,1.43-.26.61-.49,1.24-.7,1.89-.17.52-.35,1.04-.48,1.58-.21.86-.38,1.76-.52,2.69-.14.96-.25,1.95-.32,2.98-.02.23-.03.45-.04.68-.01.21-.02.44-.03.65-.08,1.55-.14,3.17-.14,4.88,0,.09,0,.17,0,.25,0,.9.03,1.8.07,2.7,0,.14.01.27.02.41.04.72.1,1.45.16,2.18.02.22.03.45.05.67.2,2,.56,3.92,1.09,5.75.03.1.07.2.1.3.23.76.48,1.5.78,2.21.03.06.05.13.07.19.01.02.02.05.04.07.35.82.74,1.61,1.19,2.37.26.45.55.88.86,1.3.3.41.63.81.97,1.19.54.6,1.12,1.17,1.77,1.69,1.47,1.19,3.24,2.13,5.32,2.81.49.16,1.01.3,1.55.43.02,0,.05.01.07.02.19.05.39.07.59.11.5.1,1,.19,1.53.25.5.06,1.01.12,1.53.15.65.05,1.31.07,2,.07h.03c.21,0,.45-.02.66-.03.53-.02,1.07-.05,1.63-.11.41-.04.81-.08,1.23-.14,1.26-.17,2.44-.51,3.5-.97.04-.02.07-.03.11-.05.36-.16.69-.36,1.01-.57.2-.12.4-.25.58-.4.23-.18.44-.38.65-.59-.22-.69-.37-1.44-.45-2.21Z"/>
      <path class="cls-3" d="M183.79,117.15v-.02c-.07-.49-.1-1.01-.1-1.52,0-1.57.19-3.07.56-4.49.39-1.43.94-2.71,1.69-3.86.03-.07.09-.12.12-.19.12-.16.23-.33.36-.5-.13-.75-.25-1.5-.4-2.26-.06-.32-.11-.64-.17-.96-.04-.21-.08-.42-.12-.63-.05-.27-.09-.55-.14-.83-.11-.61-.23-1.23-.33-1.85-.02-.14-.03-.28-.05-.42-.02-.15-.04-.3-.06-.46-.03-.26-.07-.51-.09-.77-.02-.03-.02-.07-.02-.1-.02-.1-.02-.19-.03-.29v-.02s-.03-.07-.05-.1v-.03c-.05-.07-.09-.14-.12-.2-.9-1.89-1.43-4.11-1.59-6.74-.02-.02-.02-.03,0-.05-.05-.56-.07-1.14-.07-1.76,0-2.65.49-5.24,1.43-7.71.22-.6.48-1.19.75-1.77.32-.65.68-1.29,1.05-1.9-.07-.18-.16-.36-.27-.53,0,0,0,0,0,0-.12-.19-.25-.38-.41-.57-.3-.36-.64-.69-1-1.02-.39-.34-.81-.67-1.27-.97-.34-.23-.7-.42-1.06-.61-.32-.17-.64-.32-.97-.46-.26-.11-.52-.24-.79-.33-.99-.34-1.84-.51-2.58-.51-.45,0-.87.03-1.26.09-1.17.17-2.06.61-2.66,1.3-.08.09-.14.21-.21.31-.65.92-1,2.15-1,3.75,0,.63.03,1.28.12,1.91t0,.03s.01.1.02.15c.08.63.19,1.27.34,1.9.09.39.21.77.31,1.15.24.94.48,1.88.76,2.81.38,1.31.73,2.63,1.06,3.96.31,1.33.48,2.66.48,3.99,0,.2-.02.41-.03.6v.05c-.02.1-.04.18-.06.27,0,.05-.02.09-.03.14-.01.04-.02.08-.03.12-.05.24-.14.46-.24.67,0,0,0,0,0,0,0,0,0,0,0,0-.26.55-.8.82-1.61.82-.48,0-.96-.28-1.42-.85-.18-.22-.35-.48-.52-.75-.27-.42-.53-.89-.78-1.43-.24-.51-.45-1.06-.66-1.64-.15-.42-.31-.84-.45-1.3-.03-.08-.04-.16-.07-.24-.32-.98-.59-1.94-.81-2.87-.1-.45-.2-.87-.28-1.27-.11-.52-.21-1.01-.29-1.46-.06-.36-.11-.66-.14-.93-.05-.34-.07-.63-.07-.83,0-1.4-.05-2.66-.19-3.77-.1-1.11-.41-2.06-.87-2.85-.46-.78-1.18-1.38-2.12-1.77-.77-.33-1.78-.52-3.01-.58-.29-.01-.58-.03-.89-.03-.63,0-1.3.06-1.98.15-.28.04-.56.07-.85.12-1.01.19-1.93.49-2.76.94-.13.07-.24.17-.36.25-.65.41-1.23.89-1.69,1.51,0,.02-.02.02-.02.03-.02.02-.03.05-.03.07-.1.12-.19.26-.26.41-.05.05-.07.12-.1.19-.07.14-.12.27-.15.43-.03.09-.07.17-.09.26-.03.14-.07.27-.09.43-.02.05-.03.12-.03.17-.03.24-.05.48-.05.73,0,.04,0,.07,0,.1,0,.67.06,1.32.16,1.96,0,.02,0,.04,0,.06v.02c.01.08.03.15.05.22.1.58.25,1.15.43,1.71.02.05.03.12.05.17.13.35.26.7.39,1.05.06.16.12.32.18.48.11.29.21.57.35.86.05.15.12.32.2.48h0c.07.18.14.35.22.52.09.2.17.4.26.59.6,1.3,1.18,2.61,1.72,3.92.55,1.31.89,2.68,1.06,4.08.11,1.18.16,2.35.17,3.51,0,.08.01.17.01.25,0,.13-.02.25-.02.38,0,.31-.01.63-.04.94v.03c-.01.2-.03.42-.05.63-.02.21-.05.42-.08.63-.01.1-.03.21-.04.31-.02.17-.05.32-.07.49-.05.29-.11.57-.18.86-.02.07-.02.15-.04.22-.32,1.38-.69,2.74-1.08,4.1-.03.09-.05.19-.07.28-.03.09-.04.18-.07.26-.37,1.27-.7,2.55-1,3.84-.01.04-.02.09-.03.13-.01.05-.03.1-.04.15-.01.05-.02.1-.03.15-.13.59-.23,1.18-.31,1.78-.02.18-.05.35-.07.54-.07.68-.12,1.35-.12,2.04,0,.61.06,1.18.17,1.7,0,.02,0,.03,0,.05.12.53.29,1.02.52,1.45.16.31.37.58.57.85.06.09.11.19.18.27.05.06.11.12.16.18.29.32.61.62.96.88.78.57,1.68.98,2.69,1.24.49.13.99.22,1.5.28.02,0,.04,0,.06.01.53.07,1.08.1,1.65.1.34,0,.65-.03.95-.06.06,0,.13,0,.19-.02.02.02.02,0,.03,0,.03,0,.05-.01.08-.01.26-.04.51-.1.74-.17.15-.04.27-.09.4-.14.15-.06.29-.12.42-.19.14-.07.27-.14.39-.23.18-.12.36-.25.52-.4.02-.02.04-.05.06-.07.19-.2.37-.42.51-.66h0c.05-.09.08-.19.12-.27.07-.13.13-.26.19-.41.02-.05.04-.11.07-.16.04-.11.06-.23.09-.35.04-.16.09-.32.12-.5.03-.14.04-.29.06-.44.03-.24.05-.49.05-.75,0-.05,0-.1,0-.16,0-.49-.03-.98-.08-1.46-.03-.32-.07-.65-.13-.97-.11-.63-.24-1.26-.36-1.89-.03-.16-.06-.33-.1-.49-.15-.79-.31-1.57-.46-2.37-.07-.38-.11-.75-.15-1.13-.03-.28-.03-.55-.04-.83,0-.01,0-.02,0-.03-.02-.14-.02-.26-.02-.39v-2.05s0-.04,0-.06c0-.36,0-.79.03-1.31.01-.36.08-.69.14-1.02.03-.17.03-.35.07-.51.09-.38.25-.7.44-1,.06-.09.1-.19.17-.28.05-.06.12-.08.17-.13.27-.26.6-.42,1.05-.42.8,0,1.43.6,1.88,1.79.32.87.56,1.87.77,2.93.08.39.16.76.22,1.18,0,.05,0,.09.01.14.19,1.38.33,2.73.43,4.04,0,.12.03.24.04.36.1,1.47.23,2.51.39,3.12.16.61.43,1.31.82,2.12.21.45.46.88.72,1.3.21.34.43.67.68.99.29.39.6.74.93,1.06.29.28.59.55.91.79.68.5,1.39.75,2.12.75,1.22,0,2.25-.15,3.14-.42.41-.13.79-.27,1.13-.46.03-.01.06-.04.09-.05.38-.21.69-.47,1.01-.74.19-.16.38-.34.55-.53.09-.1.15-.21.23-.31-.75-1.29-1.23-2.67-1.41-4.17Z"/>
      <path class="cls-3" d="M217.22,114.03c.03-.2.07-.39.07-.6.02-.07.02-.12.02-.19.03-.27.05-.56.05-.84,0-1.77-.36-3.34-1.09-4.73-.3-.58-.66-1.12-1.03-1.65-.51-.73-1.06-1.44-1.69-2.1-.3-.31-.62-.59-.93-.89-.83-.78-1.68-1.52-2.59-2.19-1.25-.94-2.42-1.84-3.52-2.73-.26-.22-.48-.44-.73-.66-.75-.67-1.44-1.35-1.99-2.04-.22-.28-.4-.57-.55-.87-.04-.07-.08-.13-.11-.2-.02-.05-.05-.1-.07-.15-.02-.02-.02-.05-.03-.07-.01-.03-.02-.07-.03-.11-.04-.1-.06-.19-.09-.29-.05-.17-.1-.33-.13-.5-.02-.12-.02-.24-.03-.36-.01-.15-.04-.29-.04-.45,0-.97.26-1.83.78-2.58.53-.75,1.13-1.13,1.83-1.13.34,0,.65.09.93.28.28.18.52.45.73.82.42.73.87,1.54,1.33,2.42s.97,1.69,1.54,2.42c.13.17.28.32.43.45.28.23.6.39.94.5.29.09.59.15.93.15.31,0,.61-.04.9-.09.11-.02.21-.03.32-.05.34-.07.68-.16,1.01-.29.28-.11.53-.25.78-.4.41-.24.8-.52,1.15-.87.56-.56,1.02-1.28,1.36-2.15.34-.87.51-1.9.51-3.11,0-1.77-.26-3.6-.79-5.48-.52-1.88-1.35-3.58-2.48-5.11-.22-.3-.46-.57-.7-.85-1.01-1.15-2.22-2.13-3.66-2.9-1.77-.97-3.89-1.45-6.35-1.45-2.25,0-4.29.4-6.13,1.18-.17.07-.35.13-.52.21-.97.45-1.86.98-2.69,1.58-.85.62-1.63,1.32-2.33,2.09-.19.21-.37.42-.54.64-.05.06-.1.11-.14.17-.02.03-.04.07-.07.09-.1.1-.19.22-.26.32-.06.07-.11.15-.16.22-.14.19-.27.39-.4.59-.15.23-.3.47-.44.72-.09.15-.17.3-.25.46-.11.21-.22.41-.33.63-.2.42-.39.85-.56,1.29-.73,1.92-1.09,3.88-1.09,5.9,0,1.3.09,2.47.28,3.52,0,.01,0,.02,0,.04.08.43.18.83.29,1.22.04.14.07.28.12.41.11.35.24.68.38.99.03.06.05.12.07.18.02.05.05.09.07.14.13.26.26.51.4.76.02.03.03.05.04.08.02.03.03.05.05.09,0,.02.02.02.02.03s.02.02.02.03c.03.05.05.1.1.15v.02c.17.29.36.56.55.82.05.09.1.17.17.24.03.05.07.09.11.14.12.16.25.31.37.46.03.03.05.05.08.08.09.12.19.22.29.32.19.22.39.41.6.6.14.13.3.23.45.35.86.73,1.79,1.35,2.76,1.88.18.1.35.22.54.31.37.18.71.36,1.06.54.4.21.8.41,1.19.62.51.28,1.02.55,1.5.83.36.21.67.45.99.68.71.5,1.36,1.04,1.88,1.65.3.34.52.74.7,1.18.29.69.46,1.47.46,2.4,0,.22-.02.41-.05.6,0,0,0,.01,0,.02,0,.04-.02.08-.03.13,0,0,0,.02,0,.02,0,.04-.02.07-.03.1-.13.51-.37.92-.74,1.18-.13.09-.31.14-.46.21-.51.24-1.09.4-1.84.4-.56,0-1.01-.27-1.33-.79-.19-.3-.4-.65-.61-.98-.15-.24-.29-.46-.45-.72-.23-.36-.51-.69-.82-1.03-.22-.23-.44-.45-.7-.67-.11-.1-.24-.17-.37-.25-.59-.35-1.36-.53-2.31-.53-.23,0-.44.06-.66.09-.25.04-.49.1-.72.19-.25.1-.51.19-.74.35-.04.03-.07.06-.11.09-.23.16-.45.34-.66.55-.08.07-.16.15-.23.23-.24.26-.48.54-.69.85-.36.54-.64,1.18-.88,1.85-.08.23-.17.44-.24.68-.26.97-.39,2.03-.39,3.16,0,.34.02.67.07.97.02.09.03.15.05.24.02.03.03.09.05.14v.05c.03.19.09.38.14.56.02.07.03.12.05.17.07.19.14.38.22.56.02.03.03.09.05.12.12.26.27.51.43.75.17.26.36.51.58.75,0,0,0,.01.01.02.18.21.39.41.6.6.07.06.14.13.21.18h0c.15.13.31.26.48.38.06.05.12.1.19.15.11.09.25.16.37.24.17.11.34.23.52.33.52.3,1.11.55,1.71.79.87.35,1.8.65,2.85.87.63.14,1.31.22,1.99.31,1.22.16,2.48.27,3.83.27,2.09,0,3.98-.3,5.68-.9.04-.01.09-.02.13-.04.04-.01.06-.03.1-.05,1.68-.63,3.15-1.44,4.37-2.5.5-.43.95-.89,1.36-1.38.61-.72,1.12-1.5,1.52-2.34.14-.29.25-.59.36-.88.05-.12.08-.23.12-.34.08-.23.14-.47.2-.71.01-.06.03-.12.05-.17.02-.08.03-.14.05-.21.04-.18.06-.36.09-.54h0Z"/>
      <path class="cls-1" d="M216.76,99.9c1.18-.53,2.25-1.28,3.19-2.22,1.04-1.02,1.89-2.34,2.51-3.87.41-1.04.67-2.17.79-3.4v-.02c.07-.51.09-1.04.09-1.59,0-2.24-.32-4.56-.99-6.86-.68-2.46-1.79-4.74-3.29-6.77-1.55-2.12-3.58-3.87-6.01-5.2-2.54-1.38-5.51-2.06-8.81-2.06s-6.19.63-8.84,1.88c-2.1.97-3.96,2.24-5.56,3.75-.05-.07-.1-.14-.15-.2-.94-1.13-2.08-2.12-3.38-2.99-1.23-.8-2.56-1.47-3.94-1.95-1.57-.55-2.95-.8-4.27-.8-4.16,0-6.54,1.71-7.78,3.14-.2.24-.39.48-.58.73-.7-.56-1.48-1.04-2.35-1.4-1.62-.7-3.55-1.02-5.92-1.02-1.19,0-2.46.12-3.75.36-1.52.27-2.95.77-4.25,1.45-.99.55-1.88,1.19-2.65,1.98-.44-.48-.97-.94-1.52-1.35-1.54-1.14-3.26-2.01-5.15-2.58-1.81-.56-3.65-.84-5.48-.84-2.85,0-5.63.6-8.29,1.76-2.61,1.16-4.9,2.71-6.83,4.64-.02.02-.05.05-.07.07-.8-1.81-1.98-3.28-3.45-4.39-1.42-1.06-3.07-1.77-4.95-2.12-1.4-.26-2.9-.39-4.49-.39-.89,0-1.93.1-3.16.32-1.33.24-2.63.63-3.86,1.18-1.45.65-2.75,1.54-3.82,2.65-.24.26-.46.51-.67.79-1.08-1.01-2.3-1.88-3.65-2.61-2.54-1.38-5.51-2.06-8.81-2.06s-6.19.63-8.84,1.88c-1.66.77-3.17,1.72-4.54,2.85-.84-1.28-1.95-2.29-3.24-2.97-1.5-.79-3.23-1.21-5.14-1.28-1.18-.03-2.51-.07-4.08-.07-1.47,0-2.9-.12-4.3-.34-1.98-.34-3.99-.49-5.99-.49-1.67,0-3.28.19-4.78.58-1.77.46-3.34,1.21-4.66,2.24-1.45,1.11-2.58,2.54-3.38,4.27-.36.8-.65,1.66-.84,2.58-2.18-2.42-4.85-4.39-7.95-5.87-3.77-1.79-8.26-2.71-13.36-2.71-1.21,0-2.56.12-4.01.34-1.66.26-3.24.72-4.73,1.38-1.74.8-3.23,1.89-4.44,3.28-1.54,1.74-2.35,4.01-2.35,6.54,0,.58.03,1.16.14,1.71.12.92.36,1.81.72,2.65.43,1.02.99,2.05,1.67,3.02.49.72,1.01,1.43,1.54,2.13.29.39.55.82.79,1.28.19.38.49,1.23.67,2.66.2,1.45.29,2.73.29,3.81,0,.48-.02.94-.09,1.42-.07.7-.2,1.38-.41,2.06-.41,1.47-.9,2.95-1.45,4.4-.65,1.76-1.21,3.46-1.69,5.12-.6,2.05-.89,4.16-.89,6.3,0,.48.03.94.1,1.4.24,2.22,1.13,4.25,2.58,5.94,1.37,1.59,3.05,2.94,5.02,3.99,1.81.99,3.75,1.72,5.77,2.18,1.93.44,3.74.68,5.38.68,4.01,0,7.66-.94,10.85-2.78,2.32-1.33,4.4-2.99,6.19-4.97.34-.36.67-.75.99-1.14.32.55.68,1.08,1.09,1.57.05.05.1.12.15.17,1.45,1.72,3.23,3.12,5.29,4.16,1.95.99,4.03,1.71,6.21,2.13,2.03.39,3.98.61,5.77.61s3.69-.24,5.63-.68c2.01-.46,3.94-1.19,5.7-2.18.41-.24.8-.48,1.19-.77.72-.46,1.4-1.01,2.01-1.62.46.34.94.65,1.45.94.15.09.32.17.48.24,1.64.89,3.5,1.55,5.56,2,2.13.44,4.44.68,6.89.68,2.71,0,5.26-.43,7.54-1.25,2.24-.82,4.23-1.93,5.9-3.34.05-.03.1-.09.15-.12.31-.26.6-.53.89-.82.41.73.85,1.37,1.33,1.93,3.05,3.6,7.35,4.03,9.16,4.03,5.22,0,8.24-2.49,9.86-4.57.32-.41.61-.84.89-1.3.39-.65.73-1.35,1.02-2.1.24.29.49.58.77.85.61.65,1.28,1.26,2,1.83,1.96,1.59,4.28,2.83,6.93,3.7,2.59.85,5.6,1.28,8.91,1.28,1.3,0,2.71-.1,4.23-.32,1.74-.24,3.34-.7,4.85-1.33.44-.19.87-.41,1.3-.65.6-.34,1.16-.73,1.69-1.18.43.48.94.92,1.48,1.31.12.09.24.17.38.26,1.19.79,2.54,1.38,4.01,1.77,1.43.38,2.95.56,4.51.56,3.87,0,6.88-1.57,8.58-4.27.6.63,1.23,1.21,1.91,1.72,1.59,1.14,3.36,1.76,5.17,1.76,2.68,0,4.86-.49,6.72-1.5.32-.19.65-.38.94-.58.72-.48,1.37-1.04,1.95-1.66.49.38,1.04.73,1.6,1.06.02.02.05.02.07.03,1.72.97,3.74,1.71,5.97,2.2,2.13.44,4.45.68,6.89.68,2.71,0,5.26-.43,7.54-1.25,2.3-.84,4.35-2,6.06-3.46,1.81-1.54,3.21-3.38,4.18-5.43.75-1.57,1.21-3.23,1.4-4.93.05-.56.09-1.14.09-1.72,0-2.61-.56-5-1.67-7.12-.6-1.11-1.28-2.17-2.06-3.16-.46-.61-.96-1.19-1.5-1.76-.15-.15-.31-.32-.48-.48ZM151.59,93.35c.1-.1.2-.22.29-.32.1.22.19.44.27.65-.17-.12-.38-.22-.56-.32ZM99.62,100.38c-.15-.15-.32-.32-.48-.48.55-.24,1.07-.55,1.57-.89-.15.7-.31,1.38-.46,2.06-.19-.24-.41-.48-.63-.7ZM71.6,103.91c.03-.12.03-.24.03-.38.09.07.15.14.24.2-.1.05-.17.12-.27.17ZM35.53,116.88c-.29.46-.61.9-.94,1.33-.42.55-.86,1.07-1.33,1.57-1.41,1.52-3.03,2.8-4.85,3.84-.95.55-1.96.95-3.01,1.29-1.64.52-3.39.81-5.28.81-1.25,0-2.66-.19-4.23-.55-.84-.19-1.65-.45-2.44-.76-.7-.27-1.38-.58-2.03-.94-.58-.31-1.09-.67-1.59-1.04-.32-.24-.62-.5-.91-.77-.37-.33-.75-.66-1.07-1.03-.03-.03-.05-.06-.07-.09-.14-.16-.27-.33-.39-.51-.05-.06-.08-.13-.12-.2-.02-.03-.04-.06-.05-.09-.03-.05-.05-.09-.08-.14-.03-.06-.07-.11-.09-.17-.02-.02-.02-.05-.03-.07-.09-.17-.16-.35-.23-.52,0-.02-.02-.04-.03-.06-.02-.07-.03-.14-.05-.19-.01-.03-.02-.07-.03-.11-.05-.17-.1-.35-.14-.53v-.05c-.04-.15-.06-.3-.08-.45,0-.05-.02-.1-.03-.15-.01-.14-.02-.29-.02-.43,0-.08-.01-.17-.01-.25,0-1.36.19-2.7.5-4.01.07-.28.1-.57.18-.85.46-1.6.99-3.19,1.57-4.76.03-.07.05-.14.07-.21.56-1.5,1.06-3.02,1.51-4.57.07-.27.15-.55.2-.82.07-.29.14-.56.17-.84.05-.18.07-.37.09-.56.01-.09.03-.19.05-.28,0-.04,0-.07.01-.11.04-.24.06-.48.09-.71v-.05c.02-.15.03-.32.03-.49.02-.05.02-.09.02-.14.02-.28.02-.54.02-.82,0-.03,0-.06,0-.09,0-1.2-.1-2.58-.29-4.11-.02-.13-.02-.23-.04-.36,0,0,0,0,0,0,0-.03-.01-.07-.02-.1-.22-1.66-.61-3.06-1.16-4.2-.37-.72-.77-1.38-1.25-2.02-.01-.02-.02-.03-.03-.05-.3-.39-.59-.81-.88-1.22-.18-.25-.36-.49-.54-.74-.46-.67-.85-1.37-1.14-2.08-.01-.02-.02-.05-.03-.07-.07-.18-.14-.36-.2-.54-.02-.05-.02-.09-.03-.14-.02-.07-.03-.15-.04-.23-.02-.11-.05-.22-.06-.34,0-.02-.01-.04-.01-.06-.02-.05-.03-.1-.02-.15-.05-.27-.07-.55-.07-.84,0-1.28.36-2.34,1.09-3.17.48-.54,1.06-.99,1.7-1.39.32-.2.64-.41,1-.57.51-.23,1.03-.42,1.57-.58.02,0,.05-.02.07-.03.56-.17,1.14-.29,1.74-.38.4-.06.78-.1,1.15-.15.74-.08,1.45-.14,2.09-.14,3.01,0,5.69.38,8.09,1.09.52.15,1.02.33,1.52.52.52.2,1.06.38,1.55.61,3.04,1.45,5.52,3.44,7.43,5.97.03.04.06.07.09.11.05.06.08.13.13.19.9,1.21,1.68,2.51,2.33,3.92v.02h0s0,0,0,0l.02.02s.02.06.04.08c0,.02.02.04.02.06.13.3.27.59.38.9.03.07.07.15.1.22.1.25.18.52.28.78.1.26.19.52.28.78.04.14.1.27.14.4.05.17.1.34.15.51.11.35.2.7.29,1.07.02.08.05.16.07.25.05.2.09.41.14.61.09.4.19.8.27,1.21.04.19.08.39.11.58.02.1.04.2.06.31v.02c.07.38.13.79.19,1.2.04.26.09.52.12.78.02.07.02.12.03.19v.02c.02.1.02.2.03.3.04.28.07.55.09.83.02.19.04.37.06.55.07.55.1,1.13.14,1.71v.07s0,0,0,0c-.03.44-.1.88-.17,1.31.02.02.02.03,0,.03v.02c-.03.22-.07.44-.1.67-.31,1.86-.67,3.6-1.06,5.14-.41,1.64-.8,3.09-1.13,4.35-.41,1.5-.63,2.83-.68,4.08v.02h0v.03c-.24.44-.49.89-.77,1.31-.09.12-.17.26-.26.38ZM67.54,121.75c-.17.16-.35.31-.54.45-.14.11-.25.24-.4.34-.09.07-.17.14-.27.2-.24.16-.52.32-.8.49-.01,0-.03.02-.04.03-1.33.75-2.78,1.3-4.35,1.66-.54.13-1.06.21-1.58.29-1,.16-1.97.27-2.89.27-.77,0-1.58-.06-2.43-.16-.75-.09-1.53-.21-2.34-.37-1.31-.26-2.53-.67-3.71-1.16-.39-.16-.8-.3-1.17-.49-1.5-.77-2.78-1.77-3.81-3.02-.2-.24-.39-.51-.55-.78-.02-.04-.05-.08-.07-.13-.03-.05-.06-.11-.09-.16-.01-.02-.03-.05-.04-.07-.09-.15-.15-.32-.22-.49-.02-.03-.02-.07-.03-.11-.12-.28-.21-.58-.28-.89-.02-.1-.07-.19-.09-.29v-.02c-.02-.07-.02-.14-.03-.2-.02-.11-.04-.23-.05-.35-.02-.12-.04-.23-.05-.36v-.03s.01-.03.02-.05c-.02-.23-.05-.45-.05-.69,0-.64.11-1.38.27-2.18.08-.36.14-.72.25-1.11.13-.51.28-1.08.43-1.67.11-.42.23-.88.35-1.34.12-.47.24-.91.36-1.41.27-1.05.51-2.2.74-3.39.14-.7.28-1.4.4-2.15,0-.05.01-.11.02-.16.07-.44.14-.88.2-1.32v-.05c.05-.38.09-.76.11-1.15,0-.03,0-.05,0-.08,0,0,0-.01,0-.02v-.03s.02-.02,0-.03v-.02c.02-.1.03-.22.03-.32,0-.03,0-.05.02-.09,0-.01,0-.02,0-.03.03-.3.05-.63.07-.94v-.26c.03-.53.03-1.06.04-1.6,0-.14.01-.28.01-.43,0-1.37-.17-2.71-.51-3.99-.27-1.01-.58-2.01-.89-3-.09-.28-.16-.56-.25-.84-.01-.03-.02-.07-.03-.1-.37-1.1-.7-2.2-.99-3.3-.04-.14-.08-.28-.12-.42-.02-.07-.03-.15-.05-.22-.13-.48-.23-.98-.3-1.48-.02-.13-.04-.25-.06-.38,0-.01,0-.03,0-.04v-.03c-.05-.29-.07-.6-.09-.89-.02-.31-.03-.61-.03-.92,0-1.42.22-2.61.67-3.57.44-.97,1.08-1.76,1.84-2.35,0,0,0,0,0,0,.06-.04.13-.07.19-.12.47-.33.98-.6,1.54-.83.35-.14.69-.29,1.08-.38,1.09-.29,2.27-.43,3.52-.43,1.72,0,3.45.14,5.14.43.61.1,1.23.16,1.84.22,1.1.11,2.19.19,3.31.19,1.45,0,2.75.02,3.89.07.71.02,1.32.14,1.89.31.37.11.73.22,1.04.39.82.43,1.43,1.14,1.88,2.17.01.03.02.06.03.09.02.04.03.08.05.13,0,0,0,0,0,0-.39.54-.75,1.11-1.09,1.68-.58.99-1.08,2.03-1.48,3.12-.94,2.47-1.42,5.07-1.42,7.71,0,.61.02,1.19.07,1.76-.02.02-.02.03,0,.05.02.51.07,1.01.14,1.49,0,0,0,0,0,.01-.07.02-.14.02-.2.02h-.09c-.56,0-1.11-.09-1.66-.24-.27-.08-.53-.17-.8-.26-.28-.09-.56-.18-.84-.27-.55-.17-1.09-.34-1.66-.51-.22-.06-.44-.1-.66-.14-.35-.06-.7-.1-1.05-.1-.51,0-1.02.1-1.5.31-.46.19-.85.45-1.21.77-.03.03-.06.04-.09.07h0s-.02.02-.02.02l-.1.1c-.13.13-.25.27-.36.42-.02.02-.04.04-.05.06,0,0,0,0,0,0-.15.2-.29.41-.39.65-.11.23-.19.47-.25.72-.05.25-.08.5-.08.76,0,.03,0,.05,0,.08,0,.19.01.37.03.54.01.14.04.25.06.38.01.08.02.17.04.24,0,0,0,.01,0,.02.02.13.05.26.1.37.02.03.03.07.03.09.03.07.05.12.09.17v.02c.02.1.07.2.12.29.15.29.36.56.56.8,0,0,0,0,0,0,.01.01.02.02.03.03.21.22.45.44.69.61.55.36,1.18.61,1.88.79.29.06.59.11.9.15.2.03.4.04.61.05.22.01.43.04.65.04.49,0,1.03-.02,1.59-.05.12,0,.24,0,.37-.02h.19c.09,0,.17,0,.26,0,.26,0,.52,0,.75.02.03,0,.07,0,.1,0,.22.02.44.03.65.09.21.05.4.13.59.22.33.14.64.32.9.58,0,0,0,0,0,0,.11.11.17.29.25.43.21.38.35.85.35,1.49,0,.01,0,.02,0,.04,0,.6-.05,1.19-.17,1.79,0,.04,0,.08-.02.12-.01.04-.02.08-.03.12,0,0,0,.02,0,.03,0,.03-.02.05-.02.08-.05.26-.12.52-.22.75,0,0,0,0,0,0-.01.04-.04.09-.06.13-.08.21-.18.42-.3.62-.11.2-.26.37-.4.53-.24.27-.52.52-.86.71-.55.31-1.26.46-2.15.46-.4,0-.79-.03-1.18-.1-.38-.06-.76-.16-1.13-.28-.72-.24-1.48-.36-2.3-.36-.32,0-.62.06-.92.19-.02.01-.05.03-.07.05-.27.12-.53.29-.78.51-.14.13-.26.26-.36.4-.03.04-.05.09-.08.13-.25.38-.38.8-.38,1.26,0,.53.17.94.51,1.25.08.06.16.11.24.16.06.04.12.1.19.13h.02c.09.07.17.12.26.15h.02c.17.1.34.19.53.24.04.01.09.02.13.04.44.15.91.24,1.37.3.32.04.6.06.85.07.17,0,.33.01.48.01.9,0,1.77-.03,2.65-.12.85-.09,1.72-.12,2.56-.12.26,0,.49.02.75.07.03,0,.07,0,.1.01,0,0,.01,0,.02,0,.01,0,.03,0,.04.01.21.04.42.1.63.16,0,0,0,0,0,.01-.24,1.05-.37,2.16-.39,3.3-.02.15-.02.32-.02.49,0,.51.03,1.02.1,1.52v.02c.19,1.58.71,3.05,1.54,4.41,0,0,0,.02.02.03-.06.06-.13.1-.19.16ZM96.96,119.53c-.34.37-.69.73-1.09,1.07-1.05.91-2.32,1.61-3.71,2.2-.26.11-.49.25-.76.35-1.74.63-3.67.94-5.8.94-1.31,0-2.53-.1-3.72-.25-.72-.09-1.43-.18-2.1-.33-1.18-.25-2.21-.61-3.17-1.01-.48-.2-.98-.4-1.41-.64-.02-.01-.05-.03-.08-.05-.02-.01-.03-.02-.04-.03-.31-.17-.58-.36-.85-.56-.2-.14-.39-.29-.58-.46-.07-.05-.14-.12-.2-.19-.05-.05-.09-.09-.14-.13-.11-.11-.22-.22-.32-.33-.09-.1-.18-.2-.27-.31-.17-.19-.32-.39-.46-.6-.08-.12-.14-.25-.21-.37-.08-.13-.16-.27-.23-.4-.04-.09-.07-.18-.11-.27-.08-.19-.16-.39-.23-.59-.02-.06-.03-.13-.05-.19-.03-.12-.06-.25-.08-.38-.09-.44-.15-.89-.15-1.36,0-1.13.12-2.18.39-3.16.02-.07.03-.14.07-.2.12-.43.26-.83.43-1.2.18-.4.38-.78.62-1.13.02-.03.04-.04.05-.07,0,0,0,0,0,0,.16-.23.34-.42.51-.62.08-.09.16-.2.24-.29.28-.28.57-.53.88-.74.29-.18.6-.32.92-.42.2-.07.42-.09.63-.12.19-.03.38-.08.58-.08,1.02,0,1.82.21,2.42.61.09.06.18.11.26.17.42.35.76.72,1.07,1.1.16.19.32.38.45.59.31.51.6.97.88,1.42.06.09.12.2.18.29.04.07.1.13.15.19.11.14.23.26.37.35.24.16.51.25.82.25.81,0,1.45-.18,1.98-.46.1-.06.23-.08.32-.15.11-.07.19-.17.28-.27.02-.03.06-.04.08-.07,0,0,0,0,0,0,0,0,0-.01.01-.02.01-.01.02-.02.04-.05.05-.07.08-.14.11-.2,0-.02.02-.04.03-.05v-.02c.05-.09.09-.17.12-.26.02-.03.02-.08.03-.12.03-.07.06-.15.07-.22,0-.02,0-.03.01-.05,0-.03.01-.05.02-.08,0-.01,0-.03,0-.04.03-.19.05-.38.05-.6,0-1.12-.22-2.05-.65-2.82-.15-.27-.32-.51-.51-.74-.45-.52-.99-1-1.57-1.45-.41-.31-.82-.62-1.29-.89-1.16-.67-2.41-1.33-3.75-2-.45-.22-.87-.49-1.3-.75-.37-.23-.74-.47-1.1-.73-.46-.34-.93-.67-1.36-1.06-.27-.22-.51-.48-.75-.75-.05-.05-.09-.1-.14-.15-.24-.26-.44-.51-.65-.8-.15-.2-.29-.44-.43-.67-.17-.22-.31-.46-.43-.7-.17-.29-.32-.58-.48-.89-.03-.06-.05-.13-.08-.2-.04-.08-.08-.16-.1-.25,0,0,0,0,0,0-.27-.64-.48-1.35-.64-2.14h0c-.03-.18-.07-.36-.09-.55-.15-.97-.24-2.03-.24-3.21,0-2.02.36-3.98,1.09-5.9.53-1.4,1.23-2.69,2.11-3.87.15-.19.31-.38.46-.58.19-.23.37-.47.58-.7.05-.06.11-.11.16-.16,0,0,0,0,0,0,.24-.27.51-.51.77-.77,0,0,.02-.02.03-.03.15-.13.3-.26.45-.38,0,0,0,0,0,0,.02-.03.05-.05.06-.06.03-.03.07-.07.12-.1.17-.15.34-.29.53-.43.04-.03.09-.06.13-.09.04-.03.08-.06.13-.09,0,0,0,0,.01,0,.05-.03.1-.06.14-.09.35-.25.71-.48,1.08-.7.45-.26.92-.51,1.41-.74.18-.08.38-.15.56-.22,1.83-.76,3.86-1.16,6.09-1.16,2.46,0,4.57.48,6.35,1.45.43.23.84.48,1.23.75,1.23.84,2.27,1.84,3.13,2.99.02.03.03.05.05.07h0v.03c.02.41.05.84.14,1.28v.02c.12.9.36,1.86.7,2.9.12.36.24.73.36,1.13,0,.02.02.05.03.07v.03c.27.9.6,1.88.92,2.9.31.94.58,1.93.87,2.95,0,.05.02.1.03.15v.07c.03.08.05.17.07.25,0,.02.01.04.02.06v.03c0,.05-.02.14-.02.19v.05c-.09.56-.22,1.06-.41,1.52-.03.08-.08.15-.11.23-.33.75-.73,1.39-1.23,1.89,0,0-.02.02-.02.03,0,0,0,0,0,0-.47.47-1.01.82-1.59,1.09-.12.06-.23.13-.36.18-.3.11-.6.19-.91.26-.13.03-.27.05-.4.08-.3.05-.61.09-.92.09-.27,0-.52-.04-.76-.1-.45-.11-.84-.33-1.19-.63-.13-.11-.25-.23-.36-.36-.53-.69-1.01-1.45-1.45-2.28-.03-.05-.06-.09-.08-.14-.33-.63-.64-1.21-.96-1.76-.13-.22-.25-.45-.38-.66-.17-.28-.36-.49-.57-.67-.32-.27-.68-.42-1.09-.42-.7,0-1.3.38-1.83,1.13-.39.55-.62,1.16-.73,1.82,0,.02,0,.03,0,.05-.01.09-.01.19-.02.29-.01.14-.03.27-.03.42,0,0,0,0,0,0,0,0,0,.02,0,.02,0,.27.03.54.07.79.02.14.07.27.11.41.04.13.07.26.11.39.01.03.01.06.03.09.02.02.02.05.03.07.02.05.05.1.07.15.03.06.06.12.1.17.05.08.09.17.14.25.12.22.27.43.43.63.5.63,1.13,1.26,1.82,1.89.29.27.57.54.9.81,1.09.89,2.27,1.79,3.52,2.73.77.57,1.49,1.18,2.2,1.83.45.4.89.81,1.31,1.24.78.82,1.44,1.72,2.03,2.65.23.37.48.72.68,1.1.02.03.03.05.03.07v.02c-.02.07-.02.12-.03.19-.15.8-.27,1.64-.36,2.51-.15,1.25-.22,2.54-.22,3.87,0,.53.02,1.06.05,1.55-.02.02,0,.03,0,.03.02.63.09,1.23.15,1.81v.02c-.03.12-.1.2-.2.32-.26.41-.55.8-.87,1.17-.08.09-.16.19-.24.28ZM118.41,115.72c-.02.15-.02.29-.03.44v.09c-.01.14-.04.27-.06.41-.01.13-.03.25-.05.37-.03.19-.04.39-.08.58-.02.09-.03.19-.05.27v.03c-.03.19-.09.36-.14.53,0,.05-.02.08-.03.12,0,0,0,0,0,.01-.02.09-.03.19-.07.27,0,0,0,.01,0,.02-.1.38-.23.74-.38,1.09t-.02.03c-.02.06-.05.1-.07.15-.08.2-.18.38-.27.57-.05.09-.08.19-.13.27-.09.17-.19.31-.29.46-.1.15-.2.29-.31.44,0,0,0,0,0,0-.09.12-.21.2-.31.32-1.33,1.51-3.16,2.29-5.52,2.29-.24,0-.46,0-.68-.03-.15,0-.29-.02-.44-.03-.14-.02-.29-.03-.43-.07-.03,0-.06-.01-.09-.02-.07-.01-.13-.02-.19-.04-.04-.01-.09-.02-.13-.03h-.03c-.12-.02-.22-.05-.32-.09-.27-.07-.53-.15-.77-.27h-.02s-.06-.03-.09-.05c-.04-.02-.07-.04-.11-.06-.19-.09-.37-.17-.55-.29t-.03-.02c-.14-.09-.26-.17-.38-.27-.06-.03-.1-.08-.15-.12-.04-.03-.09-.06-.14-.11,0,0-.02-.01-.02-.02-.1-.09-.22-.17-.29-.27-.15-.14-.29-.27-.39-.43-.07-.05-.12-.12-.15-.17-.03-.03-.05-.08-.07-.11-.05-.07-.1-.15-.15-.23-.09-.13-.18-.24-.25-.38-.03-.05-.07-.09-.09-.14-.1-.17-.18-.36-.27-.55-.05-.11-.1-.2-.15-.31,0,0,0-.02-.01-.03,0-.02-.02-.02-.02-.03-.09-.19-.17-.41-.24-.61-.02-.09-.05-.15-.07-.24-.05-.16-.09-.33-.13-.5-.04-.13-.07-.26-.1-.4,0,0,0-.02,0-.02,0-.02-.02-.02-.02-.02v-.02s0-.02,0-.03c-.11-.47-.19-.98-.25-1.51-.03-.24-.05-.48-.07-.73-.05-.62-.09-1.25-.09-1.95,0-.9.04-1.77.11-2.61.01-.16.03-.31.05-.47.07-.73.17-1.45.3-2.13.01-.06.02-.13.03-.2.02-.14.06-.27.08-.4.08-.41.18-.8.27-1.21,0-.02,0-.03-.01-.05t0-.02c.22-1.09.48-2.15.73-3.17.41-1.55.77-3.07,1.09-4.57.02-.07.02-.14.04-.22.06-.31.12-.63.17-.94.05-.22.09-.44.1-.67,0-.07.01-.14.02-.21.02-.13.03-.27.04-.41,0-.06.01-.11.02-.17.02-.03.02-.09.02-.14v-.24c.02-.25.02-.5.03-.75.01-.26.04-.53.04-.79,0-1.04-.1-2.08-.25-3.12-.09-.66-.19-1.31-.35-1.97,0-.02,0-.03-.01-.05-.01-.05-.03-.1-.04-.14,0,0,0,0,0,0-.07-.27-.14-.53-.21-.8,0,0,0,0,0-.01-.02-.09-.05-.17-.07-.26-.32-1.23-.65-2.42-1.01-3.55-.02-.06-.04-.12-.06-.18-.18-.55-.34-1.09-.5-1.59-.1-.34-.22-.68-.32-1.01-.07-.22-.14-.44-.2-.65-.02-.02-.02-.03-.02-.05s-.02-.02-.02-.03c-.07-.21-.14-.43-.2-.63-.17-.53-.29-1-.38-1.46-.03-.16-.07-.32-.09-.47-.06-.38-.1-.73-.11-1.05,0-.05-.01-.11-.01-.16,0-.22.02-.43.05-.61,0-.07.02-.14.03-.19v-.02s.01-.05.02-.07c0,0,0,0,0,0,0-.02.01-.03.02-.04.07-.31.18-.58.34-.84.03-.07.07-.14.12-.19.05-.1.14-.19.22-.28.04-.05.07-.11.12-.16.63-.65,1.38-1.16,2.25-1.55.38-.16.75-.3,1.13-.42.5-.16,1.01-.3,1.53-.38.3-.06.57-.09.84-.13.53-.07,1.02-.13,1.43-.13,1.28,0,2.47.1,3.57.31s2.03.6,2.82,1.18c.78.6,1.4,1.38,1.84,2.39.12.26.2.53.29.82.07.24.12.49.17.75,0,.02,0,.05.01.07.02.11.03.23.05.34.01.09.03.16.04.25.02.07.02.14.02.22,0,0,0,0,0,0,.02.17.03.35.05.53,0,.07.01.14.02.22v.15s0,0,0,.01c-.13.25-.25.52-.37.79v.02c-.79,1.64-1.4,3.38-1.83,5.19-.49,2.03-.84,4.23-.99,6.5-.02.29-.03.6-.05.9v.07c-.02.05-.03.09-.03.14-.04.27-.09.56-.12.84,0,.04-.01.08-.02.12,0,.05,0,.11-.01.16-.04.3-.07.61-.09.93-.01.31-.03.65-.03.98,0,.05,0,.1,0,.14s0,.1,0,.14c0,.23,0,.47.01.71.01.21.03.43.05.65,0,.07,0,.14.02.21v.02s-.02.03,0,.05v.02c0,.15.02.29.05.44v.07h0v.24c0,.53,0,1.06.02,1.6v.02c.03.9.07,1.83.14,2.73v.05c.05.68.1,1.38.17,2.06.24,2.29.67,4.52,1.26,6.64.15.56.34,1.11.53,1.66v.02c.08.23.18.42.27.64,0,.01.01.03.02.04v.05c0,.29-.02.58-.03.87ZM149.81,121.85s-.09.05-.13.09c-.18.15-.38.28-.58.4-.06.04-.12.09-.18.13-.12.1-.26.17-.39.24-.14.07-.29.14-.44.21-.04.02-.07.03-.11.05-1.06.46-2.24.8-3.5.97-.42.06-.83.1-1.23.14-.57.06-1.11.09-1.63.11-.22,0-.45.03-.66.03h-.03c-.68,0-1.35-.02-2-.07-.52-.03-1.03-.09-1.53-.15-.12-.01-.24-.02-.36-.04-.4-.06-.78-.14-1.17-.22-.19-.04-.4-.06-.59-.11-.02,0-.05-.01-.07-.02-.54-.12-1.06-.26-1.55-.42-2.08-.68-3.84-1.62-5.32-2.82-.64-.52-1.22-1.09-1.76-1.69-.34-.38-.67-.78-.97-1.19-.31-.42-.6-.85-.87-1.31-.39-.68-.75-1.38-1.08-2.1-.03-.09-.07-.15-.1-.24,0,0,0-.02,0-.02-.01-.02-.02-.05-.04-.07-.03-.06-.05-.13-.07-.19-.3-.72-.55-1.46-.78-2.21-.03-.1-.07-.2-.1-.3-.53-1.83-.89-3.75-1.09-5.75-.02-.22-.03-.45-.05-.67-.07-.73-.13-1.45-.16-2.18,0-.14-.01-.27-.02-.41-.04-.9-.07-1.8-.07-2.7,0-.09,0-.17,0-.25v-.04s0-.09,0-.09v-.03c0-.2,0-.39.02-.58t0-.03s-.02-.02,0-.03c0-.38,0-.73.02-1.09,0-.41,0-.8.02-1.19.02-.53.03-1.06.07-1.55v-.14s.02-.03.02-.05c0-.02,0-.03,0-.05.01-.22.02-.44.03-.65.01-.23.03-.45.04-.68.07-1.03.18-2.02.32-2.98.14-.93.31-1.82.52-2.69.13-.55.31-1.06.48-1.58.21-.65.44-1.28.7-1.89.2-.48.39-.97.63-1.43.15-.29.35-.55.52-.83,0-.02,0-.05,0-.07v-.02c.03-.07.07-.12.12-.19.19-.31.4-.61.63-.92.04-.05.07-.1.1-.15.04-.05.07-.09.11-.14.14-.18.27-.35.42-.53.14-.19.29-.38.46-.55.22-.27.48-.55.75-.82,1.48-1.48,3.24-2.68,5.26-3.57,2.03-.89,4.11-1.33,6.25-1.33.88,0,1.76.12,2.64.3.45.09.9.17,1.35.31.35.1.65.25.98.38.93.37,1.81.81,2.59,1.39.19.15.38.29.55.46.12.1.24.2.36.32.02.02.03.03.05.05.05.05.1.1.15.15.03.03.07.07.09.1.03.03.06.07.1.11.07.07.14.14.19.22.01.01.02.02.03.03.11.11.2.23.3.36.03.03.05.09.1.12v.02s0,.04,0,.06c-.16.72-.25,1.48-.25,2.26,0,.27,0,.55.03.82,0,.36.02.72.07,1.06v.02c.14,1.4.43,2.75.87,4.03.15.41.3.83.46,1.22,0,0,0,0,0,.01v.03c-.07.27-.15.55-.22.79t-.02.03s-.03.09-.05.12c-.02.05-.04.09-.06.13-.04.1-.08.21-.13.31-.02.05-.04.11-.07.16-.02.03-.03.07-.05.1-.02,0-.02.02-.02.02-.07.12-.14.26-.2.38-.12.19-.26.36-.39.53-.65.77-1.57,1.33-2.75,1.67-1.19.34-2.76.51-4.69.51-.98,0-1.85.14-2.68.35-.99.25-1.87.66-2.64,1.22-.29.21-.58.41-.83.67-.35.34-.65.74-.91,1.19-.36.61-.65,1.33-.87,2.15-.32,1.21-.49,2.62-.49,4.27,0,.55.02,1.13.07,1.66v.09s.01.07.02.11c0,.03,0,.07.02.1.03.44.09.87.16,1.29,0,.03,0,.07.01.1.02.14.07.27.1.41.19.91.45,1.75.84,2.46.33.61.78,1.11,1.29,1.55.17.15.33.32.52.45.75.5,1.71.74,2.89.75.03,0,.05,0,.08,0,.44,0,.92-.09,1.45-.27.21-.07.41-.16.6-.25.14-.07.26-.14.39-.22.14-.09.29-.17.42-.28.17-.14.34-.27.49-.44.05-.05.1-.12.15-.17.15-.15.29-.34.41-.53.29-.44.43-.94.43-1.45,0-.68-.22-1.14-.67-1.37-.21-.11-.43-.19-.64-.24-.23-.06-.46-.1-.69-.1-.05,0-.11,0-.16,0-.6,0-1.21-.04-1.81-.13-.06,0-.13-.01-.19-.02-.3-.03-.57-.1-.84-.18-.39-.11-.77-.24-1.1-.42-.18-.1-.32-.23-.48-.35-.34-.26-.65-.56-.9-.95,0-.01-.02-.04-.03-.05-.06-.09-.12-.19-.16-.31v-.02c-.03-.05-.05-.1-.09-.17-.05-.12-.1-.27-.14-.43h0v-.05s-.01-.03-.01-.04c0,0,0,0,0,0-.03-.15-.07-.31-.09-.49v-.05c-.01-.16-.02-.35-.03-.54,0-.05,0-.09,0-.14,0-.89.29-1.57.82-2.09.05-.05.09-.1.14-.15.02-.01.04-.02.05-.03.64-.51,1.4-.88,2.29-1.11.31-.09.64-.15.97-.21.54-.11,1.08-.18,1.65-.22.08,0,.15-.02.23-.02.97-.07,1.84-.09,2.56-.09.85,0,1.74.02,2.66.09.09,0,.17.02.26.03.83.07,1.59.22,2.28.45.12.04.22.11.34.16.61.26,1.14.59,1.57,1.03.49.51.75,1.25.75,2.17,0,0,0,.01,0,.02,0,.18-.02.35-.03.53,0,.14-.02.26-.05.39,0,.02,0,.03,0,.05,0,.06-.02.12-.03.18,0,.04-.01.07-.02.11,0,.02-.02.05-.02.07-.05.19-.1.38-.15.56-.03.1-.06.19-.1.29,0,.02-.01.04-.02.07-.27.78-.58,1.59-.9,2.39-.32.8-.63,1.6-.9,2.39-.29.79-.43,1.55-.43,2.27,0,.07,0,.12.01.18,0,.29.02.56.05.81,0,.05,0,.11,0,.16,0,.06.02.1.03.16.03.17.05.35.1.49h0v.05c.03.09.05.17.08.25,0,0,0,.02,0,.03.04.12.09.21.14.31.03.06.05.12.08.18.17.29.34.55.53.78.14.18.29.34.44.49.04.04.07.09.11.12-.15,1.04-.22,2.1-.24,3.16v.19c0,.51.03,1.01.09,1.48v.05c.08.78.24,1.52.45,2.21,0,0,0,.02,0,.02-.17.19-.34.34-.53.48ZM184.96,121.63c-.17.19-.35.37-.55.53-.09.08-.16.18-.26.25-.05.03-.09.07-.14.1-.19.15-.4.28-.61.39-.03.02-.05.04-.09.05-.34.19-.72.33-1.13.46-.89.28-1.92.43-3.14.43-.72,0-1.43-.26-2.12-.75-.32-.24-.62-.51-.91-.8-.33-.32-.64-.68-.93-1.06-.24-.32-.46-.65-.68-.99-.26-.42-.51-.85-.72-1.29-.38-.82-.65-1.52-.82-2.12-.15-.61-.29-1.66-.39-3.12,0-.12-.02-.24-.03-.36-.1-1.31-.24-2.66-.43-4.04,0-.05-.01-.09-.02-.14-.06-.42-.15-.79-.22-1.18-.2-1.06-.44-2.06-.77-2.93-.44-1.19-1.08-1.79-1.88-1.79-.45,0-.78.16-1.05.42-.05.05-.12.07-.16.13-.07.09-.12.19-.18.28-.19.3-.35.62-.44,1-.04.16-.04.35-.07.51-.06.33-.13.66-.14,1.02-.02.52-.03.96-.03,1.31,0,.02,0,.04,0,.06v2.05c0,.14,0,.26.02.39,0,.01,0,.02,0,.03,0,.28.02.56.04.83.03.38.08.75.15,1.13.15.8.31,1.59.46,2.37.03.16.06.33.1.49.12.63.24,1.26.37,1.89.05.32.09.64.12.96.05.48.08.97.08,1.46,0,.06,0,.1,0,.16,0,.2-.01.39-.03.58,0,.06-.02.11-.02.17-.01.15-.03.3-.06.44,0,.05-.01.1-.02.15v.02s0,.02-.02.03c-.02.1-.05.2-.08.3-.03.12-.06.24-.09.35-.02.05-.04.11-.07.16-.01.03-.02.06-.04.09-.04.11-.1.21-.15.32-.04.09-.08.18-.12.26h0v.02c-.07.1-.14.2-.22.31-.07.1-.15.19-.22.27-.02.03-.05.05-.07.08-.02.02-.04.05-.06.07-.03.03-.05.06-.09.09-.03.02-.05.05-.09.07-.09.07-.17.14-.26.19-.03.02-.06.03-.09.05-.12.09-.26.16-.39.23-.06.03-.12.08-.18.11-.07.03-.16.05-.24.08-.13.05-.26.1-.4.14-.03,0-.06.02-.09.03-.02.02-.03.02-.05.02-.1.03-.19.05-.29.07-.09.03-.2.04-.31.05-.03,0-.05.01-.08.01-.02,0-.02.02-.03,0-.06.02-.13.02-.19.02-.05,0-.09.01-.13.01-.26.03-.53.05-.82.05-.56,0-1.12-.03-1.65-.1-.02,0-.04,0-.06-.01-.51-.07-1.01-.16-1.5-.28-1.01-.26-1.91-.68-2.7-1.25-.24-.17-.44-.34-.65-.53l-.02-.02c-.11-.1-.2-.22-.29-.33-.05-.06-.11-.12-.16-.18-.06-.08-.14-.14-.2-.22,0-.01,0-.03.02-.05-.2-.27-.41-.54-.57-.85-.23-.44-.4-.92-.52-1.45,0-.02,0-.03,0-.05-.11-.53-.17-1.09-.17-1.7,0-.69.05-1.37.12-2.04.02-.18.05-.36.07-.54.08-.6.18-1.19.31-1.78.01-.05.02-.1.03-.15,0-.05.02-.1.04-.15.01-.04.02-.09.03-.13,0,0,0,0,0,0v-.02c.3-1.28.64-2.55,1.01-3.82.02-.09.04-.18.07-.26.03-.09.05-.19.07-.28.39-1.36.75-2.71,1.07-4.1.02-.07.03-.15.04-.22.06-.29.12-.57.18-.86.02-.17.05-.32.07-.49.01-.1.03-.21.04-.31.02-.16.04-.32.06-.48,0-.05,0-.11.01-.16.02-.21.04-.42.05-.63v-.03c.02-.31.03-.63.04-.94,0-.13.01-.26.01-.39,0-.08,0-.16,0-.24,0-1.16-.05-2.33-.17-3.51-.17-1.4-.51-2.76-1.06-4.08-.55-1.31-1.13-2.63-1.72-3.92-.09-.19-.17-.39-.26-.59-.07-.17-.15-.34-.22-.5h0v-.02c-.09-.15-.15-.32-.2-.48-.14-.29-.25-.57-.35-.86-.06-.16-.12-.32-.18-.48-.13-.35-.26-.7-.39-1.05-.02-.05-.03-.12-.05-.17-.18-.55-.33-1.12-.43-1.71-.01-.08-.04-.15-.05-.22v-.02s0-.04,0-.06c-.1-.64-.15-1.29-.16-1.96,0-.03,0-.07,0-.1,0-.26.02-.49.05-.73,0-.05.02-.12.03-.17.02-.15.05-.29.09-.43.02-.09.05-.17.09-.26.03-.15.09-.29.15-.43.03-.07.05-.14.1-.19.07-.15.15-.29.26-.41,0-.02.02-.05.03-.07,0-.02.02-.02.02-.03.46-.62,1.04-1.1,1.69-1.51.12-.08.23-.18.36-.25,0,0,0,0,0,0,.84-.44,1.76-.75,2.76-.94.29-.05.57-.08.85-.12.69-.09,1.35-.15,1.98-.15.32,0,.61.01.9.03,1.23.06,2.24.25,3.01.58.94.39,1.66.99,2.12,1.77.46.79.77,1.74.87,2.85.14,1.11.19,2.37.19,3.77,0,.2.03.49.07.83.04.27.08.57.15.93.08.45.17.94.28,1.46.08.4.18.82.28,1.27.22.93.49,1.89.81,2.87.03.08.05.16.07.23.14.45.29.88.45,1.3.21.57.43,1.12.66,1.64.25.54.51,1.01.78,1.43.17.27.35.54.53.76.46.56.92.84,1.42.84.8,0,1.33-.26,1.6-.82,0,0,0,0,0,0,.1-.2.19-.43.24-.67.01-.04.02-.08.03-.12.01-.04.02-.09.03-.14.02-.09.04-.17.06-.27v-.05c.02-.19.03-.39.03-.6,0-1.33-.17-2.66-.48-3.99-.32-1.33-.68-2.65-1.06-3.96-.28-.93-.52-1.87-.76-2.81-.1-.38-.22-.76-.31-1.15-.09-.32-.15-.67-.2-.99-.05-.22-.09-.43-.1-.65l-.03-.26s-.01-.1-.02-.15t0-.03c-.09-.63-.12-1.28-.12-1.91,0-1.6.35-2.83,1-3.75.07-.1.13-.22.21-.31.6-.69,1.49-1.12,2.66-1.3.39-.06.81-.09,1.26-.09.73,0,1.59.17,2.58.51.27.09.52.22.79.33.33.14.66.29.97.46.36.19.71.38,1.06.61.46.3.88.63,1.27.97.36.32.7.65,1,1.01.15.19.29.38.41.58,0,0,0,0,0,0,.11.17.2.35.27.52,0,0,0,0,0,0-.37.61-.73,1.26-1.05,1.9-.27.58-.53,1.18-.75,1.77-.94,2.47-1.43,5.07-1.43,7.71,0,.61.02,1.19.07,1.76-.02.02-.02.03,0,.05.15,2.63.68,4.85,1.59,6.74.03.07.07.14.12.2v.03s.03.07.05.1v.02c.02.1.02.19.03.29,0,.03,0,.07.02.1.02.26.05.51.09.77.02.16.04.31.06.46.02.14.03.28.06.41.09.61.21,1.23.32,1.85.05.28.09.55.14.83.03.21.08.42.12.63.06.32.11.64.17.96.14.75.27,1.5.41,2.25,0,0,0,.01-.01.02-.13.16-.25.33-.36.5-.03.07-.09.12-.12.19-.75,1.14-1.3,2.42-1.69,3.86-.38,1.42-.56,2.92-.56,4.49,0,.51.03,1.02.1,1.52v.02c.19,1.5.66,2.89,1.41,4.17,0,.01.01.03.02.04v.02c-.07.09-.18.16-.26.25ZM217.2,114.17s-.02.09-.02.12-.02.09-.02.12c-.01.05-.03.11-.04.17-.01.07-.03.13-.05.21-.01.06-.03.12-.05.17-.04.18-.08.36-.14.54-.01.05-.04.11-.06.16-.04.11-.07.22-.12.34-.01.03-.02.05-.03.08-.09.27-.2.53-.32.8-.4.84-.92,1.62-1.52,2.34-.41.49-.86.95-1.36,1.38-1.22,1.05-2.69,1.87-4.37,2.5-.03.01-.06.03-.1.04,0,0,0,0,0,0-.04.01-.09.02-.13.04-1.71.6-3.59.9-5.67.9-1.35,0-2.61-.11-3.83-.27-.68-.09-1.36-.17-1.99-.31-1.05-.22-1.98-.53-2.85-.87-.61-.24-1.2-.49-1.72-.78-.19-.11-.35-.22-.52-.34-.12-.08-.26-.16-.37-.24-.07-.05-.12-.1-.19-.15-.16-.12-.33-.24-.48-.37h0v-.02c-.07-.06-.14-.12-.21-.18-.21-.19-.41-.39-.6-.6,0,0,0-.01-.01-.02-.22-.24-.41-.49-.58-.75-.15-.24-.31-.49-.43-.75-.02-.03-.03-.09-.05-.12-.09-.19-.15-.38-.22-.56-.02-.05-.03-.1-.05-.17-.05-.19-.1-.38-.14-.56v-.05c-.02-.05-.03-.1-.05-.14-.02-.09-.03-.15-.05-.24-.05-.31-.07-.63-.07-.97,0-1.13.14-2.18.39-3.16.06-.24.16-.46.24-.68.24-.68.52-1.31.88-1.85.21-.32.45-.59.69-.85.07-.09.15-.16.23-.23.21-.2.43-.38.66-.55,0,0,0,0,0-.01.03-.03.09-.05.12-.09.23-.15.48-.24.73-.34.23-.09.47-.15.72-.19.22-.04.43-.1.66-.1.95,0,1.72.18,2.31.53.13.08.26.15.37.25.26.22.48.44.7.67.31.33.6.67.82,1.02.17.26.3.48.45.73.2.33.42.68.61.98.32.51.77.79,1.33.79.75,0,1.34-.16,1.84-.4.15-.07.33-.12.46-.21.14-.09.26-.2.36-.34.07-.1.14-.2.19-.32v-.02c.05-.09.09-.17.12-.26.04-.07.05-.16.07-.24,0-.04.03-.07.03-.1,0,0,0-.02,0-.02.01-.04.02-.08.03-.13,0,0,0-.02,0-.02.03-.19.05-.38.05-.6,0-.92-.17-1.71-.46-2.4-.18-.43-.41-.83-.7-1.17-.53-.61-1.17-1.15-1.88-1.66-.32-.23-.63-.47-.99-.68-.48-.28-.99-.55-1.5-.83-.38-.21-.79-.41-1.19-.62-.35-.18-.69-.36-1.06-.54-.19-.09-.36-.21-.54-.31-.98-.53-1.9-1.15-2.76-1.88-.15-.12-.31-.22-.45-.35-.2-.19-.41-.38-.6-.6-.1-.1-.2-.2-.29-.32-.03-.03-.06-.06-.08-.08-.02-.02-.03-.03-.05-.05-.12-.13-.22-.27-.32-.41-.03-.05-.07-.09-.11-.14-.07-.07-.12-.15-.17-.24-.19-.26-.38-.53-.55-.82v-.02c-.05-.05-.07-.1-.1-.15,0-.02-.02-.02-.02-.03s-.02-.02-.02-.03c-.02-.03-.03-.05-.05-.09-.02-.03-.03-.05-.04-.08-.14-.24-.27-.49-.4-.76-.02-.05-.04-.09-.07-.14-.03-.06-.05-.12-.07-.18-.14-.31-.27-.64-.38-.99-.04-.13-.08-.27-.12-.41-.11-.39-.21-.79-.29-1.22,0-.01,0-.02,0-.04-.19-1.05-.28-2.22-.28-3.52,0-2.02.36-3.98,1.09-5.9.17-.44.36-.87.56-1.29.11-.21.22-.42.33-.63.08-.15.16-.31.25-.46.14-.25.29-.49.44-.72.13-.2.26-.4.4-.59.05-.08.11-.15.16-.22.07-.1.15-.22.26-.32.03-.03.04-.06.07-.09,0,0,.01-.02.02-.03.04-.05.08-.1.12-.15.17-.22.35-.43.54-.64.7-.77,1.47-1.47,2.33-2.09.82-.6,1.72-1.13,2.69-1.58.17-.08.35-.13.52-.21,1.85-.77,3.89-1.18,6.13-1.18,2.46,0,4.57.48,6.35,1.45,1.43.77,2.65,1.75,3.66,2.9.24.27.48.55.7.84,1.14,1.54,1.96,3.24,2.49,5.12.53,1.88.78,3.7.78,5.48,0,.31-.02.6-.03.87-.02.22-.03.44-.07.67v.07s-.02.07-.02.09c-.02.15-.05.29-.1.43,0,.02-.02.05-.02.07-.07.32-.15.63-.27.92,0,0,0,0,0,0-.34.87-.8,1.58-1.36,2.15-.35.35-.74.63-1.15.87-.25.15-.5.3-.78.41-.34.13-.68.22-1.02.29-.11.02-.21.03-.32.05-.3.05-.6.09-.91.09-.33,0-.63-.06-.92-.15-.34-.11-.66-.27-.94-.5-.16-.13-.31-.28-.44-.44-.56-.73-1.08-1.54-1.54-2.42s-.9-1.69-1.33-2.42c-.21-.36-.46-.63-.73-.81-.28-.18-.58-.28-.93-.28-.7,0-1.3.38-1.83,1.13-.53.75-.78,1.6-.78,2.58,0,.15.03.3.04.45.01.12.01.24.03.36.03.17.08.34.13.5.03.1.05.2.09.29.01.03.02.07.03.11.02.02.02.05.03.07.02.05.05.1.07.15.03.07.07.13.11.2.04.08.08.16.13.23.12.22.27.43.43.63.55.68,1.24,1.36,1.99,2.04.24.22.46.44.73.66,1.09.89,2.27,1.79,3.52,2.73.91.67,1.76,1.41,2.59,2.19.31.29.63.57.93.88.63.66,1.18,1.37,1.69,2.1.37.53.72,1.08,1.03,1.65.73,1.38,1.09,2.95,1.09,4.73,0,.27-.02.56-.05.84,0,.07,0,.12-.02.19,0,.2-.03.39-.07.6h0v.02s-.02.09-.02.12Z"/>
    </g>
    <g>
      <path class="cls-3" d="M148.34,37.27c0,3.24-.26,6.55-.77,9.83-.15.96-.29,1.91-.39,2.88-.82-1.88-1.72-3.77-2.7-5.65-.89-1.69-1.71-3.46-2.44-5.29-.53-1.35-.8-2.94-.8-4.69,0-.63.03-1.21.1-1.76,1.47.72,3.4,1.21,5.89,1.21.36,0,.7,0,1.06-.02,0,.12.02.26.02.39.02.99.03,2.03.03,3.09Z"/>
      <g>
        <g>
          <path class="cls-1" d="M51.92,51.31c1.52,0,2.69.34,3.51,1.02s1.47,1.42,1.97,2.21c.5.79.96,1.53,1.38,2.21s1,1.02,1.74,1.02c1.26,0,2.26-.26,3-.79.73-.52,1.1-1.42,1.1-2.68,0-1.94-.5-3.5-1.5-4.65-1-1.16-2.25-2.17-3.74-3.03-1.5-.87-3.13-1.73-4.89-2.6s-3.39-1.97-4.89-3.31c-1.5-1.34-2.75-3.06-3.74-5.16-1-2.1-1.5-4.86-1.5-8.28,0-2.63.47-5.19,1.42-7.69.95-2.5,2.31-4.73,4.1-6.7,1.79-1.97,3.97-3.56,6.54-4.77,2.57-1.21,5.47-1.81,8.67-1.81s5.96.63,8.28,1.89c2.31,1.26,4.2,2.89,5.68,4.89,1.47,2,2.55,4.22,3.23,6.66.68,2.44,1.02,4.82,1.02,7.13,0,1.58-.22,2.93-.67,4.06-.45,1.13-1.04,2.06-1.77,2.8-.74.74-1.58,1.29-2.52,1.66-.95.37-1.92.55-2.92.55-1.26,0-2.26-.47-3-1.42-.74-.95-1.41-2-2.01-3.15-.6-1.16-1.18-2.21-1.73-3.15-.55-.95-1.28-1.42-2.17-1.42s-1.68.49-2.36,1.46c-.68.97-1.03,2.09-1.03,3.35,0,1.42.47,2.72,1.42,3.9.95,1.18,2.13,2.35,3.55,3.51s2.94,2.34,4.57,3.55c1.63,1.21,3.15,2.55,4.57,4.02,1.42,1.47,2.6,3.1,3.55,4.89.95,1.79,1.42,3.84,1.42,6.15,0,2.05-.43,3.99-1.3,5.83-.87,1.84-2.12,3.46-3.74,4.85-1.63,1.39-3.57,2.5-5.83,3.31-2.26.81-4.78,1.22-7.57,1.22s-5.26-.25-7.57-.75c-2.31-.5-4.3-1.22-5.95-2.17-1.66-.95-2.94-2.1-3.86-3.47-.92-1.37-1.38-2.92-1.38-4.65,0-1.47.17-2.84.51-4.1.34-1.26.83-2.36,1.46-3.31.63-.95,1.37-1.69,2.21-2.25.84-.55,1.76-.83,2.76-.83Z"/>
          <path class="cls-3" d="M87.2,18.36c-.82-2.99-2.17-5.75-3.96-8.21-.03-.03-.05-.09-.09-.12-.99-1.35-2.13-2.56-3.41-3.65-1.19-1.01-2.51-1.91-3.92-2.7-3.07-1.67-6.67-2.51-10.73-2.51s-7.59.77-10.84,2.29c-3.19,1.5-5.94,3.52-8.17,5.97-2.2,2.44-3.92,5.24-5.09,8.33-1.16,3.07-1.76,6.26-1.76,9.51,0,4.22.65,7.64,2,10.48,1.28,2.7,2.95,4.98,4.95,6.77.87.77,1.77,1.48,2.71,2.13-.89.27-1.74.68-2.54,1.21-1.4.92-2.65,2.15-3.65,3.67-.94,1.42-1.66,3.04-2.13,4.83-.46,1.69-.7,3.52-.7,5.43,0,2.76.75,5.29,2.25,7.51,1.37,2.03,3.24,3.72,5.58,5.07,2.08,1.19,4.59,2.12,7.41,2.71,2.65.58,5.56.87,8.65.87,3.36,0,6.48-.51,9.3-1.52.2-.07.41-.15.61-.24,2.54-.99,4.8-2.3,6.72-3.94.03-.02.05-.05.09-.07,1.31-1.13,2.46-2.37,3.43-3.75.61-.89,1.16-1.83,1.62-2.8,1.18-2.53,1.79-5.22,1.79-8.02,0-2.18-.32-4.25-.99-6.14-.27-.82-.61-1.62-1.02-2.39-.72-1.33-1.54-2.61-2.47-3.81-.58-.78-1.23-1.54-1.91-2.25-.78-.8-1.6-1.59-2.44-2.32.56-.14,1.14-.32,1.71-.55.82-.32,1.6-.73,2.34-1.23.7-.44,1.35-.97,1.95-1.57.82-.82,1.52-1.76,2.08-2.82.32-.55.6-1.13.84-1.72.55-1.37.87-2.88.97-4.57.03-.44.05-.9.05-1.37,0-2.76-.41-5.63-1.21-8.52ZM82.63,30.92c-.44,1.14-1.04,2.06-1.77,2.82-.02.02-.03.03-.05.05-.72.7-1.54,1.23-2.47,1.6-.94.36-1.91.55-2.92.55-1.26,0-2.25-.48-2.99-1.42-.73-.96-1.42-2-2.01-3.16-.6-1.14-1.16-2.18-1.72-3.12,0-.02-.02-.02-.02-.03-.55-.94-1.26-1.42-2.17-1.42s-1.67.49-2.35,1.45c-.68.97-1.02,2.1-1.02,3.36s.34,2.32,1.02,3.36c.12.19.26.38.39.55.94,1.18,2.13,2.34,3.55,3.5,1.42,1.16,2.94,2.34,4.57,3.55,1.62,1.21,3.14,2.54,4.57,4.03,1.42,1.47,2.59,3.09,3.55,4.88,0,0,.02.02,0,.02.94,1.79,1.42,3.82,1.42,6.13,0,2.06-.44,3.99-1.31,5.84-.75,1.6-1.79,3.04-3.12,4.3-.2.19-.41.38-.61.55-1.62,1.4-3.57,2.51-5.84,3.31-2.15.79-4.54,1.19-7.17,1.23h-.39c-2.75,0-5.26-.26-7.58-.75-2.3-.49-4.3-1.21-5.96-2.17-1.66-.94-2.94-2.1-3.86-3.46-.92-1.37-1.38-2.92-1.38-4.66,0-1.47.17-2.83.51-4.1.34-1.26.84-2.37,1.47-3.31s1.37-1.69,2.2-2.25c.84-.55,1.76-.82,2.76-.82,1.52,0,2.68.34,3.5,1.02.82.68,1.47,1.42,1.98,2.2.49.79.96,1.54,1.38,2.22.41.68.99,1.02,1.72,1.02,1.26,0,2.27-.27,3-.8.26-.19.48-.41.63-.68.31-.51.46-1.18.46-2,0-1.08-.15-2.03-.46-2.85-.24-.68-.58-1.28-1.02-1.79-1.01-1.16-2.25-2.17-3.75-3.04-1.5-.87-3.12-1.74-4.88-2.61-1.76-.85-3.4-1.96-4.9-3.31-1.48-1.33-2.75-3.05-3.74-5.15-1.01-2.1-1.5-4.86-1.5-8.28,0-2.63.48-5.19,1.42-7.7.96-2.49,2.32-4.73,4.1-6.69,1.79-1.98,3.98-3.57,6.55-4.78,2.58-1.21,5.46-1.81,8.67-1.81s5.97.63,8.28,1.89c1.25.68,2.37,1.45,3.36,2.34.87.77,1.64,1.62,2.32,2.54.56.77,1.08,1.57,1.52,2.41.72,1.33,1.28,2.75,1.71,4.27.65,2.34.99,4.62,1.01,6.86.02.09.02.19.02.27,0,.48-.02.94-.07,1.37-.09,1.01-.29,1.89-.6,2.68ZM68.67,28.21c-.55-.94-1.26-1.42-2.17-1.42s-1.67.49-2.35,1.45h4.54s-.02-.02-.02-.03ZM64.15,34.97v-6.72c-.68.97-1.02,2.1-1.02,3.36s.34,2.32,1.02,3.36Z"/>
        </g>
        <g>
          <path class="cls-1" d="M80.46,17.17c0-2,.38-3.65,1.14-4.97.76-1.31,1.77-2.38,3.04-3.19,1.26-.81,2.69-1.39,4.3-1.73,1.6-.34,3.24-.51,4.93-.51,3.63,0,6.39.51,8.28,1.54,1.89,1.03,3.26,2.3,4.1,3.82.84,1.53,1.35,3.19,1.54,5.01.18,1.81.37,3.48.55,5.01.18,1.53.55,2.8,1.1,3.82.55,1.03,1.64,1.54,3.27,1.54.31,0,.58-.05.79-.16,1.58-.63,2.77-1.63,3.59-3,.81-1.37,1.49-2.86,2.01-4.49.52-1.63.99-3.32,1.38-5.08.39-1.76.96-3.35,1.69-4.77s1.71-2.59,2.92-3.51c1.21-.92,2.89-1.38,5.05-1.38,1.52,0,3.06.29,4.61.87,1.55.58,2.98,1.37,4.3,2.36s2.38,2.18,3.19,3.55c.81,1.37,1.22,2.86,1.22,4.49,0,1.47-.38,2.79-1.14,3.94-.76,1.16-1.6,2.39-2.52,3.71s-1.76,2.77-2.52,4.37c-.76,1.6-1.14,3.59-1.14,5.95s.39,4.61,1.18,6.58,1.67,3.89,2.64,5.76c.97,1.87,1.85,3.72,2.64,5.56.79,1.84,1.18,3.84,1.18,5.99,0,1.63-.28,3.23-.83,4.81-.55,1.58-1.34,2.97-2.36,4.18-1.02,1.21-2.26,2.18-3.71,2.92-1.45.73-3.04,1.1-4.77,1.1-1.42,0-2.63-.26-3.63-.79s-1.81-1.22-2.44-2.09c-.63-.87-1.08-1.88-1.34-3.03s-.39-2.37-.39-3.63.1-2.5.32-3.71c.21-1.21.43-2.42.67-3.63.24-1.21.45-2.42.63-3.63.18-1.21.28-2.44.28-3.71,0-.63-.08-1.48-.24-2.56-.16-1.08-.42-2.13-.79-3.15-.37-1.02-.84-1.92-1.42-2.68-.58-.76-1.29-1.14-2.13-1.14-1.05,0-1.75.76-2.09,2.29-.34,1.53-.51,3.39-.51,5.6,0,1.95-.03,3.86-.08,5.76-.05,1.89-.24,3.59-.55,5.08-.31,1.5-.81,2.71-1.5,3.63-.68.92-1.68,1.38-3,1.38-3.68,0-6.26-.89-7.73-2.68-1.47-1.79-2.21-4.1-2.21-6.94,0-.58.03-1.55.08-2.92.05-1.37.01-2.75-.12-4.14-.13-1.39-.39-2.63-.79-3.71-.39-1.08-1.06-1.62-2.01-1.62-.58,0-1.04.21-1.38.63-.34.42-.6.92-.79,1.5-.19.58-.3,1.17-.35,1.77-.05.61-.08,1.12-.08,1.54,0,1.37.11,2.72.32,4.06.21,1.34.43,2.67.67,3.98.24,1.32.46,2.64.67,3.98.21,1.34.32,2.69.32,4.06,0,1.26-.15,2.62-.43,4.06-.29,1.45-.76,2.77-1.42,3.98-.66,1.21-1.51,2.21-2.56,3s-2.36,1.18-3.94,1.18c-1.16,0-2.34-.26-3.55-.79-1.21-.52-2.29-1.23-3.23-2.13-.95-.9-1.72-1.92-2.33-3.07-.6-1.16-.91-2.34-.91-3.55,0-1.42.32-2.88.95-4.38.63-1.5,1.31-3.06,2.05-4.69.74-1.63,1.42-3.38,2.05-5.24s.95-3.88.95-6.03c0-2.63-.39-5.13-1.18-7.49-.79-2.36-1.67-4.62-2.64-6.78-.97-2.15-1.85-4.2-2.64-6.15-.79-1.94-1.18-3.78-1.18-5.52Z"/>
          <path class="cls-3" d="M83.55,27.22c-.03-.1-.09-.19-.14-.29-.03-.09-.09-.17-.14-.27.02.09.02.14.02.22,0,.27,0,.53-.02.78,0,.02,0,.05-.02.07.02.02,0,.02,0,.03,0,.17-.02.32-.03.48h.78c-.15-.34-.31-.68-.46-1.02ZM83.55,27.22c-.03-.1-.09-.19-.14-.29-.03-.09-.09-.17-.14-.27.02.09.02.14.02.22,0,.27,0,.53-.02.78,0,.02,0,.05-.02.07.02.02,0,.02,0,.03,0,.17-.02.32-.03.48h.78c-.15-.34-.31-.68-.46-1.02ZM83.41,26.93c-.03-.09-.09-.17-.14-.27.02.09.02.14.02.22,0,.27,0,.53-.02.78,0,.02,0,.05-.02.07.02.02,0,.02,0,.03,0,.17-.02.32-.03.48h.78c-.15-.34-.31-.68-.46-1.02-.03-.1-.09-.19-.14-.29ZM147.29,50.24c-.03-.09-.07-.15-.1-.24v-.02c-.82-1.88-1.72-3.77-2.7-5.65-.89-1.69-1.71-3.46-2.44-5.29-.53-1.35-.8-2.94-.8-4.69,0-.63.03-1.21.1-1.76.12-.78.29-1.47.55-2,.39-.84.82-1.62,1.26-2.35.07-.12.14-.24.22-.36.19-.32.39-.63.6-.92.96-1.35,1.83-2.65,2.61-3.82,1.31-2,1.98-4.27,1.98-6.76s-.65-4.95-1.95-7.12c-.29-.48-.58-.94-.92-1.38-.99-1.35-2.18-2.56-3.57-3.62-.07-.05-.14-.1-.2-.14-1.66-1.25-3.46-2.24-5.39-2.95-2.13-.79-4.28-1.18-6.4-1.18-3.29,0-6.04.8-8.16,2.42-1.81,1.37-3.28,3.12-4.35,5.22-.94,1.79-1.67,3.82-2.15,6.01-.36,1.59-.78,3.16-1.26,4.62-.26.82-.56,1.59-.92,2.3-.14-1.23-.27-2.56-.43-3.96-.26-2.49-.97-4.85-2.15-6.96-1.31-2.39-3.38-4.37-6.14-5.85-2.68-1.45-6.18-2.15-10.72-2.15-2.03,0-4.04.2-5.99.61-2.2.48-4.23,1.3-6.01,2.44-.77.49-1.47,1.06-2.12,1.67-1.01.94-1.86,2.03-2.56,3.26-.17.29-.32.58-.46.89v.02c-.92,1.91-1.38,4.11-1.38,6.62s.53,4.9,1.55,7.44c.48,1.18.99,2.39,1.54,3.63.38.89.78,1.79,1.19,2.71.41.92.8,1.86,1.18,2.83.46,1.13.87,2.29,1.26,3.45.19.55.34,1.11.46,1.69.31,1.33.46,2.73.46,4.18,0,.75-.05,1.47-.15,2.17-.1.79-.29,1.54-.53,2.24-.46,1.38-.97,2.73-1.52,3.96v.02c-.1.27-.22.53-.34.79-.73,1.62-1.43,3.24-2.1,4.81-.89,2.13-1.35,4.27-1.35,6.37,0,1.47.26,2.92.77,4.3.2.55.44,1.09.72,1.62.55,1.02,1.18,2,1.91,2.88.44.55.92,1.06,1.43,1.54,1.01.96,2.1,1.76,3.31,2.41.46.26.92.49,1.42.7,1.84.8,3.72,1.21,5.58,1.21,2.51,0,4.71-.63,6.59-1.91.15-.09.29-.19.43-.29,1.64-1.23,2.97-2.8,3.98-4.64.9-1.66,1.55-3.48,1.95-5.43.1-.48.19-.96.26-1.42,2.25,1.3,5.12,1.95,8.57,1.95,2.08,0,3.96-.61,5.46-1.77.09.63.2,1.26.34,1.89.43,1.83,1.16,3.48,2.2,4.91,1.09,1.5,2.51,2.71,4.2,3.6,1.13.58,2.35.99,3.7,1.19.73.12,1.5.19,2.3.19s1.66-.07,2.44-.19c1.64-.24,3.19-.73,4.64-1.48,2.06-1.04,3.84-2.44,5.29-4.16,1.14-1.35,2.08-2.87,2.78-4.52.19-.41.36-.84.51-1.28.75-2.12,1.13-4.3,1.13-6.5,0-2.83-.55-5.53-1.6-8ZM142.93,63.05c-.55,1.59-1.33,2.97-2.35,4.18-1.02,1.21-2.27,2.18-3.72,2.92-1.43.73-3.02,1.11-4.76,1.11-1.42,0-2.63-.27-3.63-.8-.99-.51-1.81-1.21-2.44-2.08-.63-.87-1.08-1.88-1.33-3.04-.27-1.16-.39-2.37-.39-3.62s.1-2.51.31-3.7c.2-1.21.43-2.42.67-3.63.24-1.21.44-2.42.63-3.63.19-1.19.29-2.44.29-3.7,0-.63-.09-1.48-.24-2.56-.17-1.08-.43-2.13-.8-3.16-.36-1.02-.84-1.91-1.42-2.68-.58-.75-1.28-1.14-2.12-1.14-1.06,0-1.76.77-2.1,2.29-.34,1.54-.51,3.4-.51,5.6,0,1.95-.03,3.87-.09,5.77-.05,1.88-.22,3.58-.55,5.09-.31,1.48-.82,2.7-1.5,3.62-.68.92-1.67,1.38-2.99,1.38-3.69,0-6.26-.89-7.73-2.68-1.47-1.79-2.2-4.1-2.2-6.95,0-.58.02-1.55.07-2.92.05-1.37.02-2.75-.12-4.13-.12-1.4-.39-2.63-.79-3.7-.39-1.08-1.06-1.62-2.01-1.62-.58,0-1.02.2-1.37.63-.36.43-.61.92-.8,1.5-.19.58-.29,1.16-.34,1.77-.07.6-.09,1.11-.09,1.54,0,1.37.1,2.71.31,4.06.22,1.33.44,2.66.68,3.98.24,1.31.46,2.65.67,3.98.2,1.35.31,2.7.31,4.06,0,1.26-.14,2.61-.43,4.06s-.77,2.78-1.42,3.98c-.67,1.21-1.52,2.22-2.56,3-1.06.78-2.37,1.18-3.94,1.18-1.16,0-2.34-.26-3.55-.78-1.21-.53-2.29-1.23-3.24-2.13-.12-.12-.26-.24-.38-.38-.14-.14-.26-.27-.38-.41-.24-.27-.46-.55-.68-.85-.03-.05-.07-.1-.1-.15-.14-.17-.26-.36-.36-.53-.15-.24-.31-.49-.43-.75-.6-1.16-.9-2.34-.9-3.55,0-1.42.31-2.87.94-4.37.63-1.5,1.31-3.07,2.06-4.69.43-.94.82-1.91,1.21-2.92v-.02c.29-.75.56-1.5.84-2.3.63-1.88.94-3.87.94-6.04,0-2.63-.39-5.12-1.18-7.49-.12-.36-.24-.72-.38-1.08v-.02c-.07-.22-.15-.44-.24-.67-.1-.27-.2-.56-.31-.85-.03-.09-.07-.15-.1-.24-.14-.39-.29-.77-.44-1.14-.19-.48-.38-.94-.58-1.4-.19-.46-.39-.92-.6-1.38-.09-.2-.19-.41-.27-.6-.15-.34-.31-.68-.46-1.02-.03-.1-.09-.19-.14-.29-.03-.09-.09-.17-.14-.27v-.07c-.15-.36-.31-.72-.46-1.06-.19-.46-.38-.9-.56-1.35-.2-.49-.41-.99-.61-1.48-.79-1.95-1.18-3.79-1.18-5.53,0-.26,0-.49.02-.73.02-.15.02-.31.03-.46.02-.17.03-.34.05-.49.03-.22.05-.44.1-.65,0-.03.02-.07.02-.1.1-.55.26-1.06.44-1.52.05-.15.12-.31.19-.44.09-.19.19-.38.29-.56.17-.29.36-.58.55-.84.2-.27.41-.51.63-.75.14-.17.29-.34.46-.46.2-.2.41-.39.61-.56.02-.02.03-.03.05-.05.24-.19.48-.38.73-.53,1.26-.82,2.7-1.38,4.3-1.72,1.59-.34,3.24-.51,4.91-.51,3.63,0,6.4.51,8.28,1.54,1.89,1.02,3.26,2.29,4.11,3.82.84,1.52,1.35,3.19,1.54,5,.17,1.81.36,3.48.55,5,.19,1.54.55,2.8,1.11,3.82.55,1.04,1.64,1.55,3.28,1.55.31,0,.56-.05.79-.17,1.57-.63,2.76-1.62,3.58-2.99.82-1.37,1.48-2.87,2.01-4.51.51-1.62.97-3.31,1.38-5.09.39-1.76.96-3.34,1.69-4.76s1.71-2.59,2.92-3.52c1.21-.9,2.88-1.37,5.05-1.37,1.52,0,3.05.27,4.61.85,1.25.46,2.42,1.08,3.52,1.81.27.17.53.38.78.56.38.29.73.6,1.06.9.19.17.39.38.55.56t.03.03c.27.29.51.58.75.89,0,0,0,.02.02.02.14.2.29.39.43.61.05.05.1.12.14.19.09.1.15.22.22.34.8,1.37,1.21,2.87,1.21,4.49,0,1.47-.38,2.78-1.14,3.94-.49.77-1.04,1.57-1.62,2.41v.02c-.31.41-.6.84-.9,1.28-.22.31-.44.65-.65.97-.1.17-.2.34-.31.51-.12.17-.22.36-.31.53-.2.34-.41.7-.6,1.08-.19.36-.38.73-.56,1.13-.03.05-.05.12-.09.17-.03.07-.05.12-.09.19-.07.15-.14.32-.2.48-.07.2-.15.41-.2.61-.15.44-.27.9-.36,1.4-.03.15-.07.31-.09.46,0,.02,0,.05-.02.07,0,.1-.02.2-.03.32-.05.32-.09.67-.1,1.01-.03.44-.05.92-.05,1.4,0,2.42.39,4.62,1.18,6.59.78,1.98,1.67,3.89,2.65,5.77.97,1.86,1.84,3.7,2.63,5.55.8,1.84,1.19,3.84,1.19,5.99,0,1.64-.27,3.24-.84,4.81ZM83.55,27.22c-.03-.1-.09-.19-.14-.29-.03-.09-.09-.17-.14-.27.02.09.02.14.02.22,0,.27,0,.53-.02.78,0,.02,0,.05-.02.07.02.02,0,.02,0,.03,0,.17-.02.32-.03.48h.78c-.15-.34-.31-.68-.46-1.02Z"/>
        </g>
        <g>
          <path class="cls-1" d="M156.7,6.45h4.65c1.79,0,3.67.07,5.64.2,1.97.13,3.93.39,5.87.79,1.94.39,3.68.97,5.2,1.73,1.52.76,2.76,1.76,3.71,3,.95,1.23,1.42,2.8,1.42,4.69,0,3.05-.29,5.39-.87,7.02-.58,1.63-1.34,2.8-2.29,3.51-.95.71-2.01,1.1-3.19,1.18s-2.35.12-3.51.12c-1.53,0-2.55.78-3.07,2.33-.53,1.55-.79,3.64-.79,6.27,0,2.21.12,4.27.35,6.19.24,1.92.5,3.81.79,5.68.29,1.87.55,3.77.79,5.72.24,1.94.35,4.02.35,6.23s-.12,4.09-.35,5.64c-.24,1.55-.67,2.84-1.3,3.86-.63,1.02-1.53,1.77-2.68,2.25-1.16.47-2.65.71-4.49.71-2.31,0-4.19-.33-5.64-.99s-2.58-1.63-3.39-2.92c-.82-1.29-1.37-2.88-1.66-4.77-.29-1.89-.43-4.04-.43-6.46,0-3.47.28-6.98.83-10.52.55-3.55.83-7.08.83-10.61,0-1.1-.01-2.18-.04-3.23-.03-1.05-.13-1.97-.32-2.76-.19-.79-.46-1.43-.83-1.93-.37-.5-.92-.75-1.66-.75-.58,0-1.14.01-1.7.04-.55.03-1.12.04-1.7.04-2.52,0-4.26-.66-5.2-1.97-.95-1.31-1.42-3.07-1.42-5.28,0-3.15.22-5.72.67-7.69.45-1.97,1.26-3.49,2.44-4.57,1.18-1.08,2.81-1.8,4.89-2.17,2.08-.37,4.77-.55,8.08-.55Z"/>
          <path class="cls-3" d="M185.84,9.06c-1.43-1.86-3.28-3.36-5.48-4.47-1.93-.96-4.11-1.69-6.48-2.17-2.15-.44-4.35-.73-6.55-.89-2.06-.14-4.08-.2-5.97-.2h-4.66c-3.63,0-6.57.2-8.96.63-2.22.39-4.16,1.13-5.8,2.17-.6.38-1.14.8-1.66,1.26-.77.7-1.43,1.5-2.01,2.39-.89,1.38-1.55,3-1.96,4.83-.55,2.37-.8,5.26-.8,8.82,0,2.59.49,4.88,1.5,6.81.05.12.12.24.19.36.2.39.44.75.7,1.11.7.99,1.79,2.06,3.46,2.88,1.47.72,3.4,1.21,5.89,1.21.36,0,.7,0,1.06-.02,0,.12.02.26.02.39.02.99.03,2.03.03,3.09,0,3.24-.26,6.55-.77,9.83-.15.96-.29,1.91-.39,2.88v.02c-.34,2.82-.49,5.63-.49,8.41s.15,5.09.49,7.24c.02.12.03.26.07.38.41,2.42,1.18,4.56,2.32,6.35.97,1.54,2.22,2.82,3.74,3.82.58.38,1.19.73,1.86,1.02,2.13.97,4.68,1.45,7.75,1.45,2.54,0,4.66-.36,6.45-1.11,2.13-.87,3.89-2.35,5.09-4.28.99-1.62,1.67-3.57,2.01-5.78.27-1.81.41-3.91.41-6.4s-.14-4.73-.39-6.86c-.24-1.93-.51-3.91-.82-5.87-.27-1.79-.53-3.63-.77-5.51-.2-1.71-.31-3.58-.31-5.58,0-1.59.1-2.71.24-3.48.79-.03,1.57-.07,2.35-.12,2.18-.14,4.16-.89,5.92-2.18,1.76-1.33,3.12-3.31,4.04-5.9.77-2.2,1.16-5.05,1.16-8.72,0-3.04-.84-5.67-2.47-7.8ZM182.32,23.87c-.58,1.64-1.35,2.8-2.29,3.52-.96.7-2.01,1.09-3.19,1.18-1.19.09-2.35.12-3.52.12-1.52,0-2.54.77-3.07,2.32-.53,1.55-.79,3.63-.79,6.26,0,2.22.12,4.28.36,6.19.22,1.93.49,3.81.78,5.68.29,1.86.55,3.77.79,5.72.24,1.95.36,4.01.36,6.23s-.12,4.08-.36,5.63c-.24,1.55-.67,2.83-1.3,3.86s-1.54,1.77-2.68,2.25c-1.16.48-2.66.72-4.51.72-.31,0-.61,0-.92-.02-.26-.02-.49-.03-.73-.05-.7-.05-1.37-.15-1.96-.29-.22-.03-.43-.09-.63-.15-.17-.03-.34-.09-.51-.15-.2-.07-.41-.14-.61-.22-.09-.03-.17-.07-.26-.1-1.45-.67-2.58-1.64-3.4-2.92-.8-1.3-1.37-2.88-1.66-4.78-.29-1.89-.43-4.04-.43-6.45,0-3.48.27-6.98.82-10.53.56-3.55.84-7.08.84-10.61,0-1.09-.02-2.17-.03-3.23-.03-1.06-.14-1.96-.32-2.76-.19-.79-.46-1.43-.82-1.93-.38-.49-.92-.75-1.66-.75-.58,0-1.14.02-1.71.05-.55.02-1.11.03-1.69.03s-1.14-.03-1.66-.12c-.49-.07-.94-.17-1.35-.32h-.05c-.29-.1-.56-.22-.8-.36-.39-.2-.72-.46-.99-.75-.14-.14-.26-.27-.36-.43-.14-.2-.27-.41-.38-.63-.1-.14-.17-.27-.22-.41-.1-.2-.19-.41-.26-.63-.05-.14-.1-.26-.12-.39-.09-.2-.14-.41-.17-.63-.03-.1-.05-.19-.07-.29-.05-.31-.1-.63-.14-.97v-.02c-.03-.2-.05-.41-.05-.61-.02-.22-.02-.44-.02-.68,0-3.16.22-5.72.67-7.7.09-.36.17-.7.29-1.02.03-.12.07-.24.12-.36.09-.29.2-.55.32-.8.1-.24.22-.46.36-.68.09-.14.17-.27.26-.41.09-.12.15-.24.26-.36.26-.34.53-.65.84-.94.56-.51,1.23-.94,1.98-1.28.2-.1.43-.19.67-.27.22-.09.46-.17.7-.24.24-.07.49-.14.75-.2.26-.07.53-.12.8-.17,2.06-.36,4.76-.55,8.07-.55h4.66c1.79,0,3.67.07,5.63.2,1.98.12,3.92.39,5.87.79,1.95.39,3.69.97,5.2,1.72,1.54.77,2.76,1.77,3.72,3,.94,1.23,1.42,2.8,1.42,4.69,0,3.05-.29,5.39-.87,7.01Z"/>
        </g>
      </g>
    </g>
  </g>
</svg>