<?xml version="1.0" encoding="UTF-8"?>
<svg id="Layer_2" data-name="Layer 2" xmlns="http://www.w3.org/2000/svg" viewBox="0 0 173.86 231.6">
  <defs>
    <style>
      .cls-1 {
        fill: #fcbd12;
      }

      .cls-2 {
        fill: none;
        stroke: #311514;
        stroke-miterlimit: 10;
      }

      .cls-3 {
        fill: #311514;
      }
    </style>
  </defs>
  <g id="Layer_3" data-name="Layer 3">
    <g>
      <path class="cls-3" d="M165.26,219.73H8.34c.13-3.77.38-7.49.78-11.13,4.37-5.89,23.74-30.56,37.5-24.3,15.61,7.09,21.76-26.02,32.64-24.61,10.88,1.43,1.41,21.76,33.11,21.29,31.7-.47,17.52,7.58,39.28,15.14,5.53,1.92,9.41,4.39,12.13,7.02.78,5.39,1.29,10.94,1.47,16.59Z"/>
      <path class="cls-1" d="M137.06,98.08c-5.46,6.53-11.57,12.01-18.17,16.21-2.39,1.54-3.03,4.53-1.89,6.86-2.21,1.02-5.82,1.6-13.31,1.49-20.93-.29-14.69,12.59-21.87,13.51-7.18.89-11.24-20.11-21.56-15.61-1.18.51-2.41.71-3.68.62,1.16-2.32.53-5.31-1.87-6.86-6.58-4.21-12.69-9.68-18.17-16.21h100.52Z"/>
      <path class="cls-2" d="M165.26,219.73c.09,1.96.13,3.94.13,5.93H8.21c0-1.99.04-3.97.13-5.93.13-3.77.38-7.49.78-11.13,4.08-38.19,21.67-70.06,45.59-85.34.85-.54,1.49-1.29,1.87-2.1,1.16-2.32.53-5.31-1.87-6.86-6.58-4.21-12.69-9.68-18.17-16.21C19.22,77.51,8.21,46.54,8.21,11.86h157.18c0,34.67-11.01,65.65-28.33,86.21-5.46,6.53-11.57,12.01-18.17,16.21-2.39,1.54-3.03,4.53-1.89,6.86.4.82,1.03,1.56,1.89,2.1,22.76,14.56,39.81,44.12,44.9,79.88.78,5.39,1.29,10.94,1.47,16.59Z"/>
      <rect class="cls-1" width="173.86" height="11.86"/>
      <rect class="cls-1" y="219.73" width="173.86" height="11.86"/>
    </g>
  </g>
</svg>