<?xml version="1.0" encoding="UTF-8"?>
<svg id="Layer_2" data-name="Layer 2" xmlns="http://www.w3.org/2000/svg" viewBox="0 0 319.17 271.57">
  <defs>
    <style>
      .cls-1 {
        fill: #231f20;
      }

      .cls-2, .cls-3 {
        fill: #fff;
      }

      .cls-3 {
        stroke: #231f20;
        stroke-miterlimit: 10;
        stroke-width: 11px;
      }
    </style>
  </defs>
  <g id="Layer_3" data-name="Layer 3">
    <g>
      <rect class="cls-2" width="319.17" height="271.57"/>
      <path class="cls-3" d="M241.1,164.72c-.11,8.73-.26,16.49-1.07,24.11-.48,4.63-1.21,9.2-2.32,13.91-.45,1.9-.96,3.82-1.53,5.77-4.94,18.29-19.73,30.8-39.42,33.41-25.87,3.71-71.34-4.35-97.38-31.61-2.54-2.66-4.07-5.84-4.69-7.08-.5-.77-.37-1.29-1.07-1.17-11.59,6.36-29.41,8.41-37.59-10.56-3.43-8.37-5.69-18.97-1.22-27.37,1.45-2.5,3.45-4.29,5.72-5.51,6.05-3.23,14.13-2.5,19.6-.63.88.2,1.19.12,1.24-.68-.07-.46-.11-1.1-.12-1.88-.12-4.43.5-13.63,1.81-22.84.96-6.67,2.28-13.35,3.96-18.24,8.02-35.55,98.09-82.81,143.96-20.59,2.94,3.96,6.33,9.42,8.21,13.24l.03.07c.45.94.58,1.65.64,2.61,0,.12,0,.26.01.38.23,5.97.54,14.01.8,22.55.15,4.89.28,9.95.37,14.89.11,6.13.14,12.07.05,17.24Z"/>
      <path class="cls-1" d="M176.35,232.73c15.72,0,26.81-12.34,26.81-16.69,0-9.26-29.26-11.62-40.56-11.62-10.86,0-2.77,28.31,13.75,28.31Z"/>
      <path class="cls-1" d="M260.74,155.83h0c0-.13,0-.26,0-.39-.03-1.6-.09-3.06-.2-4.39h0c-.44-10.32-8.93-18.46-19.26-18.46H83.06c-1.31,9.21-1.93,18.41-1.81,22.84h21.38c.06,3.64.39,7.36.64,10.59,1.75,24.08,22.09,42.85,46.44,37.45,12.45-2.67,22.68-12.55,27.2-24.23,2.81-7.28,3.34-15.32,3.5-23.08,0-.25,0-.49,0-.73h2.59c-.05,4.23.35,8.69.64,12.5,1.75,24.08,22.09,42.85,46.44,37.45,2.66-.57,5.22-1.47,7.64-2.65,8.91-4.33,16-12.4,19.56-21.58,2.81-7.28,3.34-15.32,3.5-23.08,0-.78-.01-1.53-.03-2.25ZM167.65,177.27c-3.34,8.63-10.91,15.93-20.1,17.9-17.99,3.99-33.01-9.87-34.3-27.67-.28-3.68-.7-8.18-.34-12.06.18-1.91.55-3.67,1.22-5.1l.03-.06c1.89-3.42,6.55-2.66,11.22-2.83,5.93,0,12.02,0,18.63,0,6.04.01,11.61-.03,17.12.03,7.06-.16,8.59,2.4,8.96,7.96.1,1.4.12,2.99.15,4.77-.12,5.73-.51,11.68-2.58,17.05ZM248.02,177.27c-1.69,4.37-4.47,8.4-7.99,11.56-3.43,3.1-7.56,5.37-12.1,6.34-17.99,3.99-33.01-9.87-34.31-27.67-.28-3.68-.7-8.19-.34-12.06.18-1.91.54-3.67,1.21-5.1l.03-.06c1.9-3.42,6.56-2.66,11.22-2.83,5.94,0,12.02,0,18.64,0,5.88.01,11.31-.03,16.67.03h.44c7.06-.16,8.59,2.4,8.97,7.96.1,1.4.12,2.99.15,4.77-.12,5.73-.51,11.68-2.58,17.05Z"/>
      <path class="cls-1" d="M245.59,76.03s6.41-9.52,4.26-12.5c-2.15-2.99-11.02-7.7-18.76-8.26,0,0,3.73-17.7-5.4-22.08-9.14-4.38-22.92,1.71-27.52,4.12,0,0-5.21-13.21-12.32-14.05-1.93-.23-4.14.58-6.31,1.87-1.59-2.3-3.7-4.09-6.5-4.8-11.63-2.96-26.22,7.29-31,11.16,0,0-9.12-14.13-17.55-13.45-8.43.69-17.78,18.24-17.78,18.24,0,0-14.82-7.29-20.29-2.05-4.77,4.58-5.38,12.8-5,16.33-.23.46-.44.93-.64,1.39-1.42,3.29-2.31,6.37-2.77,8.23,0,0-5.69-3.15-11.02-4.09-2.71-.48-5.33-.39-7.07.97-1.34,1.04-2.15,2.97-2.64,5.26-.65,3.05-.69,6.75-.55,9.85.15,3.61.56,6.4.56,6.4,0,0-13.28.51-14.26,6.85-.99,6.33,3.95,14.1,5.52,15.58,0,0-15.1,15.06-9.45,22.62,5.65,7.56,14.49,9.63,14.49,9.63,0,0-2.34,16.37,2.85,22.24,1.23,1.39,2.64,2.42,4.1,3.15,2.14,1.09,4.39,1.54,6.42,1.64,2.17.11,5.48,1.15,10,.35.98-.18,2.69-.21,3.37-.94.84-.92,1.72-2.53,2.53-4.23.45-.96.88-1.95,1.28-2.87l12.16-11.24,1.47-1.36c.98-.9,1.75-1.99,2.28-3.21l1.81-4.16,7.21-16.55c1.21-2.8,3.66-4.81,6.56-5.5.36-.09.73-.15,1.1-.2.37-.05.75-.07,1.14-.07,0,0,117.28.78,122.02-.23.04,0,.08-.02.1-.03,4.67-1.86,20.26-8.79,20.71-12.32.72-5.56-6.76-16.27-15.1-21.67ZM81.63,150.67h0s0,0,0,0h0Z"/>
      <rect class="cls-1" x="127.12" y="156.37" width="14.39" height="26.19" rx="7.19" ry="7.19"/>
      <rect class="cls-1" x="203.16" y="156.37" width="14.39" height="26.19" rx="7.19" ry="7.19"/>
      <g>
        <path class="cls-1" d="M281.44,57.03c2.89.43,3.65,2.97,2.27,5.39-.76,1.34-8.52,10.05-9.85,11.14-3.26,2.68-7.04-.9-5.18-4.18.81-1.42,8.78-10.36,10.17-11.49.84-.68,1.44-1.03,2.58-.87Z"/>
        <path class="cls-1" d="M300.48,92.99c4.27.44,4.84,5.13,1.33,6.48-1.15.44-13.81,2.35-14.95,2.22-3.79-.4-4.3-4.4-1.28-6.39l14.9-2.31Z"/>
        <path class="cls-1" d="M293.25,74.09c3.49.19,4.79,3.87,1.92,6.15-1.38,1.1-10.57,5.75-12.34,6.31-3.98,1.25-6.51-2.02-4-5.33,2.8-.97,12.15-7.25,14.43-7.13Z"/>
      </g>
      <path class="cls-1" d="M31.64,217.96c3.31-2.34,4.73,1.56,6.66,3.47,1.64,1.62,4.33,3.24,6.52,3.96,1.55.51,5.13.56,5.98,1.02.78.42,1.18,1.58,1.29,2.41.2,1.47-3.15,4-4.13,5.44-1.79,2.64-2.5,5.44-2.87,8.56-.22,1.91.68,4.96-1.82,5.8-2.84.95-4.73-3.24-6.7-5.03s-4.59-3.26-7.31-3.87c-2.28-.51-6.08.17-5.81-3.36.09-1.19,3.07-3.54,4-4.75,1.59-2.1,2.71-5.08,3.09-7.7.22-1.55-.16-5.04,1.11-5.94ZM42.77,230.82c-2.27-.39-4.58-1.9-6.56-3.12l-3.17,6.91,6.6,3.27,3.13-7.06Z"/>
    </g>
  </g>
</svg>