<?xml version="1.0" encoding="UTF-8"?>
<svg id="Layer_2" data-name="Layer 2" xmlns="http://www.w3.org/2000/svg" viewBox="0 0 292.4 269.21">
  <defs>
    <style>
      .cls-1 {
        fill: #fcbd12;
      }

      .cls-1, .cls-2 {
        stroke: #311514;
        stroke-miterlimit: 10;
      }

      .cls-2 {
        fill: #231f20;
      }

      .cls-3 {
        fill: #311514;
      }
    </style>
  </defs>
  <g id="Layer_3" data-name="Layer 3">
    <g>
      <path class="cls-3" d="M292.4,200.68c0,50.41-24.34,68.53-54.37,68.53s-54.37-18.12-54.37-68.53,9.38-101.81,39.4-101.81,69.33,51.39,69.33,101.81Z"/>
      <path class="cls-3" d="M229.91,35.38c16.28,33.01,6.19,52.74-13.47,62.43-19.66,9.7-41.45,5.69-57.73-27.32-16.28-33.01,2.98-58.14,8.4-63.56,15.5-15.5,46.52-4.57,62.8,28.45Z"/>
      <path class="cls-3" d="M119.8,233.59c0,13.5-12.48,20.12-25.98,20.12s-24.45-10.95-24.45-24.45,10.95-15.79,24.45-15.79,25.98,6.62,25.98,20.12Z"/>
      <path class="cls-3" d="M168.77,115.66c0-13.5-12.48-20.12-25.98-20.12s-24.45,10.95-24.45,24.45,10.95,15.79,24.45,15.79,25.98-6.62,25.98-20.12Z"/>
      <rect class="cls-1" x="37.7" y="80.32" width="100.24" height="142.74" transform="translate(-87.28 143.89) rotate(-57.38)"/>
      <g>
        <path class="cls-2" d="M47.22,157.02l.06-.23.16-.17.2-.44.36-.31.25-.05h.25s.14-.05.14-.05l.23.06.52.33.05.09.12.16.09.19.19.25v.17s.07.23.07.23l.11.29-.02.2-.09.4v.25s.03.26.03.26l-.05.21-.07.2.05.3-.09.18-.12.19-.05.24v.25s-.1.2-.1.2l-.14.18-.04.27-.1.2-.14.18-.17.43-.16.17-.22.13-.13.21-.1.2-.16.17-.11.17-.2.14-.22.13-.13.16-.24.12-.17.13-.26.07-.25.05-.13.16-.29.03-.12.14h-.3s-.16.11-.16.11l-.19.04-.35-.04-.13.08-.23.02-.27-.04-.16.03h-.21s-.26-.06-.26-.06l-.24-.04-.22-.03-.21-.05-.32-.13-.17-.03-.27-.12-.16-.05-.22-.08-.15-.07-.3-.16-.1-.06-.34-.19-.29-.18-.22-.17-.17-.11-.24-.18-.12-.1-.2-.16-.15-.15-.19-.17-.1-.09-.26-.22-.15-.18-.15-.15-.08-.13-.27-.33-.35-.39-.16-.21-.02-.09-.2-.24-.16-.21-.05-.14-.12-.19-.07-.18-.24-.26-.09-.19-.08-.16-.07-.18-.15-.23-.1-.23-.09-.19-.07-.18-.17-.27-.04-.19-.02-.18-.18-.27-.02-.18-.08-.21-.1-.23v-.19s-.09-.21-.09-.21l-.07-.23-.05-.22-.11-.26v-.2s0-.21,0-.21l-.03-.21v-.21s0-.2,0-.2l-.13-.3.04-.4-.06-.28.02-.2.03-.47.03-.22.07-.2-.05-.3.05-.21.14-.18-.02-.26.07-.23.16-.17.1-.2.06-.23.05-.24.16-.17.12-.19.08-.22.25-.38.02-.25.18-.15.22-.1.14-.18.08-.22.15-.15.18-.15.3-.29.25-.11.21-.11.1-.15.3-.05.21-.08.16-.12.17-.1.18-.07h.54s.19-.04.19-.04l.1-.07.22.03.44.15.36.23.11.12.24.26.05.17.14.25.03.21-.06.15.06.28-.17.14.06.28-.33.35-.18.15-.45.2-.39.15-.24.03-.16.12-.19.09-.23.07-.19.12-.21.11-.14.18-.18.15-.13.16-.3.35v.28s-.18.17-.18.17l-.03.25-.06.23-.09.19-.05.24.02.26-.14.18.14.33-.12.14v.46s.13.3.13.3v.18s-.01.21-.01.21l.17.49v.15s.13.28.13.28l.08.38.16.26.1.23v.13s.15.23.15.23l.16.26v.1s.23.29.23.29l.07.15.11.21.06.15.16.21.12.16.24.26.02.09.27.25.07.1.16.18.17.16.25.21.05.09.26.19.16.13.1.09.26.19.31.2.3.16.09.03.3.16.22.12.21.05h.08s.27.09.27.09l.3.08.11-.04.29.05h.21s.23-.01.23-.01l.26-.02.12-.11.24-.03.19-.09.21-.11.19-.12.21-.11.18-.15.48-.75.13-.16v-.26s.19-.12.19-.12l-.1-.31.13-.16v-.25s.05-.21.05-.21l.09-.43-.07-.31Z"/>
        <path class="cls-2" d="M48.95,136.37l.11.07.18.14.26.19.04.05.22.2.1.14.15.15.21.22.18.22.04.14.18.22.05.17.07.18.11.21.06.2.19.29-.02.15.16.29-.07.15.07.23.03.21.02.23.07.26.02.26.02.23-.07.2.02.26-.13.16-.03.22-.08.22-.12.35c-.06.23.03.37.25.41l.2.02.12-.03.36.12h.16s.26.05.26.05l.24.05.36.02.26.06.44.07.3.08.12-.06.34.11.26.06h.16s.3.08.3.08h.16s.61.06.61.06l.36.12h.35s.3.09.3.09l.2.02.39.03.22.08.2.07.35.25.28.23.04.11.11.2.02.18.18.31-.08.16-.05.21-.07.2.02.26-.28.36-.19.12-.13.16-.14.13-.25.05-.19.09h-.53s-.12.04-.12.04l-.48-.09-.2-.02-.21-.05-.2-.02-.32-.1-.24-.04-.22-.03h-.15s-.24-.06-.24-.06l-.13.03-.35-.12-.13.03-.23-.06h-.18s-.32-.1-.32-.1h-.14s-.24-.03-.24-.03l-.21-.05-.26-.06-.41-.04-.32-.1-.15.02-.21-.05-.22-.03-.28-.07-.24-.04-.26-.06-.09.02-.26-.06-.32-.1-.14.02-.22-.03c-.15-.02-.24,0-.29.07s-.02.17.08.3l.14.2v.11s.15.2.15.2l.32.39.06.15.2.24.12.19.14.17.11.17.08.16.77,1.12.25.24.05.14.1.17.14.2.14.17.2.24.12.19.16.21.16.29.18.22.1.17.23.23.31.53.11.21v.14s.21.29.21.29l-.05.13.11.29-.06.18-.02.2-.07.2-.08.22-.3.59-.18.15-.23.07-.25.05-.17.05-.24-.05-.25-.11-.47-.27-.09-.11-.11-.12-.3-.38-.16-.21-.1-.14-.14-.2-.16-.21-.14-.2-.02-.09-.1-.17-.22-.25-.1-.18-.14-.17-.41-.59-.1-.14-.36-.45v-.11s-.19-.22-.19-.22l-.19-.2-.03-.13-.22-.25-.14-.2-.06-.12-.09-.16-.14-.2-1.04-1.37-.08-.16-.12-.19-.18-.22-.06-.12-.2-.24-.1-.18-.03-.12-.29-.27-.12-.19-.03-.13-1.39-1.92-.13-.17-.11-.18-.06-.15-.22-.25-.15-.18v-.11s-.37-.45-.37-.45l-.06-.12-.16-.21-.19-.34-.13-.22-.21-.27.02-.15-.09-.24-.14-.28v-.21s.03-.47.03-.47l.18-.16.14-.42v-.03s.37-.33.37-.33l.14-.18.08-.22.12-.19.1-.2.14-.18.07-.25.14-.18.18-.16.17-.43.12-.19.26-.11v-.26s.17-.17.17-.17l.22-.13.15-.15.28-.09.19-.12.23-.1.16-.12.19-.09h.28s.18-.08.18-.08l.16-.08.32.04.16-.03.29.05h.17s.18,0,.18,0l.21.05.27.12.14.03.27.12.19.12.24.13ZM47.48,139.01l-.16-.08-.27-.09h-.23s-.15.05-.15.05l-.24.04-.19.09-.12.19-.32.34-.25.38-.15.15-.14.18-.16.25.25.32.1.18.14.2,1.01,1.46.06.15.15.18.12.19.24.26.2.32c.14.2.3.21.47.03l.19-.2.17-.22v-.28s.25-.37.25-.37l.08-.22.25-.38v-.27s.11-.42.11-.42l-.13-.3-.04-.24.02-.2-.04-.19-.2-.45-.28-.4-.19-.2-.07-.1-.16-.13-.33-.21Z"/>
        <path class="cls-2" d="M54.64,122.53l.27.17.15.18.23.26.07.18.07.23.03.21.04.27-.13.16-.03.25-.07.23-.38.59-.02.25-.16.17-.06.23-.24.12-.1.2-.14.18v.3l-.14.18-.12.19-.16.17-.14.18-.12.19-.08.22-.18.15-.03.25-.26.11-.03.25-.16.17-.04.24-.2.14-.12.19-.14.18c-.12.16-.12.32,0,.48l.14.17.05.14.2.24.1.14.18.22.81,1.14.12.19.08.13.16.21.07.15.11.15c.08.1.16.15.24.14.08-.01.16-.06.24-.16l.12-.14v-.27s.2-.14.2-.14l.1-.2.12-.19.08-.22.12-.19.14-.18.08-.22.24-.12.06-.23.1-.21.26-.37.18-.16.08-.22.19-.12.24-.08.24-.03h.2s.23.05.23.05l.5.32.04.11.14.2.19.26-.03.17.17.29-.03.22-.09.18.03.29-.16.17-.08.22-.26.4-.08.22-.28.36-.23.36-.1.2-.04.24-.14.18-.16.17-.06.23-.2.14-.1.2-.11.17-.06.23-.15.28c-.11.17-.1.32.02.47l.32.42.05.14.21.22.86,1.28.18.22.06.12.22.25.12.19.32.5.2.29c.16.23.32.22.47-.02l.41-.6.22-.13.05-.24.1-.2.32-.33v-.27s.24-.12.24-.12l.04-.24.2-.14.06-.23.1-.2.14-.18.12-.19.07-.23.18-.15.1-.2.18-.15.23-.4.08-.22.3-.08.11-.17.19-.12h.28s.25.01.25.01l.17.03.48.31.06.12.09.16.11.21.18.3.07.23-.09.18.02.26-.12.19v.28s-.09.2-.09.2l-.3.38-.12.19-.03.25-.22.13-.16.17-.1.2v.26s-.26.11-.26.11l-.13.46-.2.14-.04.24-.22.13v.26s-.21.14-.21.14l-.08.25-.14.18-.32.34-.12.19-.03.25-.36.31-.03.25-.2.14-.03.25-.16.17-.07.23-.14.18-.18.15v.05s-.24.37-.24.37l-.14.18-.31.07-.06.18-.29.03-.3-.03-.13.03-.25-.11-.4-.23-.19-.17-.13-.14-.26-.36-.14-.2-.16-.18-.04-.14-.14-.2-.07-.15-.32-.39-.08-.16-.2-.24-.05-.14-.23-.23-.07-.15-.62-.8-.14-.2-.07-.15-.12-.19-.13-.17-.2-.24v-.11s-.29-.29-.29-.29l-.13-.17-.04-.14-.14-.2-.16-.21-.87-1.26-.1-.17-.26-.27-.14-.28-.2-.24-.1-.17-.06-.15-.16-.18-1.25-1.72-.2-.24-.06-.15-.12-.19-.1-.17-.46-.59-.07-.15-.21-.22-.03-.13-.27-.39-.11-.2-.23-.28-.04-.19.03-.17-.1-.26.02-.2v-.23s0-.26,0-.26l.14-.18.19-.25v-.13s.15-.23.15-.23l.26-.32.03-.25.1-.2.22-.13.04-.24.14-.18.2-.14v-.28s.15-.17.15-.17l.22-.13.03-.25.16-.17.1-.2.24-.38.06-.23.12-.19.16-.17.22-.13.04-.24.18-.16v-.26s.17-.17.17-.17l.18-.16.16-.17.03-.25.2-.14.13-.46.26-.11.1-.2.24-.09.13-.16.35.04h.19s.25.07.25.07Z"/>
        <path class="cls-2" d="M63.13,114.05l.38.24.16.13.12.1.22.17.18.14.13.14.11.12.21.22.09.11.19.21.12.15.1.18.17.19.21.35.27.25.07.15.21.35.19.2.12.19.2.24v.1s.2.22.2.22l.18.22.03.12.14.2.25.24.33.54.18.31.28.29.12.19.06.12.09.16.16.21.18.22.08.13.24.26v.1s.15.21.15.21l.13.17.22.25.27.39.16.18.12.19.15.31.17.19.06.15.12.19.25.24.15.31.23.28.02.15.12.24.03.21.09.24.02.23v.23s-.09.2-.09.2l-.04.24-.21.41-.23.15-.15.15-.23.07h-.32s-.19.03-.19.03h-.18s-.24-.11-.24-.11l-.51-.3-.11-.12-.17-.19-.19-.34-.29-.4-.2-.24-.15-.18-.08-.16-.22-.25-.07-.15-.1-.14-.26-.27-.07-.15-.1-.17-.16-.18-.09-.16-.1-.17-.18-.22-.21-.22v-.11s-.17-.21-.17-.21l-.26-.35-.11-.12c-.15-.19-.31-.18-.46,0l-.2.28-.24.38-.07.23-.14.18-.12.19-.06.23-.16.17-.12.19-.2.14-.12.19-.1.2-.32.5c-.1.15-.1.31,0,.46l.21.35.24.26.14.17.1.18.16.21,1.42,2.04.05.14.17.19.08.16.39.57.27.25.05.14.3.41.15.23-.02.12.19.29.03.21.09.24-.02.2-.03.22-.09.18-.05.24-.2.41-.19.17-.17.13-.31.02-.24.04-.23.02-.22-.03-.2-.07-.41-.24-.07-.1-.25-.24-.24-.34-.27-.42-.23-.23-.12-.19v-.11s-.27-.27-.27-.27l-.04-.11-1.61-2.25-.1-.17-.18-.19-.14-.2-.1-.17-.07-.15-.15-.18-.14-.2-.18-.22-.15-.18-.03-.13-.22-.25-.14-.2-.27-.47-.21-.22-.12-.19-.2-.24-.07-.15-.14-.17-.12-.19-.2-.24-.05-.14-.19-.2-.1-.17-.18-.22-.1-.14-.13-.19-.06-.15-.18-.22-.19-.2-.25-.37-.06-.15-.07-.18-.11-.21-.13-.22-.1-.22v-.14s-.23-.3-.23-.3l.07-.15-.16-.26-.03-.21-.08-.24.08-.16-.16-.29.08-.17v-.21s-.13-.3-.13-.3l.05-.21v-.23s.09-.16.09-.16l-.04-.27.07-.2v-.24s.1-.2.1-.2l-.06-.28.1-.2.15-.15-.03-.29.14-.18.15-.15.03-.25.08-.22.2-.14.25-.38.03-.25.18-.15.08-.22.26-.1.1-.2.17-.13.22-.13.22-.1.2-.11.13-.16.17-.1.27-.04.17-.1h.28s.14-.11.14-.11l.21-.03.23-.02.31.06.18-.02.34.11.21.05h.13s.27.12.27.12l.2.07.17.08.28.15ZM63.5,120.47l.08-.22.16-.17.16-.3c.09-.19.08-.36-.04-.49l-.24-.26-.12-.19-.19-.34-.12-.15-.16-.21-.24-.34-.17-.19-.1-.14-.18-.14-.26-.22-.2-.16-.1-.06-.24-.13-.21-.08-.31-.11-.31.07h-.33s-.23.07-.23.07l-.04.22-.29.08-.16.41-.06.23-.15.15v.49s-.05.18-.05.18v.25s.09.24.09.24l.02.23.04.19.07.23.12.24.08.21.02.15.19.25.16.21.05.14.34.43.03.13.23.23.1.17.18.22.14.2.07.15.17.19.08.16c.06.1.14.15.22.17.1.01.19-.04.26-.16l.1-.15.1-.2.12-.19.07-.23.14-.18.15-.15.14-.18v-.26s.15-.18.15-.18l.1-.2.14-.18.22-.13Z"/>
        <path class="cls-2" d="M67.92,101.67l.35.22.27.25.08.16.15.23v.2s.1.24.1.24l-.09.18v.25s.04.29.04.29l-.2.14-.04.24-.16.46-.32.33-.08.22-.31.45c-.11.18-.12.34,0,.48l.22.33.12.19.29.48.14.2.19.2.12.19.14.2.07.15.15.18.43.6.16.21.13.17.1.17.18.22.07.15.8,1.11.08.16.22.33.28.29v.11s.15.2.15.2l.32.39.06.15.2.24.93,1.3.19.34.1.17.25.24.15.31.14.2.13.17.2.24.12.19.16.21.16.29.18.22.1.17.23.23.31.52.11.2v.15s.21.29.21.29l-.05.13.11.29-.06.18-.02.2-.07.2-.08.22-.3.59-.18.15-.23.07-.25.05-.17.05-.24-.05-.25-.11-.47-.28-.09-.11-.11-.12-.3-.38-.16-.21-.1-.14-.14-.2-.16-.21-.14-.2-.02-.09-.1-.17-.22-.25-.1-.17-.14-.17-.14-.2-.72-.98v-.11s-.19-.22-.19-.22l-.19-.2-.03-.12-.22-.25-.14-.2-.06-.12-.08-.16-.14-.2-1.04-1.37-.09-.16-.12-.19-.18-.22-.06-.12-.2-.24-.1-.18-.03-.12-.92-1.3-.16-.21-.1-.17-.25-.24-.12-.19-.16-.21-.1-.17-.42-.57c-.17-.24-.33-.24-.48,0l-.39.56v.27s-.13.19-.13.19l-.54.47-.11.17-.15.12h-.25s-.35-.08-.35-.08h-.06s-.44-.27-.44-.27l-.17-.16-.15-.18-.14-.2-.02-.17-.12-.24.03-.17.04-.19v-.23s0-.25,0-.25l.13-.16.15-.45.12-.19.08-.22.26-.1v-.28s.15-.17.15-.17l.08-.22.26-.11.1-.2.12-.19.14-.18v-.28s.23-.12.23-.12l.04-.24.12-.19.14-.13.06-.23.16-.12v-.1s.17-.17.17-.17l.12-.19.08-.22.2-.14v-.27s.21-.14.21-.14l.12-.19.17-.43.14-.18.16-.17.21-.41.24-.12.14-.18.17-.13.28-.06.24-.04.12-.06.27.09Z"/>
        <path class="cls-2" d="M74.7,91.18l.27.17.15.18.23.26.07.18.07.23.03.21.04.27-.13.16-.03.25-.06.23-.38.59-.03.25-.16.17-.06.23-.24.12-.1.2-.14.18v.3l-.14.18-.12.19-.16.17-.14.18-.12.19-.08.22-.18.15-.03.25-.26.11-.03.25-.16.17-.05.24-.2.14-.12.19-.14.18c-.12.16-.12.32,0,.48l.14.17.05.14.2.24.1.14.18.22.81,1.14.12.19.08.13.16.21.06.15.12.16c.08.1.16.15.24.14.08-.01.16-.06.24-.16l.12-.14v-.27s.2-.14.2-.14l.1-.2.12-.19.08-.22.12-.19.14-.18.08-.22.24-.12.06-.23.1-.2.26-.37.18-.15.08-.22.19-.12.24-.09.24-.03h.2s.23.06.23.06l.5.32.04.11.14.2.19.26-.03.17.17.29-.03.22-.09.18.03.29-.16.17-.08.22-.26.4-.08.22-.28.36-.23.36-.1.2-.04.24-.14.18-.16.17-.06.23-.2.14-.1.2-.11.17-.06.23-.15.28c-.11.17-.1.32.02.47l.32.42.05.14.21.22.86,1.28.18.22.06.12.22.25.12.19.32.5.2.29c.16.23.32.22.47-.02l.41-.6.22-.13.04-.24.1-.2.32-.33v-.27s.24-.12.24-.12l.04-.24.2-.14.06-.23.1-.2.14-.18.12-.19.07-.23.18-.15.1-.2.18-.16.22-.4.08-.22.3-.08.11-.17.19-.12h.28s.25.02.25.02l.17.03.48.31.06.12.09.16.11.2.18.31.07.23-.09.18.02.26-.12.19v.28s-.09.2-.09.2l-.3.38-.12.19-.03.25-.22.13-.16.17-.1.2v.27s-.27.11-.27.11l-.13.46-.2.14-.04.24-.22.13v.26s-.21.14-.21.14l-.08.25-.14.18-.32.33-.12.19-.03.25-.36.31-.03.25-.2.14-.03.25-.16.17-.07.23-.14.18-.18.15v.05s-.24.36-.24.36l-.14.18-.31.07-.06.18-.29.03-.3-.03-.13.03-.25-.11-.4-.23-.19-.17-.13-.14-.26-.35-.14-.2-.16-.18-.05-.14-.14-.2-.07-.15-.32-.39-.08-.16-.2-.24-.05-.14-.23-.23-.07-.15-.62-.8-.14-.2-.06-.15-.12-.19-.14-.17-.2-.23v-.11s-.29-.28-.29-.28l-.13-.17-.04-.14-.14-.2-.16-.21-.87-1.26-.1-.17-.26-.27-.14-.28-.2-.23-.1-.17-.07-.15-.16-.18-1.25-1.72-.2-.24-.07-.15-.12-.19-.1-.18-.46-.59-.07-.15-.21-.22-.03-.13-.27-.39-.11-.2-.23-.28-.04-.19.03-.17-.1-.26.02-.2v-.23s0-.26,0-.26l.14-.18.19-.26v-.13s.15-.23.15-.23l.26-.32.03-.25.1-.2.22-.13.04-.24.14-.18.2-.14v-.28s.15-.17.15-.17l.22-.13.03-.25.16-.17.1-.2.24-.38.06-.23.12-.19.16-.17.22-.13.05-.24.18-.15v-.27s.17-.17.17-.17l.18-.15.16-.17.03-.25.2-.14.13-.46.26-.11.1-.2.24-.09.13-.16.35.03h.19s.25.07.25.07Z"/>
      </g>
      <g>
        <path class="cls-2" d="M71.38,174.06l.06-.23.16-.17.2-.44.36-.31.25-.05h.25s.14-.05.14-.05l.23.06.52.33.05.09.12.16.09.19.19.25v.17s.07.23.07.23l.11.29-.02.2-.09.4v.25s.03.26.03.26l-.05.21-.07.2.05.3-.09.18-.12.19-.05.24v.25s-.1.2-.1.2l-.14.18-.04.27-.1.2-.14.18-.17.43-.16.17-.22.13-.13.21-.1.2-.16.17-.11.17-.2.14-.22.13-.13.16-.24.12-.17.13-.26.07-.25.05-.13.16-.29.03-.12.14h-.3s-.16.11-.16.11l-.19.04-.35-.04-.13.08-.23.02-.27-.04-.16.03h-.21s-.26-.06-.26-.06l-.24-.04-.22-.03-.21-.05-.32-.13-.17-.03-.27-.12-.16-.05-.22-.08-.15-.07-.3-.16-.1-.06-.34-.19-.29-.18-.22-.17-.17-.11-.24-.18-.12-.1-.2-.16-.15-.15-.19-.17-.1-.09-.26-.22-.15-.18-.15-.15-.08-.13-.27-.33-.35-.39-.16-.21-.02-.09-.2-.24-.16-.21-.05-.14-.12-.19-.07-.18-.24-.26-.09-.19-.08-.16-.07-.18-.15-.23-.1-.23-.09-.19-.07-.18-.17-.27-.04-.19-.02-.18-.18-.27-.02-.18-.08-.21-.1-.23v-.19s-.09-.21-.09-.21l-.07-.23-.05-.22-.11-.26v-.2s0-.21,0-.21l-.03-.21v-.21s0-.2,0-.2l-.13-.3.04-.4-.06-.28.02-.2.03-.47.03-.22.07-.2-.05-.3.05-.21.14-.18-.02-.26.07-.23.16-.17.1-.2.06-.23.05-.24.16-.17.12-.19.08-.22.25-.38.02-.25.18-.15.22-.1.14-.18.08-.22.15-.15.18-.15.3-.29.25-.11.21-.11.1-.15.3-.05.21-.08.16-.12.17-.1.18-.07h.54s.19-.04.19-.04l.1-.07.22.03.44.15.36.23.11.12.24.26.05.17.14.25.03.21-.06.15.06.28-.17.14.06.28-.33.35-.18.15-.45.2-.39.15-.24.03-.16.12-.19.09-.23.07-.19.12-.21.11-.14.18-.18.15-.13.16-.3.35v.28s-.18.17-.18.17l-.03.25-.06.23-.09.19-.05.24.02.26-.14.18.14.33-.12.14v.46s.13.3.13.3v.18s-.01.21-.01.21l.17.49v.15s.13.28.13.28l.08.38.16.26.1.23v.13s.15.23.15.23l.16.26v.1s.23.29.23.29l.07.15.11.21.06.15.16.21.12.16.24.26.02.09.27.25.07.1.16.18.17.16.25.21.05.09.26.19.16.13.1.09.26.19.31.2.3.16.09.03.3.16.22.12.21.05h.08s.27.09.27.09l.3.08.11-.04.29.05h.21s.23-.01.23-.01l.26-.02.12-.11.24-.03.19-.09.21-.11.19-.12.21-.11.18-.15.48-.75.13-.16v-.26s.19-.12.19-.12l-.1-.31.13-.16v-.25s.05-.21.05-.21l.09-.43-.07-.31Z"/>
        <path class="cls-2" d="M73.12,153.41l.11.07.18.14.26.19.04.05.22.2.1.14.15.15.21.22.18.22.04.14.18.22.05.17.07.18.11.21.06.2.19.29-.02.15.16.29-.07.15.07.23.03.21.02.23.07.26.02.26.02.23-.07.2.02.26-.13.16-.03.22-.08.22-.12.35c-.06.23.03.37.25.41l.2.02.12-.03.36.12h.16s.26.05.26.05l.24.05.36.02.26.06.44.07.3.08.12-.06.34.11.26.06h.16s.3.08.3.08h.16s.61.06.61.06l.36.12h.35s.3.09.3.09l.2.02.39.03.22.08.2.07.35.25.28.23.04.11.11.2.02.18.18.31-.08.16-.05.21-.07.2.02.26-.28.36-.19.12-.13.16-.14.13-.25.05-.19.09h-.53s-.12.04-.12.04l-.48-.09-.2-.02-.21-.05-.2-.02-.32-.1-.24-.04-.22-.03h-.15s-.24-.06-.24-.06l-.13.03-.35-.12-.13.03-.23-.06h-.18s-.32-.1-.32-.1h-.14s-.24-.03-.24-.03l-.21-.05-.26-.06-.41-.04-.32-.1-.15.02-.21-.05-.22-.03-.28-.07-.24-.04-.26-.06-.09.02-.26-.06-.32-.1-.14.02-.22-.03c-.15-.02-.24,0-.29.07s-.02.17.08.3l.14.2v.11s.15.2.15.2l.32.39.06.15.2.24.12.19.14.17.11.17.08.16.77,1.12.25.24.05.14.1.17.14.2.14.17.2.24.12.19.16.21.16.29.18.22.1.17.23.23.31.53.11.21v.14s.21.29.21.29l-.05.13.11.29-.06.18-.02.2-.07.2-.08.22-.3.59-.18.15-.23.07-.25.05-.17.05-.24-.05-.25-.11-.47-.27-.09-.11-.11-.12-.3-.38-.16-.21-.1-.14-.14-.2-.16-.21-.14-.2-.02-.09-.1-.17-.22-.25-.1-.18-.14-.17-.41-.59-.1-.14-.36-.45v-.11s-.19-.22-.19-.22l-.19-.2-.03-.13-.22-.25-.14-.2-.06-.12-.09-.16-.14-.2-1.04-1.37-.08-.16-.12-.19-.18-.22-.06-.12-.2-.24-.1-.18-.03-.12-.29-.27-.12-.19-.03-.13-1.39-1.92-.13-.17-.11-.18-.06-.15-.22-.25-.15-.18v-.11s-.37-.45-.37-.45l-.06-.12-.16-.21-.19-.34-.13-.22-.21-.27.02-.15-.09-.24-.14-.28v-.21s.03-.47.03-.47l.18-.16.14-.42v-.03s.37-.33.37-.33l.14-.18.08-.22.12-.19.1-.2.14-.18.07-.25.14-.18.18-.16.17-.43.12-.19.26-.11v-.26s.17-.17.17-.17l.22-.13.15-.15.28-.09.19-.12.23-.1.16-.12.19-.09h.28s.18-.08.18-.08l.16-.08.32.04.16-.03.29.05h.17s.18,0,.18,0l.21.05.27.12.14.03.27.12.19.12.24.13ZM71.64,156.06l-.16-.08-.27-.09h-.23s-.15.05-.15.05l-.24.04-.19.09-.12.19-.32.34-.25.38-.15.15-.14.18-.16.25.25.32.1.18.14.2,1.01,1.46.06.15.15.18.12.19.24.26.2.32c.14.2.3.21.47.03l.19-.2.17-.22v-.28s.25-.37.25-.37l.08-.22.25-.38v-.27s.11-.42.11-.42l-.13-.3-.04-.24.02-.2-.04-.19-.2-.45-.28-.4-.19-.2-.07-.1-.16-.13-.33-.21Z"/>
        <path class="cls-2" d="M78.81,139.57l.27.17.15.18.23.26.07.18.07.23.03.21.04.27-.13.16-.03.25-.07.23-.38.59-.02.25-.16.17-.06.23-.24.12-.1.2-.14.18v.3l-.14.18-.12.19-.16.17-.14.18-.12.19-.08.22-.18.15-.03.25-.26.11-.03.25-.16.17-.04.24-.2.14-.12.19-.14.18c-.12.16-.12.32,0,.48l.14.17.05.14.2.24.1.14.18.22.81,1.14.12.19.08.13.16.21.07.15.11.15c.08.1.16.15.24.14.08-.01.16-.06.24-.16l.12-.14v-.27s.2-.14.2-.14l.1-.2.12-.19.08-.22.12-.19.14-.18.08-.22.24-.12.06-.23.1-.21.26-.37.18-.16.08-.22.19-.12.24-.08.24-.03h.2s.23.05.23.05l.5.32.04.11.14.2.19.26-.03.17.17.29-.03.22-.09.18.03.29-.16.17-.08.22-.26.4-.08.22-.28.36-.23.36-.1.2-.04.24-.14.18-.16.17-.06.23-.2.14-.1.2-.11.17-.06.23-.15.28c-.11.17-.1.32.02.47l.32.42.05.14.21.22.86,1.28.18.22.06.12.22.25.12.19.32.5.2.29c.16.23.32.22.47-.02l.41-.6.22-.13.05-.24.1-.2.32-.33v-.27s.24-.12.24-.12l.04-.24.2-.14.06-.23.1-.2.14-.18.12-.19.07-.23.18-.15.1-.2.18-.15.23-.4.08-.22.3-.08.11-.17.19-.12h.28s.25.01.25.01l.17.03.48.31.06.12.09.16.11.21.18.3.07.23-.09.18.02.26-.12.19v.28s-.09.2-.09.2l-.3.38-.12.19-.03.25-.22.13-.16.17-.1.2v.26s-.26.11-.26.11l-.13.46-.2.14-.04.24-.22.13v.26s-.21.14-.21.14l-.08.25-.14.18-.32.34-.12.19-.03.25-.36.31-.03.25-.2.14-.03.25-.16.17-.07.23-.14.18-.18.15v.05s-.24.37-.24.37l-.14.18-.31.07-.06.18-.29.03-.3-.03-.13.03-.25-.11-.4-.23-.19-.17-.13-.14-.26-.36-.14-.2-.16-.18-.04-.14-.14-.2-.07-.15-.32-.39-.08-.16-.2-.24-.05-.14-.23-.23-.07-.15-.62-.8-.14-.2-.07-.15-.12-.19-.13-.17-.2-.24v-.11s-.29-.29-.29-.29l-.13-.17-.04-.14-.14-.2-.16-.21-.87-1.26-.1-.17-.26-.27-.14-.28-.2-.24-.1-.17-.06-.15-.16-.18-1.25-1.72-.2-.24-.06-.15-.12-.19-.1-.17-.46-.59-.07-.15-.21-.22-.03-.13-.27-.39-.11-.2-.23-.28-.04-.19.03-.17-.1-.26.02-.2v-.23s0-.26,0-.26l.14-.18.19-.25v-.13s.15-.23.15-.23l.26-.32.03-.25.1-.2.22-.13.04-.24.14-.18.2-.14v-.28s.15-.17.15-.17l.22-.13.03-.25.16-.17.1-.2.24-.38.06-.23.12-.19.16-.17.22-.13.04-.24.18-.16v-.26s.17-.17.17-.17l.18-.16.16-.17.03-.25.2-.14.13-.46.26-.11.1-.2.24-.09.13-.16.35.04h.19s.25.07.25.07Z"/>
        <path class="cls-2" d="M87.29,131.09l.38.24.16.13.12.1.22.17.18.14.13.14.11.12.21.22.09.11.19.21.12.15.1.18.17.19.21.35.27.25.07.15.21.35.19.2.12.19.2.24v.1s.2.22.2.22l.18.22.03.12.14.2.25.24.33.54.18.31.28.29.12.19.06.12.09.16.16.21.18.22.08.13.24.26v.1s.15.21.15.21l.13.17.22.25.27.39.16.18.12.19.15.31.17.19.06.15.12.19.25.24.15.31.23.28.02.15.12.24.03.21.09.24.02.23v.23s-.09.2-.09.2l-.04.24-.21.41-.23.15-.15.15-.23.07h-.32s-.19.03-.19.03h-.18s-.24-.11-.24-.11l-.51-.3-.11-.12-.17-.19-.19-.34-.29-.4-.2-.24-.15-.18-.08-.16-.22-.25-.07-.15-.1-.14-.26-.27-.07-.15-.1-.17-.16-.18-.09-.16-.1-.17-.18-.22-.21-.22v-.11s-.17-.21-.17-.21l-.26-.35-.11-.12c-.15-.19-.31-.18-.46,0l-.2.28-.24.38-.07.23-.14.18-.12.19-.06.23-.16.17-.12.19-.2.14-.12.19-.1.2-.32.5c-.1.15-.1.31,0,.46l.21.35.24.26.14.17.1.18.16.21,1.42,2.04.05.14.17.19.08.16.39.57.27.25.05.14.3.41.15.23-.02.12.19.29.03.21.09.24-.02.2-.03.22-.09.18-.05.24-.2.41-.19.17-.17.13-.31.02-.24.04-.23.02-.22-.03-.2-.07-.41-.24-.07-.1-.25-.24-.24-.34-.27-.42-.23-.23-.12-.19v-.11s-.27-.27-.27-.27l-.04-.11-1.61-2.25-.1-.17-.18-.19-.14-.2-.1-.17-.07-.15-.15-.18-.14-.2-.18-.22-.15-.18-.03-.13-.22-.25-.14-.2-.27-.47-.21-.22-.12-.19-.2-.24-.07-.15-.14-.17-.12-.19-.2-.24-.05-.14-.19-.2-.1-.17-.18-.22-.1-.14-.13-.19-.06-.15-.18-.22-.19-.2-.25-.37-.06-.15-.07-.18-.11-.21-.13-.22-.1-.22v-.14s-.23-.3-.23-.3l.07-.15-.16-.26-.03-.21-.08-.24.08-.16-.16-.29.08-.17v-.21s-.13-.3-.13-.3l.05-.21v-.23s.09-.16.09-.16l-.04-.27.07-.2v-.24s.1-.2.1-.2l-.06-.28.1-.2.15-.15-.03-.29.14-.18.15-.15.03-.25.08-.22.2-.14.25-.38.03-.25.18-.15.08-.22.26-.1.1-.2.17-.13.22-.13.22-.1.2-.11.13-.16.17-.1.27-.04.17-.1h.28s.14-.11.14-.11l.21-.03.23-.02.31.06.18-.02.34.11.21.05h.13s.27.12.27.12l.2.07.17.08.28.15ZM87.67,137.52l.08-.22.16-.17.16-.3c.09-.19.08-.36-.04-.49l-.24-.26-.12-.19-.19-.34-.12-.15-.16-.21-.24-.34-.17-.19-.1-.14-.18-.14-.26-.22-.2-.16-.1-.06-.24-.13-.21-.08-.31-.11-.31.07h-.33s-.23.07-.23.07l-.04.22-.29.08-.16.41-.06.23-.15.15v.49s-.05.18-.05.18v.25s.09.24.09.24l.02.23.04.19.07.23.12.24.08.21.02.15.19.25.16.21.05.14.34.43.03.13.23.23.1.17.18.22.14.2.07.15.17.19.08.16c.06.1.14.15.22.17.1.01.19-.04.26-.16l.1-.15.1-.2.12-.19.07-.23.14-.18.15-.15.14-.18v-.26s.15-.18.15-.18l.1-.2.14-.18.22-.13Z"/>
        <path class="cls-2" d="M92.09,118.71l.35.22.27.25.08.16.15.23v.2s.1.24.1.24l-.09.18v.25s.04.29.04.29l-.2.14-.04.24-.16.46-.32.33-.08.22-.31.45c-.11.18-.12.34,0,.48l.22.33.12.19.29.48.14.2.19.2.12.19.14.2.07.15.15.18.43.6.16.21.13.17.1.17.18.22.07.15.8,1.11.08.16.22.33.28.29v.11s.15.2.15.2l.32.39.06.15.2.24.93,1.3.19.34.1.17.25.24.15.31.14.2.13.17.2.24.12.19.16.21.16.29.18.22.1.17.23.23.31.52.11.2v.15s.21.29.21.29l-.05.13.11.29-.06.18-.02.2-.07.2-.08.22-.3.59-.18.15-.23.07-.25.05-.17.05-.24-.05-.25-.11-.47-.28-.09-.11-.11-.12-.3-.38-.16-.21-.1-.14-.14-.2-.16-.21-.14-.2-.02-.09-.1-.17-.22-.25-.1-.17-.14-.17-.14-.2-.72-.98v-.11s-.19-.22-.19-.22l-.19-.2-.03-.12-.22-.25-.14-.2-.06-.12-.08-.16-.14-.2-1.04-1.37-.09-.16-.12-.19-.18-.22-.06-.12-.2-.24-.1-.18-.03-.12-.92-1.3-.16-.21-.1-.17-.25-.24-.12-.19-.16-.21-.1-.17-.42-.57c-.17-.24-.33-.24-.48,0l-.39.56v.27s-.13.19-.13.19l-.54.47-.11.17-.15.12h-.25s-.35-.08-.35-.08h-.06s-.44-.27-.44-.27l-.17-.16-.15-.18-.14-.2-.02-.17-.12-.24.03-.17.04-.19v-.23s0-.25,0-.25l.13-.16.15-.45.12-.19.08-.22.26-.1v-.28s.15-.17.15-.17l.08-.22.26-.11.1-.2.12-.19.14-.18v-.28s.23-.12.23-.12l.04-.24.12-.19.14-.13.06-.23.16-.12v-.1s.17-.17.17-.17l.12-.19.08-.22.2-.14v-.27s.21-.14.21-.14l.12-.19.17-.43.14-.18.16-.17.21-.41.24-.12.14-.18.17-.13.28-.06.24-.04.12-.06.27.09Z"/>
        <path class="cls-2" d="M98.87,108.22l.27.17.15.18.23.26.07.18.07.23.03.21.04.27-.13.16-.03.25-.06.23-.38.59-.03.25-.16.17-.06.23-.24.12-.1.2-.14.18v.3l-.14.18-.12.19-.16.17-.14.18-.12.19-.08.22-.18.15-.03.25-.26.11-.03.25-.16.17-.05.24-.2.14-.12.19-.14.18c-.12.16-.12.32,0,.48l.14.17.05.14.2.24.1.14.18.22.81,1.14.12.19.08.13.16.21.06.15.12.16c.08.1.16.15.24.14.08-.01.16-.06.24-.16l.12-.14v-.27s.2-.14.2-.14l.1-.2.12-.19.08-.22.12-.19.14-.18.08-.22.24-.12.06-.23.1-.2.26-.37.18-.15.08-.22.19-.12.24-.09.24-.03h.2s.23.06.23.06l.5.32.04.11.14.2.19.26-.03.17.17.29-.03.22-.09.18.03.29-.16.17-.08.22-.26.4-.08.22-.28.36-.23.36-.1.2-.04.24-.14.18-.16.17-.06.23-.2.14-.1.2-.11.17-.06.23-.15.28c-.11.17-.1.32.02.47l.32.42.05.14.21.22.86,1.28.18.22.06.12.22.25.12.19.32.5.2.29c.16.23.32.22.47-.02l.41-.6.22-.13.04-.24.1-.2.32-.33v-.27s.24-.12.24-.12l.04-.24.2-.14.06-.23.1-.2.14-.18.12-.19.07-.23.18-.15.1-.2.18-.16.22-.4.08-.22.3-.08.11-.17.19-.12h.28s.25.02.25.02l.17.03.48.31.06.12.09.16.11.2.18.31.07.23-.09.18.02.26-.12.19v.28s-.09.2-.09.2l-.3.38-.12.19-.03.25-.22.13-.16.17-.1.2v.27s-.27.11-.27.11l-.13.46-.2.14-.04.24-.22.13v.26s-.21.14-.21.14l-.08.25-.14.18-.32.33-.12.19-.03.25-.36.31-.03.25-.2.14-.03.25-.16.17-.07.23-.14.18-.18.15v.05s-.24.36-.24.36l-.14.18-.31.07-.06.18-.29.03-.3-.03-.13.03-.25-.11-.4-.23-.19-.17-.13-.14-.26-.35-.14-.2-.16-.18-.05-.14-.14-.2-.07-.15-.32-.39-.08-.16-.2-.24-.05-.14-.23-.23-.07-.15-.62-.8-.14-.2-.06-.15-.12-.19-.14-.17-.2-.23v-.11s-.29-.28-.29-.28l-.13-.17-.04-.14-.14-.2-.16-.21-.87-1.26-.1-.17-.26-.27-.14-.28-.2-.23-.1-.17-.07-.15-.16-.18-1.25-1.72-.2-.24-.07-.15-.12-.19-.1-.18-.46-.59-.07-.15-.21-.22-.03-.13-.27-.39-.11-.2-.23-.28-.04-.19.03-.17-.1-.26.02-.2v-.23s0-.26,0-.26l.14-.18.19-.26v-.13s.15-.23.15-.23l.26-.32.03-.25.1-.2.22-.13.04-.24.14-.18.2-.14v-.28s.15-.17.15-.17l.22-.13.03-.25.16-.17.1-.2.24-.38.06-.23.12-.19.16-.17.22-.13.05-.24.18-.15v-.27s.17-.17.17-.17l.18-.15.16-.17.03-.25.2-.14.13-.46.26-.11.1-.2.24-.09.13-.16.35.03h.19s.25.07.25.07Z"/>
      </g>
      <g>
        <path class="cls-2" d="M96.6,193.95l.06-.23.16-.17.2-.44.36-.31.25-.05h.25s.14-.05.14-.05l.23.06.52.33.05.09.12.16.09.19.19.25v.17s.07.23.07.23l.11.29-.02.2-.09.4v.25s.03.26.03.26l-.05.21-.07.2.05.3-.09.18-.12.19-.05.24v.25s-.1.2-.1.2l-.14.18-.04.27-.1.2-.14.18-.17.43-.16.17-.22.13-.13.21-.1.2-.16.17-.11.17-.2.14-.22.13-.13.16-.24.12-.17.13-.26.07-.25.05-.13.16-.29.03-.12.14h-.3s-.16.11-.16.11l-.19.04-.35-.04-.13.08-.23.02-.27-.04-.16.03h-.21s-.26-.06-.26-.06l-.24-.04-.22-.03-.21-.05-.32-.13-.17-.03-.27-.12-.16-.05-.22-.08-.15-.07-.3-.16-.1-.06-.34-.19-.29-.18-.22-.17-.17-.11-.24-.18-.12-.1-.2-.16-.15-.15-.19-.17-.1-.09-.26-.22-.15-.18-.15-.15-.08-.13-.27-.33-.35-.39-.16-.21-.02-.09-.2-.24-.16-.21-.05-.14-.12-.19-.07-.18-.24-.26-.09-.19-.08-.16-.07-.18-.15-.23-.1-.23-.09-.19-.07-.18-.17-.27-.04-.19-.02-.18-.18-.27-.02-.18-.08-.21-.1-.23v-.19s-.09-.21-.09-.21l-.07-.23-.05-.22-.11-.26v-.2s0-.21,0-.21l-.03-.21v-.21s0-.2,0-.2l-.13-.3.04-.4-.06-.28.02-.2.03-.47.03-.22.07-.2-.05-.3.05-.21.14-.18-.02-.26.07-.23.16-.17.1-.2.06-.23.05-.24.16-.17.12-.19.08-.22.25-.38.02-.25.18-.15.22-.1.14-.18.08-.22.15-.15.18-.15.3-.29.25-.11.21-.11.1-.15.3-.05.21-.08.16-.12.17-.1.18-.07h.54s.19-.04.19-.04l.1-.07.22.03.44.15.36.23.11.12.24.26.05.17.14.25.03.21-.06.15.06.28-.17.14.06.28-.33.35-.18.15-.45.2-.39.15-.24.03-.16.12-.19.09-.23.07-.19.12-.21.11-.14.18-.18.15-.13.16-.3.35v.28s-.18.17-.18.17l-.03.25-.06.23-.09.19-.05.24.02.26-.14.18.14.33-.12.14v.46s.13.3.13.3v.18s-.01.21-.01.21l.17.49v.15s.13.28.13.28l.08.38.16.26.1.23v.13s.15.23.15.23l.16.26v.1s.23.29.23.29l.07.15.11.21.06.15.16.21.12.16.24.26.02.09.27.25.07.1.16.18.17.16.25.21.05.09.26.19.16.13.1.09.26.19.31.2.3.16.09.03.3.16.22.12.21.05h.08s.27.09.27.09l.3.08.11-.04.29.05h.21s.23-.01.23-.01l.26-.02.12-.11.24-.03.19-.09.21-.11.19-.12.21-.11.18-.15.48-.75.13-.16v-.26s.19-.12.19-.12l-.1-.31.13-.16v-.25s.05-.21.05-.21l.09-.43-.07-.31Z"/>
        <path class="cls-2" d="M98.33,173.29l.11.07.18.14.26.19.04.05.22.2.1.14.15.15.21.22.18.22.04.14.18.22.05.17.07.18.11.21.06.2.19.29-.02.15.16.29-.07.15.07.23.03.21.02.23.07.26.02.26.02.23-.07.2.02.26-.13.16-.03.22-.08.22-.12.35c-.06.23.03.37.25.41l.2.02.12-.03.36.12h.16s.26.05.26.05l.24.05.36.02.26.06.44.07.3.08.12-.06.34.11.26.06h.16s.3.08.3.08h.16s.61.06.61.06l.36.12h.35s.3.09.3.09l.2.02.39.03.22.08.2.07.35.25.28.23.04.11.11.2.02.18.18.31-.08.16-.05.21-.07.2.02.26-.28.36-.19.12-.13.16-.14.13-.25.05-.19.09h-.53s-.12.04-.12.04l-.48-.09-.2-.02-.21-.05-.2-.02-.32-.1-.24-.04-.22-.03h-.15s-.24-.06-.24-.06l-.13.03-.35-.12-.13.03-.23-.06h-.18s-.32-.1-.32-.1h-.14s-.24-.03-.24-.03l-.21-.05-.26-.06-.41-.04-.32-.1-.15.02-.21-.05-.22-.03-.28-.07-.24-.04-.26-.06-.09.02-.26-.06-.32-.1-.14.02-.22-.03c-.15-.02-.24,0-.29.07s-.02.17.08.3l.14.2v.11s.15.2.15.2l.32.39.06.15.2.24.12.19.14.17.11.17.08.16.77,1.12.25.24.05.14.1.17.14.2.14.17.2.24.12.19.16.21.16.29.18.22.1.17.23.23.31.53.11.21v.14s.21.29.21.29l-.05.13.11.29-.06.18-.02.2-.07.2-.08.22-.3.59-.18.15-.23.07-.25.05-.17.05-.24-.05-.25-.11-.47-.27-.09-.11-.11-.12-.3-.38-.16-.21-.1-.14-.14-.2-.16-.21-.14-.2-.02-.09-.1-.17-.22-.25-.1-.18-.14-.17-.41-.59-.1-.14-.36-.45v-.11s-.19-.22-.19-.22l-.19-.2-.03-.13-.22-.25-.14-.2-.06-.12-.09-.16-.14-.2-1.04-1.37-.08-.16-.12-.19-.18-.22-.06-.12-.2-.24-.1-.18-.03-.12-.29-.27-.12-.19-.03-.13-1.39-1.92-.13-.17-.11-.18-.06-.15-.22-.25-.15-.18v-.11s-.37-.45-.37-.45l-.06-.12-.16-.21-.19-.34-.13-.22-.21-.27.02-.15-.09-.24-.14-.28v-.21s.03-.47.03-.47l.18-.16.14-.42v-.03s.37-.33.37-.33l.14-.18.08-.22.12-.19.1-.2.14-.18.07-.25.14-.18.18-.16.17-.43.12-.19.26-.11v-.26s.17-.17.17-.17l.22-.13.15-.15.28-.09.19-.12.23-.1.16-.12.19-.09h.28s.18-.08.18-.08l.16-.08.32.04.16-.03.29.05h.17s.18,0,.18,0l.21.05.27.12.14.03.27.12.19.12.24.13ZM96.86,175.94l-.16-.08-.27-.09h-.23s-.15.05-.15.05l-.24.04-.19.09-.12.19-.32.34-.25.38-.15.15-.14.18-.16.25.25.32.1.18.14.2,1.01,1.46.06.15.15.18.12.19.24.26.2.32c.14.2.3.21.47.03l.19-.2.17-.22v-.28s.25-.37.25-.37l.08-.22.25-.38v-.27s.11-.42.11-.42l-.13-.3-.04-.24.02-.2-.04-.19-.2-.45-.28-.4-.19-.2-.07-.1-.16-.13-.33-.21Z"/>
        <path class="cls-2" d="M104.02,159.46l.27.17.15.18.23.26.07.18.07.23.03.21.04.27-.13.16-.03.25-.07.23-.38.59-.02.25-.16.17-.06.23-.24.12-.1.2-.14.18v.3l-.14.18-.12.19-.16.17-.14.18-.12.19-.08.22-.18.15-.03.25-.26.11-.03.25-.16.17-.04.24-.2.14-.12.19-.14.18c-.12.16-.12.32,0,.48l.14.17.05.14.2.24.1.14.18.22.81,1.14.12.19.08.13.16.21.07.15.11.15c.08.1.16.15.24.14.08-.01.16-.06.24-.16l.12-.14v-.27s.2-.14.2-.14l.1-.2.12-.19.08-.22.12-.19.14-.18.08-.22.24-.12.06-.23.1-.21.26-.37.18-.16.08-.22.19-.12.24-.08.24-.03h.2s.23.05.23.05l.5.32.04.11.14.2.19.26-.03.17.17.29-.03.22-.09.18.03.29-.16.17-.08.22-.26.4-.08.22-.28.36-.23.36-.1.2-.04.24-.14.18-.16.17-.06.23-.2.14-.1.2-.11.17-.06.23-.15.28c-.11.17-.1.32.02.47l.32.42.05.14.21.22.86,1.28.18.22.06.12.22.25.12.19.32.5.2.29c.16.23.32.22.47-.02l.41-.6.22-.13.05-.24.1-.2.32-.33v-.27s.24-.12.24-.12l.04-.24.2-.14.06-.23.1-.2.14-.18.12-.19.07-.23.18-.15.1-.2.18-.15.23-.4.08-.22.3-.08.11-.17.19-.12h.28s.25.01.25.01l.17.03.48.31.06.12.09.16.11.21.18.3.07.23-.09.18.02.26-.12.19v.28s-.09.2-.09.2l-.3.38-.12.19-.03.25-.22.13-.16.17-.1.2v.26s-.26.11-.26.11l-.13.46-.2.14-.04.24-.22.13v.26s-.21.14-.21.14l-.08.25-.14.18-.32.34-.12.19-.03.25-.36.31-.03.25-.2.14-.03.25-.16.17-.07.23-.14.18-.18.15v.05s-.24.37-.24.37l-.14.18-.31.07-.06.18-.29.03-.3-.03-.13.03-.25-.11-.4-.23-.19-.17-.13-.14-.26-.36-.14-.2-.16-.18-.04-.14-.14-.2-.07-.15-.32-.39-.08-.16-.2-.24-.05-.14-.23-.23-.07-.15-.62-.8-.14-.2-.07-.15-.12-.19-.13-.17-.2-.24v-.11s-.29-.29-.29-.29l-.13-.17-.04-.14-.14-.2-.16-.21-.87-1.26-.1-.17-.26-.27-.14-.28-.2-.24-.1-.17-.06-.15-.16-.18-1.25-1.72-.2-.24-.06-.15-.12-.19-.1-.17-.46-.59-.07-.15-.21-.22-.03-.13-.27-.39-.11-.2-.23-.28-.04-.19.03-.17-.1-.26.02-.2v-.23s0-.26,0-.26l.14-.18.19-.25v-.13s.15-.23.15-.23l.26-.32.03-.25.1-.2.22-.13.04-.24.14-.18.2-.14v-.28s.15-.17.15-.17l.22-.13.03-.25.16-.17.1-.2.24-.38.06-.23.12-.19.16-.17.22-.13.04-.24.18-.16v-.26s.17-.17.17-.17l.18-.16.16-.17.03-.25.2-.14.13-.46.26-.11.1-.2.24-.09.13-.16.35.04h.19s.25.07.25.07Z"/>
        <path class="cls-2" d="M112.51,150.98l.38.24.16.13.12.1.22.17.18.14.13.14.11.12.21.22.09.11.19.21.12.15.1.18.17.19.21.35.27.25.07.15.21.35.19.2.12.19.2.24v.1s.2.22.2.22l.18.22.03.12.14.2.25.24.33.54.18.31.28.29.12.19.06.12.09.16.16.21.18.22.08.13.24.26v.1s.15.21.15.21l.13.17.22.25.27.39.16.18.12.19.15.31.17.19.06.15.12.19.25.24.15.31.23.28.02.15.12.24.03.21.09.24.02.23v.23s-.09.2-.09.2l-.04.24-.21.41-.23.15-.15.15-.23.07h-.32s-.19.03-.19.03h-.18s-.24-.11-.24-.11l-.51-.3-.11-.12-.17-.19-.19-.34-.29-.4-.2-.24-.15-.18-.08-.16-.22-.25-.07-.15-.1-.14-.26-.27-.07-.15-.1-.17-.16-.18-.09-.16-.1-.17-.18-.22-.21-.22v-.11s-.17-.21-.17-.21l-.26-.35-.11-.12c-.15-.19-.31-.18-.46,0l-.2.28-.24.38-.07.23-.14.18-.12.19-.06.23-.16.17-.12.19-.2.14-.12.19-.1.2-.32.5c-.1.15-.1.31,0,.46l.21.35.24.26.14.17.1.18.16.21,1.42,2.04.05.14.17.19.08.16.39.57.27.25.05.14.3.41.15.23-.02.12.19.29.03.21.09.24-.02.2-.03.22-.09.18-.05.24-.2.41-.19.17-.17.13-.31.02-.24.04-.23.02-.22-.03-.2-.07-.41-.24-.07-.1-.25-.24-.24-.34-.27-.42-.23-.23-.12-.19v-.11s-.27-.27-.27-.27l-.04-.11-1.61-2.25-.1-.17-.18-.19-.14-.2-.1-.17-.07-.15-.15-.18-.14-.2-.18-.22-.15-.18-.03-.13-.22-.25-.14-.2-.27-.47-.21-.22-.12-.19-.2-.24-.07-.15-.14-.17-.12-.19-.2-.24-.05-.14-.19-.2-.1-.17-.18-.22-.1-.14-.13-.19-.06-.15-.18-.22-.19-.2-.25-.37-.06-.15-.07-.18-.11-.21-.13-.22-.1-.22v-.14s-.23-.3-.23-.3l.07-.15-.16-.26-.03-.21-.08-.24.08-.16-.16-.29.08-.17v-.21s-.13-.3-.13-.3l.05-.21v-.23s.09-.16.09-.16l-.04-.27.07-.2v-.24s.1-.2.1-.2l-.06-.28.1-.2.15-.15-.03-.29.14-.18.15-.15.03-.25.08-.22.2-.14.25-.38.03-.25.18-.15.08-.22.26-.1.1-.2.17-.13.22-.13.22-.1.2-.11.13-.16.17-.1.27-.04.17-.1h.28s.14-.11.14-.11l.21-.03.23-.02.31.06.18-.02.34.11.21.05h.13s.27.12.27.12l.2.07.17.08.28.15ZM112.88,157.4l.08-.22.16-.17.16-.3c.09-.19.08-.36-.04-.49l-.24-.26-.12-.19-.19-.34-.12-.15-.16-.21-.24-.34-.17-.19-.1-.14-.18-.14-.26-.22-.2-.16-.1-.06-.24-.13-.21-.08-.31-.11-.31.07h-.33s-.23.07-.23.07l-.04.22-.29.08-.16.41-.06.23-.15.15v.49s-.05.18-.05.18v.25s.09.24.09.24l.02.23.04.19.07.23.12.24.08.21.02.15.19.25.16.21.05.14.34.43.03.13.23.23.1.17.18.22.14.2.07.15.17.19.08.16c.06.1.14.15.22.17.1.01.19-.04.26-.16l.1-.15.1-.2.12-.19.07-.23.14-.18.15-.15.14-.18v-.26s.15-.18.15-.18l.1-.2.14-.18.22-.13Z"/>
        <path class="cls-2" d="M117.3,138.59l.35.22.27.25.08.16.15.23v.2s.1.24.1.24l-.09.18v.25s.04.29.04.29l-.2.14-.04.24-.16.46-.32.33-.08.22-.31.45c-.11.18-.12.34,0,.48l.22.33.12.19.29.48.14.2.19.2.12.19.14.2.07.15.15.18.43.6.16.21.13.17.1.17.18.22.07.15.8,1.11.08.16.22.33.28.29v.11s.15.2.15.2l.32.39.06.15.2.24.93,1.3.19.34.1.17.25.24.15.31.14.2.13.17.2.24.12.19.16.21.16.29.18.22.1.17.23.23.31.52.11.2v.15s.21.29.21.29l-.05.13.11.29-.06.18-.02.2-.07.2-.08.22-.3.59-.18.15-.23.07-.25.05-.17.05-.24-.05-.25-.11-.47-.28-.09-.11-.11-.12-.3-.38-.16-.21-.1-.14-.14-.2-.16-.21-.14-.2-.02-.09-.1-.17-.22-.25-.1-.17-.14-.17-.14-.2-.72-.98v-.11s-.19-.22-.19-.22l-.19-.2-.03-.12-.22-.25-.14-.2-.06-.12-.08-.16-.14-.2-1.04-1.37-.09-.16-.12-.19-.18-.22-.06-.12-.2-.24-.1-.18-.03-.12-.92-1.3-.16-.21-.1-.17-.25-.24-.12-.19-.16-.21-.1-.17-.42-.57c-.17-.24-.33-.24-.48,0l-.39.56v.27s-.13.19-.13.19l-.54.47-.11.17-.15.12h-.25s-.35-.08-.35-.08h-.06s-.44-.27-.44-.27l-.17-.16-.15-.18-.14-.2-.02-.17-.12-.24.03-.17.04-.19v-.23s0-.25,0-.25l.13-.16.15-.45.12-.19.08-.22.26-.1v-.28s.15-.17.15-.17l.08-.22.26-.11.1-.2.12-.19.14-.18v-.28s.23-.12.23-.12l.04-.24.12-.19.14-.13.06-.23.16-.12v-.1s.17-.17.17-.17l.12-.19.08-.22.2-.14v-.27s.21-.14.21-.14l.12-.19.17-.43.14-.18.16-.17.21-.41.24-.12.14-.18.17-.13.28-.06.24-.04.12-.06.27.09Z"/>
        <path class="cls-2" d="M124.08,128.11l.27.17.15.18.23.26.07.18.07.23.03.21.04.27-.13.16-.03.25-.06.23-.38.59-.03.25-.16.17-.06.23-.24.12-.1.2-.14.18v.3l-.14.18-.12.19-.16.17-.14.18-.12.19-.08.22-.18.15-.03.25-.26.11-.03.25-.16.17-.05.24-.2.14-.12.19-.14.18c-.12.16-.12.32,0,.48l.14.17.05.14.2.24.1.14.18.22.81,1.14.12.19.08.13.16.21.06.15.12.16c.08.1.16.15.24.14.08-.01.16-.06.24-.16l.12-.14v-.27s.2-.14.2-.14l.1-.2.12-.19.08-.22.12-.19.14-.18.08-.22.24-.12.06-.23.1-.2.26-.37.18-.15.08-.22.19-.12.24-.09.24-.03h.2s.23.06.23.06l.5.32.04.11.14.2.19.26-.03.17.17.29-.03.22-.09.18.03.29-.16.17-.08.22-.26.4-.08.22-.28.36-.23.36-.1.2-.04.24-.14.18-.16.17-.06.23-.2.14-.1.2-.11.17-.06.23-.15.28c-.11.17-.1.32.02.47l.32.42.05.14.21.22.86,1.28.18.22.06.12.22.25.12.19.32.5.2.29c.16.23.32.22.47-.02l.41-.6.22-.13.04-.24.1-.2.32-.33v-.27s.24-.12.24-.12l.04-.24.2-.14.06-.23.1-.2.14-.18.12-.19.07-.23.18-.15.1-.2.18-.16.22-.4.08-.22.3-.08.11-.17.19-.12h.28s.25.02.25.02l.17.03.48.31.06.12.09.16.11.2.18.31.07.23-.09.18.02.26-.12.19v.28s-.09.2-.09.2l-.3.38-.12.19-.03.25-.22.13-.16.17-.1.2v.27s-.27.11-.27.11l-.13.46-.2.14-.04.24-.22.13v.26s-.21.14-.21.14l-.08.25-.14.18-.32.33-.12.19-.03.25-.36.31-.03.25-.2.14-.03.25-.16.17-.07.23-.14.18-.18.15v.05s-.24.36-.24.36l-.14.18-.31.07-.06.18-.29.03-.3-.03-.13.03-.25-.11-.4-.23-.19-.17-.13-.14-.26-.35-.14-.2-.16-.18-.05-.14-.14-.2-.07-.15-.32-.39-.08-.16-.2-.24-.05-.14-.23-.23-.07-.15-.62-.8-.14-.2-.06-.15-.12-.19-.14-.17-.2-.23v-.11s-.29-.28-.29-.28l-.13-.17-.04-.14-.14-.2-.16-.21-.87-1.26-.1-.17-.26-.27-.14-.28-.2-.23-.1-.17-.07-.15-.16-.18-1.25-1.72-.2-.24-.07-.15-.12-.19-.1-.18-.46-.59-.07-.15-.21-.22-.03-.13-.27-.39-.11-.2-.23-.28-.04-.19.03-.17-.1-.26.02-.2v-.23s0-.26,0-.26l.14-.18.19-.26v-.13s.15-.23.15-.23l.26-.32.03-.25.1-.2.22-.13.04-.24.14-.18.2-.14v-.28s.15-.17.15-.17l.22-.13.03-.25.16-.17.1-.2.24-.38.06-.23.12-.19.16-.17.22-.13.05-.24.18-.15v-.27s.17-.17.17-.17l.18-.15.16-.17.03-.25.2-.14.13-.46.26-.11.1-.2.24-.09.13-.16.35.03h.19s.25.07.25.07Z"/>
      </g>
    </g>
  </g>
</svg>