<?xml version="1.0" encoding="UTF-8"?>
<svg id="Layer_2" data-name="Layer 2" xmlns="http://www.w3.org/2000/svg" viewBox="0 0 140.3 115.34">
  <defs>
    <style>
      .cls-1 {
        fill: #fff;
      }

      .cls-2 {
        fill: #331513;
      }

      .cls-3 {
        fill: #fcbd12;
      }

      .cls-4 {
        fill: #c66b49;
      }

      .cls-5 {
        fill: #311514;
      }
    </style>
  </defs>
  <g id="Layer_3" data-name="Layer 3">
    <g>
      <g>
        <path class="cls-4" d="M108.81,73.33c-.05,4.36-.13,8.24-.54,12.05-.24,2.31-.61,4.6-1.16,6.95-.22.95-.48,1.91-.77,2.88-2.47,9.15-9.86,15.4-19.71,16.7-12.93,1.85-35.66-2.18-48.68-15.8-1.27-1.33-2.03-2.92-2.34-3.54-.25-.38-.19-.65-.54-.58-5.8,3.18-14.7,4.2-18.79-5.28-1.72-4.18-2.85-9.48-.61-13.68.73-1.25,1.72-2.15,2.86-2.76,3.03-1.62,7.07-1.25,9.8-.31.44.1.59.06.62-.34-.03-.23-.05-.55-.06-.94-.06-2.22.25-6.81.91-11.42.48-3.34,1.14-6.67,1.98-9.12,4.01-17.77,49.03-41.4,71.96-10.29,1.47,1.98,3.16,4.71,4.11,6.62v.03c.24.47.3.82.34,1.3,0,.06,0,.13,0,.19.11,2.99.27,7,.4,11.27.07,2.45.14,4.97.18,7.44.05,3.07.07,6.04.03,8.62Z"/>
        <path class="cls-5" d="M79.98,115.12c-14.46,0-32.85-5.42-44-17.1-.8-.84-1.42-1.73-1.89-2.5-4.08,1.67-8.28,1.94-11.82.73-3.73-1.28-6.67-4.2-8.5-8.43-1.81-4.41-3.35-10.74-.51-16.06l.05-.09c.94-1.63,2.27-2.9,3.94-3.8,2.78-1.49,6.08-1.67,8.93-1.23.1-2.71.43-6.39.91-9.74.56-3.93,1.25-7.12,2.06-9.49,2.61-11.07,18.16-22.87,34.77-26.36,9.98-2.09,28.72-2.91,42.06,15.19,1.55,2.09,3.35,4.99,4.36,7.03l.04.09c.42.88.52,1.61.57,2.27,0,.08,0,.14,0,.21l.04,1.15c.11,2.86.24,6.43.36,10.21.08,2.81.14,5.26.18,7.48.06,3.3.07,6.23.03,8.7-.06,4.42-.14,8.39-.55,12.31-.27,2.56-.66,4.94-1.22,7.29-.23.98-.5,1.99-.8,3-2.77,10.24-10.99,17.22-21.99,18.68-2.19.31-4.55.47-7.02.47ZM37.97,91.16l.15.29c.29.59.9,1.81,1.82,2.77,12.53,13.11,34.62,16.65,46.3,14.98,8.76-1.16,15.27-6.66,17.44-14.7l.02-.06c.27-.92.52-1.84.73-2.73.5-2.12.86-4.28,1.1-6.61.39-3.69.47-7.53.52-11.8h0c.04-2.42.03-5.29-.03-8.53-.04-2.2-.1-4.62-.18-7.41-.12-3.76-.25-7.31-.36-10.16l-.04-1.07s0-.09,0-.14c-.01-.2-.02-.21-.05-.29l-.02-.05c-.87-1.75-2.47-4.33-3.83-6.15-11.52-15.63-27.82-14.9-36.51-13.08-16.03,3.36-28.75,14.26-30.57,22.34l-.08.29c-.7,2.03-1.34,5.01-1.86,8.61-.65,4.53-.93,8.94-.88,10.96,0,.41.03.59.04.62l.04.28-.02.28c-.09,1.33-.81,2.05-1.23,2.37-.76.56-1.69.72-2.76.47l-.26-.08c-2.23-.76-5.45-1.02-7.61.14-.75.4-1.33.95-1.75,1.67-1.8,3.44-.59,8.04.75,11.3,1.2,2.77,2.96,4.59,5.22,5.37,2.71.93,6.34.39,9.71-1.46l.4-.22.45-.08c1.15-.2,2.63.18,3.37,1.87Z"/>
      </g>
      <path class="cls-1" d="M76.44,107.33c7.86,0,13.4-6.17,13.4-8.34,0-4.63-14.63-5.81-20.28-5.81-5.43,0-1.38,14.15,6.87,14.15Z"/>
      <path class="cls-5" d="M118.63,68.89h0c0-.07,0-.13,0-.19-.01-.8-.04-1.53-.1-2.19h0c-.22-5.16-4.47-9.23-9.63-9.23H29.81c-.66,4.61-.96,9.2-.91,11.42h10.69c.03,1.82.19,3.68.32,5.3.88,12.04,11.04,21.42,23.21,18.72,6.22-1.34,11.34-6.27,13.6-12.11,1.4-3.64,1.67-7.66,1.75-11.54,0-.12,0-.24,0-.36h1.3c-.03,2.12.18,4.35.32,6.25.88,12.04,11.04,21.42,23.21,18.72,1.33-.28,2.61-.74,3.82-1.32,4.46-2.16,8-6.2,9.78-10.79,1.4-3.64,1.67-7.66,1.75-11.54,0-.39,0-.76-.01-1.12ZM72.09,79.61c-1.67,4.31-5.45,7.96-10.05,8.95-8.99,2-16.5-4.93-17.15-13.83-.14-1.84-.35-4.09-.17-6.03.09-.96.27-1.84.61-2.55v-.03c.96-1.71,3.29-1.33,5.62-1.42,2.96,0,6.01,0,9.31,0,3.02,0,5.8-.01,8.56.01,3.53-.08,4.3,1.2,4.48,3.98.05.7.06,1.5.07,2.39-.06,2.86-.26,5.84-1.29,8.52ZM112.27,79.61c-.85,2.19-2.23,4.2-4,5.78-1.72,1.55-3.78,2.68-6.05,3.17-8.99,2-16.5-4.93-17.15-13.83-.14-1.84-.35-4.09-.17-6.03.09-.96.27-1.84.61-2.55v-.03c.96-1.71,3.29-1.33,5.62-1.42,2.97,0,6.01,0,9.32,0,2.94,0,5.65-.01,8.33.01h.22c3.53-.08,4.3,1.2,4.48,3.98.05.7.06,1.5.07,2.39-.06,2.86-.26,5.84-1.29,8.52Z"/>
      <path class="cls-2" d="M111.05,29s3.2-4.76,2.13-6.25c-1.07-1.49-5.51-3.85-9.38-4.13,0,0,1.86-8.85-2.7-11.04-4.57-2.19-11.46.85-13.76,2.06,0,0-2.61-6.61-6.16-7.02-.97-.11-2.07.29-3.16.93-.8-1.15-1.85-2.04-3.25-2.4-5.81-1.48-13.1,3.65-15.5,5.58,0,0-4.56-7.06-8.77-6.72-4.21.34-8.89,9.12-8.89,9.12,0,0-7.41-3.65-10.14-1.03-2.39,2.29-2.69,6.4-2.5,8.16-.11.23-.22.46-.32.69-.71,1.64-1.16,3.19-1.38,4.11,0,0-2.84-1.57-5.51-2.04-1.35-.24-2.66-.19-3.53.49-.67.52-1.08,1.49-1.32,2.63-.32,1.53-.35,3.38-.28,4.92.08,1.8.28,3.2.28,3.2,0,0-6.64.26-7.13,3.42-.5,3.16,1.97,7.05,2.76,7.79,0,0-7.55,7.53-4.73,11.31,2.82,3.78,7.24,4.81,7.24,4.81,0,0-1.17,8.18,1.43,11.12.62.7,1.32,1.21,2.05,1.57,1.07.54,2.2.77,3.21.82,1.08.05,2.74.58,5,.18.49-.09,1.35-.11,1.69-.47.42-.46.86-1.26,1.26-2.12.23-.48.44-.97.64-1.43l6.08-5.62.73-.68c.49-.45.88-1,1.14-1.61l.91-2.08,3.61-8.27c.61-1.4,1.83-2.4,3.28-2.75.18-.04.36-.08.55-.1.19-.03.38-.04.57-.04,0,0,58.63.39,61-.12.02,0,.04-.01.05-.01,2.34-.93,10.13-4.39,10.35-6.16.36-2.78-3.38-8.13-7.55-10.83ZM29.09,66.31h0s0,0,0,0h0Z"/>
      <rect class="cls-5" x="51.83" y="69.16" width="7.19" height="13.09" rx="3.6" ry="3.6"/>
      <rect class="cls-5" x="89.84" y="69.16" width="7.19" height="13.09" rx="3.6" ry="3.6"/>
      <path class="cls-3" d="M14.33,105.37c.09.73-1.58,2-2.06,2.72-.9,1.31-1.25,2.72-1.43,4.27-.11.96.34,2.48-.91,2.9-1.42.47-2.36-1.62-3.35-2.52-1.03-.93-2.29-1.63-3.66-1.93-1.14-.25-3.03.08-2.9-1.68.05-.59,1.54-1.77,2-2.38.8-1.04,1.36-2.54,1.54-3.85.11-.77-.08-2.52.55-2.96,1.65-1.17,2.36.78,3.33,1.73.82.81,2.16,1.62,3.26,1.98.77.25,2.56.27,2.99.51.38.21.58.79.64,1.2Z"/>
      <g>
        <path class="cls-5" d="M128.97,19.5c1.45.21,1.82,1.48,1.13,2.7-.38.67-4.26,5.02-4.92,5.57-1.63,1.34-3.52-.45-2.59-2.09.4-.71,4.39-5.18,5.09-5.74.42-.34.72-.52,1.29-.43Z"/>
        <path class="cls-5" d="M138.49,37.47c2.14.22,2.42,2.57.66,3.24-.58.22-6.9,1.17-7.47,1.11-1.89-.2-2.15-2.2-.64-3.19l7.45-1.16Z"/>
        <path class="cls-5" d="M134.87,28.03c1.74.09,2.39,1.93.96,3.07-.69.55-5.28,2.87-6.17,3.15-1.99.63-3.25-1.01-2-2.66,1.4-.49,6.07-3.63,7.21-3.56Z"/>
      </g>
      <path class="cls-5" d="M13.68,104.17c-.43-.23-2.21-.25-2.99-.51-1.09-.36-2.44-1.17-3.26-1.98-.96-.95-1.68-2.9-3.33-1.73-.63.44-.44,2.19-.55,2.96-.18,1.31-.74,2.8-1.54,3.85-.46.61-1.95,1.78-2,2.38-.13,1.76,1.76,1.42,2.9,1.68,1.36.3,2.62,1,3.66,1.93.98.89,1.93,2.99,3.35,2.52,1.25-.42.79-1.94.91-2.9.18-1.55.53-2.96,1.43-4.27.48-.72,2.16-1.99,2.06-2.72-.06-.41-.26-.99-.64-1.2ZM8.1,109.9l-3.3-1.63,1.58-3.45c.98.61,2.14,1.36,3.28,1.56l-1.56,3.52Z"/>
    </g>
  </g>
</svg>