<?xml version="1.0" encoding="UTF-8"?>
<svg xmlns="http://www.w3.org/2000/svg" viewBox="0 0 553.17 388.4">
  <defs>
    <style>
      .cls-1 {
        isolation: isolate;
      }

      .cls-2 {
        fill: #f04923;
      }

      .cls-3 {
        mix-blend-mode: overlay;
      }
    </style>
  </defs>
  <g class="cls-1">
    <g id="Layer_2" data-name="Layer 2">
      <g id="Layer_5" data-name="Layer 5">
        <g class="cls-3">
          <path class="cls-2" d="M27.08,262.22c5.45,0,9.64,1.94,12.55,5.82,2.91,3.88,5.26,8.05,7.05,12.53,1.79,4.47,3.43,8.66,4.94,12.53,1.5,3.88,3.57,5.82,6.21,5.82,4.51,0,8.08-1.49,10.72-4.47,2.63-2.98,3.95-8.05,3.95-15.21,0-11.03-1.79-19.84-5.36-26.4-3.57-6.56-8.04-12.31-13.4-17.23-5.36-4.92-11.19-9.85-17.49-14.77-6.3-4.92-12.13-11.19-17.49-18.79-5.36-7.61-9.83-17.37-13.4-29.31-3.57-11.93-5.36-27.59-5.36-46.98,0-14.91,1.69-29.46,5.08-43.63,3.38-14.17,8.27-26.85,14.67-38.04,6.39-11.19,14.2-20.21,23.41-27.07,9.21-6.86,19.56-10.29,31.03-10.29s21.34,3.58,29.62,10.74c8.27,7.16,15.04,16.41,20.31,27.74,5.26,11.34,9.12,23.94,11.57,37.81,2.44,13.87,3.67,27.37,3.67,40.5,0,8.95-.8,16.63-2.4,23.04-1.6,6.42-3.72,11.71-6.35,15.88-2.64,4.18-5.64,7.31-9.03,9.4-3.39,2.09-6.87,3.13-10.44,3.13-4.51,0-8.09-2.68-10.72-8.05-2.64-5.37-5.03-11.33-7.19-17.9-2.16-6.56-4.23-12.53-6.21-17.9-1.97-5.37-4.56-8.05-7.76-8.05s-6.02,2.76-8.46,8.28c-2.45,5.52-3.67,11.86-3.67,19.02,0,8.05,1.69,15.44,5.08,22.15,3.38,6.71,7.62,13.35,12.69,19.91,5.08,6.56,10.53,13.28,16.36,20.14,5.83,6.87,11.28,14.47,16.36,22.82,5.08,8.36,9.31,17.61,12.69,27.74,3.39,10.14,5.08,21.78,5.08,34.9,0,11.63-1.55,22.67-4.65,33.11-3.1,10.45-7.57,19.62-13.4,27.52-5.83,7.9-12.79,14.16-20.87,18.79-8.09,4.62-17.11,6.94-27.08,6.94s-18.81-1.42-27.08-4.25c-8.28-2.84-15.37-6.94-21.3-12.31-5.92-5.37-10.53-11.93-13.82-19.69-3.29-7.75-4.94-16.56-4.94-26.4,0-8.35.61-16.11,1.83-23.27,1.22-7.16,2.96-13.42,5.22-18.79,2.26-5.37,4.89-9.62,7.9-12.75,3.01-3.13,6.3-4.7,9.87-4.7Z"/>
          <path class="cls-2" d="M157.4,68.46c0-11.33,1.36-20.73,4.09-28.19,2.72-7.45,6.35-13.49,10.86-18.12,4.51-4.62,9.63-7.9,15.37-9.84,5.73-1.94,11.61-2.91,17.63-2.91,12.98,0,22.85,2.91,29.62,8.73s11.66,13.05,14.67,21.7c3.01,8.66,4.84,18.12,5.5,28.41.66,10.29,1.31,19.77,1.97,28.41.66,8.66,1.97,15.89,3.95,21.7,1.97,5.82,5.88,8.73,11.71,8.73,1.13,0,2.07-.29,2.82-.9,5.64-3.58,9.92-9.24,12.84-17,2.91-7.75,5.31-16.26,7.19-25.51,1.88-9.24,3.53-18.86,4.94-28.86,1.41-9.99,3.43-19.02,6.07-27.07,2.63-8.05,6.11-14.69,10.44-19.91,4.32-5.22,10.34-7.83,18.05-7.83,5.45,0,10.95,1.64,16.5,4.92,5.54,3.29,10.67,7.76,15.37,13.42,4.7,5.67,8.51,12.38,11.42,20.14,2.91,7.76,4.37,16.26,4.37,25.51,0,8.36-1.37,15.82-4.09,22.37-2.73,6.57-5.74,13.58-9.03,21.03-3.29,7.46-6.3,15.74-9.03,24.83-2.73,9.1-4.09,20.36-4.09,33.78s1.41,26.18,4.23,37.36c2.82,11.19,5.97,22.08,9.45,32.67,3.48,10.59,6.63,21.11,9.45,31.55,2.82,10.44,4.23,21.78,4.23,34.01,0,9.25-.99,18.35-2.96,27.3s-4.8,16.86-8.46,23.72c-3.67,6.86-8.09,12.38-13.26,16.56-5.17,4.17-10.86,6.26-17.07,6.26-5.08,0-9.41-1.5-12.98-4.47-3.58-2.99-6.49-6.94-8.75-11.86-2.26-4.92-3.85-10.66-4.8-17.23-.94-6.56-1.41-13.42-1.41-20.58s.37-14.16,1.13-21.03c.75-6.86,1.55-13.72,2.4-20.58.85-6.86,1.6-13.72,2.26-20.58.66-6.86.99-13.87.99-21.03,0-3.58-.28-8.43-.85-14.54-.57-6.11-1.51-12.08-2.82-17.9-1.32-5.82-3.01-10.89-5.08-15.21-2.07-4.32-4.61-6.49-7.62-6.49-3.76,0-6.25,4.33-7.48,12.98-1.22,8.66-1.83,19.24-1.83,31.77,0,11.04-.1,21.93-.28,32.67-.19,10.74-.85,20.36-1.97,28.86-1.13,8.5-2.92,15.37-5.36,20.58-2.45,5.22-6.02,7.83-10.72,7.83-13.17,0-22.38-5.07-27.64-15.21-5.27-10.14-7.9-23.27-7.9-39.38,0-3.28.09-8.8.28-16.56.19-7.75.04-15.58-.42-23.49-.47-7.9-1.41-14.91-2.82-21.03-1.41-6.11-3.81-9.17-7.19-9.17-2.07,0-3.72,1.2-4.94,3.58-1.23,2.39-2.16,5.22-2.82,8.5-.66,3.29-1.08,6.64-1.27,10.07-.19,3.43-.28,6.34-.28,8.73,0,7.76.37,15.44,1.13,23.04.75,7.61,1.55,15.14,2.4,22.6.85,7.46,1.64,14.99,2.4,22.6.75,7.61,1.13,15.29,1.13,23.04,0,7.16-.52,14.84-1.55,23.04-1.04,8.21-2.73,15.73-5.08,22.6-2.35,6.86-5.41,12.53-9.17,17-3.76,4.47-8.46,6.71-14.1,6.71-4.14,0-8.37-1.5-12.69-4.47-4.33-2.99-8.18-7.01-11.57-12.08-3.38-5.08-6.16-10.89-8.32-17.45-2.16-6.56-3.24-13.27-3.24-20.14,0-8.05,1.13-16.33,3.38-24.83,2.26-8.5,4.7-17.37,7.33-26.62,2.63-9.24,5.08-19.16,7.33-29.76,2.26-10.59,3.39-22,3.39-34.23,0-14.91-1.41-29.09-4.23-42.51-2.82-13.42-5.97-26.25-9.45-38.48-3.48-12.23-6.63-23.86-9.45-34.9-2.82-11.03-4.23-21.48-4.23-31.32Z"/>
          <path class="cls-2" d="M458.39,7.61h16.64c6.39,0,13.12.38,20.17,1.12,7.05.75,14.06,2.24,21.02,4.47,6.95,2.24,13.16,5.52,18.62,9.84,5.45,4.33,9.87,10,13.26,17,3.38,7.01,5.08,15.88,5.08,26.62,0,17.3-1.04,30.58-3.1,39.82-2.07,9.25-4.8,15.88-8.18,19.91-3.38,4.03-7.19,6.26-11.42,6.71-4.23.45-8.42.67-12.55.67-5.46,0-9.12,4.4-11,13.2-1.88,8.8-2.82,20.66-2.82,35.57,0,12.53.42,24.24,1.27,35.13.85,10.89,1.79,21.63,2.82,32.22,1.03,10.59,1.98,21.41,2.82,32.44.85,11.04,1.27,22.82,1.27,35.35s-.42,23.2-1.27,31.99c-.85,8.8-2.4,16.11-4.65,21.93-2.26,5.82-5.46,10.07-9.59,12.75-4.14,2.68-9.5,4.03-16.08,4.03-8.28,0-15-1.87-20.17-5.59-5.17-3.73-9.22-9.25-12.13-16.56-2.92-7.31-4.89-16.33-5.92-27.07-1.04-10.74-1.55-22.97-1.55-36.69,0-19.69.99-39.6,2.96-59.74,1.97-20.14,2.96-40.2,2.96-60.18,0-6.26-.05-12.38-.14-18.35-.1-5.96-.47-11.19-1.13-15.66-.66-4.47-1.65-8.12-2.96-10.96-1.32-2.83-3.29-4.25-5.92-4.25-2.07,0-4.09.08-6.06.22-1.98.15-4,.22-6.06.22-9.03,0-15.23-3.73-18.62-11.19-3.38-7.45-5.08-17.45-5.08-29.98,0-17.9.8-32.44,2.4-43.63,1.6-11.19,4.51-19.84,8.75-25.95,4.23-6.11,10.06-10.21,17.49-12.31,7.43-2.08,17.07-3.13,28.91-3.13Z"/>
        </g>
      </g>
    </g>
  </g>
</svg>