<?xml version="1.0" encoding="UTF-8"?>
<svg id="Layer_2" data-name="Layer 2" xmlns="http://www.w3.org/2000/svg" viewBox="0 0 130.87 78.67">
  <defs>
    <style>
      .cls-1 {
        fill: #fff;
      }

      .cls-2 {
        fill: none;
      }

      .cls-3 {
        fill: #311514;
      }
    </style>
  </defs>
  <g id="Layer_3" data-name="Layer 3">
    <g>
      <path class="cls-2" d="M42,55.68c.02.05.04.1.06.14-.02-.05-.04-.1-.06-.15,0,0,0,0,0,0Z"/>
      <path class="cls-2" d="M44.46,45.2c-.15.15-.31.29-.45.45,0,0,0,0,0,0,.15-.16.31-.32.47-.47,0,0-.01.01-.02.02Z"/>
      <path class="cls-2" d="M45.32,44.5s0,0,0,0c.03-.02.06-.04.09-.06-.03.02-.06.03-.08.05Z"/>
      <path class="cls-2" d="M37.8,62.8c-.32.18-.74.27-1.26.27-.24,0-.47-.02-.69-.05.23.04.46.06.69.06.52,0,.94-.09,1.26-.27.2-.11.36-.26.5-.42-.14.16-.31.31-.51.42Z"/>
      <path class="cls-2" d="M45.23,59.31c-.22-.13-.43-.27-.64-.43.21.15.42.29.64.43Z"/>
      <path class="cls-2" d="M50.44,65.03s-.04.1-.07.15h0s-.01.03-.02.04c.04-.08.08-.17.11-.26,0,.02-.01.05-.02.07Z"/>
      <path class="cls-2" d="M50.51,64.8s0-.03,0-.05c0,.02,0,.03,0,.05Z"/>
      <path class="cls-2" d="M57.85,55.12s0-.01.01-.02c0,0,0,.01-.01.02,0,0,0,0,0,0Z"/>
      <path class="cls-2" d="M57.41,62.46c-.35-.55-.73-1.07-1.19-1.55-.25-.25-.51-.49-.77-.73.26.24.52.48.77.73.46.48.84,1,1.19,1.55Z"/>
      <path class="cls-2" d="M42.63,64.37s0,0,0,0c.09-.14.2-.25.3-.37-.1.12-.21.23-.3.37Z"/>
      <path class="cls-2" d="M51.58,57.03c-.4-.37-.77-.74-1.07-1.11-.09-.12-.18-.24-.25-.37-.03-.05-.06-.1-.08-.15.09.18.2.35.33.52.3.37.67.74,1.07,1.11Z"/>
      <path class="cls-2" d="M49.98,54.89c.02.08.04.15.07.23-.03-.07-.05-.15-.07-.23Z"/>
      <path class="cls-2" d="M49.87,54.19c0,.16.01.31.04.47-.03-.15-.04-.31-.04-.47Z"/>
      <path class="cls-2" d="M49.9,53.73s0,.02,0,.03c0,0,0-.02,0-.03Z"/>
      <path class="cls-2" d="M24.8,44.95c.26-.57.62-1.03,1.08-1.38,0,0,0,0,0,0-.45.35-.82.81-1.08,1.38-.26.56-.39,1.26-.39,2.09,0,.18,0,.36.02.54.01.17.02.35.05.52v.02s0,.01,0,.02c-.04-.36-.07-.73-.07-1.1,0-.83.13-1.53.39-2.09Z"/>
      <path class="cls-2" d="M32.74,57.32s-.01-.01-.02-.02c0,0,.01.01.02.02Z"/>
      <path class="cls-2" d="M32.11,55.6s0-.03,0-.04c0-.15.02-.3.05-.45-.03.15-.05.29-.05.45,0,.02,0,.03,0,.05Z"/>
      <polygon class="cls-2" points="32.83 53.96 32.84 53.95 32.84 53.96 32.83 53.96"/>
      <path class="cls-2" d="M38.14,58.44c-.11-.05-.22-.1-.34-.13-.12-.03-.25-.04-.38-.05-.02,0-.04,0-.06,0,.15.01.3.03.43.06.12.03.23.08.35.12Z"/>
      <path class="cls-2" d="M33.6,53.46c-.26.11-.49.26-.7.45.21-.19.44-.34.71-.45.28-.12.58-.18.88-.18.2,0,.41.02.61.06-.2-.04-.41-.06-.61-.06-.31,0-.6.06-.89.18Z"/>
      <path class="cls-2" d="M36.92,58.25c-.05,0-.1,0-.15,0h-.11c-.07,0-.14,0-.22.01.08,0,.14,0,.22,0,.09,0,.17,0,.26,0Z"/>
      <path class="cls-2" d="M31.78,73.44c.5.06.98.09,1.43.09.54,0,1.11-.07,1.7-.16-.58.09-1.16.16-1.7.16-.45,0-.93-.03-1.42-.09Z"/>
      <path class="cls-2" d="M25.32,70.48c-.14-.17-.25-.34-.36-.53.01.02.03.05.04.07.09.16.2.32.32.46.6.73,1.35,1.32,2.23,1.77.22.11.46.19.69.29-.23-.1-.47-.18-.69-.29-.89-.45-1.63-1.04-2.23-1.77Z"/>
      <path class="cls-2" d="M26.06,53.85c-.16-.59-.34-1.17-.53-1.76.19.58.37,1.16.52,1.76.2.75.3,1.54.3,2.34,0,.09,0,.17,0,.25,0-.09,0-.17,0-.25,0-.8-.1-1.58-.3-2.34Z"/>
      <path class="cls-2" d="M39.58,71.35s.08-.06.11-.1c0,0,0-.01,0-.02-.04.04-.07.08-.1.11Z"/>
      <path class="cls-2" d="M37.9,43.07c.41.01.77.08,1.1.18-.33-.1-.69-.17-1.11-.18-.67-.03-1.43-.04-2.28-.04-.65,0-1.3-.04-1.94-.11.64.07,1.29.11,1.94.11.85,0,1.61.01,2.29.04Z"/>
      <path class="cls-2" d="M37.41,54.03c-.16-.05-.31-.1-.46-.15.16.05.31.1.47.15.32.09.64.14.97.14h.05s.08,0,.12-.01c0,0,0,0,0,0-.06,0-.11.02-.17.02-.33,0-.66-.05-.98-.14Z"/>
      <path class="cls-2" d="M49.87,54.17c0-.08.01-.16.02-.25,0,.08-.02.16-.02.24,0,0,0,0,0,0Z"/>
      <path class="cls-2" d="M45.16,44.61c-.11.08-.21.16-.31.25-.03.02-.05.04-.07.06,0,0-.02.02-.04.04.16-.14.32-.27.49-.4-.02.02-.05.03-.08.05Z"/>
      <path class="cls-2" d="M62.98,72.62h.01c.14.07.29.12.45.16.06.02.12.04.19.05h.02s.05,0,.08.02c-.28-.06-.55-.14-.8-.25.02,0,.04.02.05.03Z"/>
      <path class="cls-2" d="M69.15,69.41c.03-.1.06-.2.08-.31v-.02s.02-.11.03-.16c.02-.11.03-.23.05-.34-.04.32-.1.62-.18.9,0-.03.02-.04.02-.07Z"/>
      <path class="cls-2" d="M68.22,71.43c.06-.09.12-.17.18-.26.06-.09.12-.17.17-.27.03-.05.05-.11.08-.16-.13.24-.26.48-.43.69,0,0,0,0,0,0Z"/>
      <path class="cls-2" d="M68.85,70.32s0-.01,0-.02c.09-.21.17-.41.23-.64-.08.27-.17.51-.28.75.01-.03.03-.06.04-.09Z"/>
      <path class="cls-2" d="M50.16,72.71c-.77,0-1.48-.06-2.18-.15.69.09,1.41.15,2.18.15,1.25,0,2.38-.18,3.4-.55.16-.06.29-.14.44-.2-.15.06-.29.15-.45.2-1.02.37-2.15.55-3.4.55Z"/>
      <path class="cls-2" d="M56.82,70.05c.05-.05.1-.11.14-.16-.05.06-.09.11-.14.16Z"/>
      <path class="cls-2" d="M62.3,72.22c.07.06.14.11.22.16t.02.01c.1.07.21.12.32.17-.23-.11-.45-.25-.65-.41.03.02.05.05.09.07Z"/>
      <path class="cls-2" d="M60.71,69.47h0s.01,0,.01.02c0,0,0,0,0,.01,0-.02,0-.03,0-.05,0,0,0,.01,0,.02Z"/>
      <path class="cls-2" d="M62.22,57.12c0-.08.02-.16.03-.24,0,.08-.02.16-.03.24Z"/>
      <path class="cls-2" d="M44.03,71.37s.03.03.04.03c.25.14.54.26.82.38-.28-.12-.57-.23-.82-.38-.02,0-.03-.02-.05-.03Z"/>
      <path class="cls-2" d="M60.86,70.03s.03.09.04.14c.04.12.09.25.14.36,0,0,0,0,0,.02,0,0,0,.01,0,.02-.11-.25-.2-.53-.27-.83.03.1.05.2.08.29Z"/>
      <path class="cls-2" d="M61.3,71.07s.03.05.05.08c.04.08.1.15.15.22-.13-.19-.25-.4-.35-.62.05.11.1.22.16.32Z"/>
      <path class="cls-2" d="M61.63,71.57s.05.07.09.1c.06.09.14.17.23.25.04.06.11.11.17.16,0,0,0,0,.01.01-.2-.17-.38-.37-.55-.59.02.02.03.04.04.06Z"/>
      <path class="cls-2" d="M48.22,65.8c-.08-.05-.15-.12-.22-.2.07.08.14.15.22.2Z"/>
      <path class="cls-2" d="M58.58,54s.05-.08.07-.13c.11-.27.19-.56.24-.89h0v-.02h0s.01-.09.01-.12h0v-.02s0-.02,0-.03c-.05.4-.12.77-.24,1.09-.02.05-.04.08-.06.13Z"/>
      <path class="cls-2" d="M56.18,56.03c.18-.04.36-.09.53-.15.07-.03.14-.07.21-.11-.07.03-.13.08-.2.11-.18.07-.36.12-.54.16Z"/>
      <path class="cls-2" d="M47.19,43.47c-.11.05-.22.08-.33.13-.29.13-.56.28-.82.43.26-.15.54-.3.82-.43.11-.05.22-.09.33-.13Z"/>
      <path class="cls-2" d="M57.03,45.84s.02.03.03.04h0s-.02-.03-.03-.05c-.5-.68-1.11-1.26-1.83-1.75.72.49,1.33,1.08,1.83,1.76Z"/>
      <path class="cls-2" d="M53.2,54.15c.26.49.54.93.85,1.34.07.08.14.15.21.21-.07-.07-.14-.13-.21-.22-.31-.4-.6-.85-.86-1.33Z"/>
      <path class="cls-2" d="M54.96,56.07c.14.03.29.06.44.06.18,0,.36-.02.54-.05-.18.03-.36.05-.54.05-.16,0-.3-.02-.44-.05Z"/>
      <path class="cls-2" d="M44.13,63.16c-.19.06-.37.14-.54.25-.18.12-.35.27-.52.43.16-.16.34-.31.52-.43.17-.11.35-.19.54-.25Z"/>
      <path class="cls-2" d="M47.82,65.31c-.16-.26-.33-.53-.52-.83-.08-.12-.17-.23-.26-.34.09.11.19.23.26.35.19.3.35.57.52.83Z"/>
      <path class="cls-2" d="M46.26,63.39c-.35-.24-.82-.36-1.42-.36-.12,0-.23.03-.34.05.11-.02.22-.05.34-.05.6,0,1.07.12,1.42.36Z"/>
      <path class="cls-2" d="M48.95,61.45c.34.26.66.54.92.85.12.13.22.28.3.44-.09-.16-.19-.3-.3-.44-.26-.31-.58-.58-.92-.84Z"/>
      <path class="cls-2" d="M52.04,52.25c.12.1.23.23.33.39.07.12.15.26.22.39-.07-.13-.15-.27-.22-.39-.1-.17-.21-.29-.33-.39Z"/>
      <path class="cls-2" d="M50.27,65.37s0,0,0,.01c0,0,0,0,0-.01Z"/>
      <path class="cls-2" d="M50.21,65.43c-.05.06-.1.12-.16.16-.05.04-.13.05-.19.09.06-.03.14-.05.19-.09.06-.04.11-.1.17-.16Z"/>
      <path class="cls-2" d="M15.14,56.77c-.12-.67-.27-1.32-.47-1.95-.21-.65-.46-1.21-.75-1.71.28.5.53,1.06.74,1.7.2.63.35,1.29.48,1.95Z"/>
      <path class="cls-2" d="M3.64,45.08c.28-.32.63-.58,1-.82-.37.23-.72.5-1,.81-.43.49-.64,1.11-.64,1.86,0,.17.01.33.04.49-.01.03,0,.06,0,.09,0,.01,0,.02,0,.04-.03-.2-.06-.4-.06-.61,0-.76.21-1.38.64-1.86Z"/>
      <path class="cls-2" d="M6.2,54.36s0,.04,0,.06c0,0,0,0,0,0,0-.02,0-.04,0-.06Z"/>
      <path class="cls-2" d="M13.84,43.81c-1.41-.41-2.98-.64-4.74-.64-.38,0-.79.03-1.22.08.43-.05.85-.08,1.22-.08,1.76,0,3.34.22,4.75.63Z"/>
      <path class="cls-2" d="M4.25,49.98c.17.24.34.48.52.71,0,0,.01.02.02.03,0,0-.01-.02-.02-.03-.18-.23-.35-.48-.52-.72Z"/>
      <path class="cls-2" d="M23.07,56.3h0s-.01-.08-.02-.12c-.02-.15-.05-.3-.07-.46.04.25.08.5.11.76,0-.06-.01-.12-.02-.18Z"/>
      <path class="cls-2" d="M23.26,58.33v-.04c-.02-.34-.04-.68-.08-1,0-.11-.03-.22-.04-.32.05.45.09.9.12,1.37,0,0,0,0,0,0Z"/>
      <path class="cls-2" d="M20,47.97c-1.12-1.48-2.57-2.65-4.36-3.5-.29-.14-.6-.24-.91-.36.31.12.62.22.91.36,1.78.85,3.23,2.02,4.36,3.5Z"/>
      <polygon class="cls-2" points="11.79 52.47 11.79 52.47 11.8 52.46 11.79 52.47"/>
      <path class="cls-2" d="M13.73,64.24s0,0,0,0c-.03.03-.06.05-.09.08.03-.03.06-.05.09-.07Z"/>
      <path class="cls-2" d="M15.4,60.2s0,.06-.01.09c0-.03,0-.06.01-.09Z"/>
      <path class="cls-2" d="M22.77,54.49c-.05-.24-.1-.47-.16-.71.08.35.16.7.22,1.05-.02-.11-.04-.23-.07-.34Z"/>
      <path class="cls-2" d="M9.31,73.35c-.49-.11-.97-.26-1.43-.44.46.18.94.34,1.43.45.92.21,1.75.32,2.48.32,1.11,0,2.13-.17,3.09-.48-.96.3-1.98.47-3.09.47-.73,0-1.56-.11-2.48-.32Z"/>
      <path class="cls-2" d="M6.23,54.63c.11.9.17,1.71.17,2.41,0,.02,0,.03,0,.05,0-.02,0-.03,0-.05,0-.7-.06-1.51-.17-2.41Z"/>
      <path class="cls-2" d="M5.07,62.71s.03-.08.04-.12c-.02.04-.03.08-.04.12-.34.92-.65,1.85-.92,2.79-.05.16-.07.33-.11.5.04-.17.06-.34.11-.5.27-.93.58-1.86.92-2.78Z"/>
      <path class="cls-2" d="M5.76,71.75c-.19-.14-.36-.29-.53-.45.17.16.34.31.53.45Z"/>
      <path class="cls-2" d="M4.11,69.95s.01.03.02.04c.02.03.04.07.06.1-.08-.14-.15-.29-.21-.44.04.1.08.2.13.3Z"/>
      <path class="cls-2" d="M4.33,70.34c.07.1.15.2.23.3-.11-.13-.21-.27-.3-.41.02.04.04.08.07.12Z"/>
      <path class="cls-2" d="M3.83,69.13c.02.1.05.21.08.31-.03-.1-.06-.21-.08-.32h0Z"/>
      <path class="cls-2" d="M33.43,65.28s-.05-.01-.08-.02c-.11-.03-.21-.08-.31-.14h-.01c-.05-.02-.1-.05-.15-.09h-.01s-.07-.05-.11-.08c.17.13.36.23.59.31.02,0,.05,0,.08.02Z"/>
      <path class="cls-2" d="M41.96,60.89c.06-.03.1-.07.16-.1-.05-.04-.09-.08-.14-.12,0,.08,0,.15-.02.22Z"/>
      <path class="cls-2" d="M22.32,52.65c-.03-.1-.06-.2-.09-.3-.02-.08-.06-.16-.08-.24.13.38.24.76.35,1.16-.05-.21-.11-.42-.17-.63Z"/>
      <path class="cls-2" d="M3.77,68.75s.01.06.02.09c-.01-.11-.02-.23-.03-.34,0,.09,0,.17.01.25Z"/>
      <path class="cls-2" d="M21.5,50.46h0s.02.03.03.05c0-.02-.01-.03-.02-.05Z"/>
      <path class="cls-2" d="M21.82,51.2s-.04-.09-.06-.13c-.07-.18-.15-.35-.22-.53.16.36.31.73.45,1.11-.06-.15-.1-.31-.16-.46Z"/>
      <path class="cls-2" d="M21.49,50.44c-.38-.83-.84-1.59-1.37-2.3.52.71.98,1.48,1.37,2.31h0Z"/>
      <path class="cls-2" d="M6.14,43.58s.03-.01.04-.01c-.01,0-.03.01-.04.01Z"/>
      <path class="cls-2" d="M3.12,47.88s.01.05.02.08c.04.11.07.21.11.32-.07-.17-.12-.35-.16-.53.01.04.01.09.03.14Z"/>
      <path class="cls-2" d="M6.3,58.45c0,.05-.02.11-.03.16.01-.08.02-.15.03-.22,0,.02,0,.04,0,.06Z"/>
      <path class="cls-2" d="M15.26,57.43c.05.34.09.65.12.94-.03-.29-.07-.6-.12-.94Z"/>
      <path class="cls-2" d="M32.19,56.27s-.01-.09-.02-.14c0,.05.01.1.03.15,0,0,0,0,0-.01Z"/>
      <path class="cls-2" d="M39.02,59.93c0,.35-.04.7-.1,1.05.07-.35.1-.7.1-1.05Z"/>
      <path class="cls-2" d="M38.67,58.78s0,0,0,0c.07.07.1.17.15.26-.05-.09-.08-.19-.15-.25Z"/>
      <path class="cls-2" d="M34.78,58.23c.12.02.24.02.36.03-.12,0-.24-.02-.36-.03Z"/>
      <path class="cls-2" d="M32.56,54.27s-.02.02-.03.04c0-.01.02-.02.03-.04Z"/>
      <path class="cls-2" d="M25.99,43.5c.27-.19.57-.35.9-.49-.33.13-.63.29-.9.49Z"/>
      <path class="cls-2" d="M40.77,44.88s-.02-.05-.03-.08c.01.02.02.05.03.08,0,0,0,0,0,0Z"/>
      <path class="cls-2" d="M38.96,65.52c-.12-.04-.24-.07-.37-.09.12.02.24.06.37.1,0,0,0,0,0,0Z"/>
      <path class="cls-2" d="M32.59,63.32s-.03.05-.05.08c.02-.03.03-.05.05-.08Z"/>
      <path class="cls-2" d="M38.89,61.14s0-.01,0-.02c0,.02-.01.04-.02.06,0-.02.01-.03.01-.04Z"/>
      <path class="cls-2" d="M36.56,65.44c.51-.05,1.01-.07,1.51-.07.16,0,.33.02.49.05-.02,0-.04,0-.06,0-.15-.03-.29-.04-.44-.04-.49,0-1,.02-1.5.07-.51.05-1.02.07-1.55.07-.08,0-.18,0-.28,0,.1,0,.2.01.28.01.52,0,1.04-.02,1.54-.07Z"/>
      <path class="cls-2" d="M38.75,61.63s0,0,0,0c-.01.03-.03.05-.04.08.01-.03.03-.05.04-.08Z"/>
      <path class="cls-2" d="M88.83,54.7c.11.06.23.12.33.19-.05-.12-.1-.25-.16-.38-.05.06-.11.13-.17.19Z"/>
      <path class="cls-2" d="M21.42,67.49h0c-.34.62-.72,1.21-1.15,1.78-.24.32-.5.63-.77.92.27-.29.53-.6.78-.92.19-.25.38-.51.55-.78.05-.07.1-.15.15-.22.16-.25.31-.51.45-.77h0Z"/>
      <path class="cls-2" d="M11.93,64.64s0,0,0,0c.12.11.27.16.46.16.23,0,.44-.04.65-.12-.2.08-.42.12-.64.12-.19,0-.35-.05-.47-.16Z"/>
      <path class="cls-2" d="M11.6,63.91c.02.11.03.22.07.33,0,0,.01.01.01.02,0,0,0-.02-.01-.03-.04-.1-.05-.21-.07-.32Z"/>
      <path class="cls-2" d="M61.93,52.57s.01.05.02.08c0-.03-.02-.06-.02-.09,0,0,0,0,0,0Z"/>
      <path class="cls-2" d="M11.69,53.42s0-.08,0-.13c0,.04,0,.1,0,.13,0,1.65-.02,3.29-.07,4.93-.02.73-.02,1.47-.03,2.2.01-.73.01-1.47.04-2.2.04-1.63.07-3.27.07-4.93Z"/>
      <path class="cls-2" d="M15.41,58.71c.02.22.03.43.03.62,0-.19-.02-.4-.03-.62Z"/>
      <path class="cls-2" d="M24.69,49.24c-.07-.29-.13-.58-.17-.87.04.29.1.59.17.87Z"/>
      <path class="cls-2" d="M24.43,68.21v.02c0,.07.02.14.03.21-.01-.08-.01-.17-.02-.26,0,0,0,.02-.01.03Z"/>
      <path class="cls-2" d="M38.87,71.93c.06-.04.11-.08.16-.12.08-.06.15-.13.23-.2-.27.22-.55.43-.86.6.16-.1.32-.19.47-.29Z"/>
      <path class="cls-2" d="M25.37,51.54c-.21-.64-.41-1.29-.58-1.93.17.65.37,1.29.58,1.93Z"/>
      <path class="cls-2" d="M26.29,58.1s-.01.03-.01.05c0,.06-.01.13-.02.19h0s.01.02,0,.03v.02s0,0,0,0c0-.11.02-.21.03-.32,0,0,0,.01,0,.02Z"/>
      <path class="cls-2" d="M24.51,68.76h0c.01.07.04.12.05.18-.02-.1-.05-.19-.07-.3,0,.04,0,.08.02.12Z"/>
      <path class="cls-2" d="M24.75,69.52c.04.1.08.2.13.29,0,.01.02.03.02.04-.07-.13-.12-.26-.17-.39,0,.02.01.04.02.06Z"/>
      <path class="cls-2" d="M33.3,62.76s-.03.02-.04.03c.01,0,.03-.02.04-.03Z"/>
      <path class="cls-2" d="M92.46,61.01s-.02.09-.03.13c-.19.81-.4,1.61-.63,2.4.23-.8.44-1.6.63-2.4,0-.04.01-.09.02-.13Z"/>
      <path class="cls-2" d="M92.73,58.35s0,.1,0,.14c0,.08,0,.15,0,.23,0-.08.01-.15.01-.22,0-.05,0-.1,0-.15Z"/>
      <path class="cls-2" d="M94.78,72.97c.31.04.64.06.97.06.17,0,.33-.01.48-.03.02,0,.05,0,.08,0-.18.02-.36.04-.56.04-.33,0-.65-.02-.97-.06Z"/>
      <path class="cls-2" d="M92.29,72.07c-.21-.15-.39-.33-.56-.52.06.06.11.14.17.19h.01c.12.12.24.22.38.32.46.33.99.58,1.58.73.28.07.58.13.88.16-.3-.04-.59-.09-.88-.17-.59-.15-1.12-.4-1.58-.73Z"/>
      <path class="cls-2" d="M100,53.95c-.09-.25-.18-.5-.26-.76-.02-.05-.03-.09-.04-.14.02.05.02.09.04.14.09.26.17.51.27.76Z"/>
      <path class="cls-2" d="M99.06,50.63c-.06-.3-.12-.59-.17-.86-.04-.21-.07-.38-.09-.54.02.16.05.33.08.54.05.27.11.55.17.86Z"/>
      <path class="cls-2" d="M95.14,43.48c-.17,0-.34-.02-.53-.02-.37,0-.76.04-1.16.09.4-.05.8-.09,1.16-.09.18,0,.35,0,.52.02Z"/>
      <path class="cls-2" d="M101.31,68.46c-.1-.35-.17-.96-.23-1.83,0-.07-.02-.14-.02-.21,0,.07.01.14.02.21.06.86.14,1.47.23,1.83.1.35.26.76.48,1.24.13.26.27.51.42.76-.15-.25-.3-.5-.42-.76-.23-.47-.38-.89-.48-1.24Z"/>
      <path class="cls-2" d="M98.64,69.24c-.02-.19-.04-.38-.07-.56-.07-.37-.14-.74-.21-1.11.07.37.15.73.21,1.11.03.19.05.38.07.57Z"/>
      <path class="cls-2" d="M101.99,56.69c.47,0,.79-.16.94-.48,0,0,0,0,0,0-.16.33-.47.48-.94.48-.29,0-.56-.16-.83-.49-.11-.13-.21-.28-.31-.44.1.16.2.31.31.44.27.33.55.5.83.5Z"/>
      <path class="cls-2" d="M103.69,72.13c-.19-.14-.36-.29-.53-.46.17.17.35.33.54.47.4.29.82.44,1.24.44.71,0,1.32-.09,1.84-.25-.52.16-1.13.25-1.84.25-.42,0-.84-.15-1.24-.44Z"/>
      <path class="cls-2" d="M100.67,63.28c.04.23.1.45.13.69,0,.03,0,.05.01.08,0-.03,0-.05,0-.08-.03-.24-.09-.46-.13-.69Z"/>
      <path class="cls-2" d="M98.31,61c.03-.05.06-.11.1-.16.03-.03.07-.05.09-.08-.03.03-.07.04-.1.08-.04.05-.07.11-.1.16Z"/>
      <path class="cls-2" d="M97.91,63.25c0-.21,0-.46.02-.77,0-.21.05-.4.08-.6-.03.2-.07.39-.08.6-.01.31-.02.56-.02.77Z"/>
      <path class="cls-2" d="M101.43,47.03l.02.15c.01.13.03.25.06.38.03.19.07.39.12.58.06.23.12.45.18.67-.06-.22-.13-.45-.18-.67-.09-.37-.15-.74-.2-1.12Z"/>
      <path class="cls-2" d="M90.72,50.96c.04.1.09.19.13.29-.04-.1-.09-.2-.13-.3h0Z"/>
      <path class="cls-2" d="M92.66,59.75c-.01.09-.02.19-.04.28.02-.12.03-.25.04-.37,0,.03,0,.06,0,.09Z"/>
      <path class="cls-2" d="M91.33,44.17c-.08.04-.14.1-.21.14.07-.05.14-.1.21-.15,0,0,0,0,0,0Z"/>
      <path class="cls-2" d="M91.52,71.32s.08.09.12.13c-.04-.05-.07-.11-.11-.16,0,0,0,.02,0,.03Z"/>
      <path class="cls-2" d="M91.13,66.09h0s0,.01,0,.01c.18-.75.37-1.5.59-2.25-.21.74-.41,1.49-.59,2.24Z"/>
      <path class="cls-2" d="M103.09,55.74s.01-.05.02-.08c0,.03-.01.05-.02.08Z"/>
      <path class="cls-2" d="M108.53,71.1c-.05.06-.09.12-.14.18.05-.05.11-.09.15-.15h0s0-.03-.01-.03Z"/>
      <path class="cls-2" d="M109.09,45.23c-.07-.11-.15-.23-.24-.34-.18-.21-.37-.4-.59-.59.21.19.41.39.58.6.09.11.17.22.24.33Z"/>
      <path class="cls-2" d="M103.62,42.66c-.69.1-1.21.35-1.56.76-.05.05-.08.12-.12.18.04-.06.08-.13.12-.18.35-.41.87-.66,1.56-.76Z"/>
      <path class="cls-2" d="M108.76,59.72c-.06-.36-.13-.73-.19-1.09-.01-.08-.02-.16-.03-.24.01.08.02.17.03.25.06.36.13.72.19,1.08Z"/>
      <path class="cls-2" d="M106.33,43.11c.19.08.38.17.57.27-.19-.1-.38-.19-.57-.27Z"/>
      <path class="cls-2" d="M109.25,45.54c-.04-.1-.1-.21-.16-.31.06.1.11.21.16.31,0,0,0,0,0,0Z"/>
      <path class="cls-2" d="M109.24,62.46s0,0,0,0c-.08-.44-.16-.88-.24-1.32-.04-.19-.07-.37-.1-.56.04.19.06.38.1.56.09.45.16.88.24,1.33Z"/>
      <path class="cls-2" d="M116.22,64.49c.1.15.17.28.26.42-.09-.14-.17-.27-.26-.43-.13-.21-.3-.4-.48-.6.18.19.35.39.48.6Z"/>
      <path class="cls-2" d="M125.04,56.04c.2-.04.4-.1.6-.17.16-.06.31-.15.46-.24-.15.09-.3.17-.46.24-.2.08-.39.13-.59.17Z"/>
      <path class="cls-2" d="M119.4,64.89s-.02.1-.04.14c-.02.05-.04.1-.07.15h0c-.03.08-.07.14-.11.2-.06.08-.13.15-.21.2-.08.06-.18.08-.27.12.09-.04.19-.07.27-.12.22-.15.36-.39.43-.69Z"/>
      <path class="cls-2" d="M96.67,72.94c.06-.01.11-.02.17-.04.01,0,.02,0,.03-.01.02,0,.04-.01.06-.02-.14.04-.28.08-.44.1.06,0,.13-.02.18-.03Z"/>
      <path class="cls-2" d="M127.41,48.83c.31,1.1.46,2.17.46,3.21,0,.71-.1,1.32-.3,1.82,0,0,0,0,0,0,.07-.17.12-.35.16-.54,0-.01.01-.03.01-.04.03-.08.05-.16.06-.25,0-.01.01-.03.01-.05v-.04c.02-.13.03-.26.04-.39,0-.16.02-.33.02-.51,0-1.04-.15-2.11-.46-3.21-.31-1.1-.79-2.1-1.46-3-.13-.17-.27-.33-.41-.49.14.16.28.32.41.5.66.9,1.15,1.9,1.45,2.99Z"/>
      <path class="cls-2" d="M60.11,45.06s0,0,0,0c0,0,0-.02,0-.03,0,0,0,.02-.01.03Z"/>
      <path class="cls-2" d="M115.11,63.35c-.34-.21-.79-.31-1.35-.31-.13,0-.26.03-.39.06.13-.02.25-.06.38-.06.56,0,1.01.11,1.35.31Z"/>
      <path class="cls-2" d="M117.69,61.32c.41.3.79.61,1.1.97.17.2.3.43.41.69-.11-.25-.24-.49-.41-.69-.31-.36-.69-.67-1.1-.97Z"/>
      <path class="cls-2" d="M112.95,63.2c-.15.06-.3.11-.43.2-.02.02-.05.03-.07.05,0,0,0,0,0,0,.02-.02.04-.04.06-.05.14-.09.29-.15.43-.2Z"/>
      <path class="cls-2" d="M125.9,69.86c.36-.42.66-.88.89-1.37.07-.16.14-.31.19-.47,0-.02.01-.03.02-.05-.06.17-.13.35-.21.52-.23.49-.53.95-.89,1.37Z"/>
      <path class="cls-2" d="M127.24,67.14s.01-.07.02-.1c0-.02.01-.05.01-.07s.01-.05.01-.07.01-.05.01-.07h0c-.02.1-.03.2-.05.31Z"/>
      <path class="cls-2" d="M116.84,72.56c.71.09,1.45.16,2.24.16,1.22,0,2.32-.17,3.33-.53-1,.35-2.11.53-3.33.53-.79,0-1.53-.06-2.24-.16Z"/>
      <path class="cls-2" d="M112.69,71.21c.1.07.19.13.3.2.31.17.65.32,1.01.46-.35-.14-.7-.29-1-.46-.11-.06-.21-.13-.31-.2Z"/>
      <path class="cls-2" d="M118.81,54.44c0,.07,0,.14.02.21-.01-.07-.01-.14-.02-.21Z"/>
      <path class="cls-2" d="M119.42,64.82s.01-.05.01-.07c0,.02,0,.05-.01.07Z"/>
      <path class="cls-2" d="M116.23,60.44c-.22-.12-.46-.24-.7-.36.24.12.47.24.7.36Z"/>
      <path class="cls-2" d="M114.59,59.57c-.57-.31-1.11-.67-1.62-1.1.51.43,1.05.79,1.62,1.1Z"/>
      <path class="cls-2" d="M122.48,72.16s.04-.02.06-.03c-.02,0-.04.02-.06.03,0,0,0,0,0,0Z"/>
      <path class="cls-2" d="M112.11,57.64s.02.02.03.03c-.08-.09-.15-.18-.22-.27.06.08.12.17.19.24Z"/>
      <path class="cls-2" d="M112.08,70.76c.09.07.18.14.28.21-.1-.07-.19-.15-.28-.22h0Z"/>
      <path class="cls-2" d="M118.91,54.94c.02.06.03.12.05.17-.02-.06-.03-.11-.05-.17Z"/>
      <path class="cls-2" d="M120.59,57.12c-.44-.4-.84-.79-1.16-1.19-.09-.12-.18-.24-.25-.37-.03-.04-.05-.09-.08-.13.09.17.19.34.32.51.32.4.72.8,1.16,1.19Z"/>
      <path class="cls-2" d="M126.13,62.13c-.3-.43-.62-.84-.99-1.23-.18-.18-.36-.35-.54-.52.18.17.37.34.54.52.37.38.69.8.99,1.23Z"/>
      <path class="cls-2" d="M122.07,54.06c-.27-.52-.53-.99-.78-1.42-.12-.21-.27-.37-.43-.48.16.11.3.27.43.48.25.43.51.9.78,1.42s.57.99.9,1.42c.08.1.17.18.26.26-.09-.08-.18-.16-.25-.26-.33-.42-.63-.9-.9-1.42Z"/>
      <path class="cls-2" d="M123.78,56.03c.17.05.35.09.54.09.18,0,.36-.02.53-.05-.18.03-.35.05-.53.05-.2,0-.37-.04-.54-.09Z"/>
      <path class="cls-2" d="M127.1,67.68c.04-.11.06-.21.08-.32-.03.14-.07.28-.12.41.01-.03.03-.06.03-.1Z"/>
      <path class="cls-2" d="M112.45,46.21s0,.01-.01.02c.03-.03.06-.07.08-.1-.02.03-.05.06-.07.09Z"/>
      <path class="cls-2" d="M116.09,43.48c-.1.04-.21.07-.31.12-.57.27-1.09.57-1.58.93.48-.35,1.01-.66,1.58-.92.1-.05.21-.08.31-.12Z"/>
      <path class="cls-2" d="M87.32,51.55s.02-.05.03-.07t0-.02c.04-.14.09-.3.13-.46h0v-.02s0,0,0,0c-.05.23-.12.45-.2.66.01-.03.02-.05.03-.08Z"/>
      <path class="cls-2" d="M86.8,45.43h0s-.04-.06-.06-.08c-.05-.07-.11-.14-.17-.21.08.1.15.22.23.32,0-.01,0-.02,0-.03Z"/>
      <path class="cls-2" d="M77.55,60.69s0-.04,0-.06c.03.27.06.55.1.82-.04-.25-.07-.5-.09-.76Z"/>
      <path class="cls-2" d="M82.28,61.68c-.35,0-.71-.03-1.06-.07.35.05.71.07,1.06.07Z"/>
      <path class="cls-2" d="M73.06,47.58s-.05.07-.07.11h0s0,.04,0,.05c.14-.24.28-.48.44-.7-.13.18-.26.36-.37.54Z"/>
      <path class="cls-2" d="M71.08,55.23s0,.02-.01.03v.08c-.02.29-.03.6-.04.91-.01.23-.01.46-.01.7-.01.21-.01.42-.01.64t0,.02s-.01.01,0,.02c-.01.11-.01.22-.01.34v.09c0-1,.04-1.95.09-2.86,0,0,0,.02,0,.03Z"/>
      <path class="cls-2" d="M81.34,57.03c.31-.06.64-.11.97-.13-.33.02-.65.07-.97.13Z"/>
      <path class="cls-2" d="M88.5,59.68c.02-.08.03-.15.03-.23,0-.11.02-.2.02-.31,0,.18-.02.37-.05.57,0,0,0-.02,0-.03Z"/>
      <path class="cls-2" d="M88.37,60.25c.03-.11.06-.22.09-.33,0-.01.01-.03.01-.04,0-.02,0-.04,0-.07-.04.2-.09.4-.17.61.02-.06.04-.11.06-.17Z"/>
      <path class="cls-2" d="M87,64.7c0,.17.01.33.03.48-.02-.15-.03-.31-.03-.48Z"/>
      <path class="cls-2" d="M87.11,65.65c-.03-.08-.04-.19-.06-.29.02.1.04.2.06.29h0Z"/>
      <path class="cls-2" d="M78.92,59.91c.02.09.05.18.08.25.02.04.03.07.05.1h0c.03.08.06.14.09.19-.1-.16-.17-.34-.22-.55h0Z"/>
      <path class="cls-2" d="M80.3,72.63c.07,0,.14.01.21.02-.31-.04-.61-.09-.9-.15.23.05.45.09.69.13Z"/>
      <path class="cls-2" d="M78.86,59.53v.03c.01.11.03.2.05.29,0,0,0,0,0,0-.04-.19-.06-.41-.07-.64,0,.11,0,.22.02.32Z"/>
      <path class="cls-2" d="M83.95,72.7c-.33.03-.65.05-.96.06.31,0,.63-.03.96-.06Z"/>
      <path class="cls-2" d="M66.89,42.83c.64.12,1.19.35,1.65.69.46.34.82.81,1.08,1.4.12.28.21.6.28.96,0-.01,0-.03,0-.04-.03-.15-.06-.3-.1-.44-.05-.17-.1-.33-.17-.48-.26-.59-.62-1.05-1.08-1.4-.46-.34-1.01-.57-1.65-.69s-1.34-.18-2.09-.18c-.24,0-.53.03-.84.07.31-.04.6-.07.83-.07.76,0,1.45.06,2.09.18Z"/>
      <path class="cls-2" d="M67.92,56.81s0-.06,0-.08,0-.06,0-.08c0,.03,0,.05,0,.08s0,.06,0,.09Z"/>
      <path class="cls-2" d="M68,58.03c-.02-.09-.03-.17-.03-.26h0s-.01-.03,0-.04h0c0-.05,0-.09,0-.13.01.16.02.31.04.47v-.04Z"/>
      <path class="cls-2" d="M69.96,46.35s0-.09-.01-.13c0-.05-.02-.1-.02-.15.01.09.02.19.03.28,0,0,0,0,0,0Z"/>
      <path class="cls-2" d="M70,46.88v-.09s0-.08-.01-.13c0,.07,0,.15,0,.22,0,0,0,0,0,0Z"/>
      <path class="cls-2" d="M68,55.42s0-.04,0-.07c0,.05-.01.11-.02.16,0-.03,0-.06,0-.09Z"/>
      <path class="cls-2" d="M69.4,67.25c0,.39-.02.76-.06,1.11,0-.08.03-.16.03-.24v-.05c.01-.09.01-.17.02-.26.01-.17.02-.34.02-.51v-.03s0-.01,0-.02Z"/>
      <path class="cls-2" d="M64.8,72.96c-.34,0-.66-.03-.96-.09.02,0,.03,0,.05.01.08.02.17.03.25.04.09.01.17.02.26.02.13.02.26.02.4.02,1.39,0,2.46-.46,3.24-1.34-.78.88-1.85,1.34-3.24,1.34Z"/>
      <path class="cls-2" d="M87.04,71.9c.08-.04.16-.08.23-.14.04-.02.07-.05.11-.07-.19.12-.38.24-.59.33.09-.04.18-.08.26-.12Z"/>
      <path class="cls-2" d="M62.17,53.84c.09.61.14,1.21.14,1.83,0,.15-.01.31-.02.46,0-.16.02-.31.02-.47,0-.61-.06-1.22-.15-1.82Z"/>
      <path class="cls-2" d="M61.91,43.27c.22-.1.44-.18.67-.25-.22.07-.44.15-.66.25-.51.23-.95.53-1.32.91-.03.03-.05.06-.07.09.03-.03.05-.07.08-.1.37-.38.8-.68,1.31-.9Z"/>
      <path class="cls-2" d="M62.03,58.32s.01-.09.02-.13c0,.04-.01.09-.02.13-.19.88-.4,1.77-.64,2.68-.15.6-.3,1.22-.43,1.86t0,.01s0,.02,0,.03c.14-.64.27-1.29.43-1.9.24-.91.45-1.8.64-2.68Z"/>
      <path class="cls-2" d="M77.59,43.67c1.18-.52,2.4-.78,3.65-.78.52,0,1.03.07,1.55.18-.52-.1-1.03-.18-1.55-.18-1.25,0-2.47.26-3.66.78-1.18.52-2.21,1.22-3.08,2.09-.16.16-.31.32-.44.48-.1.1-.19.21-.27.32-.09.1-.17.21-.25.31.29-.38.6-.75.96-1.11.87-.87,1.9-1.57,3.08-2.09Z"/>
      <path class="cls-2" d="M75.2,70.53c-.38-.31-.72-.64-1.04-.99.32.35.66.68,1.03.99.87.7,1.9,1.25,3.12,1.65.29.1.59.18.91.25-.31-.07-.62-.16-.91-.25-1.22-.4-2.26-.95-3.12-1.65Z"/>
      <path class="cls-2" d="M87.72,71.45s.05-.03.07-.05c.11-.08.21-.17.31-.28,0,0,0,0,0-.01-.12.12-.24.24-.38.34Z"/>
      <path class="cls-2" d="M97.92,64.73c0,.16,0,.33.02.49-.01-.16-.02-.32-.02-.49Z"/>
      <path class="cls-2" d="M107.84,71.79s.05-.04.08-.06c.06-.04.1-.1.15-.14-.18.16-.37.31-.59.43.13-.07.25-.14.36-.23Z"/>
      <path class="cls-2" d="M72.4,66.7s0,0,0,.01c.02.05.04.09.06.14.19.42.4.83.63,1.23.16.27.33.52.51.77-.18-.25-.35-.5-.5-.76-.26-.45-.49-.91-.69-1.39Z"/>
      <path class="cls-2" d="M97.3,72.74s.07-.04.11-.06c-.08.04-.16.08-.25.11.04-.02.1-.03.14-.05Z"/>
      <path class="cls-2" d="M98.67,70.52c0-.11.01-.22.02-.34,0,.15-.01.3-.03.44,0-.04.01-.07.01-.1Z"/>
      <path class="cls-2" d="M98.02,72.22c.04-.05.09-.1.13-.16.05-.06.09-.12.13-.18h0c-.09.14-.19.27-.3.38.01-.01.03-.03.04-.04Z"/>
      <path class="cls-2" d="M86.44,45s-.04-.04-.06-.06c-.01-.02-.03-.04-.05-.06-.03-.03-.06-.06-.09-.09-.01-.01-.02-.02-.03-.03-.07-.07-.14-.13-.21-.19-.1-.1-.21-.18-.32-.27-.46-.34-.97-.6-1.52-.82.55.22,1.06.48,1.52.82.28.21.53.45.76.7Z"/>
      <path class="cls-2" d="M97.69,72.51s.1-.07.15-.11c.02-.01.03-.03.05-.04.02-.02.03-.04.05-.05-.09.09-.2.16-.3.23.02-.01.04-.02.05-.03Z"/>
      <path class="cls-2" d="M98.6,71s0-.01,0-.02h0s0-.07.01-.1c-.02.1-.04.2-.07.29.02-.06.04-.11.05-.17Z"/>
      <path class="cls-2" d="M98.44,71.53s.01-.04.02-.05c-.03.08-.07.16-.11.24.03-.06.07-.12.09-.19Z"/>
      <path class="cls-2" d="M77.53,60.55h0v-.03c-.03-.31-.04-.65-.04-.97,0-.97.1-1.8.28-2.5-.19.71-.29,1.54-.29,2.51,0,.34.01.67.04.99Z"/>
      <path class="cls-2" d="M79.43,57.8s-.02.01-.03.02c-.03.03-.05.06-.08.09.03-.03.05-.06.09-.09,0,0,.02-.01.03-.02Z"/>
      <path class="cls-2" d="M81.85,64.65c.12-.04.24-.1.35-.15-.11.06-.23.11-.35.15-.31.11-.59.16-.85.16-.02,0-.03,0-.05,0,.02,0,.03,0,.05,0,.26,0,.54-.05.85-.16Z"/>
      <path class="cls-2" d="M83.3,63.53c.16-.26.25-.55.25-.85,0-.4-.13-.67-.39-.8-.13-.06-.25-.11-.38-.14.12.03.25.08.37.14.26.13.39.4.39.8,0,.3-.08.59-.25.85-.07.11-.15.22-.24.31-.03.03-.06.07-.09.1-.09.1-.19.18-.29.26-.08.06-.16.11-.25.16.09-.05.17-.1.25-.16.25-.19.45-.41.62-.67Z"/>
      <path class="cls-2" d="M79.69,61.04c.09.07.18.15.28.2.2.11.41.18.65.25-.23-.06-.45-.14-.64-.25-.1-.06-.19-.13-.28-.2Z"/>
      <path class="cls-2" d="M87.19,57.26c-.07-.03-.13-.07-.2-.09-.41-.14-.85-.22-1.33-.26.48.04.93.13,1.34.26.07.02.13.06.2.09Z"/>
      <path class="cls-2" d="M87.16,65.84s0-.01,0-.02c.03.07.06.14.09.2-.03-.06-.06-.11-.08-.18Z"/>
      <path class="cls-2" d="M87.6,66.59c.08.11.17.2.26.29-.09-.09-.17-.18-.26-.29Z"/>
      <path class="cls-2" d="M78.95,64.1c-.3-.26-.56-.55-.75-.91-.23-.42-.38-.91-.49-1.44.11.53.27,1.02.49,1.44.19.36.46.65.76.91Z"/>
      <path class="cls-2" d="M78.28,55.79c.16-.26.33-.5.54-.7.15-.15.32-.27.49-.39-.17.12-.34.24-.49.39-.2.2-.38.44-.53.7Z"/>
      <path class="cls-2" d="M85.17,53.48c-.7.2-1.61.3-2.75.3-.57,0-1.08.08-1.56.21.48-.12.99-.2,1.57-.2,1.13,0,2.05-.1,2.75-.3.69-.2,1.23-.53,1.61-.98.08-.1.16-.2.23-.31.04-.07.08-.15.12-.22,0,0,0-.01.01-.01.01-.02.02-.04.03-.06.02-.03.03-.06.04-.09-.12.25-.26.49-.43.69-.38.45-.92.78-1.61.98Z"/>
      <path class="cls-3" d="M3.23,54.81c-.1-.84-.28-1.34-.39-1.56-.14-.27-.29-.52-.46-.75-.31-.41-.61-.83-.9-1.25-.4-.57-.73-1.17-.98-1.77-.21-.49-.35-1.01-.42-1.55-.05.32-.08.66-.08,1,0,.91.17,1.76.5,2.55.25.6.58,1.2.98,1.77.29.42.59.84.9,1.25.17.23.32.48.46.75.11.22.29.72.39,1.56.05.37.09.73.12,1.06.04-.28.05-.55.05-.83,0-.63-.05-1.38-.17-2.23Z"/>
      <path class="cls-3" d="M58.1,58.54c.09.09.19.19.28.28.13.13.26.27.37.41.09-.4.18-.8.27-1.21-.29.2-.6.38-.92.52Z"/>
      <path class="cls-3" d="M130.36,56.97c.34-.87.51-1.85.51-2.93,0-.35-.01-.7-.05-1.06-.07.72-.22,1.38-.46,1.99-.36.9-.86,1.67-1.47,2.27-.55.55-1.18.99-1.87,1.3.1.09.19.19.28.28.32.33.61.67.88,1.03.25-.18.49-.39.71-.61.61-.6,1.11-1.37,1.47-2.27Z"/>
      <path class="cls-3" d="M127.05,72.95c-1,.86-2.2,1.54-3.55,2.03-1.34.48-2.83.73-4.42.73-1.43,0-2.79-.14-4.04-.4-1.31-.29-2.49-.72-3.5-1.29-.01-.01-.03-.01-.04-.02-.33-.19-.65-.4-.94-.62-.34.36-.72.69-1.14.97-.17.12-.36.23-.55.34-1.09.59-2.37.88-3.94.88-1.06,0-2.1-.36-3.03-1.03-.4-.3-.77-.64-1.12-1.01-1,1.58-2.76,2.5-5.03,2.5-.91,0-1.8-.11-2.64-.33-.86-.23-1.65-.58-2.35-1.04-.08-.05-.15-.1-.22-.15-.32-.23-.62-.49-.87-.77-.31.26-.64.49-.99.69-.25.14-.5.27-.76.38-.88.37-1.82.64-2.84.78-.89.13-1.72.19-2.48.19-1.94,0-3.7-.25-5.22-.75-1.55-.51-2.91-1.24-4.06-2.17-.42-.33-.81-.69-1.17-1.07-.16-.16-.31-.33-.45-.5-.17.44-.37.85-.6,1.23-.16.27-.33.52-.52.76-.95,1.22-2.72,2.68-5.78,2.68-1.06,0-3.58-.25-5.37-2.36-.28-.33-.54-.7-.78-1.13-.17.17-.34.33-.52.48-.03.02-.06.05-.09.07-.98.83-2.15,1.48-3.46,1.96-1.34.48-2.83.73-4.42.73-1.44,0-2.79-.14-4.04-.4-1.21-.26-2.3-.65-3.26-1.17-.09-.04-.19-.09-.28-.14-.3-.17-.58-.35-.85-.55-.36.36-.76.68-1.18.95-.23.17-.46.31-.7.45-1.03.58-2.16,1.01-3.34,1.28-1.14.26-2.25.4-3.3.4s-2.19-.13-3.38-.36c-1.28-.25-2.5-.67-3.64-1.25-1.21-.61-2.25-1.43-3.1-2.44-.03-.03-.06-.07-.09-.1-.24-.29-.45-.6-.64-.92-.19.23-.38.46-.58.67-1.05,1.16-2.27,2.13-3.63,2.91-1.87,1.08-4.01,1.63-6.36,1.63-.96,0-2.02-.14-3.15-.4-1.18-.27-2.32-.7-3.38-1.28-1.15-.62-2.14-1.41-2.94-2.34-.85-.99-1.37-2.18-1.51-3.48-.04.39-.06.79-.06,1.18,0,1.61.54,3.1,1.57,4.3.8.93,1.79,1.72,2.94,2.34,1.06.58,2.2,1.01,3.38,1.28,1.13.26,2.19.4,3.15.4,2.35,0,4.49-.55,6.36-1.63,1.61-.92,3.03-2.13,4.21-3.58.19.32.4.63.64.92.87,1.05,1.94,1.91,3.19,2.54,1.14.58,2.36,1,3.64,1.25,1.19.23,2.33.36,3.38.36s2.16-.14,3.3-.4c1.18-.27,2.31-.7,3.34-1.28.69-.39,1.32-.85,1.88-1.4.27.2.55.38.85.55,1.02.58,2.21,1.02,3.54,1.31,1.25.26,2.6.4,4.04.4,1.59,0,3.08-.25,4.42-.73,1.35-.49,2.55-1.17,3.55-2.03.18-.15.35-.31.52-.48,1.75,3.16,4.93,3.49,6.15,3.49,3.06,0,4.83-1.46,5.78-2.68.46-.59.83-1.25,1.12-1.99.48.57,1.02,1.09,1.62,1.57,1.15.93,2.51,1.66,4.06,2.17,1.52.5,3.28.75,5.22.75.76,0,1.59-.06,2.48-.19,1.02-.14,1.96-.41,2.84-.78.64-.28,1.23-.64,1.75-1.07.25.28.55.54.87.77.75.54,1.62.94,2.57,1.19.84.22,1.73.33,2.64.33,2.27,0,4.03-.92,5.03-2.5.35.37.72.71,1.12,1.01.93.67,1.97,1.03,3.03,1.03,1.57,0,2.85-.29,3.94-.88.64-.36,1.21-.79,1.69-1.31.29.22.61.43.94.62,1.02.58,2.21,1.02,3.54,1.31,1.25.26,2.61.4,4.04.4,1.59,0,3.08-.25,4.42-.73,1.35-.49,2.55-1.17,3.55-2.03,1.06-.9,1.88-1.98,2.45-3.18.58-1.23.87-2.54.87-3.9,0-.34-.02-.67-.05-.99-.11,1-.38,1.97-.82,2.89-.57,1.2-1.39,2.28-2.45,3.18Z"/>
      <path class="cls-3" d="M21.42,67.49h0c.03-.74.16-1.52.4-2.4.19-.74.42-1.59.66-2.55.23-.9.44-1.92.62-3.01.02-.13.04-.26.06-.39h0s0-.02,0-.03c.04-.25.08-.51.1-.77-.03-.46-.07-.92-.12-1.37-.02-.16-.03-.33-.05-.49-.03-.26-.07-.5-.11-.76-.03-.24-.07-.48-.11-.7h0c-.01-.07-.02-.13-.03-.19-.07-.36-.14-.71-.22-1.05-.03-.12-.05-.24-.08-.36-.01-.05-.03-.09-.04-.14-.1-.4-.22-.79-.35-1.16-.05-.15-.11-.31-.16-.46-.14-.38-.28-.76-.45-1.11,0-.01,0-.02-.01-.03,0-.02-.02-.04-.03-.06h0c-.39-.83-.84-1.6-1.37-2.31-.03-.04-.05-.08-.07-.11-.02-.02-.04-.04-.05-.06-1.13-1.48-2.58-2.65-4.36-3.5-.29-.14-.6-.24-.91-.36-.29-.11-.58-.21-.89-.3-1.41-.41-2.98-.63-4.75-.63-.37,0-.79.03-1.22.08-.22.03-.44.05-.68.09-.35.05-.69.12-1.02.22-.01,0-.03.01-.04.01-.32.1-.62.21-.92.34-.21.09-.4.22-.58.34-.37.23-.72.49-1,.82-.43.48-.64,1.11-.64,1.86,0,.21.02.41.06.61,0,.07.02.13.04.2.04.18.09.36.16.53,0,.01,0,.03.02.04.17.42.4.83.67,1.22.1.15.21.29.31.44.17.24.34.48.52.72,0,0,.01.02.02.03.28.37.52.76.73,1.18.32.67.55,1.49.68,2.46,0,.02,0,.04,0,.06,0,0,0,0,0,0,0,0,0,0,0,0,0,.07.01.14.02.21.11.9.17,1.71.17,2.41,0,.02,0,.03,0,.05,0,.16,0,.32,0,.48,0,.03,0,.05-.01.08,0,.1-.01.2-.02.29v.02h0c-.02.15-.03.29-.05.43,0,.08-.02.15-.03.22-.01.11-.03.22-.05.33-.02.16-.06.32-.1.49-.03.16-.08.32-.12.48-.27.91-.56,1.8-.89,2.68-.01.04-.03.08-.04.12-.34.92-.65,1.85-.92,2.78-.05.17-.07.34-.11.5-.18.77-.29,1.55-.29,2.35,0,.05,0,.1,0,.15,0,.12.01.23.03.34.01.09.02.17.04.26v.02c.02.11.05.21.08.32,0,.02.01.04.02.06.01.03.02.07.03.11,0,.01.01.03.02.04.06.15.13.3.21.44.01.03.03.05.04.08,0,.02.02.03.03.05.09.14.19.28.3.41.01.02.03.04.04.05.19.22.41.41.62.6.17.16.34.31.53.45.29.22.59.43.93.61.38.21.78.39,1.19.55.46.18.94.33,1.43.44.92.21,1.75.32,2.48.32,1.11,0,2.13-.17,3.09-.47.62-.2,1.21-.43,1.77-.75,1.07-.61,2.01-1.36,2.84-2.25.27-.29.53-.6.77-.92.43-.57.81-1.16,1.15-1.79ZM15.43,59.93c0,.09-.02.18-.03.27,0,.03,0,.06-.01.09,0,.03,0,.05,0,.08h0c-.02.13-.04.24-.06.36s-.04.25-.07.37c-.13.6-.32,1.18-.57,1.74-.25.55-.56,1.02-.95,1.39,0,0,0,0,0,0,0,0,0,0,0,0-.03.03-.06.05-.09.07-.19.17-.38.29-.59.37-.21.08-.42.12-.65.12-.19,0-.34-.05-.46-.16,0,0,0,0,0,0,0,0,0,0,0,0-.1-.09-.19-.23-.25-.38,0,0-.01-.01-.01-.02-.04-.11-.05-.22-.07-.33-.01-.06-.04-.12-.04-.19,0-.03,0-.06-.01-.08v-.17c0-.08,0-.15,0-.23,0-.9.03-1.79.04-2.69.01-.73.01-1.47.03-2.2.05-1.63.07-3.27.07-4.93,0-.03,0-.09,0-.13,0-.09,0-.2,0-.31.01-.18.04-.35.09-.51,0,0,0,0,0,0h0s0,0,0,0c.05-.16.13-.3.22-.42.11-.12.25-.18.41-.18.47,0,.9.29,1.28.87.07.12.14.26.21.39.28.5.54,1.05.75,1.71.2.63.35,1.28.47,1.95.04.2.08.39.11.59,0,.02,0,.04,0,.07.05.34.09.65.12.94.01.12.02.23.03.34.02.22.03.43.03.62,0,.06,0,.13,0,.19,0,.13-.01.27-.02.41Z"/>
      <path class="cls-1" d="M15.41,58.71c0-.11-.02-.23-.03-.34-.03-.29-.07-.6-.12-.94,0-.02,0-.04,0-.07-.03-.2-.08-.39-.11-.59-.12-.67-.28-1.32-.48-1.95-.21-.65-.46-1.2-.74-1.7-.07-.13-.13-.27-.21-.39-.38-.58-.81-.87-1.28-.87-.16,0-.3.06-.41.18-.1.12-.17.25-.22.42,0,0,0,0,0,0,0,0,0,0,0,0-.05.16-.08.33-.09.51,0,.11,0,.22,0,.31,0,.04,0,.09,0,.13,0,1.66-.03,3.3-.07,4.93-.02.73-.02,1.47-.04,2.2-.02.9-.04,1.79-.04,2.69,0,.08,0,.15,0,.23v.17s.01.05.01.08c0,.07.03.12.04.19.02.11.03.22.07.32,0,.01,0,.02.01.03.06.16.14.29.25.38,0,0,0,0,0,0,.12.11.28.16.47.16.22,0,.44-.04.64-.12.21-.08.41-.2.59-.37.03-.03.06-.05.09-.08,0,0,0,0,0,0,.39-.37.7-.84.95-1.39.25-.56.44-1.14.57-1.74.03-.12.05-.25.07-.37s.04-.23.06-.35h0s0-.06,0-.09c0-.03,0-.06.01-.09.01-.09.02-.18.03-.27.01-.14.02-.28.02-.41,0-.05,0-.13,0-.19,0-.19-.01-.4-.03-.62Z"/>
      <path class="cls-3" d="M38.78,68.65h0c-.04-.3-.06-.6-.06-.9,0-.1,0-.2,0-.29,0-.67.09-1.31.23-1.93-.12-.04-.25-.08-.37-.1,0,0-.02,0-.02,0,0,0,0,0-.01,0-.17-.03-.33-.05-.49-.05-.5,0-1,.02-1.51.07-.51.05-1.02.07-1.54.07-.08,0-.18,0-.28-.01-.15,0-.31-.02-.5-.04-.27-.04-.55-.09-.8-.18-.02,0-.05,0-.08-.02-.22-.08-.42-.18-.59-.31-.05-.03-.09-.06-.14-.09-.2-.18-.3-.42-.3-.73,0-.27.08-.51.22-.74.02-.03.03-.05.05-.08.06-.08.13-.16.21-.24.15-.13.3-.23.46-.3.01,0,.03-.02.04-.03.17-.07.35-.11.54-.11.48,0,.93.07,1.35.21.21.07.43.12.66.16.22.04.45.05.69.05.52,0,.94-.09,1.26-.27.2-.11.36-.26.51-.42.09-.1.17-.2.24-.31.07-.12.12-.24.17-.36.01-.03.03-.05.04-.08.05-.14.1-.29.13-.44,0-.02.01-.04.02-.06,0-.02,0-.05.02-.07,0-.02,0-.05.01-.07.06-.35.1-.7.1-1.05,0,0,0-.01,0-.02,0-.37-.08-.65-.2-.88-.05-.09-.08-.19-.15-.26-.15-.15-.33-.26-.52-.34-.11-.05-.22-.1-.35-.12-.14-.03-.29-.04-.43-.06-.14-.02-.29-.02-.44-.01-.09,0-.17,0-.26,0-.08,0-.14,0-.22,0-.33.02-.65.03-.93.03-.13,0-.25-.01-.38-.02-.12,0-.24-.02-.36-.03-.18-.02-.35-.05-.53-.09-.41-.1-.78-.25-1.1-.46-.14-.1-.28-.23-.41-.36,0,0-.01-.01-.02-.02,0,0,0,0,0,0-.12-.14-.24-.3-.33-.47-.03-.05-.06-.11-.07-.17h0s-.03-.07-.05-.11c0-.01-.01-.03-.02-.05-.03-.07-.05-.14-.06-.22-.01-.05-.02-.1-.03-.15-.01-.07-.03-.14-.04-.22,0-.1-.02-.2-.02-.32,0-.02,0-.03,0-.05,0-.15.02-.3.05-.45.03-.15.08-.29.14-.42.06-.14.14-.26.23-.38,0,0,0,0,0,0,0-.01.02-.02.03-.04.06-.08.13-.17.21-.24l.06-.06s0,0,0,0c0,0,0,0,0,0h0s.04-.03.05-.04c.21-.19.44-.34.7-.45.28-.12.58-.18.89-.18.2,0,.41.02.61.06.13.02.26.04.39.08.33.1.65.2.97.3.16.06.33.11.49.16.15.05.31.1.46.15.32.09.64.14.98.14.06,0,.11-.01.17-.02-.04-.28-.07-.57-.08-.87-.01-.01-.01-.02,0-.03-.03-.33-.04-.67-.04-1.03,0-1.55.28-3.07.83-4.52.24-.64.53-1.25.87-1.83.2-.34.41-.67.64-.99,0-.03-.02-.06-.03-.08,0-.02-.01-.04-.02-.05-.26-.6-.62-1.02-1.1-1.27-.18-.1-.4-.16-.61-.23-.34-.1-.7-.17-1.1-.18-.68-.03-1.44-.04-2.29-.04-.65,0-1.29-.05-1.94-.11-.36-.04-.72-.07-1.08-.13-.99-.17-2-.25-3.01-.25-.73,0-1.42.08-2.06.25-.23.06-.43.14-.63.22-.33.13-.63.29-.9.49-.03.03-.08.04-.11.07-.46.35-.82.81-1.08,1.38-.26.57-.39,1.26-.39,2.09,0,.37.03.74.07,1.1,0,.07.02.15.03.22.04.29.1.58.17.87.01.04.02.09.03.13.02.08.05.16.07.25.18.64.37,1.29.58,1.93,0,.02.01.04.02.06.05.16.09.33.15.49.19.58.37,1.17.53,1.76.2.76.3,1.54.3,2.34,0,.09,0,.17,0,.25,0,.32,0,.63-.02.94v.15c0,.18-.02.37-.04.55,0,.11-.02.21-.03.32,0,.02,0,.03,0,.05-.01.23-.04.45-.06.67v.03c-.04.26-.07.51-.12.77,0,.03,0,.06-.01.09-.07.44-.16.85-.24,1.26-.14.7-.28,1.37-.44,1.99-.07.29-.14.56-.21.83-.07.27-.14.54-.2.79-.09.34-.18.68-.25.98-.07.23-.1.44-.15.65-.1.47-.16.91-.16,1.28,0,.14.02.27.03.4,0,.09,0,.17.02.26,0,.07.02.14.03.2.02.1.05.2.07.3.04.18.09.36.17.52.05.13.11.27.17.39.02.03.04.06.05.1.11.18.22.36.36.53.6.73,1.35,1.32,2.23,1.77.22.11.46.19.69.29.69.29,1.41.53,2.17.68.48.09.93.16,1.37.22.5.06.97.09,1.42.09.54,0,1.11-.06,1.7-.16.31-.05.61-.09.92-.17.92-.21,1.77-.53,2.55-.97,0,0,.02,0,.02-.01.31-.18.59-.39.86-.6.11-.09.22-.17.31-.27.04-.03.07-.08.1-.11-.48-.8-.79-1.66-.9-2.58Z"/>
      <path class="cls-3" d="M57.47,69.19c.06-.07.1-.12.12-.19h0c-.04-.35-.08-.7-.09-1.07,0,0-.01-.01,0-.02-.02-.29-.03-.6-.03-.91,0-.78.04-1.54.13-2.27.05-.51.12-1,.21-1.47.01-.04.01-.07.02-.11h0s-.01-.03-.02-.05c-.12-.23-.27-.43-.4-.65-.35-.55-.73-1.07-1.19-1.55-.25-.25-.51-.49-.77-.73-.42-.38-.84-.74-1.29-1.07-.73-.55-1.42-1.08-2.06-1.6-.19-.16-.35-.31-.52-.47-.4-.37-.77-.73-1.07-1.11-.13-.17-.24-.34-.33-.52-.02-.03-.04-.06-.06-.1-.01-.03-.03-.06-.04-.09-.01-.01-.01-.03-.02-.04,0-.02,0-.04-.02-.05-.03-.07-.05-.15-.07-.23-.02-.08-.05-.16-.06-.24-.03-.15-.04-.31-.04-.47,0,0,0,0,0-.01,0,0,0,0,0,0,0,0,0,0,0,0,0-.08.01-.16.02-.24,0-.06,0-.11.01-.17,0,0,0-.02,0-.03.06-.39.2-.75.43-1.07.31-.44.66-.66,1.07-.66.24,0,.45.09.64.25.12.1.23.23.33.39.07.12.15.26.22.39.18.32.37.66.56,1.03.02.03.03.05.05.08.26.49.54.93.86,1.33.06.08.14.15.21.22.2.18.43.31.7.37.14.03.29.05.44.05.18,0,.36-.02.54-.05.08-.01.16-.03.24-.04.18-.04.36-.09.54-.16.07-.03.14-.07.2-.11.34-.16.66-.37.93-.64,0,0,0-.01.01-.02.29-.3.52-.67.72-1.11.02-.04.05-.08.06-.13.12-.32.2-.69.24-1.09-.01-.05-.02-.1-.04-.15v-.04s-.02-.06-.02-.09c-.17-.6-.33-1.18-.51-1.73-.19-.6-.38-1.17-.54-1.7v-.02s-.02-.03-.02-.04c-.07-.23-.14-.45-.21-.66-.2-.61-.34-1.17-.41-1.7h0c-.05-.27-.07-.52-.08-.76h0s-.02-.04-.03-.06c-.5-.68-1.11-1.27-1.83-1.76-.23-.16-.47-.3-.72-.44-1.04-.57-2.28-.85-3.72-.85-1.31,0-2.5.23-3.57.68-.11.05-.22.08-.33.13-.28.13-.56.28-.82.43-.22.13-.43.27-.63.41-.03.02-.06.04-.09.06-.03.02-.05.04-.08.05-.17.13-.33.26-.49.4,0,0,0,0,0,0-.08.07-.18.15-.26.22-.16.15-.32.3-.47.47-.03.03-.07.06-.1.1-.12.13-.23.27-.34.41-.09.11-.18.23-.27.34-.51.69-.92,1.45-1.23,2.27-.43,1.12-.64,2.27-.64,3.46,0,.69.05,1.31.14,1.88.01.11.04.22.06.32h0c.09.47.22.88.37,1.26.02.05.04.1.06.15.02.04.03.08.05.12.09.18.18.35.28.52.07.14.15.28.25.41.08.13.16.27.25.39.12.17.24.32.38.47.03.03.05.06.08.09.14.16.28.31.44.44.25.23.52.43.8.62.21.15.42.29.64.43.25.15.5.31.76.44.79.39,1.52.78,2.2,1.17.28.16.52.34.76.52.34.26.66.54.92.84.12.13.22.28.3.44.25.45.38,1,.38,1.65,0,.13,0,.24-.03.35,0,0,0,.02,0,.02,0,.02,0,.03,0,.05,0,.01,0,.02,0,.03,0,.05-.02.09-.04.13-.03.09-.06.18-.11.26-.01.04-.03.08-.06.12,0,.01-.01.02-.02.03,0,0,0,0,0,.01,0,0,0,0,0,0-.01.02-.03.03-.05.04-.05.06-.1.11-.17.16-.05.04-.13.05-.19.09-.31.17-.68.27-1.16.27-.18,0-.34-.05-.48-.15-.08-.05-.15-.12-.22-.2-.03-.04-.06-.07-.09-.11-.03-.05-.07-.11-.1-.17-.16-.26-.33-.53-.52-.83-.08-.12-.17-.23-.26-.35-.18-.22-.38-.44-.63-.65-.04-.04-.1-.07-.15-.1-.36-.23-.82-.36-1.42-.36-.12,0-.22.03-.34.05-.12.02-.25.03-.37.07-.18.06-.37.14-.54.25-.19.12-.36.27-.52.43-.05.05-.09.12-.14.17-.1.12-.21.23-.3.37,0,.01-.02.02-.03.04-.14.2-.25.43-.36.66-.1.22-.18.45-.25.7-.02.04-.03.08-.04.12-.16.57-.23,1.19-.23,1.85,0,.28.03.54.09.8.02.07.03.15.05.22.01.04.02.07.03.11.04.12.08.23.13.35.02.05.04.11.07.16.04.08.09.16.13.24.04.07.08.14.13.22.08.12.17.24.27.35.05.07.11.12.16.18.06.07.12.13.19.19.03.02.05.05.08.08.04.04.08.08.12.11.11.1.22.19.34.27.16.12.32.23.5.33,0,0,.02.01.03.02.02,0,.03.02.05.03.25.14.54.26.82.38.56.24,1.16.45,1.86.59.39.09.81.14,1.23.19.69.09,1.41.15,2.18.15,1.25,0,2.39-.18,3.4-.55.16-.06.29-.14.45-.2.82-.34,1.56-.76,2.18-1.29.23-.2.44-.41.64-.63.05-.05.09-.11.14-.16.18-.22.36-.45.51-.69Z"/>
      <path class="cls-3" d="M69.24,66.87h0c-.11-.33-.22-.65-.31-.98-.35-1.24-.6-2.55-.74-3.89-.04-.4-.07-.81-.1-1.21v-.02h0c-.04-.54-.06-1.08-.08-1.61h0c-.01-.33-.01-.64-.01-.95v-.13h0c-.02-.17-.03-.32-.04-.48-.01-.13-.02-.26-.03-.38,0-.14,0-.28,0-.42,0-.03,0-.06,0-.09s0-.05,0-.08c0-.19,0-.39.02-.58,0-.19.03-.37.05-.55,0-.05.01-.11.02-.16.02-.17.04-.33.07-.49,0-.03.01-.05.02-.08v-.04c0-.18.02-.36.03-.53.09-1.33.29-2.62.58-3.81.25-1.06.61-2.08,1.07-3.04h0c.07-.17.14-.32.22-.47,0-.07,0-.15,0-.22,0-.11-.01-.21-.03-.31,0-.1-.02-.19-.03-.28-.01-.07-.02-.14-.03-.2-.06-.36-.16-.68-.28-.96-.26-.59-.62-1.06-1.08-1.4-.46-.34-1.01-.57-1.65-.69-.64-.12-1.33-.18-2.09-.18-.23,0-.52.03-.83.07-.16.02-.31.04-.49.08-.31.05-.6.13-.9.22-.22.07-.45.15-.67.25-.51.23-.95.53-1.31.9-.03.03-.05.07-.08.1-.05.05-.1.11-.13.17-.03.03-.05.07-.07.11-.1.15-.16.32-.2.49,0,0,0,.02,0,.03,0,.01,0,.03-.01.04h0s-.02.08-.02.12c-.02.11-.03.23-.03.36,0,.03,0,.07,0,.1,0,.19.03.39.07.62.01.09.03.18.05.27.06.27.13.55.23.86.04.12.08.25.12.37,0,0,0,0,0,.02s0,.02.01.03c.04.12.08.25.12.38.06.19.13.39.19.59.1.3.19.61.3.93.01.04.02.07.03.11.21.66.4,1.36.59,2.08.01.05.03.1.04.15,0,0,0,0,0,0,.04.16.08.31.12.47,0,.03.02.06.02.09,0,0,0,.02,0,.03.09.38.15.77.21,1.15.09.61.15,1.22.15,1.82,0,.16-.02.31-.02.47,0,.15,0,.29-.02.44v.14s0,.06-.01.08c0,.03,0,.07-.01.1,0,.08-.02.16-.03.24,0,.04,0,.08-.01.12-.01.13-.03.26-.06.39-.02.19-.06.37-.1.55,0,.04-.01.09-.02.13-.19.88-.4,1.77-.64,2.68-.16.61-.29,1.26-.43,1.9-.05.24-.11.46-.16.71-.01.08-.03.16-.05.24,0,.04-.01.08-.02.12-.07.4-.13.82-.18,1.25,0,.09-.02.18-.03.27-.04.49-.07,1-.07,1.53,0,.41.03.78.06,1.14.01.15.02.29.04.43.04.31.09.61.15.88,0,.02,0,.03,0,.05.02.08.04.16.06.24.08.29.17.57.27.83.03.06.06.12.09.18.11.22.22.43.35.62.03.04.06.09.09.13.16.22.35.42.55.59.03.03.05.04.08.06.2.16.41.29.65.41.02.01.04.02.07.03.25.11.52.19.8.25.04,0,.07.02.11.02.3.06.62.09.96.09,1.39,0,2.46-.46,3.24-1.34.06-.07.13-.11.18-.19.16-.21.3-.45.43-.69.06-.11.11-.21.16-.33.1-.24.2-.48.28-.75,0,0,0,0,0-.01.02-.05.03-.11.04-.16,0,0,0,0,0,0,.07-.29.13-.59.18-.9.01-.07.02-.14.03-.22.04-.35.06-.72.06-1.11-.06-.13-.11-.25-.16-.38Z"/>
      <path class="cls-3" d="M87.83,69.81v-.03c-.03-.28-.05-.57-.05-.87v-.11c.01-.62.05-1.24.14-1.85-.02-.02-.04-.05-.06-.07-.09-.09-.17-.18-.26-.29-.11-.14-.21-.29-.31-.46-.02-.03-.03-.07-.05-.11-.03-.06-.06-.13-.09-.2-.02-.05-.03-.09-.04-.14h0v-.03c-.02-.09-.04-.19-.06-.29,0-.03-.01-.06-.02-.09,0-.03,0-.07,0-.09-.02-.15-.03-.31-.03-.48,0-.04,0-.07,0-.11,0-.42.08-.87.25-1.33.16-.46.34-.93.53-1.4.19-.47.37-.94.53-1.4,0-.01,0-.03.01-.04.07-.21.13-.41.17-.61,0-.04.01-.07.02-.11.03-.19.05-.38.05-.57,0,0,0,0,0-.01,0-.54-.15-.97-.44-1.27-.25-.26-.57-.45-.92-.61-.07-.03-.12-.07-.2-.09-.41-.14-.86-.22-1.34-.26-.05,0-.1-.02-.16-.02-.54-.04-1.06-.05-1.56-.05-.42,0-.93.01-1.5.05-.05,0-.09.01-.14.01-.33.02-.65.07-.97.13-.19.04-.38.07-.57.13-.52.14-.97.35-1.34.65,0,0-.02.01-.03.02-.03.03-.06.06-.09.09-.31.3-.48.7-.48,1.22,0,.03,0,.05,0,.08,0,.23.02.45.07.64,0,0,0,.02,0,.03v.02c.05.21.13.39.22.55,0,0,.01.02.02.03.14.23.33.4.53.56.09.07.18.15.28.2.2.11.41.18.64.25.16.04.32.08.49.1.04,0,.08,0,.11.01.35.05.71.07,1.06.07.03,0,.06,0,.1,0,.14,0,.27.02.41.06.13.03.25.08.38.14.26.13.39.4.39.8,0,.31-.08.59-.25.85-.17.26-.37.48-.62.67-.08.06-.17.11-.25.16-.07.05-.15.09-.23.13-.11.06-.23.11-.35.15-.31.11-.59.16-.85.16-.02,0-.03,0-.05,0-.69,0-1.25-.14-1.69-.44-.11-.08-.2-.18-.31-.26-.3-.26-.56-.55-.76-.91-.22-.42-.38-.91-.49-1.44-.02-.08-.04-.15-.06-.24,0-.02,0-.04,0-.06-.04-.27-.08-.54-.1-.82,0-.02-.01-.04-.01-.06v-.02c-.03-.33-.04-.66-.04-.99,0-.97.1-1.8.29-2.51.13-.48.3-.9.51-1.26.16-.26.33-.5.53-.7.15-.15.32-.27.49-.39.45-.33.96-.57,1.54-.71.48-.12.99-.21,1.56-.21,1.14,0,2.05-.1,2.75-.3.7-.2,1.23-.53,1.61-.98.17-.2.31-.44.43-.69.03-.06.05-.12.08-.18.08-.2.15-.42.2-.66-.09-.23-.18-.47-.27-.71-.26-.75-.43-1.54-.51-2.36h0c-.03-.21-.04-.42-.04-.63-.02-.16-.02-.32-.02-.48,0-.46.05-.91.14-1.33-.08-.11-.14-.22-.23-.32,0,0-.01-.01-.02-.02-.03-.05-.07-.09-.11-.13-.23-.25-.48-.49-.76-.7-.45-.34-.97-.6-1.52-.82-.19-.08-.37-.17-.57-.22-.26-.08-.53-.13-.79-.18-.52-.1-1.03-.18-1.55-.18-1.25,0-2.47.26-3.65.78-1.18.52-2.21,1.22-3.08,2.09-.35.35-.67.72-.96,1.11-.02.03-.04.05-.06.08-.02.03-.04.06-.06.09-.16.23-.3.47-.44.7-.1.16-.22.32-.3.48-.14.27-.25.56-.37.84-.15.36-.29.73-.41,1.11-.1.31-.2.61-.28.93-.12.51-.22,1.03-.31,1.58-.08.56-.15,1.14-.19,1.74,0,.13-.02.27-.02.4,0,.13-.01.26-.02.38-.05.91-.08,1.86-.08,2.86,0,.05,0,.1,0,.15,0,.53.02,1.05.04,1.58,0,.08,0,.16.01.24.02.42.06.85.1,1.28.01.13.02.26.03.39.12,1.17.33,2.3.64,3.37.02.06.04.12.06.17.13.44.28.88.46,1.3.02.04.03.08.04.11,0,.01.01.03.02.04.21.48.43.94.69,1.39.15.26.32.52.5.76.18.24.37.47.57.7.32.35.66.68,1.04.99.86.7,1.9,1.25,3.12,1.65.29.1.59.18.91.25.01,0,.03,0,.04.01.11.03.23.04.34.06.29.06.59.11.9.15.29.04.59.07.9.09.38.03.77.04,1.17.04h.02c.12,0,.26-.01.39-.02.31-.01.63-.03.96-.06.24-.02.47-.04.72-.08.74-.1,1.43-.3,2.05-.57.02,0,.04-.02.06-.03.21-.1.4-.21.59-.33.12-.07.23-.15.34-.24.14-.11.26-.22.38-.34-.13-.41-.22-.84-.27-1.3Z"/>
      <path class="cls-3" d="M107.7,68.65h0c-.04-.3-.06-.6-.06-.9,0-.92.11-1.8.33-2.63.23-.84.55-1.59.99-2.26.02-.04.05-.07.07-.11.07-.1.14-.19.21-.29-.08-.44-.15-.88-.24-1.33-.04-.19-.06-.38-.1-.56-.02-.12-.05-.25-.07-.37-.03-.16-.05-.32-.08-.48-.06-.36-.13-.72-.19-1.08-.01-.08-.02-.16-.03-.25-.01-.09-.03-.17-.04-.27-.02-.15-.04-.3-.05-.45-.01-.02-.01-.04-.01-.06-.01-.06-.01-.11-.02-.17h0s-.02-.05-.03-.07v-.02s-.05-.08-.07-.12c-.53-1.11-.84-2.41-.93-3.95-.01-.01-.01-.02,0-.03-.03-.33-.04-.67-.04-1.03,0-1.55.29-3.07.84-4.52.13-.35.28-.7.44-1.04.19-.38.4-.76.62-1.11-.04-.11-.09-.21-.16-.31,0,0,0,0,0,0-.07-.11-.15-.22-.24-.33-.18-.21-.37-.41-.58-.6-.23-.2-.47-.39-.74-.57-.2-.14-.41-.25-.62-.36-.19-.1-.38-.19-.57-.27-.15-.06-.3-.14-.46-.19-.58-.2-1.08-.3-1.51-.3-.26,0-.51.02-.74.05-.69.1-1.21.36-1.56.76-.05.05-.08.12-.12.18-.38.54-.59,1.26-.59,2.2,0,.37.02.75.07,1.12t0,.02s0,.06.01.09c.05.37.11.74.2,1.12.06.23.12.45.18.67.14.55.28,1.1.45,1.65.22.77.43,1.54.62,2.32.18.78.28,1.56.28,2.34,0,.12-.01.24-.02.35v.03c-.01.06-.02.11-.04.16,0,.03-.01.05-.02.08,0,.02,0,.05-.02.07-.03.14-.08.27-.14.39,0,0,0,0,0,0,0,0,0,0,0,0-.15.32-.47.48-.94.48-.28,0-.56-.16-.83-.5-.11-.13-.21-.28-.31-.44-.16-.25-.31-.52-.46-.84-.14-.3-.27-.62-.39-.96-.09-.25-.18-.5-.27-.76-.02-.05-.02-.09-.04-.14-.19-.57-.35-1.14-.48-1.68-.06-.26-.11-.51-.16-.74-.07-.3-.12-.59-.17-.86-.04-.21-.06-.39-.08-.54-.03-.2-.04-.37-.04-.49,0-.82-.03-1.56-.11-2.21-.06-.65-.24-1.21-.51-1.67-.27-.46-.69-.81-1.24-1.04-.45-.19-1.04-.31-1.76-.34-.17,0-.34-.02-.52-.02-.37,0-.76.04-1.16.09-.17.02-.33.04-.5.07-.59.11-1.13.29-1.62.55-.08.04-.14.1-.21.15-.38.24-.72.52-.99.89,0,.01-.01.01-.01.02-.01,0-.02.03-.02.04-.06.07-.11.15-.15.24-.03.03-.04.07-.06.11-.04.08-.07.16-.09.25-.02.05-.04.1-.05.15-.02.08-.04.16-.05.25-.01.03-.02.07-.02.1-.02.14-.03.28-.03.43,0,.02,0,.04,0,.06,0,.39.03.77.09,1.15,0,.01,0,.02,0,.03h0c0,.06.02.1.03.14.06.34.15.67.25,1,.01.03.02.07.03.1.07.21.15.41.23.62.04.09.07.19.11.28.06.17.13.33.21.5.03.09.07.19.12.28h0c.04.11.08.2.13.3.05.12.1.23.15.35.35.76.69,1.53,1.01,2.3.32.77.52,1.57.62,2.39.07.69.09,1.37.1,2.06,0,.05,0,.1,0,.15,0,.08-.01.15-.01.22,0,.18,0,.37-.02.55v.02c0,.12-.02.24-.03.37-.01.12-.03.25-.04.37,0,.06-.02.12-.02.18-.01.1-.03.19-.04.29-.03.17-.07.33-.1.5,0,.04-.01.09-.02.13-.19.81-.4,1.61-.63,2.4-.02.05-.03.11-.04.17-.01.05-.03.1-.04.15-.21.75-.41,1.49-.59,2.25,0,.03-.01.05-.02.08,0,.03-.02.06-.02.09,0,.03-.01.06-.02.09-.08.35-.14.69-.18,1.04-.01.11-.03.21-.04.32-.04.4-.07.79-.07,1.2,0,.36.03.69.1,1,0,0,0,.02,0,.03.07.31.17.59.3.85.1.18.22.34.34.5.04.05.07.11.11.16.03.04.06.07.09.1.17.19.35.36.56.52.46.33.99.57,1.58.73.28.07.58.13.88.17.01,0,.02,0,.04,0,.31.04.64.06.97.06.2,0,.38-.02.56-.04.04,0,.08,0,.11-.01.01.01.01,0,.02,0,.02,0,.03,0,.05,0,.15-.02.3-.06.44-.1.09-.02.16-.05.24-.08.09-.03.17-.07.25-.11.08-.04.16-.08.23-.14.11-.07.21-.15.3-.23.01-.01.03-.03.04-.04.11-.12.22-.25.3-.39h0c.03-.06.05-.11.07-.16.04-.08.08-.16.11-.24.01-.03.03-.06.04-.1.02-.07.04-.14.05-.21.03-.1.05-.19.07-.29.02-.08.03-.17.03-.26.02-.14.03-.29.03-.44,0-.03,0-.06,0-.09,0-.29-.02-.57-.05-.86-.02-.19-.04-.38-.07-.57-.07-.37-.14-.74-.21-1.11-.02-.1-.04-.19-.06-.29-.09-.46-.18-.92-.27-1.39-.04-.22-.07-.44-.09-.66-.01-.16-.02-.32-.02-.49,0,0,0-.01,0-.02,0-.08,0-.15,0-.23v-1.2s0-.02,0-.03c0-.21,0-.46.02-.77,0-.21.05-.4.08-.6.02-.1.02-.21.04-.3.05-.22.15-.41.26-.59.03-.05.06-.11.1-.16.03-.03.07-.05.1-.08.16-.15.35-.24.62-.24.47,0,.84.35,1.1,1.05.19.51.33,1.1.45,1.72.04.23.1.45.13.69,0,.03,0,.05,0,.08.11.81.19,1.6.25,2.37,0,.07.02.14.02.21.06.86.14,1.47.23,1.83.1.35.25.77.48,1.24.12.26.27.51.42.76.12.2.25.39.4.58.17.23.35.43.54.62.17.17.35.32.53.46.4.29.82.44,1.24.44.71,0,1.32-.09,1.84-.25.24-.07.46-.16.66-.27.02,0,.03-.02.05-.03.22-.12.41-.28.59-.43.11-.1.22-.2.32-.31.05-.06.09-.12.14-.18-.44-.75-.72-1.57-.83-2.45Z"/>
      <path class="cls-3" d="M127.29,66.82c.02-.12.04-.23.04-.35.01-.04.01-.07.01-.11.02-.16.03-.33.03-.49,0-1.04-.21-1.96-.64-2.77-.18-.34-.38-.66-.6-.97-.3-.43-.62-.84-.99-1.23-.17-.18-.36-.35-.54-.52-.48-.46-.98-.89-1.52-1.28-.73-.55-1.42-1.08-2.06-1.6-.15-.13-.28-.26-.43-.39-.44-.39-.84-.79-1.16-1.19-.13-.16-.23-.33-.32-.51-.02-.04-.05-.07-.06-.12-.01-.03-.03-.06-.04-.09-.01-.01-.01-.03-.02-.04,0-.02-.01-.04-.02-.06-.02-.06-.03-.11-.05-.17-.03-.1-.06-.19-.08-.3-.01-.07-.01-.14-.02-.21,0-.09-.02-.17-.02-.26,0-.57.15-1.07.46-1.51.31-.44.66-.66,1.07-.66.2,0,.38.06.54.16.16.11.31.27.43.48.25.43.51.9.78,1.42s.57.99.9,1.42c.08.1.16.19.25.26.16.14.35.23.55.29.17.05.35.09.54.09.18,0,.35-.02.53-.05.06,0,.13-.02.19-.03.2-.04.4-.1.59-.17.16-.06.31-.15.46-.24.24-.14.47-.31.67-.51.33-.33.6-.75.8-1.26.2-.51.3-1.11.3-1.82,0-1.04-.15-2.11-.46-3.21-.31-1.1-.79-2.1-1.45-2.99-.13-.17-.27-.33-.41-.5-.59-.67-1.3-1.25-2.14-1.7-1.04-.57-2.28-.85-3.72-.85-1.32,0-2.51.24-3.59.69-.1.04-.21.08-.31.12-.57.27-1.09.57-1.58.92-.5.36-.96.77-1.36,1.22-.11.12-.22.25-.32.37-.03.03-.06.07-.08.1-.01.02-.02.04-.04.05-.06.06-.11.13-.15.19-.03.04-.06.09-.1.13-.08.11-.16.23-.23.35-.09.13-.18.28-.26.42-.05.09-.1.18-.15.27-.07.12-.13.24-.19.37-.12.25-.23.5-.33.76-.43,1.12-.64,2.27-.64,3.46,0,.76.06,1.45.16,2.06,0,0,0,.01,0,.02.05.25.11.49.17.71.02.08.04.16.07.24.07.21.14.4.22.58.01.03.03.07.04.1.01.03.03.05.04.08.07.15.15.3.23.44,0,.01.02.03.03.05.01.02.02.03.03.05,0,.01.01.01.01.02s.01.01.01.02c.02.03.03.06.06.09h0c.1.18.21.34.32.49.03.05.06.1.1.14.02.03.04.05.06.08.07.09.14.18.22.27.02.02.03.03.05.05.05.07.11.13.17.19.11.13.23.24.35.35.08.08.18.13.26.21.51.43,1.05.79,1.62,1.1.11.06.21.13.32.18.22.11.42.21.62.32.24.12.47.24.7.36.3.16.6.32.88.49.21.12.39.26.58.4.41.3.79.61,1.1.97.17.2.3.44.41.69.17.4.27.86.27,1.4,0,.13-.01.24-.03.35,0,0,0,0,0,.01,0,.03,0,.05-.01.07,0,0,0,0,0,.01,0,.02-.01.04-.02.06-.07.3-.21.54-.43.69-.08.05-.18.08-.27.12-.3.14-.64.24-1.08.24-.33,0-.59-.16-.78-.46-.11-.18-.24-.38-.36-.57-.09-.14-.17-.27-.26-.42-.13-.21-.3-.41-.48-.6-.13-.13-.26-.27-.41-.39-.07-.06-.14-.1-.22-.15-.35-.2-.79-.31-1.35-.31-.13,0-.26.03-.38.06-.14.03-.29.06-.42.11-.15.06-.3.11-.43.2-.02.02-.04.04-.06.05-.14.09-.26.2-.39.32-.05.04-.09.09-.14.14-.14.15-.28.31-.4.5-.21.32-.38.69-.51,1.09-.05.13-.1.26-.14.4-.15.57-.23,1.19-.23,1.85,0,.2.01.39.04.57.01.05.02.09.03.14.01.02.02.05.03.08v.03c.02.11.05.22.08.33.01.04.02.07.03.1.04.11.08.22.13.33.01.02.02.05.03.07.07.15.16.3.25.44.1.15.21.3.34.44,0,0,0,0,0,.01.11.12.23.24.35.35.04.04.08.07.12.11h0c.09.08.18.15.28.22.04.03.07.06.11.09.07.05.15.09.22.14.1.07.2.13.31.2.3.17.65.32,1,.46.51.2,1.06.38,1.67.51.37.08.77.13,1.17.18.71.09,1.45.16,2.24.16,1.22,0,2.33-.18,3.33-.53.02,0,.05-.01.07-.02.02,0,.04-.02.06-.03.98-.37,1.85-.85,2.56-1.46.29-.25.56-.52.8-.81.35-.42.66-.88.89-1.37.08-.17.15-.34.21-.52.03-.07.05-.13.07-.2.04-.14.08-.27.12-.41,0-.03.02-.07.03-.1.01-.04.02-.08.03-.12.02-.1.04-.21.05-.31h0Z"/>
      <path class="cls-1" d="M127.02,58.54c.69-.31,1.32-.75,1.87-1.3.61-.6,1.11-1.37,1.47-2.27.24-.61.39-1.27.46-1.99h0c.04-.31.05-.62.05-.94,0-1.31-.19-2.67-.58-4.02-.4-1.44-1.05-2.78-1.93-3.97-.91-1.24-2.1-2.27-3.52-3.05-1.49-.81-3.23-1.21-5.16-1.21s-3.63.37-5.18,1.1c-1.23.57-2.32,1.31-3.26,2.2-.03-.04-.06-.08-.09-.12-.55-.66-1.22-1.24-1.98-1.75-.72-.47-1.5-.86-2.31-1.14-.92-.32-1.73-.47-2.5-.47-2.44,0-3.83,1-4.56,1.84-.12.14-.23.28-.34.43-.41-.33-.87-.61-1.38-.82-.95-.41-2.08-.6-3.47-.6-.7,0-1.44.07-2.2.21-.89.16-1.73.45-2.49.85-.58.32-1.1.7-1.55,1.16-.26-.28-.57-.55-.89-.79-.9-.67-1.91-1.18-3.02-1.51-1.06-.33-2.14-.49-3.21-.49-1.67,0-3.3.35-4.86,1.03-1.53.68-2.87,1.59-4,2.72-.01.01-.03.03-.04.04-.47-1.06-1.16-1.92-2.02-2.57-.83-.62-1.8-1.04-2.9-1.24-.82-.15-1.7-.23-2.63-.23-.52,0-1.13.06-1.85.19-.78.14-1.54.37-2.26.69-.85.38-1.61.9-2.24,1.55-.14.15-.27.3-.39.46-.63-.59-1.35-1.1-2.14-1.53-1.49-.81-3.23-1.21-5.16-1.21s-3.63.37-5.18,1.1c-.97.45-1.86,1.01-2.66,1.67-.49-.75-1.14-1.34-1.9-1.74-.88-.46-1.89-.71-3.01-.75-.69-.02-1.47-.04-2.39-.04-.86,0-1.7-.07-2.52-.2-1.16-.2-2.34-.29-3.51-.29-.98,0-1.92.11-2.8.34-1.04.27-1.96.71-2.73,1.31-.85.65-1.51,1.49-1.98,2.5-.21.47-.38.97-.49,1.51-1.28-1.42-2.84-2.57-4.66-3.44-2.21-1.05-4.84-1.59-7.83-1.59-.71,0-1.5.07-2.35.2-.97.15-1.9.42-2.77.81-1.02.47-1.89,1.11-2.6,1.92-.9,1.02-1.38,2.35-1.38,3.83,0,.34.02.68.08,1,.07.54.21,1.06.42,1.55.25.6.58,1.2.98,1.77.29.42.59.84.9,1.25.17.23.32.48.46.75.11.22.29.72.39,1.56.12.85.17,1.6.17,2.23,0,.28-.01.55-.05.83-.04.41-.12.81-.24,1.21-.24.86-.53,1.73-.85,2.58-.38,1.03-.71,2.03-.99,3-.35,1.2-.52,2.44-.52,3.69,0,.28.02.55.06.82.14,1.3.66,2.49,1.51,3.48.8.93,1.79,1.72,2.94,2.34,1.06.58,2.2,1.01,3.38,1.28,1.13.26,2.19.4,3.15.4,2.35,0,4.49-.55,6.36-1.63,1.36-.78,2.58-1.75,3.63-2.91.2-.21.39-.44.58-.67.19.32.4.63.64.92.03.03.06.07.09.1.85,1.01,1.89,1.83,3.1,2.44,1.14.58,2.36,1,3.64,1.25,1.19.23,2.33.36,3.38.36s2.16-.14,3.3-.4c1.18-.27,2.31-.7,3.34-1.28.24-.14.47-.28.7-.45.42-.27.82-.59,1.18-.95.27.2.55.38.85.55.09.05.19.1.28.14.96.52,2.05.91,3.26,1.17,1.25.26,2.6.4,4.04.4,1.59,0,3.08-.25,4.42-.73,1.31-.48,2.48-1.13,3.46-1.96.03-.02.06-.05.09-.07.18-.15.35-.31.52-.48.24.43.5.8.78,1.13,1.79,2.11,4.31,2.36,5.37,2.36,3.06,0,4.83-1.46,5.78-2.68.19-.24.36-.49.52-.76.23-.38.43-.79.6-1.23.14.17.29.34.45.5.36.38.75.74,1.17,1.07,1.15.93,2.51,1.66,4.06,2.17,1.52.5,3.28.75,5.22.75.76,0,1.59-.06,2.48-.19,1.02-.14,1.96-.41,2.84-.78.26-.11.51-.24.76-.38.35-.2.68-.43.99-.69.25.28.55.54.87.77.07.05.14.1.22.15.7.46,1.49.81,2.35,1.04.84.22,1.73.33,2.64.33,2.27,0,4.03-.92,5.03-2.5.35.37.72.71,1.12,1.01.93.67,1.97,1.03,3.03,1.03,1.57,0,2.85-.29,3.94-.88.19-.11.38-.22.55-.34.42-.28.8-.61,1.14-.97.29.22.61.43.94.62.01.01.03.01.04.02,1.01.57,2.19,1,3.5,1.29,1.25.26,2.61.4,4.04.4,1.59,0,3.08-.25,4.42-.73,1.35-.49,2.55-1.17,3.55-2.03,1.06-.9,1.88-1.98,2.45-3.18.44-.92.71-1.89.82-2.89.03-.33.05-.67.05-1.01,0-1.53-.33-2.93-.98-4.17-.35-.65-.75-1.27-1.21-1.85-.27-.36-.56-.7-.88-1.03-.09-.09-.18-.19-.28-.28ZM88.83,54.7c.06-.06.12-.13.17-.19.06.13.11.26.16.38-.1-.07-.22-.13-.33-.19ZM58.38,58.82c-.09-.09-.19-.19-.28-.28.32-.14.63-.32.92-.52-.09.41-.18.81-.27,1.21-.11-.14-.24-.28-.37-.41ZM41.96,60.89c.02-.07.02-.14.02-.22.05.04.09.08.14.12-.06.03-.1.07-.16.1ZM20.82,68.49c-.17.27-.36.53-.55.78-.25.32-.51.63-.78.92-.83.89-1.77,1.64-2.84,2.25-.55.32-1.15.56-1.77.75-.96.3-1.99.48-3.09.48-.73,0-1.56-.11-2.48-.32-.49-.11-.97-.27-1.43-.45-.41-.16-.81-.34-1.19-.55-.34-.18-.64-.39-.93-.61-.19-.14-.36-.29-.53-.45-.22-.2-.44-.39-.62-.6-.02-.02-.03-.04-.04-.05-.08-.1-.16-.19-.23-.3-.03-.03-.05-.08-.07-.12,0-.02-.02-.03-.03-.05-.02-.03-.03-.05-.04-.08-.02-.03-.04-.07-.06-.1-.01-.01-.01-.03-.02-.04-.05-.1-.1-.2-.13-.3,0-.01-.01-.03-.02-.04-.01-.04-.02-.08-.03-.11,0-.02-.01-.04-.02-.06-.03-.1-.06-.21-.08-.31h0v-.03c-.02-.09-.03-.17-.04-.26,0-.03-.01-.06-.02-.09,0-.08,0-.17-.01-.25,0-.05,0-.1,0-.15,0-.8.11-1.58.29-2.35.04-.17.06-.33.11-.5.27-.94.58-1.87.92-2.79.02-.04.03-.08.04-.12.33-.88.62-1.77.89-2.68.04-.16.09-.32.12-.48.04-.17.08-.33.1-.49.03-.11.04-.22.05-.33,0-.05.02-.11.03-.16,0-.02,0-.04,0-.06.02-.14.03-.28.05-.42h0v-.03c.01-.09.02-.19.02-.29.01-.03.01-.05.01-.08,0-.16,0-.32,0-.48,0-.02,0-.03,0-.05,0-.7-.06-1.51-.17-2.41,0-.07-.01-.14-.02-.21,0,0,0,0,0,0,0-.02,0-.04,0-.06-.13-.97-.36-1.79-.68-2.46-.21-.42-.45-.81-.73-1.18,0,0-.01-.02-.02-.03-.17-.23-.34-.47-.52-.71-.1-.15-.21-.29-.31-.44-.27-.39-.5-.8-.67-1.22,0-.01,0-.03-.02-.04-.04-.11-.08-.21-.11-.32-.01-.03-.01-.05-.02-.08-.01-.04-.02-.09-.03-.14-.01-.07-.03-.13-.04-.2,0-.01,0-.02,0-.04,0-.03-.02-.06,0-.09-.03-.16-.04-.32-.04-.49,0-.75.21-1.37.64-1.86.28-.32.62-.58,1-.81.19-.12.37-.24.58-.34.3-.13.6-.25.92-.34.01,0,.03-.01.04-.01.33-.1.67-.17,1.02-.22.24-.04.45-.06.68-.09.43-.05.85-.08,1.22-.08,1.76,0,3.33.22,4.74.64.31.09.6.19.89.3.31.12.62.22.91.36,1.78.85,3.23,2.02,4.36,3.5.02.02.04.04.05.06.03.04.05.07.07.11.53.71.98,1.47,1.37,2.3h0s0,.01,0,.01h0s.01.04.02.06c0,.01,0,.02.01.03.08.17.16.35.22.53.02.04.04.09.06.13.06.15.11.3.16.46.06.15.11.3.16.46.03.08.06.16.08.24.03.1.06.2.09.3.07.2.12.41.17.63.01.05.03.09.04.14.03.12.05.24.08.36.06.24.11.47.16.71.03.11.05.23.07.34.01.06.02.12.03.18h0c.04.23.07.47.11.71.02.15.05.3.07.46.01.04.01.07.02.11h0c0,.07.01.13.02.19.02.16.04.32.05.49.01.11.03.22.04.32.04.32.06.66.08,1v.04s0,0,0,0c-.02.26-.06.52-.1.77,0,.01,0,.02,0,.02h0c-.02.14-.04.27-.06.4-.18,1.09-.39,2.11-.62,3.01-.24.96-.47,1.81-.66,2.55-.24.88-.37,1.66-.4,2.39h0v.02h0c-.14.27-.29.53-.45.78-.05.07-.1.15-.15.22ZM39.58,71.35c-.1.1-.21.18-.31.27-.08.06-.15.14-.23.2-.05.04-.1.08-.16.12-.14.1-.3.19-.47.29,0,0-.02,0-.02.01-.78.44-1.63.76-2.55.97-.32.08-.62.12-.92.17-.58.09-1.16.16-1.7.16-.45,0-.93-.03-1.43-.09-.44-.05-.9-.12-1.37-.22-.77-.15-1.48-.39-2.17-.68-.23-.1-.47-.18-.69-.29-.88-.45-1.63-1.04-2.23-1.77-.12-.14-.23-.3-.32-.46-.01-.02-.03-.05-.04-.07-.02-.03-.04-.06-.05-.1,0-.01-.02-.03-.02-.04-.05-.09-.09-.19-.13-.29,0-.02-.01-.04-.02-.06-.07-.16-.12-.34-.17-.52-.01-.06-.04-.11-.05-.17h0s-.01-.09-.02-.13c-.01-.07-.02-.13-.03-.2,0-.07-.02-.14-.03-.21v-.02s0-.02.01-.03c-.01-.13-.03-.26-.03-.4,0-.37.07-.81.16-1.28.04-.21.08-.42.15-.65.08-.3.16-.64.25-.98.07-.25.13-.52.2-.79.07-.27.14-.53.21-.83.16-.62.3-1.29.44-1.99.08-.41.16-.82.24-1.26,0-.03,0-.06.01-.09.04-.26.08-.51.12-.77v-.03c.03-.22.05-.44.06-.67,0-.02,0-.03,0-.05,0,0,0,0,0,0v-.02s.01-.01,0-.02h0c.01-.07.02-.14.02-.2,0-.02,0-.03.01-.05,0,0,0-.01,0-.02.02-.17.03-.37.04-.55v-.15c.02-.31.02-.62.02-.94,0-.08,0-.16,0-.25,0-.8-.1-1.59-.3-2.34-.16-.59-.34-1.18-.52-1.76-.05-.16-.09-.33-.15-.49,0-.02-.01-.04-.02-.06-.21-.65-.41-1.29-.58-1.93-.02-.08-.05-.16-.07-.25-.01-.04-.02-.09-.03-.13-.07-.28-.13-.57-.17-.87-.01-.07-.03-.15-.03-.22,0,0,0-.01,0-.02v-.02c-.03-.17-.04-.35-.05-.52-.01-.18-.02-.36-.02-.54,0-.83.13-1.53.39-2.09.26-.57.63-1.03,1.08-1.38,0,0,0,0,0,0,.03-.03.08-.04.11-.07.27-.2.58-.35.9-.49.2-.08.41-.17.63-.22.64-.17,1.33-.25,2.06-.25,1.01,0,2.02.08,3.01.25.36.06.72.09,1.08.13.64.07,1.29.11,1.94.11.85,0,1.61,0,2.28.04.41.01.77.08,1.11.18.21.06.43.13.61.23.48.25.84.67,1.1,1.27,0,.02.01.04.02.05,0,.02.02.05.03.08,0,0,0,0,0,0-.23.32-.44.65-.64.99-.34.58-.63,1.19-.87,1.83-.55,1.45-.83,2.97-.83,4.52,0,.36.01.7.04,1.03-.01.01-.01.02,0,.03,0,.3.04.59.08.87,0,0,0,0,0,0-.04.01-.08.01-.12.01h-.05c-.33,0-.65-.05-.97-.14-.16-.05-.31-.1-.47-.15-.16-.05-.33-.1-.49-.16-.32-.1-.64-.2-.97-.3-.13-.03-.26-.06-.39-.08-.21-.04-.41-.06-.61-.06-.3,0-.6.06-.88.18-.27.11-.5.26-.71.45-.02.02-.04.03-.05.04h0s0,.01,0,.01l-.06.06c-.08.08-.15.16-.21.24,0,.01-.02.02-.03.04,0,0,0,0,0,0-.09.12-.17.24-.23.38-.07.14-.11.28-.14.42-.03.14-.05.29-.05.45,0,.02,0,.03,0,.04,0,.11,0,.22.02.32,0,.08.02.15.04.22,0,.05.01.1.02.14,0,0,0,0,0,.01.01.08.03.15.06.22.01.02.02.04.02.05.02.04.03.07.05.1h0c.01.07.04.13.07.18.09.17.21.33.33.47,0,0,0,0,0,0,0,0,.01.01.02.02.12.13.27.26.41.36.32.21.69.36,1.1.46.17.04.35.06.53.09.12.02.24.02.36.03.13,0,.25.02.38.02.29,0,.6,0,.93-.03.07,0,.14,0,.22-.01h.11c.05,0,.1,0,.15,0,.15,0,.3,0,.44.01.02,0,.04,0,.06,0,.13.01.26.02.38.05.12.03.23.08.34.13.19.08.37.19.52.34,0,0,0,0,0,0,.06.06.1.17.15.25.12.23.2.5.2.88,0,0,0,.01,0,.02,0,.35-.03.7-.1,1.05,0,.02,0,.05-.01.07,0,.02-.01.05-.02.07,0,0,0,.01,0,.02,0,.02,0,.03-.01.04-.03.15-.07.31-.13.44,0,0,0,0,0,0,0,.03-.03.05-.04.08-.05.12-.11.25-.17.36-.06.12-.15.22-.24.31-.14.16-.3.31-.5.42-.32.18-.74.27-1.26.27-.24,0-.47-.02-.69-.06-.22-.04-.44-.09-.66-.16-.42-.14-.87-.21-1.35-.21-.19,0-.37.04-.54.11-.01,0-.03.02-.04.03-.16.07-.31.17-.46.3-.08.08-.15.15-.21.24-.02.02-.03.05-.05.08-.14.22-.22.47-.22.74,0,.31.1.55.3.73.04.03.09.06.14.09.04.03.07.06.11.08h.01s.1.07.15.09h.01c.1.06.2.11.31.14.02,0,.05.01.08.02.26.09.53.14.8.18.19.02.35.04.5.04.1,0,.2,0,.28,0,.53,0,1.04-.02,1.55-.07.5-.05,1.01-.07,1.5-.07.15,0,.29.01.44.04.02,0,.04,0,.06,0,0,0,0,0,.01,0,0,0,.02,0,.02,0,.12.02.24.06.37.09,0,0,0,0,0,0-.14.62-.22,1.27-.23,1.93,0,.09,0,.19,0,.29,0,.3.02.6.06.89h0c.11.93.42,1.8.9,2.59,0,0,0,.01,0,.02-.03.04-.08.06-.11.1ZM56.82,70.05c-.2.22-.41.43-.64.63-.62.53-1.36.94-2.18,1.29-.15.06-.29.15-.44.2-1.02.37-2.15.55-3.4.55-.77,0-1.49-.06-2.18-.15-.42-.05-.84-.11-1.23-.19-.69-.15-1.29-.36-1.86-.59-.28-.12-.57-.23-.82-.38-.01,0-.03-.02-.04-.03,0,0-.02-.01-.03-.02-.18-.1-.34-.21-.5-.33-.12-.08-.23-.17-.34-.27-.04-.03-.08-.07-.12-.11-.03-.03-.05-.05-.08-.08-.07-.06-.13-.13-.19-.19-.05-.06-.11-.12-.16-.18-.1-.11-.19-.23-.27-.35-.05-.07-.08-.14-.13-.22-.05-.08-.1-.16-.13-.24-.03-.05-.04-.11-.07-.16-.05-.11-.1-.23-.13-.35,0-.04-.02-.07-.03-.11-.02-.07-.03-.15-.05-.22-.05-.26-.09-.52-.09-.8,0-.66.07-1.28.23-1.85.01-.04.02-.08.04-.12.07-.25.15-.48.25-.7.11-.24.23-.46.36-.66,0-.01.02-.02.03-.04,0,0,0,0,0,0,.09-.13.2-.25.3-.37.05-.06.09-.12.14-.17.16-.17.33-.31.52-.43.17-.11.35-.19.54-.25.12-.04.24-.05.37-.07.11-.02.22-.05.34-.05.6,0,1.07.12,1.42.36.05.03.11.06.15.1.25.21.45.42.63.65.09.11.19.23.26.34.18.3.35.57.52.83.03.05.07.12.1.17.03.04.06.07.09.11.07.08.14.15.22.2.14.09.3.15.48.15.48,0,.85-.1,1.16-.27.06-.03.14-.05.19-.09.06-.04.11-.1.16-.16.01-.02.03-.03.05-.04,0,0,0,0,0,0,0,0,0,0,0-.01,0,0,.01-.01.02-.03.03-.04.05-.08.06-.12,0-.01.01-.02.02-.03h0c.03-.06.05-.11.07-.16.01-.02.01-.05.02-.07.02-.04.03-.09.04-.13,0,0,0-.02,0-.03,0-.02,0-.03,0-.05,0,0,0-.02,0-.02.02-.11.03-.22.03-.35,0-.65-.13-1.2-.38-1.65-.09-.16-.19-.3-.3-.44-.27-.31-.58-.58-.92-.85-.24-.18-.48-.36-.76-.52-.68-.39-1.41-.78-2.2-1.17-.26-.13-.51-.29-.76-.44-.22-.13-.43-.27-.64-.43-.27-.2-.54-.39-.8-.62-.16-.13-.3-.28-.44-.44-.03-.03-.05-.06-.08-.09-.14-.15-.26-.3-.38-.47-.09-.12-.17-.26-.25-.39-.1-.13-.18-.27-.25-.41-.1-.17-.19-.34-.28-.52-.02-.04-.03-.08-.05-.12-.02-.05-.04-.09-.06-.14,0,0,0,0,0,0-.16-.38-.28-.79-.37-1.25h0c-.02-.1-.04-.21-.06-.32-.09-.57-.14-1.19-.14-1.88,0-1.18.21-2.33.64-3.46.31-.82.72-1.57,1.23-2.27.09-.11.18-.23.27-.34.11-.14.22-.28.34-.41.03-.03.06-.06.1-.1,0,0,0,0,0,0,.14-.16.3-.3.45-.45,0,0,.01-.01.02-.02.09-.08.18-.15.26-.22,0,0,0,0,0,0,.01-.02.03-.03.04-.04.02-.02.04-.04.07-.06.1-.09.2-.17.31-.25.02-.02.05-.04.08-.05.03-.02.05-.03.08-.05,0,0,0,0,0,0,.03-.02.06-.04.08-.05.2-.14.41-.28.63-.41.26-.15.54-.3.82-.43.11-.05.22-.09.33-.13,1.07-.45,2.26-.68,3.57-.68,1.44,0,2.68.28,3.72.85.25.14.49.28.72.44.72.49,1.33,1.08,1.83,1.75.01.02.02.03.03.04h0v.02c.01.24.03.49.08.75h0c.07.54.21,1.1.41,1.71.07.21.14.43.21.66,0,.01.01.03.02.04v.02c.16.53.35,1.1.54,1.7.18.55.34,1.13.51,1.73,0,.03.01.06.02.09v.04s.03.1.04.15c0,.01,0,.02,0,.03h0v.02s-.01.08-.01.11h0v.02h0c-.05.34-.13.63-.24.9-.02.05-.05.09-.07.13-.2.44-.43.81-.72,1.11,0,0,0,.01-.01.02,0,0,0,0,0,0-.27.27-.59.48-.93.64-.07.03-.13.08-.21.11-.17.07-.35.11-.53.15-.08.02-.16.03-.24.04-.18.03-.36.05-.54.05-.16,0-.3-.02-.44-.06-.26-.06-.49-.19-.7-.37-.07-.07-.15-.13-.21-.21-.31-.41-.59-.85-.85-1.34-.02-.03-.03-.05-.05-.08-.19-.37-.38-.71-.56-1.03-.07-.13-.15-.27-.22-.39-.1-.17-.21-.29-.33-.39-.19-.16-.4-.25-.64-.25-.41,0-.76.22-1.07.66-.23.32-.37.68-.43,1.07,0,0,0,.02,0,.03,0,.05,0,.11-.01.17,0,.08-.02.16-.02.25,0,0,0,0,0,0,0,0,0,0,0,.01,0,.16.02.31.04.47.01.08.04.16.06.24.02.08.04.15.07.23,0,.02,0,.04.02.05.01.01.01.03.02.04.01.03.03.06.04.09.02.04.04.07.06.1.03.05.05.1.08.15.07.13.16.25.25.37.29.37.66.74,1.07,1.11.17.16.34.32.52.47.64.52,1.33,1.05,2.06,1.6.45.33.88.69,1.29,1.07.26.24.52.47.77.73.46.48.84,1.01,1.19,1.55.14.21.28.42.4.65.01.02.02.03.02.04h0s-.01.08-.02.12c-.09.47-.16.96-.21,1.47-.09.73-.13,1.49-.13,2.27,0,.31,0,.62.03.91-.01.01,0,.02,0,.02.01.37.05.72.09,1.06h0c-.02.08-.06.13-.12.2-.15.24-.32.47-.51.69-.05.06-.09.11-.14.16ZM69.39,67.81c-.01.09-.01.17-.02.26v.05c0,.08-.02.16-.03.24,0,.07-.02.15-.03.22-.02.11-.03.23-.05.34-.01.05-.02.11-.03.16v.02c-.02.11-.05.21-.08.31,0,.03,0,.05-.02.07,0,0,0,0,0,0-.01.05-.02.11-.04.16,0,0,0,0,0,.01-.06.22-.14.43-.23.64t0,.02s-.03.06-.04.09c-.05.12-.1.23-.16.33-.03.05-.05.11-.08.16-.05.1-.11.18-.17.27-.06.09-.12.17-.18.26,0,0,0,0,0,0-.05.07-.12.12-.18.19-.78.88-1.85,1.34-3.24,1.34-.14,0-.27,0-.4-.02-.09,0-.17-.01-.26-.02-.08-.01-.17-.02-.25-.04-.02,0-.03,0-.05-.01-.04,0-.08-.01-.11-.02-.02,0-.05,0-.08-.02h-.02c-.07-.01-.13-.03-.19-.05-.16-.04-.31-.09-.45-.16h-.01s-.04-.02-.05-.03c-.02,0-.04-.02-.07-.03-.11-.05-.22-.1-.32-.17t-.02-.01c-.08-.05-.15-.1-.22-.16-.03-.02-.06-.05-.09-.07-.03-.02-.05-.04-.08-.06,0,0,0,0-.01-.01-.06-.05-.13-.1-.17-.16-.09-.08-.17-.16-.23-.25-.04-.03-.07-.07-.09-.1-.02-.02-.03-.04-.04-.06-.03-.04-.06-.09-.09-.13-.05-.07-.11-.14-.15-.22-.02-.03-.04-.05-.05-.08-.06-.1-.1-.21-.16-.32-.03-.06-.06-.12-.09-.18,0,0,0-.01,0-.02,0-.01,0-.01,0-.02-.05-.11-.1-.24-.14-.36-.01-.05-.03-.09-.04-.14-.03-.09-.05-.19-.08-.29-.02-.08-.04-.15-.06-.24,0,0,0,0,0-.01,0-.01-.01-.01-.01-.01h0s0-.02,0-.03c-.06-.28-.11-.57-.15-.88-.02-.14-.03-.28-.04-.43-.03-.36-.06-.74-.06-1.14,0-.53.03-1.04.07-1.53,0-.09.02-.18.03-.27.04-.43.1-.85.18-1.25,0-.04.01-.08.02-.12.01-.08.03-.16.05-.24.05-.24.11-.47.16-.71,0,0,0-.02,0-.03t0-.01c.13-.64.28-1.26.43-1.86.24-.91.45-1.8.64-2.68,0-.04.01-.08.02-.13.04-.18.07-.37.1-.55.03-.13.05-.26.06-.39,0-.04,0-.08.01-.12.01-.08.02-.16.03-.24,0-.03,0-.06.01-.1.01-.02.01-.05.01-.08v-.14c.01-.15.01-.29.02-.44,0-.15.02-.31.02-.46,0-.61-.06-1.22-.14-1.83-.06-.38-.11-.77-.21-1.15,0-.01,0-.02,0-.03,0-.03-.01-.06-.02-.08,0,0,0,0,0,0-.04-.16-.08-.31-.12-.47,0,0,0,0,0,0-.01-.05-.03-.1-.04-.15-.18-.72-.38-1.42-.59-2.08-.01-.04-.02-.07-.03-.11-.1-.32-.2-.64-.3-.93-.06-.2-.13-.4-.19-.59-.04-.13-.08-.26-.12-.38-.01,0-.01-.02-.01-.03s0-.01,0-.02c-.04-.12-.08-.25-.12-.37-.1-.31-.17-.59-.23-.86-.02-.09-.04-.18-.05-.27-.04-.22-.06-.43-.07-.62,0-.03,0-.07,0-.1,0-.13.01-.25.03-.36,0-.04.01-.08.02-.11h0s0-.04.01-.06c0,0,0,0,0,0,0,0,0-.02.01-.03.04-.18.1-.34.2-.49.02-.04.04-.08.07-.11.03-.06.08-.11.13-.17.03-.03.04-.07.07-.09.37-.38.81-.68,1.32-.91.22-.1.44-.17.66-.25.29-.09.59-.17.9-.22.18-.03.33-.05.49-.08.31-.04.6-.07.84-.07.75,0,1.45.06,2.09.18s1.19.35,1.65.69c.46.35.82.81,1.08,1.4.07.15.12.31.17.48.04.14.07.29.1.44,0,.01,0,.03,0,.04.01.06.02.13.03.2,0,.05.02.09.02.15.01.04.01.08.01.13,0,0,0,0,0,0,.01.1.02.2.03.31,0,.04,0,.08.01.13v.09s0,0,0,0c-.08.15-.15.3-.22.46h0c-.46.97-.82,1.99-1.07,3.05-.29,1.19-.49,2.48-.58,3.81-.01.17-.02.35-.03.53v.04s-.02.05-.02.08c-.03.16-.05.33-.07.49,0,.02,0,.04,0,.07,0,.03,0,.06,0,.09-.02.18-.04.36-.05.55,0,.18-.02.38-.02.58,0,.03,0,.06,0,.08s0,.06,0,.08c0,.14,0,.27,0,.42,0,.12.02.25.03.38,0,.04,0,.08,0,.12h0s-.01.03,0,.04h0c0,.1,0,.18.03.27v.04h0v.14c0,.31,0,.62.01.94h0c.02.54.04,1.08.08,1.61h0v.03c.03.4.06.81.1,1.21.14,1.34.39,2.65.74,3.89.09.33.2.65.31.97h0c.05.14.1.26.16.39,0,0,0,.01,0,.02v.03c0,.17-.01.34-.02.51ZM87.79,71.4s-.05.03-.07.05c-.11.09-.22.16-.34.24-.04.02-.07.05-.11.07-.07.06-.15.1-.23.14-.08.04-.17.08-.26.12-.02,0-.04.02-.06.03-.62.27-1.31.47-2.05.57-.25.04-.48.06-.72.08-.33.03-.65.05-.96.06-.13,0-.27.02-.39.02h-.02c-.4,0-.79-.01-1.17-.04-.31-.02-.6-.05-.9-.09-.07,0-.14-.01-.21-.02-.23-.03-.46-.08-.69-.13-.11-.02-.23-.04-.34-.06-.01,0-.03,0-.04-.01-.31-.07-.62-.15-.91-.25-1.22-.4-2.25-.95-3.12-1.65-.38-.31-.72-.64-1.03-.99-.2-.22-.39-.45-.57-.7-.18-.25-.35-.5-.51-.77-.23-.4-.44-.81-.63-1.23-.02-.05-.04-.09-.06-.14,0,0,0,0,0-.01,0-.01-.01-.03-.02-.04-.02-.04-.03-.08-.04-.11-.17-.42-.32-.85-.46-1.3-.02-.06-.04-.11-.06-.17-.31-1.07-.52-2.2-.64-3.37-.01-.13-.02-.26-.03-.39-.04-.43-.07-.85-.1-1.28,0-.08,0-.16-.01-.24-.02-.53-.04-1.06-.04-1.58,0-.05,0-.1,0-.15v-.02s0-.05,0-.05v-.02c0-.12,0-.23.01-.34t0-.02s-.01-.01,0-.02c0-.22,0-.43.01-.64,0-.24,0-.47.01-.7.01-.31.02-.62.04-.91v-.08s.01-.02.01-.03c0,0,0-.02,0-.03,0-.13.01-.26.02-.38,0-.13.01-.27.02-.4.04-.6.1-1.18.19-1.74.08-.54.18-1.07.31-1.58.08-.32.18-.62.28-.93.12-.38.26-.75.41-1.11.12-.28.23-.57.37-.84.09-.17.21-.32.3-.48,0-.01,0-.03,0-.04h0s.04-.08.07-.12c.11-.18.24-.36.37-.54.02-.03.04-.06.06-.09.02-.03.04-.05.06-.08.08-.1.16-.21.25-.31.08-.11.17-.22.27-.32.13-.16.28-.32.44-.48.87-.87,1.9-1.57,3.08-2.09,1.19-.52,2.41-.78,3.66-.78.52,0,1.03.07,1.55.18.26.05.53.1.79.18.2.06.38.15.57.22.54.22,1.06.47,1.52.82.11.09.22.17.32.27.07.06.14.12.21.19.01.01.02.02.03.03.03.03.06.06.09.09.02.02.04.04.05.06.02.02.04.04.06.06.04.04.08.08.11.13,0,0,.01.01.02.02.06.07.12.14.17.21.02.02.03.05.06.07h0s0,.03,0,.04c-.1.42-.14.87-.14,1.33,0,.16,0,.32.02.48,0,.21.01.42.04.62h0c.08.83.25,1.62.51,2.37.09.24.18.48.27.71,0,0,0,0,0,0h0v.02c-.04.16-.09.32-.13.46t0,.02s-.02.05-.03.07c0,.03-.02.05-.03.08-.02.06-.05.12-.08.18-.01.03-.02.06-.04.09,0,.02-.02.04-.03.06-.01,0-.01.01-.01.01-.04.07-.08.15-.12.22-.07.11-.15.21-.23.31-.38.45-.92.78-1.61.98-.7.2-1.62.3-2.75.3-.57,0-1.09.08-1.57.2-.58.15-1.1.38-1.54.71-.17.12-.34.24-.49.39-.2.2-.38.43-.54.7-.21.36-.38.78-.51,1.26-.19.71-.28,1.54-.28,2.5,0,.32.01.66.04.97v.02h0v.03s0,.04.01.06c0,.02,0,.04,0,.06.02.26.06.51.09.76,0,.02,0,.04,0,.06.01.08.04.16.06.24.11.53.27,1.03.49,1.44.19.36.46.65.75.91.1.09.19.19.31.26.44.29,1,.43,1.69.44.02,0,.03,0,.05,0,.26,0,.54-.05.85-.16.12-.04.24-.09.35-.15.08-.04.16-.08.23-.13.08-.05.17-.1.25-.16.1-.08.2-.16.29-.26.03-.03.06-.07.09-.1.09-.09.17-.2.24-.31.17-.26.25-.55.25-.85,0-.4-.13-.67-.39-.8-.12-.06-.25-.11-.37-.14-.14-.04-.27-.06-.41-.06-.03,0-.06,0-.1,0-.35,0-.71-.02-1.06-.07-.04,0-.08,0-.11-.01-.17-.02-.34-.06-.49-.1-.23-.06-.45-.14-.65-.25-.1-.06-.19-.13-.28-.2-.2-.15-.38-.33-.53-.56,0,0-.01-.02-.02-.03-.03-.05-.07-.11-.09-.18h0s-.03-.07-.05-.11c-.03-.07-.06-.16-.08-.25h0v-.03s0-.02,0-.03c0,0,0,0,0,0-.02-.09-.04-.18-.05-.29v-.03c0-.09-.01-.21-.02-.32,0-.03,0-.05,0-.08,0-.52.17-.92.48-1.22.03-.03.05-.06.08-.09,0,0,.02-.01.03-.02.37-.3.82-.51,1.34-.65.18-.05.38-.09.57-.13.31-.06.64-.11.97-.13.05,0,.09-.01.14-.01.57-.04,1.08-.05,1.5-.05.5,0,1.02.01,1.56.05.05,0,.1.01.16.02.48.04.93.13,1.33.26.07.03.13.07.2.09.36.15.67.35.92.61.29.3.44.73.44,1.27,0,0,0,0,0,.01,0,.11,0,.2-.02.31,0,.08-.01.15-.03.23,0,0,0,.02,0,.03,0,.04-.01.07-.02.11,0,.02,0,.04,0,.07,0,.01-.01.03-.01.04-.03.11-.06.22-.09.33-.02.06-.04.11-.06.17,0,.01,0,.03-.01.04-.16.46-.34.93-.53,1.4-.19.47-.37.94-.53,1.4-.17.46-.25.91-.25,1.33,0,.04,0,.07,0,.11,0,.17.01.33.03.48,0,.03,0,.07,0,.09,0,.03.01.06.02.09.02.1.03.2.06.29h0v.02h0c.02.06.03.11.04.15,0,0,0,.01,0,.02.03.07.05.13.08.18.02.03.03.07.05.11.1.17.2.32.31.46.08.1.17.2.26.29.02.02.04.05.06.07-.09.61-.13,1.23-.14,1.85v.11c0,.3.02.59.05.87v.03c.05.46.14.89.27,1.3,0,0,0,0,0,.01-.1.11-.2.2-.31.28ZM108.39,71.28c-.1.11-.21.21-.32.31-.05.04-.09.1-.15.14-.03.02-.05.04-.08.06-.11.09-.23.16-.36.23-.02,0-.03.02-.05.03-.2.11-.42.2-.66.27-.52.16-1.13.25-1.84.25-.42,0-.84-.15-1.24-.44-.19-.14-.37-.3-.54-.47-.19-.19-.38-.4-.54-.62-.14-.19-.27-.38-.4-.58-.15-.25-.3-.5-.42-.76-.22-.48-.38-.89-.48-1.24-.09-.36-.17-.97-.23-1.83,0-.07-.01-.14-.02-.21-.06-.77-.14-1.56-.25-2.37,0-.03,0-.05-.01-.08-.04-.25-.09-.46-.13-.69-.12-.62-.26-1.21-.45-1.72-.26-.7-.63-1.05-1.1-1.05-.26,0-.46.09-.62.24-.03.03-.07.04-.09.08-.04.05-.07.11-.1.16-.11.18-.2.36-.26.59-.02.09-.02.2-.04.3-.03.2-.07.39-.08.6,0,.31-.02.56-.02.77,0,.01,0,.02,0,.03v1.2c0,.08,0,.15,0,.23,0,0,0,.01,0,.02,0,.17.01.33.02.49.02.22.05.44.09.66.09.47.18.93.27,1.39.02.1.04.19.06.29.07.37.14.74.21,1.11.03.19.05.38.07.56.03.28.05.57.05.86,0,.03,0,.06,0,.09,0,.11,0,.23-.02.34,0,.04-.01.07-.01.1,0,.09-.02.18-.03.26,0,.03,0,.06-.01.09h0s0,.02,0,.03c0,.06-.03.12-.05.17-.02.07-.03.14-.05.21-.01.03-.03.06-.04.1,0,.02-.01.04-.02.05-.02.07-.06.12-.09.19-.03.05-.05.1-.07.15h0c-.04.07-.08.13-.13.19-.04.06-.09.11-.13.16-.01.02-.03.03-.04.04-.01.01-.03.03-.04.04-.02.02-.03.04-.05.05-.02.01-.03.03-.05.04-.05.04-.1.08-.15.11-.02.01-.03.02-.05.03-.07.05-.15.09-.23.14-.04.02-.07.05-.11.06-.04.02-.09.03-.14.05-.08.03-.15.06-.24.08-.02,0-.03.01-.06.02-.01.01-.02.01-.03.01-.06.02-.11.03-.17.04-.05.02-.12.02-.18.03-.02,0-.03,0-.05,0-.01,0-.01.01-.02,0-.04.01-.07,0-.11.01-.03,0-.05,0-.08,0-.15.02-.31.03-.48.03-.33,0-.65-.02-.97-.06-.01,0-.02,0-.04,0-.3-.04-.59-.09-.88-.16-.59-.15-1.12-.4-1.58-.73-.14-.1-.26-.2-.38-.31h-.01c-.06-.07-.11-.14-.17-.2-.03-.03-.06-.07-.09-.1-.04-.05-.08-.08-.12-.13,0,0,0-.02,0-.03-.12-.16-.24-.31-.34-.5-.14-.26-.24-.54-.3-.85,0,0,0-.02,0-.03-.07-.31-.1-.64-.1-1,0-.4.03-.8.07-1.2,0-.11.03-.21.04-.32.05-.35.1-.7.18-1.04,0-.03.01-.06.02-.09,0-.03.01-.06.02-.09,0-.03.01-.05.02-.08,0,0,0,0,0,0h0c.18-.76.38-1.51.59-2.25.01-.05.03-.1.04-.15.02-.05.03-.11.04-.17.23-.8.44-1.59.63-2.4.01-.04.02-.09.03-.13.04-.17.07-.33.1-.5.01-.1.03-.19.04-.29,0-.06.02-.12.02-.18.01-.09.02-.19.04-.28,0-.03,0-.06,0-.09.01-.12.02-.25.03-.37v-.02c.01-.18.02-.37.02-.55,0-.08,0-.15,0-.23,0-.05,0-.1,0-.14,0-.68-.03-1.37-.1-2.06-.1-.82-.3-1.62-.62-2.39-.32-.77-.66-1.54-1.01-2.3-.05-.11-.1-.23-.15-.35-.04-.1-.09-.2-.13-.29h0c-.05-.1-.09-.2-.12-.29-.08-.17-.14-.33-.21-.5-.04-.09-.07-.19-.11-.28-.08-.21-.15-.41-.23-.62-.01-.03-.02-.07-.03-.1-.11-.32-.19-.66-.25-1,0-.04-.02-.09-.03-.13h0s0-.03,0-.04c-.06-.37-.09-.76-.09-1.15,0-.02,0-.04,0-.06,0-.15.01-.29.03-.43,0-.03.01-.07.02-.1.01-.09.03-.17.05-.25.01-.05.03-.1.05-.15.02-.09.05-.17.09-.25.02-.04.03-.08.06-.11.04-.09.09-.17.15-.24,0-.01,0-.03.02-.04,0-.01.01-.01.01-.02.27-.36.61-.65.99-.89.07-.05.13-.1.21-.14,0,0,0,0,0,0,.49-.26,1.03-.44,1.62-.55.17-.03.33-.05.5-.07.4-.05.79-.09,1.16-.09.19,0,.36,0,.53.02.72.04,1.31.15,1.76.34.55.23.97.58,1.24,1.04.27.46.45,1.02.51,1.67.08.65.11,1.39.11,2.21,0,.12.02.29.04.49.02.16.05.34.09.54.04.26.1.55.17.86.05.24.1.48.16.74.13.55.29,1.11.48,1.68.02.05.03.09.04.14.08.27.17.52.26.76.12.34.25.66.39.96.15.32.3.59.46.84.1.16.2.31.31.44.27.33.54.49.83.49.47,0,.78-.15.94-.48,0,0,0,0,0,0,.06-.12.11-.25.14-.39,0-.02.01-.05.02-.07,0-.03.01-.05.02-.08.01-.05.03-.1.04-.16v-.03c.01-.11.02-.23.02-.35,0-.78-.1-1.56-.28-2.34-.19-.78-.4-1.55-.62-2.32-.16-.55-.3-1.1-.45-1.65-.06-.23-.13-.45-.18-.67-.05-.19-.09-.39-.12-.58-.03-.13-.05-.25-.06-.38l-.02-.15s0-.06-.01-.09t0-.02c-.05-.37-.07-.75-.07-1.12,0-.94.2-1.66.59-2.2.04-.06.08-.13.12-.18.35-.4.87-.66,1.56-.76.23-.03.48-.05.74-.05.43,0,.93.1,1.51.3.16.05.31.13.46.19.19.08.38.17.57.27.21.11.42.22.62.36.27.18.52.37.74.57.21.19.41.38.59.59.09.11.17.22.24.34,0,0,0,0,0,0,.06.1.12.2.16.31,0,0,0,0,0,0-.22.36-.43.74-.62,1.11-.16.34-.31.69-.44,1.04-.55,1.45-.84,2.97-.84,4.52,0,.36,0,.7.04,1.03-.01.01-.01.02,0,.03.09,1.54.4,2.84.93,3.95.02.04.04.08.07.12v.02s.02.04.03.06h0c.01.07.01.12.02.18,0,.02,0,.04.01.06.01.15.03.3.05.45.01.09.02.18.04.27.01.08.02.16.03.24.06.36.12.72.19,1.09.03.16.05.32.08.48.02.12.05.25.07.37.03.19.07.37.1.56.08.44.16.88.24,1.32,0,0,0,0,0,0-.08.1-.15.19-.21.29-.02.04-.05.07-.07.11-.44.67-.76,1.42-.99,2.26-.22.83-.33,1.71-.33,2.63,0,.3.02.6.06.89h0c.11.89.39,1.7.83,2.46,0,0,0,.02.01.02h0c-.04.07-.1.1-.15.16ZM127.28,66.9s-.01.05-.01.07-.01.05-.01.07c0,.03-.02.07-.02.1,0,.04-.02.08-.03.12,0,.03-.02.07-.03.1-.02.11-.05.21-.08.32,0,.03-.02.06-.03.1-.02.06-.04.13-.07.2,0,.02,0,.03-.02.05-.05.16-.12.31-.19.47-.23.5-.54.95-.89,1.37-.24.29-.5.56-.8.81-.72.62-1.58,1.1-2.56,1.46-.02,0-.04.02-.06.03,0,0,0,0,0,0-.02,0-.05.01-.07.02-1,.35-2.1.53-3.33.53-.79,0-1.53-.06-2.24-.16-.4-.05-.79-.1-1.17-.18-.61-.13-1.16-.31-1.67-.51-.36-.14-.7-.29-1.01-.46-.11-.06-.2-.13-.3-.2-.07-.05-.15-.09-.22-.14-.04-.03-.07-.06-.11-.09-.1-.07-.19-.14-.28-.21h0s-.08-.08-.12-.12c-.12-.11-.24-.23-.35-.35,0,0,0,0,0-.01-.13-.14-.24-.29-.34-.44-.09-.14-.18-.29-.25-.44-.01-.02-.02-.05-.03-.07-.05-.11-.09-.22-.13-.33-.01-.03-.02-.06-.03-.1-.03-.11-.06-.22-.08-.33v-.03s-.02-.06-.03-.08c-.01-.05-.02-.09-.03-.14-.03-.18-.04-.37-.04-.57,0-.66.08-1.28.23-1.85.04-.14.09-.27.14-.4.14-.4.3-.77.51-1.09.12-.19.26-.35.4-.5.04-.05.09-.09.14-.14.12-.12.25-.22.39-.32,0,0,0,0,0,0,.02-.02.05-.03.07-.05.13-.09.28-.14.43-.2.14-.05.28-.09.42-.11.13-.02.25-.06.39-.06.56,0,1.01.11,1.35.31.08.05.15.09.22.15.15.13.28.26.41.39.18.19.35.39.48.6.1.15.18.28.26.43.12.19.25.4.36.57.19.3.45.46.78.46.44,0,.78-.09,1.08-.24.09-.04.19-.07.27-.12.08-.05.15-.12.21-.2.04-.06.08-.12.11-.19h0c.03-.06.05-.11.07-.16.02-.04.03-.09.04-.14,0-.02.01-.04.02-.06,0,0,0,0,0-.01,0-.02.01-.05.01-.07,0,0,0,0,0-.01.02-.11.03-.22.03-.35,0-.54-.1-1-.27-1.4-.11-.25-.24-.49-.41-.69-.31-.36-.69-.67-1.1-.97-.19-.14-.37-.28-.58-.4-.28-.16-.58-.32-.88-.49-.22-.12-.46-.24-.7-.36-.21-.11-.41-.21-.62-.32-.11-.05-.21-.13-.32-.18-.57-.31-1.11-.67-1.62-1.1-.09-.07-.18-.13-.26-.21-.12-.11-.24-.22-.35-.35-.06-.06-.12-.12-.17-.19-.02-.02-.03-.03-.05-.05,0,0-.02-.02-.03-.03-.07-.08-.13-.16-.19-.24-.02-.03-.04-.05-.06-.08-.04-.04-.07-.09-.1-.14-.11-.15-.22-.31-.32-.48h0s-.04-.07-.06-.1c0,0-.01,0-.01-.02s-.01-.01-.01-.02c0-.02-.02-.03-.03-.05,0-.01-.02-.03-.03-.05-.08-.14-.16-.29-.23-.44-.01-.03-.03-.05-.04-.08-.02-.03-.03-.07-.04-.1-.08-.18-.16-.38-.22-.58-.03-.08-.05-.16-.07-.24-.06-.23-.13-.46-.17-.71,0,0,0-.01,0-.02-.11-.62-.16-1.3-.16-2.06,0-1.18.21-2.33.64-3.46.1-.26.21-.51.33-.76.06-.12.13-.25.19-.37.05-.09.1-.18.15-.27.08-.15.17-.29.26-.42.08-.12.15-.23.23-.35.03-.04.06-.09.1-.13.04-.06.09-.13.15-.19.02-.02.03-.04.04-.05,0,0,0-.01.01-.02.02-.03.05-.06.07-.09.1-.13.2-.25.32-.37.41-.45.86-.86,1.36-1.22.48-.35,1.01-.66,1.58-.93.1-.05.2-.08.31-.12,1.08-.45,2.28-.69,3.59-.69,1.44,0,2.68.28,3.72.85.84.45,1.55,1.03,2.14,1.7.14.16.28.32.41.49.67.9,1.15,1.9,1.46,3,.31,1.1.46,2.17.46,3.21,0,.18-.01.35-.02.51-.01.13-.02.26-.04.39v.04s-.01.04-.01.05c0,.09-.03.17-.06.25,0,0-.01.03-.01.04-.04.19-.09.37-.16.54,0,0,0,0,0,0-.2.51-.47.93-.8,1.26-.2.2-.43.37-.67.51-.15.09-.3.17-.46.24-.2.07-.4.13-.6.17-.06.01-.13.02-.19.03-.18.03-.35.05-.53.05-.2,0-.37-.04-.54-.09-.2-.06-.39-.16-.55-.29-.09-.08-.18-.16-.26-.26-.33-.43-.63-.9-.9-1.42s-.53-.99-.78-1.42c-.12-.21-.27-.37-.43-.48-.16-.11-.34-.16-.54-.16-.41,0-.76.22-1.07.66-.31.44-.46.94-.46,1.51,0,.09.02.18.02.26,0,.07,0,.14.02.21.02.1.05.2.08.3.02.06.03.11.05.17,0,.02,0,.04.02.06.01.01.01.03.02.04.01.03.03.06.04.09.02.04.04.08.06.12.03.04.05.09.08.13.07.13.16.25.25.37.32.4.73.8,1.16,1.19.14.13.27.26.43.39.64.52,1.33,1.05,2.06,1.6.53.39,1.03.83,1.52,1.28.18.17.37.34.54.52.37.39.69.8.99,1.23.22.31.42.63.6.97.43.81.64,1.73.64,2.77,0,.16-.01.33-.03.49,0,.04,0,.07-.01.11,0,.12-.02.23-.04.35h0s-.01.06-.01.08Z"/>
    </g>
    <g>
      <path class="cls-3" d="M86.93,21.84c0,1.9-.15,3.84-.45,5.76-.09.56-.17,1.12-.23,1.69-.48-1.1-1.01-2.21-1.58-3.31-.52-.99-1-2.03-1.43-3.1-.31-.79-.47-1.72-.47-2.75,0-.37.02-.71.06-1.03.86.42,1.99.71,3.45.71.21,0,.41,0,.62-.01,0,.07.01.15.01.23,0,.58.02,1.19.02,1.81Z"/>
      <g>
        <g>
          <path class="cls-1" d="M30.43,30.07c.89,0,1.58.2,2.06.6s.86.83,1.16,1.29c.29.46.56.89.81,1.29s.58.6,1.02.6c.74,0,1.32-.15,1.76-.46.43-.31.65-.83.65-1.57,0-1.14-.29-2.05-.88-2.73-.59-.68-1.32-1.27-2.19-1.78-.88-.51-1.83-1.02-2.86-1.52s-1.99-1.16-2.86-1.94c-.88-.78-1.61-1.79-2.19-3.03-.59-1.23-.88-2.85-.88-4.85,0-1.54.28-3.04.83-4.5s1.35-2.77,2.4-3.93c1.05-1.16,2.33-2.09,3.83-2.8,1.51-.71,3.2-1.06,5.08-1.06s3.5.37,4.85,1.11c1.35.74,2.46,1.69,3.33,2.86.86,1.17,1.49,2.47,1.89,3.9.4,1.43.6,2.83.6,4.18,0,.92-.13,1.72-.39,2.38-.26.66-.61,1.21-1.04,1.64-.43.43-.92.76-1.48.97-.55.21-1.12.32-1.71.32-.74,0-1.32-.28-1.76-.83-.43-.56-.82-1.17-1.18-1.85-.35-.68-.69-1.29-1.02-1.85-.32-.55-.75-.83-1.27-.83s-.99.28-1.39.85c-.4.57-.6,1.22-.6,1.96,0,.83.28,1.59.83,2.29.55.69,1.25,1.38,2.08,2.06s1.72,1.37,2.68,2.08c.95.71,1.85,1.49,2.68,2.36.83.86,1.52,1.82,2.08,2.86.55,1.05.83,2.25.83,3.6,0,1.2-.25,2.34-.76,3.42s-1.24,2.03-2.19,2.84c-.95.82-2.09,1.46-3.42,1.94-1.32.48-2.8.72-4.43.72s-3.08-.15-4.43-.44c-1.36-.29-2.52-.72-3.49-1.27-.97-.55-1.72-1.23-2.26-2.03-.54-.8-.81-1.71-.81-2.73,0-.86.1-1.66.3-2.4.2-.74.48-1.39.85-1.94.37-.55.8-.99,1.29-1.32.49-.32,1.03-.48,1.62-.48Z"/>
          <path class="cls-3" d="M51.1,10.76c-.48-1.75-1.27-3.37-2.32-4.81-.02-.02-.03-.05-.05-.07-.58-.79-1.25-1.5-2-2.14-.7-.59-1.47-1.12-2.3-1.58-1.8-.98-3.91-1.47-6.29-1.47s-4.45.45-6.35,1.34c-1.87.88-3.48,2.06-4.79,3.5-1.29,1.43-2.3,3.07-2.98,4.88-.68,1.8-1.03,3.67-1.03,5.57,0,2.47.38,4.48,1.17,6.14.75,1.58,1.73,2.92,2.9,3.97.51.45,1.04.87,1.59,1.25-.52.16-1.02.4-1.49.71-.82.54-1.55,1.26-2.14,2.15-.55.83-.97,1.78-1.25,2.83-.27.99-.41,2.06-.41,3.18,0,1.62.44,3.1,1.32,4.4.8,1.19,1.9,2.18,3.27,2.97,1.22.7,2.69,1.24,4.34,1.59,1.55.34,3.26.51,5.07.51,1.97,0,3.8-.3,5.45-.89.12-.04.24-.09.36-.14,1.49-.58,2.81-1.35,3.94-2.31.02,0,.03-.03.05-.04.77-.66,1.44-1.39,2.01-2.2.36-.52.68-1.07.95-1.64.69-1.48,1.05-3.06,1.05-4.7,0-1.28-.19-2.49-.58-3.6-.16-.48-.36-.95-.6-1.4-.42-.78-.9-1.53-1.45-2.23-.34-.46-.72-.9-1.12-1.32-.46-.47-.94-.93-1.43-1.36.33-.08.67-.19,1-.32.48-.19.94-.43,1.37-.72.41-.26.79-.57,1.14-.92.48-.48.89-1.03,1.22-1.65.19-.32.35-.66.49-1.01.32-.8.51-1.69.57-2.68.02-.26.03-.53.03-.8,0-1.62-.24-3.3-.71-4.99ZM48.42,18.12c-.26.67-.61,1.21-1.04,1.65-.01.01-.02.02-.03.03-.42.41-.9.72-1.45.94-.55.21-1.12.32-1.71.32-.74,0-1.32-.28-1.75-.83-.43-.56-.83-1.17-1.18-1.85-.35-.67-.68-1.28-1.01-1.83,0-.01-.01-.01-.01-.02-.32-.55-.74-.83-1.27-.83s-.98.29-1.38.85c-.4.57-.6,1.23-.6,1.97s.2,1.36.6,1.97c.07.11.15.22.23.32.55.69,1.25,1.37,2.08,2.05.83.68,1.72,1.37,2.68,2.08.95.71,1.84,1.49,2.68,2.36.83.86,1.52,1.81,2.08,2.86,0,0,.01.01,0,.01.55,1.05.83,2.24.83,3.59,0,1.21-.26,2.34-.77,3.42-.44.94-1.05,1.78-1.83,2.52-.12.11-.24.22-.36.32-.95.82-2.09,1.47-3.42,1.94-1.26.46-2.66.7-4.2.72h-.23c-1.61,0-3.08-.15-4.44-.44-1.35-.29-2.52-.71-3.49-1.27-.97-.55-1.72-1.23-2.26-2.03-.54-.8-.81-1.71-.81-2.73,0-.86.1-1.66.3-2.4.2-.74.49-1.39.86-1.94s.8-.99,1.29-1.32c.49-.32,1.03-.48,1.62-.48.89,0,1.57.2,2.05.6.48.4.86.83,1.16,1.29.29.46.56.9.81,1.3.24.4.58.6,1.01.6.74,0,1.33-.16,1.76-.47.15-.11.28-.24.37-.4.18-.3.27-.69.27-1.17,0-.63-.09-1.19-.27-1.67-.14-.4-.34-.75-.6-1.05-.59-.68-1.32-1.27-2.2-1.78-.88-.51-1.83-1.02-2.86-1.53-1.03-.5-1.99-1.15-2.87-1.94-.87-.78-1.61-1.79-2.19-3.02-.59-1.23-.88-2.85-.88-4.85,0-1.54.28-3.04.83-4.51.56-1.46,1.36-2.77,2.4-3.92,1.05-1.16,2.33-2.09,3.84-2.8,1.51-.71,3.2-1.06,5.08-1.06s3.5.37,4.85,1.11c.73.4,1.39.85,1.97,1.37.51.45.96.95,1.36,1.49.33.45.63.92.89,1.41.42.78.75,1.61,1,2.5.38,1.37.58,2.71.59,4.02.01.05.01.11.01.16,0,.28-.01.55-.04.8-.05.59-.17,1.11-.35,1.57ZM40.24,16.53c-.32-.55-.74-.83-1.27-.83s-.98.29-1.38.85h2.66s-.01-.01-.01-.02ZM37.59,20.49v-3.94c-.4.57-.6,1.23-.6,1.97s.2,1.36.6,1.97Z"/>
        </g>
        <g>
          <path class="cls-1" d="M47.15,10.06c0-1.17.22-2.14.67-2.91.45-.77,1.04-1.39,1.78-1.87.74-.48,1.58-.82,2.52-1.02.94-.2,1.9-.3,2.89-.3,2.13,0,3.74.3,4.85.9,1.11.6,1.91,1.35,2.4,2.24.49.89.79,1.87.9,2.93.11,1.06.22,2.04.32,2.93.11.89.32,1.64.65,2.24.32.6.96.9,1.92.9.18,0,.34-.03.46-.09.92-.37,1.62-.96,2.1-1.76.48-.8.87-1.68,1.18-2.63.31-.95.58-1.95.81-2.98.23-1.03.56-1.96.99-2.8s1-1.52,1.71-2.06c.71-.54,1.69-.81,2.96-.81.89,0,1.79.17,2.7.51s1.75.8,2.52,1.39,1.39,1.28,1.87,2.08c.48.8.72,1.68.72,2.63,0,.86-.22,1.63-.67,2.31-.45.68-.94,1.4-1.48,2.17s-1.03,1.63-1.48,2.56c-.45.94-.67,2.1-.67,3.49s.23,2.7.69,3.86.98,2.28,1.55,3.37c.57,1.09,1.09,2.18,1.55,3.26.46,1.08.69,2.25.69,3.51,0,.96-.16,1.89-.48,2.82-.32.92-.79,1.74-1.39,2.45-.6.71-1.32,1.28-2.17,1.71-.85.43-1.78.65-2.8.65-.83,0-1.54-.15-2.13-.46s-1.06-.72-1.43-1.22c-.37-.51-.63-1.1-.79-1.78s-.23-1.39-.23-2.13.06-1.46.19-2.17c.12-.71.25-1.42.39-2.13.14-.71.26-1.42.37-2.13.11-.71.16-1.43.16-2.17,0-.37-.05-.87-.14-1.5-.09-.63-.25-1.25-.46-1.85-.22-.6-.49-1.12-.83-1.57-.34-.45-.76-.67-1.25-.67-.62,0-1.02.45-1.22,1.34-.2.89-.3,1.99-.3,3.28,0,1.14-.02,2.26-.05,3.37-.03,1.11-.14,2.1-.32,2.98-.18.88-.48,1.59-.88,2.13-.4.54-.99.81-1.76.81-2.16,0-3.67-.52-4.53-1.57-.86-1.05-1.29-2.4-1.29-4.07,0-.34.01-.91.05-1.71.03-.8,0-1.61-.07-2.43-.08-.82-.23-1.54-.46-2.17-.23-.63-.62-.95-1.18-.95-.34,0-.61.12-.81.37-.2.25-.35.54-.46.88-.11.34-.18.68-.21,1.04-.03.35-.05.66-.05.9,0,.8.06,1.59.18,2.38.12.79.25,1.56.39,2.33.14.77.27,1.55.39,2.33.12.79.18,1.58.18,2.38,0,.74-.09,1.53-.25,2.38-.17.85-.45,1.62-.83,2.33-.39.71-.89,1.29-1.5,1.76s-1.39.69-2.31.69c-.68,0-1.37-.15-2.08-.46-.71-.31-1.34-.72-1.89-1.25-.55-.52-1.01-1.12-1.36-1.8-.35-.68-.53-1.37-.53-2.08,0-.83.18-1.69.55-2.56.37-.88.77-1.79,1.2-2.75.43-.95.83-1.98,1.2-3.07s.55-2.27.55-3.53c0-1.54-.23-3-.69-4.39-.46-1.39-.98-2.71-1.55-3.97-.57-1.26-1.09-2.46-1.55-3.6-.46-1.14-.69-2.22-.69-3.23Z"/>
          <path class="cls-3" d="M48.96,15.95c-.02-.06-.05-.11-.08-.17-.02-.05-.05-.1-.08-.16.01.05.01.08.01.13,0,.16,0,.31-.01.46,0,.01,0,.03,0,.04,0,.01,0,.01,0,.02,0,.1-.01.19-.02.28h.46c-.09-.2-.18-.4-.27-.6ZM48.96,15.95c-.02-.06-.05-.11-.08-.17-.02-.05-.05-.1-.08-.16.01.05.01.08.01.13,0,.16,0,.31-.01.46,0,.01,0,.03,0,.04,0,.01,0,.01,0,.02,0,.1-.01.19-.02.28h.46c-.09-.2-.18-.4-.27-.6ZM48.88,15.78s-.05-.1-.08-.16c.01.05.01.08.01.13,0,.16,0,.31-.01.46,0,.01,0,.03,0,.04,0,.01,0,.01,0,.02,0,.1-.01.19-.02.28h.46c-.09-.2-.18-.4-.27-.6-.02-.06-.05-.11-.08-.17ZM86.31,29.44s-.04-.09-.06-.14h0c-.48-1.11-1.01-2.22-1.58-3.32-.52-.99-1-2.03-1.43-3.1-.31-.79-.47-1.72-.47-2.75,0-.37.02-.71.06-1.03.07-.46.17-.86.32-1.17.23-.49.48-.95.74-1.38.04-.07.08-.14.13-.21.11-.19.23-.37.35-.54.56-.79,1.07-1.55,1.53-2.24.77-1.17,1.16-2.5,1.16-3.96s-.38-2.9-1.14-4.17c-.17-.28-.34-.55-.54-.81-.58-.79-1.28-1.5-2.09-2.12-.04-.03-.08-.06-.12-.08-.97-.73-2.03-1.31-3.16-1.73-1.25-.46-2.51-.69-3.75-.69-1.93,0-3.54.47-4.78,1.42-1.06.8-1.92,1.83-2.55,3.06-.55,1.05-.98,2.24-1.26,3.52-.21.93-.46,1.85-.74,2.71-.15.48-.33.93-.54,1.35-.08-.72-.16-1.5-.25-2.32-.15-1.46-.57-2.84-1.26-4.08-.77-1.4-1.98-2.56-3.6-3.43-1.57-.85-3.62-1.26-6.28-1.26-1.19,0-2.37.12-3.51.36-1.29.28-2.48.76-3.52,1.43-.45.29-.86.62-1.24.98-.59.55-1.09,1.19-1.5,1.91-.1.17-.19.34-.27.52h0c-.54,1.13-.81,2.42-.81,3.89s.31,2.87.91,4.36c.28.69.58,1.4.9,2.13.22.52.46,1.05.7,1.59.24.54.47,1.09.69,1.66.27.66.51,1.34.74,2.02.11.32.2.65.27.99.18.78.27,1.6.27,2.45,0,.44-.03.86-.09,1.27-.06.46-.17.9-.31,1.31-.27.81-.57,1.6-.89,2.32h0c-.06.17-.13.32-.2.47-.43.95-.84,1.9-1.23,2.82-.52,1.25-.79,2.5-.79,3.73,0,.86.15,1.71.45,2.52.12.32.26.64.42.95.32.6.69,1.17,1.12,1.69.26.32.54.62.84.9.59.56,1.23,1.03,1.94,1.41.27.15.54.29.83.41,1.08.47,2.18.71,3.27.71,1.47,0,2.76-.37,3.86-1.12.09-.05.17-.11.25-.17.96-.72,1.74-1.64,2.33-2.72.53-.97.91-2.04,1.14-3.18.06-.28.11-.56.15-.83,1.32.76,3,1.14,5.02,1.14,1.22,0,2.32-.36,3.2-1.04.05.37.12.74.2,1.11.25,1.07.68,2.04,1.29,2.88.64.88,1.47,1.59,2.46,2.11.66.34,1.38.58,2.17.7.43.07.88.11,1.35.11s.97-.04,1.43-.11c.96-.14,1.87-.43,2.72-.87,1.21-.61,2.25-1.43,3.1-2.44.67-.79,1.22-1.68,1.63-2.65.11-.24.21-.49.3-.75.44-1.24.66-2.52.66-3.81,0-1.66-.32-3.24-.94-4.69ZM83.76,36.95c-.32.93-.78,1.74-1.38,2.45-.6.71-1.33,1.28-2.18,1.71-.84.43-1.77.65-2.79.65-.83,0-1.54-.16-2.13-.47-.58-.3-1.06-.71-1.43-1.22-.37-.51-.63-1.1-.78-1.78-.16-.68-.23-1.39-.23-2.12s.06-1.47.18-2.17c.12-.71.25-1.42.39-2.13.14-.71.26-1.42.37-2.13.11-.7.17-1.43.17-2.17,0-.37-.05-.87-.14-1.5-.1-.63-.25-1.25-.47-1.85-.21-.6-.49-1.12-.83-1.57-.34-.44-.75-.67-1.24-.67-.62,0-1.03.45-1.23,1.34-.2.9-.3,1.99-.3,3.28,0,1.14-.02,2.27-.05,3.38-.03,1.1-.13,2.1-.32,2.98-.18.87-.48,1.58-.88,2.12-.4.54-.98.81-1.75.81-2.16,0-3.67-.52-4.53-1.57-.86-1.05-1.29-2.4-1.29-4.07,0-.34.01-.91.04-1.71.03-.8.01-1.61-.07-2.42-.07-.82-.23-1.54-.46-2.17-.23-.63-.62-.95-1.18-.95-.34,0-.6.12-.8.37-.21.25-.36.54-.47.88-.11.34-.17.68-.2,1.04-.04.35-.05.65-.05.9,0,.8.06,1.59.18,2.38.13.78.26,1.56.4,2.33.14.77.27,1.55.39,2.33.12.79.18,1.58.18,2.38,0,.74-.08,1.53-.25,2.38s-.45,1.63-.83,2.33c-.39.71-.89,1.3-1.5,1.76-.62.46-1.39.69-2.31.69-.68,0-1.37-.15-2.08-.46-.71-.31-1.34-.72-1.9-1.25-.07-.07-.15-.14-.22-.22-.08-.08-.15-.16-.22-.24-.14-.16-.27-.32-.4-.5-.02-.03-.04-.06-.06-.09-.08-.1-.15-.21-.21-.31-.09-.14-.18-.29-.25-.44-.35-.68-.53-1.37-.53-2.08,0-.83.18-1.68.55-2.56.37-.88.77-1.8,1.21-2.75.25-.55.48-1.12.71-1.71h0c.17-.45.33-.89.49-1.36.37-1.1.55-2.27.55-3.54,0-1.54-.23-3-.69-4.39-.07-.21-.14-.42-.22-.63h0c-.04-.14-.09-.27-.14-.4-.06-.16-.12-.33-.18-.5-.02-.05-.04-.09-.06-.14-.08-.23-.17-.45-.26-.67-.11-.28-.22-.55-.34-.82-.11-.27-.23-.54-.35-.81-.05-.12-.11-.24-.16-.35-.09-.2-.18-.4-.27-.6-.02-.06-.05-.11-.08-.17-.02-.05-.05-.1-.08-.16v-.04c-.09-.21-.18-.42-.27-.62-.11-.27-.22-.53-.33-.79-.12-.29-.24-.58-.36-.87-.46-1.14-.69-2.22-.69-3.24,0-.15,0-.29.01-.43,0-.09,0-.18.02-.27.01-.1.02-.2.03-.29.02-.13.03-.26.06-.38,0-.02.01-.04.01-.06.06-.32.15-.62.26-.89.03-.09.07-.18.11-.26.05-.11.11-.22.17-.33.1-.17.21-.34.32-.49.12-.16.24-.3.37-.44.08-.1.17-.2.27-.27.12-.12.24-.23.36-.33.01-.01.02-.02.03-.03.14-.11.28-.22.43-.31.74-.48,1.58-.81,2.52-1.01.93-.2,1.9-.3,2.88-.3,2.13,0,3.75.3,4.85.9,1.11.6,1.91,1.34,2.41,2.24.49.89.79,1.87.9,2.93.1,1.06.21,2.04.32,2.93.11.9.32,1.64.65,2.24.32.61.96.91,1.92.91.18,0,.33-.03.46-.1.92-.37,1.62-.95,2.1-1.75.48-.8.87-1.68,1.18-2.64.3-.95.57-1.94.81-2.98.23-1.03.56-1.96.99-2.79s1-1.52,1.71-2.06c.71-.53,1.69-.8,2.96-.8.89,0,1.79.16,2.7.5.73.27,1.42.63,2.06,1.06.16.1.31.22.46.33.22.17.43.35.62.53.11.1.23.22.32.33t.02.02c.16.17.3.34.44.52,0,0,0,.01.01.01.08.12.17.23.25.36.03.03.06.07.08.11.05.06.09.13.13.2.47.8.71,1.68.71,2.63,0,.86-.22,1.63-.67,2.31-.29.45-.61.92-.95,1.41h0c-.18.25-.35.5-.53.76-.13.18-.26.38-.38.57-.06.1-.12.2-.18.3-.07.1-.13.21-.18.31-.12.2-.24.41-.35.63-.11.21-.22.43-.33.66-.02.03-.03.07-.05.1-.02.04-.03.07-.05.11-.04.09-.08.19-.12.28-.04.12-.09.24-.12.36-.09.26-.16.53-.21.82-.02.09-.04.18-.05.27,0,.01,0,.03-.01.04,0,.06-.01.12-.02.19-.03.19-.05.39-.06.59-.02.26-.03.54-.03.82,0,1.42.23,2.71.69,3.86.46,1.16.98,2.28,1.55,3.38.57,1.09,1.08,2.17,1.54,3.25.47,1.08.7,2.25.7,3.51,0,.96-.16,1.9-.49,2.82ZM48.96,15.95c-.02-.06-.05-.11-.08-.17-.02-.05-.05-.1-.08-.16.01.05.01.08.01.13,0,.16,0,.31-.01.46,0,.01,0,.03,0,.04,0,.01,0,.01,0,.02,0,.1-.01.19-.02.28h.46c-.09-.2-.18-.4-.27-.6Z"/>
        </g>
        <g>
          <path class="cls-1" d="M91.82,3.78h2.73c1.05,0,2.15.04,3.3.12,1.16.08,2.3.23,3.44.46,1.14.23,2.16.57,3.05,1.02.89.45,1.62,1.03,2.17,1.76.55.72.83,1.64.83,2.75,0,1.79-.17,3.16-.51,4.11-.34.96-.79,1.64-1.34,2.06-.56.42-1.18.65-1.87.69s-1.38.07-2.05.07c-.89,0-1.49.46-1.8,1.36-.31.91-.46,2.13-.46,3.67,0,1.29.07,2.5.21,3.63.14,1.12.29,2.23.46,3.33.17,1.09.32,2.21.46,3.35.14,1.14.21,2.36.21,3.65s-.07,2.39-.21,3.3c-.14.91-.39,1.66-.76,2.26-.37.6-.89,1.04-1.57,1.32-.68.28-1.56.42-2.63.42-1.36,0-2.46-.19-3.3-.58s-1.51-.96-1.99-1.71c-.48-.76-.8-1.69-.97-2.8-.17-1.11-.25-2.37-.25-3.79,0-2.03.16-4.09.48-6.17.32-2.08.48-4.15.48-6.21,0-.65,0-1.28-.02-1.89-.02-.62-.08-1.16-.19-1.62-.11-.46-.27-.84-.48-1.13-.22-.29-.54-.44-.97-.44-.34,0-.67,0-.99.02-.32.02-.65.02-.99.02-1.48,0-2.49-.38-3.05-1.15-.56-.77-.83-1.8-.83-3.1,0-1.85.13-3.35.39-4.5.26-1.15.74-2.05,1.43-2.68.69-.63,1.65-1.05,2.86-1.27,1.22-.21,2.8-.32,4.74-.32Z"/>
          <path class="cls-3" d="M108.9,5.31c-.84-1.09-1.92-1.97-3.21-2.62-1.13-.56-2.41-.99-3.8-1.27-1.26-.26-2.55-.43-3.84-.52-1.21-.08-2.39-.12-3.5-.12h-2.73c-2.13,0-3.85.12-5.25.37-1.3.23-2.44.66-3.4,1.27-.35.22-.67.47-.97.74-.45.41-.84.88-1.18,1.4-.52.81-.91,1.76-1.15,2.83-.32,1.39-.47,3.08-.47,5.17,0,1.52.29,2.86.88,3.99.03.07.07.14.11.21.12.23.26.44.41.65.41.58,1.05,1.21,2.03,1.69.86.42,1.99.71,3.45.71.21,0,.41,0,.62-.01,0,.07.01.15.01.23,0,.58.02,1.19.02,1.81,0,1.9-.15,3.84-.45,5.76-.09.56-.17,1.12-.23,1.69h0c-.2,1.66-.29,3.31-.29,4.94s.09,2.98.29,4.24c.01.07.02.15.04.22.24,1.42.69,2.67,1.36,3.72.57.9,1.3,1.65,2.19,2.24.34.22.7.43,1.09.6,1.25.57,2.74.85,4.54.85,1.49,0,2.73-.21,3.78-.65,1.25-.51,2.28-1.38,2.98-2.51.58-.95.98-2.09,1.18-3.39.16-1.06.24-2.29.24-3.75s-.08-2.77-.23-4.02c-.14-1.13-.3-2.29-.48-3.44-.16-1.05-.31-2.13-.45-3.23-.12-1-.18-2.1-.18-3.27,0-.93.06-1.59.14-2.04.46-.02.92-.04,1.38-.07,1.28-.08,2.44-.52,3.47-1.28,1.03-.78,1.83-1.94,2.37-3.46.45-1.29.68-2.96.68-5.11,0-1.78-.49-3.32-1.45-4.57ZM106.84,13.99c-.34.96-.79,1.64-1.34,2.06-.56.41-1.18.64-1.87.69-.7.05-1.38.07-2.06.07-.89,0-1.49.45-1.8,1.36-.31.91-.46,2.13-.46,3.67,0,1.3.07,2.51.21,3.63.13,1.13.29,2.23.46,3.33.17,1.09.32,2.21.46,3.35.14,1.14.21,2.35.21,3.65s-.07,2.39-.21,3.3c-.14.91-.39,1.66-.76,2.26s-.9,1.04-1.57,1.32c-.68.28-1.56.42-2.64.42-.18,0-.36,0-.54-.01-.15,0-.29-.02-.43-.03-.41-.03-.8-.09-1.15-.17-.13-.02-.25-.05-.37-.09-.1-.02-.2-.05-.3-.09-.12-.04-.24-.08-.36-.13-.05-.02-.1-.04-.15-.06-.85-.39-1.51-.96-1.99-1.71-.47-.76-.8-1.69-.97-2.8-.17-1.11-.25-2.37-.25-3.78,0-2.04.16-4.09.48-6.17.33-2.08.49-4.15.49-6.22,0-.64-.01-1.27-.02-1.89-.02-.62-.08-1.15-.19-1.62-.11-.46-.27-.84-.48-1.13-.22-.29-.54-.44-.97-.44-.34,0-.67,0-1,.03-.32.01-.65.02-.99.02s-.67-.02-.97-.07c-.29-.04-.55-.1-.79-.19h-.03c-.17-.06-.33-.13-.47-.21-.23-.12-.42-.27-.58-.44-.08-.08-.15-.16-.21-.25-.08-.12-.16-.24-.22-.37-.06-.08-.1-.16-.13-.24-.06-.12-.11-.24-.15-.37-.03-.08-.06-.15-.07-.23-.05-.12-.08-.24-.1-.37-.02-.06-.03-.11-.04-.17-.03-.18-.06-.37-.08-.57h0c-.02-.13-.03-.25-.03-.37-.01-.13-.01-.26-.01-.4,0-1.85.13-3.35.39-4.51.05-.21.1-.41.17-.6.02-.07.04-.14.07-.21.05-.17.12-.32.19-.47.06-.14.13-.27.21-.4.05-.08.1-.16.15-.24.05-.07.09-.14.15-.21.15-.2.31-.38.49-.55.33-.3.72-.55,1.16-.75.12-.06.25-.11.39-.16.13-.05.27-.1.41-.14.14-.04.29-.08.44-.12.15-.04.31-.07.47-.1,1.21-.21,2.79-.32,4.73-.32h2.73c1.05,0,2.15.04,3.3.12,1.16.07,2.3.23,3.44.46,1.14.23,2.16.57,3.05,1.01.9.45,1.62,1.04,2.18,1.76.55.72.83,1.64.83,2.75,0,1.79-.17,3.16-.51,4.11Z"/>
        </g>
      </g>
    </g>
  </g>
</svg>